<svg width="200" height="169" fill="none" xmlns="http://www.w3.org/2000/svg"><path d="M192.091 121.209c-6.013 42.759-62.801 62.801-124.266 34.073S-15.687 71.102 13.04 38.365C35.756 12.31 84.527 9.637 125.949 29.012c41.422 18.706 71.487 57.456 66.142 92.197z" fill="#300551"/><path d="M198.771 105.843c-6.013 42.758-62.801 62.801-124.266 34.073C13.04 111.856-9.009 55.736 19.72 22.999 42.436-3.057 91.207-5.729 132.629 13.646c41.422 19.374 71.487 58.124 66.142 92.197z" fill="#300551"/><path d="M127.95 24.335c16.034 7.35 30.064 18.039 39.418 30.733 10.021 13.362 14.03 28.06 11.357 41.422-3.34 14.698-14.03 25.388-31.4 30.732-18.707 5.345-41.422 2.673-63.47-7.349-22.047-10.021-38.75-26.056-46.766-43.426-7.35-16.703-6.013-32.069 2.672-43.427 8.017-10.69 22.047-17.37 38.75-18.038 16.034-2.004 33.405 2.004 49.439 9.353zm4.677-10.021C91.205-4.393 42.433-2.39 19.718 23.667c-28.06 32.737-6.68 88.189 54.784 116.917 61.465 28.06 118.253 8.017 124.266-34.073 5.345-34.74-24.719-73.49-66.141-92.197z" fill="#700994"/><mask id="mask0_118_1981" style="mask-type:luminance" maskUnits="userSpaceOnUse" x="35" y="16" width="142" height="111"><path d="M175.381 95.154c-6.681 29.396-47.435 42.09-90.861 22.047-43.427-20.043-60.13-58.793-42.09-82.844 15.366-20.711 52.111-23.384 84.18-8.685 32.737 14.698 54.784 44.094 48.771 69.482z" fill="#fff"/></mask><g mask="url(#mask0_118_1981)"><path d="M97.227 71.102l.668.668 1.336.668 2.004 4.009-3.34 8.017.668 1.336-2.004 4.677.668 2.004h.668" stroke="#972EFF" stroke-width=".195" stroke-miterlimit="10"/><path d="M96.559 71.102l.668-.668c0 .668 0 .668-.668.668zm.666 22.048c.668 0 .668 0 0 0l.668-.669c0-.668-.668 0-.668.668z" fill="#2EA8FF"/><path d="M97.887 69.098v.668l2.672 1.336v1.336l2.673 4.009-4.01 8.017.669 1.336-2.004 4.009.668 1.336" stroke="#972EFF" stroke-width=".195" stroke-miterlimit="10"/><path d="M97.223 69.766c0-.668 0-.668 0 0l.668-.668c.668 0 0 .668-.668.668zm1.337 21.379c.668 0 .668 0 .668-.668 0 0-.668 0-.668.668-.668 0-.668-.668 0 0z" fill="#2EA8FF"/><path d="M99.227 71.77l2.672 4.677-3.34 8.017.668 1.336-2.004 4.009.668 2.004 1.336.668" stroke="#972EFF" stroke-width=".195" stroke-miterlimit="10"/><path d="M99.228 71.77c-.668-.668-.668 0 0 0l.668-.668c0 .668 0 .668-.668.668zm.002 20.711l.669-.668c-.668 0-.668 0-.668.668z" fill="#2EA8FF"/><path d="M98.55 73.774l1.336 2.005-3.34 8.017 1.335 1.336-2.672 5.345 2.004 3.34 2.005.668" stroke="#972EFF" stroke-width=".195" stroke-miterlimit="10"/><path d="M98.549 73.774l.668-.668c0 .668 0 .668-.668.668 0 .668 0 .668 0 0zm.666 21.379l.668-.668c-.668-.668-.668 0-.668.668z" fill="#2EA8FF"/><path d="M97.883 75.11l.669 2.005-2.673 6.013 1.336 2.004-2.672 5.345 2.004 4.008 4.009 2.005.668-.668.668-.668" stroke="#972EFF" stroke-width=".195" stroke-miterlimit="10"/><path d="M97.219 75.11l.668-.668c.668.669 0 1.337-.668.669.668.668 0 .668 0 0zm4.672 20.712c0-.668 0-.668 0 0l-.668-.668c0 .668 0 .668.668.668z" fill="#2EA8FF"/><path d="M95.882 72.438l-.668 1.336 2.004 2.673-3.34 6.013.668 1.336-3.34 6.68 1.335 1.337" stroke="#972EFF" stroke-width=".195" stroke-miterlimit="10"/><path d="M95.21 72.438c.669 0 .67 0 .67.668l-.67-.668zm-3.339 19.375c0 .668.668.668 0 0 .668 0 .668 0 .668-.668l-.668.668z" fill="#2EA8FF"/><path d="M92.54 81.792l.668 2.004-3.34 6.68 2.004 3.341 2.004 1.337 1.336 1.336-.668.668" stroke="#972EFF" stroke-width=".195" stroke-miterlimit="10"/><path d="M92.537 82.46c-.668-.668 0-.668 0 0l.668-.668s0 .668-.668.668zm2.012 14.03c-.668.668 0 .668 0 0l.668.668s0-.668-.668-.668z" fill="#2EA8FF"/><path d="M91.877 123.882l12.026-28.728-.668-1.337-1.337-.668-2.672-4.008 1.336-3.34-.668-1.337 4.009-8.017-2.005-3.34v-.669" stroke="#972EFF" stroke-width=".195" stroke-miterlimit="10"/><path d="M102.564 72.438l-.668-.668c-.668.668-.668.668.668.668-.668.668-.668 0 0 0z" fill="#2EA8FF"/><path d="M92.547 124.55l12.694-28.728-1.336-2.005-1.337-.668-2.004-4.008 1.336-3.34-.668-1.337 3.341-7.35-2.005-3.34.668-1.336-.668-1.336" stroke="#972EFF" stroke-width=".195" stroke-miterlimit="10"/><path d="M103.236 71.102c-.668 0-.668 0-.668.668l.668-.668z" fill="#2EA8FF"/><path d="M93.88 125.218l12.027-29.397-1.337-2.672-1.336-.668-1.336-2.004.668-.668" stroke="#972EFF" stroke-width=".195" stroke-miterlimit="10"/><path d="M102.563 90.477c0-.668 0-.668 0 0l-.668-.668s0 .668.668.668z" fill="#2EA8FF"/><path d="M94.543 125.218l12.694-29.396-2.004-3.34-1.337-.669-.668-.668 1.336-2.672-.668-1.336" stroke="#972EFF" stroke-width=".195" stroke-miterlimit="10"/><path d="M104.565 87.136c-.669-.668-.669-.668 0 0-.669 0-.669 0-.669.669l.669-.669z" fill="#2EA8FF"/><path d="M95.209 125.886l12.694-30.064-1.336-3.34v-2.005" stroke="#972EFF" stroke-width=".195" stroke-miterlimit="10"/><path d="M106.567 90.477c-.669 0-.669 0-.669.668 0 0 .669 0 .669-.668z" fill="#2EA8FF"/><path d="M96.559 126.554l12.693-30.732-2.004-2.673 1.336-2.004-1.336-2.004" stroke="#972EFF" stroke-width=".195" stroke-miterlimit="10"/><path d="M107.25 88.473c-.668 0-.668 0-.668.668 0 0 .668 0 .668-.668.668.668.668.668 0 0z" fill="#2EA8FF"/><path d="M97.223 126.554l12.694-30.732-1.337-2.673.668-.668" stroke="#972EFF" stroke-width=".195" stroke-miterlimit="10"/><path d="M109.242 92.481c0-.668.668 0 0 0l-.668-.668c0 .668 0 .668.668.668z" fill="#2EA8FF"/><path d="M98.55 127.222l12.695-31.4-1.337-1.337 1.337-2.672-1.337-1.336" stroke="#972EFF" stroke-width=".195" stroke-miterlimit="10"/><path d="M110.572 89.809c-.668 0-.668 0-.668.668l.668-.668c0 .668 0 .668 0 0z" fill="#2EA8FF"/><path d="M99.234 127.89l12.694-32.068-.668-1.337.668-3.34-6.013-10.021 1.337-2.673-2.005-3.34.668-1.337-.668-1.336" stroke="#972EFF" stroke-width=".195" stroke-miterlimit="10"/><path d="M105.252 72.438c0-.668 0-.668 0 0-.668 0-.668 0-.668.668 0 0 .668 0 .668-.668z" fill="#2EA8FF"/><path d="M100.557 127.89l12.694-32.068-1.337-1.337 1.337-3.34-6.013-10.021 1.336-2.673" stroke="#972EFF" stroke-width=".195" stroke-miterlimit="10"/><path d="M108.57 78.451c0-.668.669 0 0 0l-.668-.668c0 .668 0 .668.668.668z" fill="#2EA8FF"/><path d="M101.229 128.558l12.693-32.068-.668-2.005.668-2.672-5.344-10.021 1.336-3.34-.668-1.337-1.337-.668-1.336-2.005.668-.668" stroke="#972EFF" stroke-width=".195" stroke-miterlimit="10"/><path d="M107.906 73.774l-.668-.668c-.668.668-.668.668.668.668-.668 0-.668 0 0 0z" fill="#2EA8FF"/><path d="M101.893 128.558l13.362-32.068-1.337-2.005 1.337-3.34-4.009-6.681.668-2.672-1.336-2.673.668-1.336" stroke="#972EFF" stroke-width=".195" stroke-miterlimit="10"/><path d="M111.921 77.783l-.668-.668c-.668.668 0 .668.668.668z" fill="#2EA8FF"/><path d="M117.928 84.464l-.668 2.004.668 1.337 5.345 2.672 3.34 4.677-.668.668 4.677 8.017-1.336 4.677-5.345 1.336-6.013 18.038 2.004 3.341" stroke="#972EFF" stroke-width=".195" stroke-miterlimit="10"/><path d="M117.26 84.464h.668c0 .668 0 .668-.668 0z" fill="#2EA8FF"/><path d="M120.6 85.8l-.668 1.336v.669l4.009 2.004 3.34 5.345v1.336l4.677 7.349-2.005 5.345-4.676 1.336-6.681 18.038 2.004 3.341" stroke="#972EFF" stroke-width=".195" stroke-miterlimit="10"/><path d="M119.928 85.8c0-.668.668-.668 0 0h.668c0 .668 0 .668-.668 0z" fill="#2EA8FF"/><path d="M128.619 96.49l4.008 7.349-2.004 6.013-4.677 1.336-5.344 16.034 1.336 2.673" stroke="#972EFF" stroke-width=".195" stroke-miterlimit="10"/><path d="M127.947 96.49l.668-.668c0 .668 0 .668-.668.668.668.668 0 .668 0 0z" fill="#2EA8FF"/><path d="M121.275 97.826l1.336 2.004-10.021 25.388 2.672 4.677" stroke="#972EFF" stroke-width=".195" stroke-miterlimit="10"/><path d="M120.604 97.826l.668-.668c.668.668.668.668-.668.668.668 0 .668 0 0 0z" fill="#2EA8FF"/><path d="M118.597 91.145l1.336 2.004-.668 2.673 2.004 4.676-9.353 24.72 1.336 2.672-.668 2.005" stroke="#972EFF" stroke-width=".195" stroke-miterlimit="10"/><path d="M118.596 91.813c0-.668 0-.668 0 0l.668-.668s0 .668-.668.668z" fill="#2EA8FF"/><path d="M117.267 92.481l1.336 2.005-.668 1.336 2.672 4.008-9.353 24.72 1.336 3.34-2.004 4.677" stroke="#972EFF" stroke-width=".195" stroke-miterlimit="10"/><path d="M116.602 92.481l.668-.668c0 .668 0 1.336-.668.668.668.668 0 .668 0 0z" fill="#2EA8FF"/><path d="M112.578 75.11h1.336l2.005.669 3.34 5.345 4.009 2.004 14.03 22.715-4.009 12.026.668 1.336" stroke="#972EFF" stroke-width=".195" stroke-miterlimit="10"/><path d="M112.583 75.779c-.668-.668-.668-.668 0-.668v.668zm20.718 43.426c.668 0 .668 0 .668-.668l-.668.668z" fill="#2EA8FF"/><path d="M130.626 73.775l-.668-1.337-3.341-1.336-.668-1.336-2.672-1.336-2.005.668v1.336H118.6l-2.004 5.345 3.34 5.345 4.009 2.004 14.03 22.715-3.341 10.69 1.337 1.336-2.673 8.685 3.341 6.013-.668 3.341" stroke="#972EFF" stroke-width=".195" stroke-miterlimit="10"/><path d="M130.625 73.775c.668 0 .668 0 0 0l-.668.668c0-.668 0-.668.668-.668 0-.669 0-.669 0 0z" fill="#2EA8FF"/><path d="M122.604 71.77H120.6l-2.004 5.345 2.004 3.34 4.677 2.005 14.03 23.383-3.341 10.69.668 2.004-2.672 8.017 3.34 6.013 4.677 2.004 4.009 6.013" stroke="#972EFF" stroke-width=".195" stroke-miterlimit="10"/><path d="M122.6 71.102c.668.668.668.668 0 .668v-.668z" fill="#2EA8FF"/><path d="M124.614 72.438l-2.672.668-2.004 4.009 1.336 3.34 4.676 2.005 14.03 23.383-3.34 10.69 1.336 2.004-2.672 8.017 3.34 5.345 4.677 2.004 4.677 7.349" stroke="#972EFF" stroke-width=".195" stroke-miterlimit="10"/><path d="M123.943 71.77c.668 0 .668 0 0 0 .668.668.668.668 0 .668v-.668z" fill="#2EA8FF"/><path d="M145.332 107.179l1.336.668 1.336 2.005-1.336 5.345 1.336 2.672 7.349 3.34 2.673 4.009-1.336 4.677 2.672 4.008 22.047 10.022 6.013 10.021 5.345 2.004 2.004 3.341-.668 3.34" stroke="#972EFF" stroke-width=".195" stroke-miterlimit="10"/><path d="M145.328 107.847c0-.668 0-.668.668-.668l-.668.668z" fill="#2EA8FF"/><path d="M144.654 109.184l.669 1.336-1.337 4.677 6.681 10.021-.668 2.004 1.336 2.005 3.341 1.336 2.672 4.008-.668 2.673 1.336 2.004 8.018 4.009 3.34-1.336 13.362 6.012 4.677 7.349-.668 4.009" stroke="#972EFF" stroke-width=".195" stroke-miterlimit="10"/><path d="M144.645 109.184c-.669 0 0-.668 0 0l.668-.668c0 .668 0 .668-.668.668z" fill="#2EA8FF"/><path d="M125.279 79.787l1.337 2.005 2.004 1.336 10.689 16.702 2.673 1.337 2.004 2.004-7.349 23.383 2.672 4.677 4.677 2.672 5.345 8.686" stroke="#972EFF" stroke-width=".195" stroke-miterlimit="10"/><path d="M124.615 79.787l.668-.668c.668.668.668.668-.668.668.668.668.668.668 0 0z" fill="#2EA8FF"/><path d="M125.271 75.11h1.337l6.013 2.673.668.668-.668 1.336.668.668 2.004 1.337 3.34-.669 21.38 9.354.668 1.336v1.336" stroke="#972EFF" stroke-width=".195" stroke-miterlimit="10"/><path d="M125.276 75.779c-.668-.668-.668 0 0 0-.668-.668-.668-.668 0-.668v.668zm34.745 16.702c0 .668.669.668 0 0 .669.668.669.668.669 0h-.669c.669 0 .669 0 0 0z" fill="#2EA8FF"/><path d="M126.613 76.447l2.005.668 2.672 4.009 4.677 2.004 3.34-.668 16.034 6.68 2.673 5.346 3.34 1.336 7.349-2.005 2.673 1.337" stroke="#972EFF" stroke-width=".195" stroke-miterlimit="10"/><path d="M126.609 76.447c0-.668 0-.668.669-.668 0 0 0 .668-.669.668zm44.098 19.375c.668 0 .668 0 0 0l.668-.668c0-.668-.668-.668-.668.668z" fill="#2EA8FF"/><path d="M126.619 77.115l2.004.668 2.005 3.34 5.345 2.673 3.34-.668 15.366 6.68 3.341 4.677 4.008 2.005 6.681-1.337 2.005 1.337" stroke="#972EFF" stroke-width=".195" stroke-miterlimit="10"/><path d="M125.953 77.783c0-.668 0-.668 0 0 0-.668 0-.668.668-.668l-.668.668c.668 0 .668 0 0 0zm44.758 18.707c0 .668.668 0 0 0l.668-.668c-.668 0-.668 0-.668.668z" fill="#2EA8FF"/><path d="M125.943 78.451l1.337 2.673 5.344 2.672 2.005 3.34 11.357 4.677h1.336" stroke="#972EFF" stroke-width=".195" stroke-miterlimit="10"/><path d="M125.279 79.12c0-.669 0-.669 0 0l.668-.669s0 .668-.668.668zm22.049 13.361c.668-.668.668-.668 0 0v-.668c0-.668-.668 0 0 .668z" fill="#2EA8FF"/><path d="M135.293 85.132l1.336 2.004 8.685 4.009 4.009-.668" stroke="#972EFF" stroke-width=".195" stroke-miterlimit="10"/><path d="M134.629 85.132l.668-.668c.668.668 0 .668-.668.668.668.668 0 .668 0 0zm14.696 5.345v-.668c-.668 0-.668 0 0 .668-.668 0-.668 0 0 0z" fill="#2EA8FF"/><path d="M168.707 97.158l-4.009.668-1.336 6.681-2.672.668-1.336 4.009 8.685 13.362-1.336 3.34 2.004 3.34 28.06 12.694" stroke="#972EFF" stroke-width=".195" stroke-miterlimit="10"/><path d="M168.711 96.49c.668 0 .668 0 0 0 .668.668.668.668 0 .668v-.668z" fill="#2EA8FF"/><path d="M170.045 97.158l-4.677 1.336-1.336 6.681-2.673.668-.668 3.341 8.018 12.693-.669 4.009 2.005 2.672 27.392 12.694" stroke="#972EFF" stroke-width=".195" stroke-miterlimit="10"/><path d="M170.049 97.158c.668.668.668.668 0 .668v-.668z" fill="#2EA8FF"/><path d="M172.715 97.826l-6.681 1.336-1.336 6.681-2.672.668-.669 2.673 8.686 12.693-.668 3.341 1.336 3.34 26.724 12.026" stroke="#972EFF" stroke-width=".195" stroke-miterlimit="10"/><path d="M172.719 97.158c.668.668.668.668 0 .668 0 .668-.668 0 0-.668z" fill="#2EA8FF"/><path d="M174.055 98.494l-6.681 1.336-2.004 6.681-2.673.668v1.337l8.017 12.693-.668 4.009 2.005 2.672 25.387 12.026" stroke="#972EFF" stroke-width=".195" stroke-miterlimit="10"/><path d="M174.056 97.826c.668.668.668.668 0 .668 0 0-.668 0 0-.668-.668 0-.668 0 0 0z" fill="#2EA8FF"/><path d="M166.037 112.524l6.013 8.685-.668 4.009 1.336 2.672 24.72 11.358" stroke="#972EFF" stroke-width=".195" stroke-miterlimit="10"/><path d="M166.037 113.192c0-.668 0-.668 0 0 0-.668.668-.668.668-.668s0 .668-.668.668z" fill="#2EA8FF"/><path d="M169.375 115.865l3.34 4.676-.668 4.009 2.005 2.672 23.383 10.69" stroke="#972EFF" stroke-width=".195" stroke-miterlimit="10"/><path d="M169.375 115.865c0-.668.668-.668.668-.668 0 .668 0 .668-.668.668z" fill="#2EA8FF"/><path d="M91.208 67.094l-3.34-2.005-4.009.668-8.017 14.03 1.336 2.005-3.34 5.344 5.345 10.022" stroke="#972EFF" stroke-width=".195" stroke-miterlimit="10"/><path d="M91.207 66.425c0 .669 0 .669-.668.669l.668-.668zM78.51 97.158c.668 0 .668 0 .668-.668l-.668.668z" fill="#2EA8FF"/><path d="M125.953 67.093l2.672 3.34 4.009 2.005 8.685-2.004 16.703 8.017 4.677 6.681-.669 2.672" stroke="#972EFF" stroke-width=".195" stroke-miterlimit="10"/><path d="M125.953 67.093l.668-.668c0 .668 0 .668-.668.668.668.668 0 .668 0 0zm35.416 20.043c0 .669 0 .669 0 0 .668.669.668.669.668 0h-.668z" fill="#2EA8FF"/><path d="M135.961 73.106l6.013-1.336 15.366 7.35 4.009 6.012-.668 2.004" stroke="#972EFF" stroke-width=".195" stroke-miterlimit="10"/><path d="M135.966 73.775c-.668 0-.668 0 0 0-.668-.669-.668-.669 0-.669v.669zm24.057 12.694c0 .668 0 .668 0 0 .669.668.669.668.669 0h-.669z" fill="#2EA8FF"/><path d="M92.54 48.387L81.183 50.39l-2.673 5.345h-2.672L73.166 54.4l-5.345.668-2.004 4.008-16.703 2.005-10.021 15.366-24.72 4.008" stroke="#972EFF" stroke-width=".195" stroke-miterlimit="10"/><path d="M92.533 48.387c.668 0 .668 0 0 0 .668.668.668.668 0 .668v-.668z" fill="#2EA8FF"/><path d="M95.215 47.719l-14.03 2.004-3.34 5.345h-2.673L72.5 53.73l-5.345.669-2.004 3.34-16.703 2.672L38.427 75.11l-26.056 4.008" stroke="#972EFF" stroke-width=".195" stroke-miterlimit="10"/><path d="M94.553 47.05c.668 0 .668 0 0 0 .668.669.668.669 0 .669v-.669z" fill="#2EA8FF"/><path d="M73.172 91.813l-4.009-2.004-5.344-10.022 2.672-4.008-3.34-6.013 2.672-4.677 14.698-2.004 1.336-2.005 4.009-.668" stroke="#972EFF" stroke-width=".195" stroke-miterlimit="10"/><path d="M73.84 91.145c0 .668 0 .668-.668.668l.668-.668c-.668 0-.668 0 0 0zm12.025-30.733c.668 0 .668 0 0 0v-.668s-.668 0 0 .668z" fill="#2EA8FF"/><path d="M77.166 61.08l-12.693 2.005-2.673 4.677-10.021 1.336-9.354 14.03-4.676.668-3.34 6.013" stroke="#972EFF" stroke-width=".195" stroke-miterlimit="10"/><path d="M77.17 61.08c.668-.667.668 0 0 0 .668.669.668.669 0 .669v-.668z" fill="#2EA8FF"/><path d="M59.802 69.766l-8.686 1.336L43.1 83.796l-4.676.668-3.341 5.345" stroke="#972EFF" stroke-width=".195" stroke-miterlimit="10"/><path d="M59.797 69.098c.668 0 .668 0 0 0 .668.668.668.668 0 .668v-.668z" fill="#2EA8FF"/><path d="M57.147 71.77l-6.013.668-7.35 12.026-4.676.668-3.34 5.345" stroke="#972EFF" stroke-width=".195" stroke-miterlimit="10"/><path d="M56.477 71.102c.668 0 .668.668 0 0 .668.668.668.668 0 .668v-.668z" fill="#2EA8FF"/><path d="M61.143 72.438l-.668.668-10.021 2.005-6.681 10.021-4.009.668-3.34 4.677" stroke="#972EFF" stroke-width=".195" stroke-miterlimit="10"/><path d="M60.473 72.438c.668-.668.668-.668 0 0 .668 0 .668 0 .668.668l-.668-.668z" fill="#2EA8FF"/><path d="M56.469 75.779l-2.673 3.34-6.013 1.337-3.34 5.344-4.009.668-3.34 4.677" stroke="#972EFF" stroke-width=".195" stroke-miterlimit="10"/><path d="M55.807 75.11c.668 0 .668 0 .668.669l-.668-.668c0 .668 0 .668 0 0z" fill="#2EA8FF"/><path d="M41.1 92.481l7.349-11.357 6.013-1.337 2.672-4.676 5.345-.669" stroke="#972EFF" stroke-width=".195" stroke-miterlimit="10"/><path d="M62.486 75.11c0-.667.669-.667 0 0v-.667c0-.668-.668 0 0 .668z" fill="#2EA8FF"/><path d="M88.531 69.098h-4.008l-5.345 11.357.668 1.337-3.34 6.013 4.008 6.68 6.013 2.673.668 2.004-1.336 4.009-15.366 3.34-2.673 5.345" stroke="#972EFF" stroke-width=".195" stroke-miterlimit="10"/><path d="M87.863 68.43c.668 0 .668 0 0 0 .668.668.668.668 0 .668v-.668z" fill="#2EA8FF"/><path d="M85.858 67.761h-2.005l-6.012 12.026.668 2.005-2.673 5.344 4.009 8.686 4.677 2.004.667.668-1.336 2.672-16.702 3.341-2.672 5.345" stroke="#972EFF" stroke-width=".195" stroke-miterlimit="10"/><path d="M85.859 67.093c.668.668.668.668 0 .668-.669.669-.669 0 0-.668-.669.668-.669 0 0 0z" fill="#2EA8FF"/><path d="M53.12 87.805l4.676-.669 3.34-6.012" stroke="#972EFF" stroke-width=".195" stroke-miterlimit="10"/><path d="M53.126 88.473c-.668-.668-.668-.668 0-.668s.668 0 0 .668c.668 0 .668-.668 0 0zm8.688-7.35l-.668-.668c-.668.669 0 .668.668.668 0 .668-.668.668 0 0z" fill="#2EA8FF"/><path d="M62.474 83.128l-4.01 7.349" stroke="#972EFF" stroke-width=".195" stroke-miterlimit="10"/><path d="M62.48 83.128c0-.668 0-.668 0 0 .669 0 .669 0 .669.668 0 0-.669 0-.669-.668zm-4.01 6.681c-.668.668-.668.668 0 0l.668.668s0-.668-.668-.668z" fill="#2EA8FF"/><path d="M63.813 83.796l-4.008 7.349" stroke="#972EFF" stroke-width=".195" stroke-miterlimit="10"/><path d="M63.147 83.796c.668 0 .668 0 0 0 .668 0 .668 0 .668.668l-.668-.668zM59.8 90.477c-.667 0 0 .668 0 0l.669.668c0-.668 0-.668-.668-.668z" fill="#2EA8FF"/><path d="M109.244 59.745L77.176 64.42 67.154 82.46l2.673 5.345 2.672 1.336" stroke="#972EFF" stroke-width=".195" stroke-miterlimit="10"/><path d="M109.246 59.076c.668.669.668.669 0 .669 0 0-.668 0 0-.669zM71.826 89.14c.668.669.668.669 0 0l.668-.667s-.668 0-.668.668z" fill="#2EA8FF"/><path d="M80.516 65.757h-1.337L71.83 79.12l.669 2.005-2.005 4.008v1.336" stroke="#972EFF" stroke-width=".195" stroke-miterlimit="10"/><path d="M80.512 65.09c.668.667.668.667 0 .667v-.668zM70.494 86.468c0 .668 0 .668 0 0 .668 0 .668 0 .668-.668 0 0-.668 0-.668.668z" fill="#2EA8FF"/><path d="M65.811 88.473l-2.672.668-1.336 2.672" stroke="#972EFF" stroke-width=".195" stroke-miterlimit="10"/><path d="M65.814 87.805c.668.668.668.668 0 .668 0 .668-.668.668 0-.668-.668.668-.668 0 0 0zm-4.677 3.34c0 .668 0 .668 0 0l.668.668c.668 0 0-.668-.668-.668z" fill="#2EA8FF"/><path d="M75.18 94.486l-8.017-4.01-2.005.669-1.336 1.336" stroke="#972EFF" stroke-width=".195" stroke-miterlimit="10"/><path d="M75.178 93.817c.668 0 .668.669 0 0 0 .669 0 .669-.668.669.668 0 0 0 .668-.669zm-11.354-1.336l.668.668c0-.668 0-.668-.668-.668z" fill="#2EA8FF"/><path d="M74.5 93.15l-8.017-4.01-2.672.669-.668 2.004" stroke="#972EFF" stroke-width=".195" stroke-miterlimit="10"/><path d="M75.176 92.481c0 .668 0 .668-.668.668l.668-.668c-.668 0-.668 0 0 0zm-12.699-.668l.668.668c0-.668 0-.668-.668-.668z" fill="#2EA8FF"/><path d="M75.838 95.822l-8.685-4.009h-1.336l-.669 1.336" stroke="#972EFF" stroke-width=".195" stroke-miterlimit="10"/><path d="M75.838 95.154c.668 0 .668 0 0 0 0 .668 0 .668-.668.668.668 0 0 0 .668-.668zM65.153 93.15c-.668 0-.668.667 0 0l.669.667c0-.668 0-.668-.669-.668 0-.668 0-.668 0 0z" fill="#2EA8FF"/><path d="M129.943 74.442l7.349 3.341 3.341-.668" stroke="#972EFF" stroke-width=".195" stroke-miterlimit="10"/><path d="M129.948 75.11c-.668 0-.668 0 0 0 0-.668 0-.668.668-.668l-.668.669z" fill="#2EA8FF"/><path d="M135.961 79.787l4.009-.668" stroke="#972EFF" stroke-width=".195" stroke-miterlimit="10"/><path d="M135.966 80.455c-.668-.668-.668-.668 0-.668v.668zm4.67-.668c0-.668 0-.668 0 0v-.668c-.668-.668-.668 0 0 .668-.668 0-.668-.668 0 0z" fill="#2EA8FF"/><path d="M141.314 75.11l-5.345.669-2.004-.668" stroke="#972EFF" stroke-width=".195" stroke-miterlimit="10"/><path d="M141.322 74.442c.668.669.668.669 0 .669v-.669zm-7.353 0l-.668.669c.668.668.668.668.668-.669 0 .669 0 .669 0 0z" fill="#2EA8FF"/><path d="M153.324 79.787l2.004 1.336 2.673 3.34-.668 2.005.668 1.336 10.689 5.345 8.018-2.004.668-2.004-1.336-2.005 4.676-20.71-2.004-2.005 3.34-11.358" stroke="#972EFF" stroke-width=".195" stroke-miterlimit="10"/><path d="M153.327 80.455c-.668-.668-.668 0 0 0 0-.668 0-.668.668-.668-.668 0 0 0-.668.668z" fill="#2EA8FF"/><path d="M153.324 79.787l2.004 1.336 2.673 3.34-.668 2.005.668 1.336 10.689 5.345 8.018-2.004.668-2.004-1.336-2.005 4.676-20.71-2.004-2.005 3.34-11.358" stroke="#972EFF" stroke-width=".195" stroke-miterlimit="10"/><path d="M153.327 80.455c-.668-.668-.668 0 0 0 0-.668 0-.668.668-.668-.668 0 0 0-.668.668z" fill="#2EA8FF"/><path d="M153.346 80.455l2.004.668 2.004 2.673-.668 2.672 1.336 2.004 10.69 5.345 8.685-2.004.668-2.672-1.336-1.337 4.677-20.71-2.004-2.005 2.672-12.026" stroke="#972EFF" stroke-width=".195" stroke-miterlimit="10"/><path d="M152.682 81.124c0-.669 0-.669 0 0 0-.669 0-.669.668-.669 0-.668 0 0-.668.669.668 0 .668 0 0 0z" fill="#2EA8FF"/><path d="M182.74 53.063l-2.672 12.026 2.004 2.004-4.677 20.711 1.337 1.337-.668 2.672-3.341.668v2.004l-2.004.668" stroke="#972EFF" stroke-width=".195" stroke-miterlimit="10"/><path d="M172.719 94.486v.668c.668 0 .668 0 0-.668.668 0 .668 0 0 0z" fill="#2EA8FF"/><path d="M183.402 53.731L180.73 65.09l2.004 2.673-4.677 20.043 1.336 2.004-.668 2.672-2.672.668-.668 3.34.668 2.005v.668l1.336 1.336.668.668 1.336 1.337" stroke="#972EFF" stroke-width=".195" stroke-miterlimit="10"/><path d="M184.078 53.731l-2.673 12.026 1.337 2.004-4.009 20.712.668 1.336v3.34h-2.672l-.668 4.009 1.336 2.004m-2.013-31.4l-1.337 4.008-6.013 1.336-7.349-3.34-8.017 1.336-11.357-5.345-10.022 2.005" stroke="#972EFF" stroke-width=".195" stroke-miterlimit="10"/><path d="M174.715 67.762h.668c0 .668 0 .668-.668 0zm-43.419-.668c-.668 0-.668.668 0 0z" fill="#2EA8FF"/><path d="M141.973 65.757l10.689 4.677 8.017-1.336 7.349 3.34 5.345-1.336.668-4.008" stroke="#972EFF" stroke-width=".195" stroke-miterlimit="10"/><path d="M141.973 65.757c0-.668 0-.668.668-.668l-.668.668zm32.742 2.005c0-.668 0-.668 0 0-.668-.668-.668-.668-.668 0h.668z" fill="#2EA8FF"/><path d="M172.043 67.094l-.669 4.008-3.34.668-8.017-4.008L152 69.098l-8.018-3.34" stroke="#972EFF" stroke-width=".195" stroke-miterlimit="10"/><path d="M171.385 67.094c.668-.669.668-.669 0 0h.668c.668 0 0 .668-.668 0zm-27.398-2.004c-.668.667-.668.667 0 .667v-.668z" fill="#2EA8FF"/><path d="M161.356 62.417l-4.677-2.005-7.349 1.337-1.336 4.008" stroke="#972EFF" stroke-width=".195" stroke-miterlimit="10"/><path d="M161.358 61.749c.668.668.668.668 0 0 0 .668 0 .668-.669.668l.669-.668zM147.33 65.09c0 .667 0 .667 0 0 .668.667.668.667.668 0 0 .667 0 0-.668 0z" fill="#2EA8FF"/><path d="M160.69 63.753l-4.009-1.336-5.345.668-1.336 3.34" stroke="#972EFF" stroke-width=".195" stroke-miterlimit="10"/><path d="M161.356 63.753c0 .668 0 .668-.668.668 0 0-.001-.668.668-.668-.669 0-.669 0 0 0zm-11.358 2.672c-.668 0 0 .669 0 0 .668.669.668.669.668 0h-.668z" fill="#2EA8FF"/><path d="M143.982 70.434l13.362 6.013 6.013-1.337 12.694 5.345" stroke="#972EFF" stroke-width=".195" stroke-miterlimit="10"/><path d="M143.987 70.434c-.668 0-.668 0 0 0 0-.668 0-.668.668-.668-.668 0 0 .668-.668.668zm31.406 10.689c.668 0 .668 0 0 0l.668-.668s-.668 0-.668.668z" fill="#2EA8FF"/><path d="M161.364 43.71l-2.673 7.35-18.038 3.34-4.677-2.673-7.349 1.336" stroke="#972EFF" stroke-width=".195" stroke-miterlimit="10"/><path d="M128.623 52.395c-.668.668 0 .668 0 .668.668.668.668 0 0-.668.668 0 .668 0 0 0z" fill="#2EA8FF"/><path d="M162.7 43.71l-2.673 8.685-19.374 2.673-4.009-2.005-7.349 1.337" stroke="#972EFF" stroke-width=".195" stroke-miterlimit="10"/><path d="M129.295 53.731v.669c.668 0 .668 0 0-.669.668 0 .668 0 0 0z" fill="#2EA8FF"/><path d="M138.643 59.076l-7.349-3.34-6.013.668-17.371-8.017" stroke="#972EFF" stroke-width=".195" stroke-miterlimit="10"/><path d="M138.643 58.408c.668.668.668.668 0 0 0 .668 0 .668-.668.668l.668-.668zm-30.729-10.021l-.668.668c.668 0 .668 0 .668-.668z" fill="#2EA8FF"/><path d="M137.961 60.413l-6.681-2.673-7.349.668-14.699-6.68" stroke="#972EFF" stroke-width=".195" stroke-miterlimit="10"/><path d="M138.633 60.412c0 .669 0 .669-.668.669 0 0 0-.669.668-.669-.668 0-.668-.668 0 0zm-29.4-9.353l-.669.668c.669.668.669.668.669-.668z" fill="#2EA8FF"/><path d="M135.97 61.08l-10.69 2.005-14.03-6.681" stroke="#972EFF" stroke-width=".195" stroke-miterlimit="10"/><path d="M135.297 61.08c.668 0 .668 0 0 0 .668.669.668.669 0 .669v-.668zm-24.043-4.676l-.668.668c.668 0 .668 0 .668-.668.668 0 .668 0 0 0z" fill="#2EA8FF"/><path d="M160.014 43.042l-2.672 7.349-17.371 2.672-4.677-2.004-6.681.668" stroke="#972EFF" stroke-width=".195" stroke-miterlimit="10"/><path d="M128.62 51.727c-.668 0-.668 0 0 0-.668.668 0 .668 0 .668v-.668z" fill="#2EA8FF"/><path d="M86.533 8.969l4.677 7.35-.668 2.003L97.89 29.68l-2.673 4.009 3.34 4.676 4.01 2.005 2.004 4.008" stroke="#972EFF" stroke-width=".195" stroke-miterlimit="10"/><path d="M104.566 44.378c0 .668 0 .668 0 0 .669 0 .668 0 .668-.668 0 0-.668 0-.668.668z" fill="#2EA8FF"/><path d="M87.865 9.637l4.677 6.681-1.336 2.004 7.349 11.358-2.005 4.008 2.005 4.01 6.681 2.672 3.34 5.344" stroke="#972EFF" stroke-width=".195" stroke-miterlimit="10"/><path d="M107.91 46.382c.668 0 .668 0 0 0 .668 0 .668 0 .668-.668l-.668.668z" fill="#2EA8FF"/><path d="M89.205 10.305l4.009 6.013-.668 1.336 7.349 12.026-2.673 4.008 2.673 3.341 6.681 3.34h1.336l18.038 8.018" stroke="#972EFF" stroke-width=".195" stroke-miterlimit="10"/><path d="M125.287 48.387c.668 0 .668.668 0 0l.668-.668s-.668 0-.668.668z" fill="#2EA8FF"/><path d="M90.541 10.973l4.009 5.345-1.337 1.336 7.349 11.358-2.004 4.008 2.004 3.341 4.009 2.004" stroke="#972EFF" stroke-width=".195" stroke-miterlimit="10"/><path d="M104.575 39.033l.668-.668c-.668 0-.668 0-.668.668-.668 0-.668-.668 0 0z" fill="#2EA8FF"/><path d="M92.547 11.641l2.672 4.677-.668 1.336 7.349 11.358-2.672 4.008 2.004 3.341 22.047 10.022" stroke="#972EFF" stroke-width=".195" stroke-miterlimit="10"/><path d="M123.275 46.383c0 .668.669 0 0 0l.669-.669c-.669 0-.669 0-.669.669z" fill="#2EA8FF"/><path d="M93.88 12.31l2.005 4.008-.668 1.336 7.349 11.358-2.004 4.009 1.336 2.004 10.021 4.677 4.677-.669 13.362 6.681 1.336 2.005" stroke="#972EFF" stroke-width=".195" stroke-miterlimit="10"/><path d="M131.291 47.719c.668 0 .668 0 .668-.668 0 0-.668 0-.668.668z" fill="#2EA8FF"/><path d="M95.209 12.977l2.004 3.34-.668 1.337 7.349 11.358 11.358 5.344h3.34l4.677 2.005" stroke="#972EFF" stroke-width=".195" stroke-miterlimit="10"/><path d="M123.264 37.029l.668-.668c-.668-.668-.668-.668-.668.668z" fill="#2EA8FF"/><path d="M96.559 13.646l1.336 2.672-.668 1.336 7.349 11.358 10.689 4.676 2.673-.668 6.013 2.673" stroke="#972EFF" stroke-width=".195" stroke-miterlimit="10"/><path d="M123.954 36.36l.668-.667c-.668-.668-1.336 0-.668.668-.668 0-.668-.668 0 0z" fill="#2EA8FF"/><path d="M97.887 14.314l1.336 2.004-.668 1.336 6.681 11.358 9.353 4.008 3.341-.668 6.013 2.673" stroke="#972EFF" stroke-width=".195" stroke-miterlimit="10"/><path d="M123.941 35.693l.669-.668c-.669 0-.669 0-.669.668z" fill="#2EA8FF"/><path d="M99.234 14.982l.669.668-.669 2.004 7.349 10.69 4.677 2.672 4.677-.668 11.357 5.345 8.018 11.358" stroke="#972EFF" stroke-width=".195" stroke-miterlimit="10"/><path d="M134.65 47.05c0 .669.668.669 0 0 .668 0 .668 0 .668-.667l-.668.668z" fill="#2EA8FF"/><path d="M122.6 65.757l-.669 1.337-2.672.668-.668.668-6.013 1.336" stroke="#972EFF" stroke-width=".195" stroke-miterlimit="10"/><path d="M122.607 65.09c.669 0 .669 0 .669.667 0 0-.669 0-.669-.668 0 .668-.668.668 0 0zm-10.024 4.008c-.668 0-.668.668 0 0z" fill="#2EA8FF"/><path d="M120.605 64.421v.668l-2.673.668-.668.668-3.34.668" stroke="#972EFF" stroke-width=".195" stroke-miterlimit="10"/><path d="M120.604 64.421c.668 0 .668 0 .668.668 0 0-.668 0-.668-.668z" fill="#2EA8FF"/><path d="M143.985 35.693l-.668 2.672-3.34.668-1.336 2.673 2.004 2.672" stroke="#972EFF" stroke-width=".195" stroke-miterlimit="10"/><path d="M139.973 44.378c.668.668.668.668 0 0 .668 0 .668 0 .668-.668l-.668.668z" fill="#2EA8FF"/><path d="M145.325 36.36l-.668 2.673-3.34.668-1.337 2.673 2.673 2.672" stroke="#972EFF" stroke-width=".195" stroke-miterlimit="10"/><path d="M141.99 45.714c.668 0 .668 0 0 0 .668 0 .668 0 .668-.668l-.668.668z" fill="#2EA8FF"/><path d="M73.831 31.016h-.668l-.668.668-4.677.668-10.021-4.676H56.46l-6.013-2.673h-2.005" stroke="#972EFF" stroke-width=".195" stroke-miterlimit="10"/><path d="M73.836 30.348c.668 0 .668 0 0 0 .668.668 0 .668 0 .668v-.668zm-25.388-5.345c-.668 0-.668.668 0 0 0 .668.669.668.669.668 0-.668 0-.668-.669-.668z" fill="#2EA8FF"/><path d="M76.509 31.684h-1.336l-.669 1.337h-6.012L58.47 28.344l-1.336.668-5.345-2.672h-.668" stroke="#972EFF" stroke-width=".195" stroke-miterlimit="10"/><path d="M75.838 31.016c.668 0 .668.668 0 0 .668.668 0 .668 0 .668v-.668zm-24.721-5.344c-.668.668 0 .668 0 .668.668.668.668 0 0-.668z" fill="#2EA8FF"/><path d="M73.823 32.352l-5.345.669-10.021-4.677H57.12l-6.013-2.672h-1.336l-.669.668" stroke="#972EFF" stroke-width=".195" stroke-miterlimit="10"/><path d="M73.823 31.684c.668.668 0 .668 0 .668s-.668 0 0-.668c-.668 0-.668 0 0 0zM48.435 26.34c0 .668.669.668.669.668.668-.668.668-.668-.669-.668.669-.668.669-.668 0 0z" fill="#2EA8FF"/><path d="M71.165 31.016l-2.672.668-10.022-4.676h-2.004l-6.013-2.673-3.34.668-.669.668" stroke="#972EFF" stroke-width=".195" stroke-miterlimit="10"/><path d="M71.167 31.016c.668.668 0 .668 0 .668-.668 0-.668 0 0-.668-.668 0-.668 0 0 0zm-25.386-5.344c0 .668.668.668.668.668s.668-.668-.668-.668c.668 0 .668 0 0 0z" fill="#2EA8FF"/><path d="M69.153 30.348H67.15l-8.017-4.009-2.673.669-6.013-3.341-4.676.668-1.336 2.004.668.669h.668" stroke="#972EFF" stroke-width=".195" stroke-miterlimit="10"/><path d="M69.153 29.68c.668.668 0 .668 0 .668-.668 0-.668 0 0-.668-.668 0-.668 0 0 0zM45.77 27.676l.669-.668c-.668 0-1.337 0-.668.668-.669 0-.669-.668 0 0z" fill="#2EA8FF"/><path d="M71.842 29.68l-1.336-.668h-3.34l-8.017-3.34h-.669l-8.017-4.01-2.004.669" stroke="#972EFF" stroke-width=".195" stroke-miterlimit="10"/><path d="M71.848 29.012c.668 0 .668.668 0 0 0 .668 0 .668-.668.668.668 0 0 0 .668-.668zm-23.389-7.349c-.668.668 0 .668 0 .668.668 0 .668 0 0-.668.668 0 .668 0 0 0z" fill="#2EA8FF"/><path d="M59.8 25.003h-1.336l-8.685-4.008-3.34.668-1.337.668h-1.336l-2.672-.668" stroke="#972EFF" stroke-width=".195" stroke-miterlimit="10"/><path d="M59.803 24.335c.668.668 0 .668 0 .668v-.668zm-18.707-3.34l-.668.668c.668 0 1.336 0 .668-.668.668.668.668 0 0 0z" fill="#2EA8FF"/><path d="M21.055 17.654l24.72 11.358h2.004l.668-1.336 4.008-.668 4.677 2.004h1.336l10.022 4.677 4.008-.669 1.336.669" stroke="#972EFF" stroke-width=".195" stroke-miterlimit="10"/><path d="M73.172 34.357c.668 0 .668 0 0 0l.668-.668c0-.669-.668 0-.668.668z" fill="#2EA8FF"/><path d="M21.055 17.654l24.72 12.026 2.004-.668.668-.668 4.676-.668 4.009 2.004h1.336l10.022 4.677 3.34-.668 1.336 1.336 1.337-.668" stroke="#972EFF" stroke-width=".195" stroke-miterlimit="10"/><path d="M75.175 35.025c.668-.668 0-.668 0-.668-.668 0-.668 0 0 .668-.668 0-.668 0 0 0z" fill="#2EA8FF"/><path d="M20.38 18.322l25.39 12.026 2.672-.668.668-.668h3.341" stroke="#972EFF" stroke-width=".195" stroke-miterlimit="10"/><path d="M51.775 29.68c.669 0 .669 0 0 0l.669-.668c-.669-.668-.669 0-.669.668z" fill="#2EA8FF"/><path d="M19.725 18.99L45.78 31.017l3.34-.668.669-.668h.668l3.34 1.336h2.005" stroke="#972EFF" stroke-width=".195" stroke-miterlimit="10"/><path d="M55.796 31.016c.668-.668 0-.668 0-.668-.668 0-.668.668 0 .668-.668.669-.668 0 0 0z" fill="#2EA8FF"/><path d="M18.385 20.327L45.777 33.02h2.004l3.34 1.337h2.005" stroke="#972EFF" stroke-width=".195" stroke-miterlimit="10"/><path d="M53.126 35.025c.668-.668 0-.668 0-.668-.668-.669-.668 0 0 .668-.668 0-.668-.668 0 0z" fill="#2EA8FF"/><path d="M17.715 20.995l28.728 13.362 2.004-.669 3.34 2.005 11.358-1.336 3.341 1.336 4.009-.668 2.004 1.336 1.336-.668" stroke="#972EFF" stroke-width=".195" stroke-miterlimit="10"/><path d="M73.836 36.361c.668-.668 0-.668 0-.668s-.668 0 0 .668z" fill="#2EA8FF"/><path d="M17.715 21.663l28.728 13.362 2.004-.668 3.34 2.004 12.027-1.336 3.34 1.336" stroke="#972EFF" stroke-width=".195" stroke-miterlimit="10"/><path d="M67.152 37.03l.668-.669c-.668 0-.668 0-.668.668z" fill="#2EA8FF"/><path d="M17.049 22.331l29.396 12.694h2.004l3.34 2.004 11.359-1.336 4.676 2.004h1.337v-1.336h2.004l2.004.668" stroke="#972EFF" stroke-width=".195" stroke-miterlimit="10"/><path d="M72.508 37.697c.668 0 .668 0 0 0l.668-.668c0-.668-.668 0-.668.668z" fill="#2EA8FF"/><path d="M16.383 22.331l30.064 13.362h2.005l4.008 2.004 7.35-1.336 4.008 2.004 2.672-.668 4.677 2.005" stroke="#972EFF" stroke-width=".195" stroke-miterlimit="10"/><path d="M70.496 40.37c.668 0 .668 0 0 0l.668-.668s-.668 0-.668.668z" fill="#2EA8FF"/><path d="M61.137 41.706l-2.673-1.336h-1.336l-2.004 3.34-6.013.668-1.336-.668-8.686 1.336-6.012-2.672-1.337-4.009-20.71-9.353" stroke="#972EFF" stroke-width=".195" stroke-miterlimit="10"/><path d="M61.14 41.038c.669 0 .669.668 0 0 0 .668 0 .668-.667.668l.668-.668z" fill="#2EA8FF"/><path d="M60.474 43.042l-2.672-.668h-.668l-1.336 2.004-6.681.668H47.78l-8.686.668-6.68-2.672-2.005-4.009-20.043-9.353" stroke="#972EFF" stroke-width=".195" stroke-miterlimit="10"/><path d="M60.477 43.042c0 .668 0 .668-.668.668 0 0 0-.668.668-.668-.668 0-.668-.668 0 0z" fill="#2EA8FF"/><path d="M47.789 45.714l-8.686 1.337-7.349-4.01-2.004-4.008-18.039-8.017-2.672.668" stroke="#972EFF" stroke-width=".195" stroke-miterlimit="10"/><path d="M47.791 45.046c.668.668.668.668 0 .668 0 .669-.668 0 0-.668z" fill="#2EA8FF"/><path d="M45.782 40.37h-2.673L13.045 26.34" stroke="#972EFF" stroke-width=".195" stroke-miterlimit="10"/><path d="M45.778 39.701c.669.669.669.668 0 .668-.668 0-.668 0 0-.668-.668 0-.668 0 0 0z" fill="#2EA8FF"/><path d="M52.459 40.37h-2.005l-3.34-1.337-4.677.668L13.71 26.34" stroke="#972EFF" stroke-width=".195" stroke-miterlimit="10"/><path d="M52.463 39.701c.668 0 .668 0 0 0 .668.668.668.668 0 .668v-.668z" fill="#2EA8FF"/><path d="M51.123 38.365l-2.673.668-1.336-.668-4.677.668L13.71 25.672" stroke="#972EFF" stroke-width=".195" stroke-miterlimit="10"/><path d="M51.124 38.365c.668.668.668.668 0 .668 0 0-.668 0 0-.668-.668 0-.668 0 0 0z" fill="#2EA8FF"/><path d="M81.186 39.702l.669.668-.669 1.336L65.82 43.71l-2.004 2.672-26.056 3.341-12.026-6.013v-1.336" stroke="#972EFF" stroke-width=".195" stroke-miterlimit="10"/><path d="M81.191 39.702l.668-.669c0 .669 0 .669-.668.669z" fill="#2EA8FF"/><path d="M83.187 43.042l-16.703 2.004-2.004 2.673-26.724 3.34-13.362-6.013H22.39L12.368 40.37l-6.013.668-2.672 3.34-6.681.668" stroke="#972EFF" stroke-width=".195" stroke-miterlimit="10"/><path d="M83.183 42.374c.668.668.668.668 0 .668 0 0-.668 0 0-.668-.668 0-.668 0 0 0z" fill="#2EA8FF"/><path d="M83.193 43.71l-16.035 2.004-1.336 2.673-28.06 3.34L24.4 45.714l-2.004.669-10.022-4.677-5.345.668-2.672 2.672-8.017.668" stroke="#972EFF" stroke-width=".195" stroke-miterlimit="10"/><path d="M83.191 43.042c.668 0 .668.668 0 0 .668.668.668.668 0 .668v-.668z" fill="#2EA8FF"/><path d="M36.426 55.736l-.668.668h-2.004l-6.681-2.673h-4.009l-3.34 4.677-4.677.668-5.345-2.004-4.677.668-10.69 13.362" stroke="#972EFF" stroke-width=".195" stroke-miterlimit="10"/><path d="M35.754 55.068c.668 0 .668 0 .668.668s0 0-.668-.668c0 .668 0 .668 0 0z" fill="#2EA8FF"/><path d="M72.497 48.387l-6.68.668-.669 1.336-19.374 2.672-2.005 2.005-2.672.668-28.728-13.362-5.345.668-2.004 2.672-10.022 1.337" stroke="#972EFF" stroke-width=".195" stroke-miterlimit="10"/><path d="M72.492 47.719c.668 0 .668 0 0 0 .668.668.668.668 0 .668v-.668z" fill="#2EA8FF"/><path d="M78.515 27.008l.668-1.336-2.004-2.673-18.039-8.017h-1.336l-6.681-2.672-10.021.668" stroke="#972EFF" stroke-width=".195" stroke-miterlimit="10"/><path d="M79.178 27.008c-.668 0-.668 0 0 0-.668 0-.668 0-.668-.668l.668.668z" fill="#2EA8FF"/><path d="M82.522 23l-2.004-1.337-6.013-9.354-5.344-2.672-6.681.668-4.01-2.004-10.02.668-1.337 2.004" stroke="#972EFF" stroke-width=".195" stroke-miterlimit="10"/><path d="M83.195 22.331c0 .668 0 .668 0 0 0 .668 0 .668-.668.668l.668-.668c-.668 0-.668 0 0 0z" fill="#2EA8FF"/><path d="M81.847 20.327l-5.345-8.018-5.344-2.672-3.341-6.013-16.034-7.349-2.005-2.672-5.344-2.673" stroke="#972EFF" stroke-width=".195" stroke-miterlimit="10"/><path d="M81.848 20.327l-.668.668c0-.668 0-.668.668-.668 0-.668 0-.668 0 0z" fill="#2EA8FF"/><path d="M74.502 25.671L73.166 23l-13.362-6.013H57.8l-6.68-3.34-7.35.668-2.004 2.672-2.005.668-4.008-2.004-4.677-9.354" stroke="#972EFF" stroke-width=".195" stroke-miterlimit="10"/><path d="M75.17 25.003l-.668.668s0-.668.668-.668z" fill="#2EA8FF"/><path d="M75.844 24.335L75.176 23 59.81 16.32h-1.336l-7.35-3.341-8.685.668-1.336 2.004h-1.336l-2.004-.668L32.418 4.96" stroke="#972EFF" stroke-width=".195" stroke-miterlimit="10"/><path d="M75.846 23.667c0 .668 0 .668 0 0l-.668.668s0-.668.668-.668z" fill="#2EA8FF"/><path d="M80.512 24.335L77.84 19.66 55.123 8.969l-5.345.668-.668 1.336" stroke="#972EFF" stroke-width=".195" stroke-miterlimit="10"/><path d="M80.525 23.667c.669.668.669.668 0 0l-.668.668s0-.668.668-.668z" fill="#2EA8FF"/><path d="M77.18 20.995l-.667-.668-16.703-7.35h-1.336l-5.345-2.672h-1.336" stroke="#972EFF" stroke-width=".195" stroke-miterlimit="10"/><path d="M77.18 20.995l-.668.668c0-.668 0-.668.668-.668z" fill="#2EA8FF"/><path d="M79.172 33.02l5.345 2.005 1.336 2.672 4.008 2.005" stroke="#972EFF" stroke-width=".195" stroke-miterlimit="10"/><path d="M78.506 33.02c0-.668 0-.668.668-.668 0 0 0 .669-.668.669.668 0 .668 0 0 0zm11.364 7.35l.667-.669c-.668-.668-.668-.668-.668.669 0-.669-.668-.669 0 0z" fill="#2EA8FF"/><path d="M77.85 34.357l5.344 2.004L85.2 39.7l4.008 2.005" stroke="#972EFF" stroke-width=".195" stroke-miterlimit="10"/><path d="M77.85 34.357c0-.669 0-.669.668-.669l-.668.669c.668 0 .668 0 0 0zm10.685 7.349c.668 0 .668.668 0 0l.668-.668s-.668 0-.668.668z" fill="#2EA8FF"/><path d="M77.174 35.693l4.676 2.004 2.005 3.34 4.008 2.005" stroke="#972EFF" stroke-width=".195" stroke-miterlimit="10"/><path d="M77.17 35.693c0-.668 0-.668.668-.668 0 0 0 .668-.668.668zm10.693 8.017c.668 0 .668 0 0 0l.668-.668c-.668-.668-.668-.668-.668.668 0-.668 0-.668 0 0z" fill="#2EA8FF"/><path d="M78.516 10.305l2.004 2.672 2.004.669h2.673l1.336.668 9.353 14.03-2.672 4.676 4.677 8.018" stroke="#972EFF" stroke-width=".195" stroke-miterlimit="10"/><path d="M97.227 41.038c0 .668.668.668 0 0 .668 0 .668 0 .668-.668l-.668.668z" fill="#2EA8FF"/><path d="M85.188 14.982l8.685 13.362L91.2 33.02l4.009 6.681" stroke="#972EFF" stroke-width=".195" stroke-miterlimit="10"/><path d="M94.545 39.702c0 .668.668.668 0 0 .668 0 .668 0 .668-.669l-.668.669z" fill="#2EA8FF"/><path d="M83.86 15.65l7.348 12.026-2.004 4.008" stroke="#972EFF" stroke-width=".195" stroke-miterlimit="10"/><path d="M88.53 31.684l.667.668c.668-.668 0-.668-.668-.668.668-.668 0-.668 0 0z" fill="#2EA8FF"/><path d="M110.58 54.4l14.03 6.013 6.681-.669" stroke="#972EFF" stroke-width=".195" stroke-miterlimit="10"/><path d="M109.914 54.4c0-.669 0-.669.668-.669 0 0 0 .669-.668.669.668 0 .668 0 0 0z" fill="#2EA8FF"/><path d="M107.236 41.706l3.341 5.345" stroke="#972EFF" stroke-width=".195" stroke-miterlimit="10"/><path d="M106.572 41.706l.668-.668c0 .668 0 .668-.668.668zm3.338 5.344c.668 0 .668 0 .668-.668l-.668.668z" fill="#2EA8FF"/><path d="M108.564 42.374l3.341 5.345" stroke="#972EFF" stroke-width=".195" stroke-miterlimit="10"/><path d="M108.564 42.374l.669-.668c0 .668 0 .668-.669.668 0 .668 0 .668 0 0zm3.34 5.345c0 .668.668.668 0 0 .668 0 .668 0 .668-.669 0 0-.668 0-.668.669z" fill="#2EA8FF"/><path d="M110.58 43.042l3.341 5.345" stroke="#972EFF" stroke-width=".195" stroke-miterlimit="10"/><path d="M109.914 43.042l.668-.668c.668.668.668.668-.668.668.668.668.668.668 0 0zm4.013 6.013c.668 0 .668 0 .668-.668 0 0-.668-.668-.668.668-.668-.668-.668-.668 0 0z" fill="#2EA8FF"/><path d="M112.58 43.71l3.341 6.013" stroke="#972EFF" stroke-width=".195" stroke-miterlimit="10"/><path d="M111.916 44.378c0-.668 0-.668 0 0l.668-.668s0 .668-.668.668zm3.34 5.345c.668 0 .668 0 .668-.668l-.668.668z" fill="#2EA8FF"/><path d="M113.916 45.046l4.009 5.345" stroke="#972EFF" stroke-width=".195" stroke-miterlimit="10"/><path d="M113.916 45.046l.668-.668c0 .668 0 .668-.668.668zm3.342 5.345c.668 0 .668 0 .668-.668l-.668.668z" fill="#2EA8FF"/><path d="M115.92 45.714l3.34 5.345" stroke="#972EFF" stroke-width=".195" stroke-miterlimit="10"/><path d="M115.256 45.714l.668-.668c.668.668.668.668-.668.668.668.669.668 0 0 0zm4.004 5.346c0 .667 0 .667 0 0 .668 0 .668 0 .668-.669 0 0-.668 0-.668.668z" fill="#2EA8FF"/><path d="M175.388 102.503l-2.672-2.005-3.341 1.337-2.004 6.68 12.694 18.707 18.039 8.686" stroke="#972EFF" stroke-width=".586" stroke-miterlimit="10"/><path d="M194.098 58.408l1.336 2.005-8.685 47.435-4.009 1.336-4.008-2.005-1.337.669v1.336l-2.004.668-1.336-.668-1.336-1.336.668-2.005" stroke="#972EFF" stroke-width=".195" stroke-miterlimit="10"/><path d="M173.387 106.511c0-.668.668-.668 0 0-.668-.668-.668-.668-.668 0h.668z" fill="#2EA8FF"/><path d="M113.924 72.438h-2.673L101.23 68.43l-1.336-2.005-2.673-1.336-2.672.668-6.013 12.694h-2.672l-3.34 6.68 6.68 12.695 4.009 2.004 1.336 2.672-1.336 3.341-16.035 3.34-3.34 7.35" stroke="#972EFF" stroke-width=".586" stroke-miterlimit="10"/><path d="M99.894 69.098l-.668-1.337-1.337-.668-2.004.668-6.013 11.358 1.336 2.004-4.676 8.018 4.676 8.017 4.009 2.004 2.004 4.009-5.345 12.694-5.344 1.336-2.673 5.345m52.77-30.733l3.34 2.004 8.018 12.694 6.012 2.672 8.018 12.026-1.337 3.341 5.345 8.017 30.065 14.03m-58.783-56.788l7.349 3.34 6.681 10.022M44.44 93.817l4.676-7.349 6.681-1.336 4.677-8.017M18.38 81.791l22.716-3.34 8.017-12.694 10.022-1.336 1.336-2.004 10.69-2.005.668-1.336 4.008-.668 1.337.668 5.344-.668 2.673-4.677 6.68-1.336m39.42 17.371l11.358-2.005 10.689 4.677 7.349-1.336 7.349 3.34 8.018-1.336.668-4.676m-.673-18.04l-2.673 10.69-4.676 1.337-14.699-7.35-10.689 2.005-2.004 6.013-14.03 2.672-22.048-10.021-19.374 2.672" stroke="#972EFF" stroke-width=".586" stroke-miterlimit="10"/><path d="M145.984 65.089l1.337-4.677 8.685-1.336 14.03 6.013 6.013-.668 2.672-12.694m-26.057-12.026l-4.009 10.022-8.685 1.336-5.345-2.004-11.357 2.004M25.06 12.977l14.699 6.681 4.008-.668 1.336-2.004h4.677l38.082 17.37m-.667 10.69l-10.69 1.336-3.34 6.013-9.354.668-1.336 2.673-18.706 2.672-5.345 8.017-10.022 1.336-3.34 4.009-6.013 1.336L9.028 68.43 1.01 69.766l-2.672 3.34M23.05 15.65l20.044 9.353" stroke="#972EFF" stroke-width=".586" stroke-miterlimit="10"/><path d="M102.565 16.318l-1.336 1.336 6.012 9.354 4.677 2.004 4.677-.668 14.03 6.68 8.685 12.694m52.782 10.022l-5.345 24.052-2.004.668-.668 2.004 2.004 2.672-3.34 18.707-2.673.668-7.349-3.34-1.336.668-.668 3.34 2.672 4.009 2.673 1.336 4.008 5.345-.668 4.008 2.004 2.673 16.703 8.017" stroke="#972EFF" stroke-width=".586" stroke-miterlimit="10"/><path d="M61.807 19.659h-.668l-.668-.668s.668 0 1.336.668zm4.006 2.004h-.668l-.668-.668c.668 0 .668 0 1.336.668zm4.006 2.004h-.668L68.482 23c.668 0 1.337 0 1.337.668zm38.076 8.686h-.668c0-.669 0-.669.668 0zm2.007.667h-.668c0-.667 0-.667.668 0zm1.334.669c0 .668 0 .668 0 0h-.668.668zm2.008 1.336c-.668 0-.668 0-.668-.668s.668 0 .668.668c0-.668 0-.668 0 0zm-8.023-2.672c-.668 0-.668 0-.668-.669 0 0 .668 0 .668.669zm2.008.667c-.668 0-.668 0-.668-.668l.668.669zm4.007 2.005c-.668 0-.668 0-.668-.668s0 0 .668.668c0-.668 0-.668 0 0z" fill="#B02EFF"/><path d="M113.244 35.693c-.668 0-.668 0 0 0-.668 0-.668 0-.668-.668s0 0 .668.668zm-8.023-2.673c-.668 0-.668 0 0 0-.668 0-.668 0-.668-.668l.668.669zm1.342.669c0 .668 0 .668 0 0-.668 0-.668 0-.668-.668 0 .668.668.668.668.668zm1.998 1.336c-.668 0-.668 0-.668-.668 0 0 .668 0 .668.668zm2.007.668c-.668 0-.668 0-.668-.668l.668.668zM97.21 43.71c-.669 0-.669 0-.669-.668l.668.668c0-.668 0-.668 0 0zm2.007.668c-.668 0-.668 0-.668-.668l.668.668zm1.998.668c-.668.669 0 .669 0 0zm2.008 1.337c-.668 0-.668 0-.668-.669l.668.669zm-8.69-2.673c-.668 0-.668 0-.668-.668l.668.668zm2.008.668c-.668 0-.668 0-.668-.668l.668.668zm4.006 2.005c-.668 0-.668 0-.668-.669l.668.669zm2.01.667c-.668 0-.668 0-.668-.667l.668.668zm-8.69-2.672c-.668 0-.668 0-.668-.668 0 0 .668 0 .668.668zm2.008 1.337c-.668 0-.668 0-.668-.669 0 0 .668 0 .668.669 0-.669 0-.669 0 0zm1.998.668c-.668 0-.668 0-.668-.669 0 0 .668 0 .668.669zm2.01.667c-.668 0-.668 0-.668-.667 0 .668.668.668.668.668zm1.996 1.337c-.668 0-.668 0-.668-.668 0 0 .668 0 .668.668 0-.668 0-.668 0 0zm2.674-14.698c-.668.668 0 .668 0 0zm2.01 1.336c-.668 0-.668 0-.668-.668l.668.668zm1.998.668c-.668 0-.668 0 0 0-.668 0-.668 0-.668-.668l.668.668zm1.341.668c0 .668 0 .668 0 0-.668 0-.668 0-.668-.668 0 .668.668.668.668.668zm1.999 1.336c-.669 0-.669 0-.669-.668 0 0 .669 0 .669.668zm-8.012-2.672c-.668 0-.668 0-.668-.668l.668.668zm2.01.668c-.668 0-.669 0-.669-.668l.669.668zm1.996.668c-.668.668 0 .668 0 0zm2.007 1.336c-.668 0-.668 0-.668-.668l.668.668zm1.999.668c-.669 0-.669 0 0 0-.669 0-.669 0-.669-.668l.669.668z" fill="#B02EFF"/><path d="M121.926 27.008h-.668c-.668 0-.668-.668-.668-.668h.668s.668 0 .668.668zm2.674 1.336h-.668c-.668 0-.668-.668-.668-.668h.668s.668 0 .668.668zm2.674 1.336h-.668c-.669 0-.668-.668-.668-.668h.668c.668 0 .668 0 .668.668z" stroke="#972EFF" stroke-width=".195" stroke-miterlimit="10"/><path d="M129.95 31.016h-.669c-.668 0-.668-.668-.668-.668h.668c.669 0 .669 0 .669.668z" fill="#B02EFF"/><path d="M120.594 28.344h-.668c-.668 0-.668-.668-.668-.668h.668c.668 0 .668.668.668.668z" stroke="#972EFF" stroke-width=".195" stroke-miterlimit="10"/><path d="M123.268 29.68h-.668c-.668 0-.668-.668-.668-.668h.668c.668 0 1.336.668.668.668z" fill="#B02EFF"/><path d="M126.61 31.016h-.668c-.669 0-.669-.668-.669-.668h.669l.668.668zm2.675 1.336h-.668c-.668 0-.668-.668-.668-.668h.668c.668 0 .668.668.668.668z" stroke="#972EFF" stroke-width=".195" stroke-miterlimit="10"/><path d="M36.41 61.08h-.668s-.668-.667 0-.667l.668.668c0-.668 0-.668 0 0zm133.624-9.353l-4.009-1.336.668-2.672 4.009 2.004-.668 2.004zm-1.332 5.345l-4.009-2.004.668-2.673 4.009 2.005-.668 2.672zm-24.725 24.051l-1.336-.668 1.336-2.672 1.336.668-1.336 2.672zm3.342 1.337l-1.337-.668.669-2.673 1.336.668-.668 2.673zm2.673 1.336l-1.336-.668.668-2.673 1.337.668-.669 2.673zm2.674 1.336l-1.336-.668.668-2.672 1.336.668-.668 2.672zM65.15 100.498l-14.699-6.68 1.336-3.341 14.699 6.681-1.337 3.34zm94.185-1.336c0 .668-1.336 1.337-2.672.668-1.337-.668-2.005-2.004-2.005-2.672 0-.668 1.336-1.336 2.673-.668 1.336.668 2.672 2.004 2.004 2.672zm-1.332 6.013c0 .668-1.336 1.336-2.673.668-1.336-.668-2.004-2.004-2.004-2.672 0-.668 1.336-1.336 2.673-.668 1.336.668 2.672 2.004 2.004 2.672zM84.524 26.34h-.668l-.668-.668s.668 0 1.336.668c0-.668 0-.668 0 0zm4.007 2.004h-.668l-.668-.668c.668 0 .668-.668 1.337.668 0-.668 0-.668 0 0zm-6.015.668h-.668l-.668-.668c.668 0 .668 0 1.336.668.668-.668 0-.668 0 0zm4.672 2.004h-.668l-.668-.668s.668 0 1.336.668c0-.668 0-.668 0 0z" fill="#B02EFF"/><path d="M94.545 52.395l12.026-1.336" stroke="#972EFF" stroke-width=".195" stroke-miterlimit="10"/><path d="M94.548 53.063c-.668 0-.668 0 0 0-.668-.668-.668-.668 0-.668v.668zm12.033-2.003c.668-.669 0-.669 0-.669-.668 0-.668 0 0 .668-.668 0-.668 0 0 0z" fill="#B02EFF"/><path d="M103.232 64.421l12.026-2.004" stroke="#972EFF" stroke-width=".195" stroke-miterlimit="10"/><path d="M103.903 64.421c-.668 0-.668 0 0 0-.668-.668-.668-.668 0-.668v.668z" fill="#B02EFF"/></g><path d="M138.64 76.447c2.672-.668 5.345-2.673 6.013-5.345l.668-1.336c2.004-6.681-3.34-16.035-12.026-20.043l-1.336-.668 3.341-7.35-.668-1.335-14.031 5.344-4.676-2.004 4.008-8.017-.668-1.336-13.362 5.344-22.047-3.34.668 2.004 11.358 5.345-16.703 30.064-18.706.668.668 2.005L81.184 85.8l-6.681 9.353.668 2.005 12.026 5.345 5.344-11.358 6.013 2.672-6.013 9.354.669 2.004 12.025 5.345 4.677-12.026 6.013 2.672c12.026 5.345 24.051 2.673 26.724-6.013l.668-1.336c2.672-6.013.668-12.025-4.677-17.37zm-18.707-12.694l-11.357-5.345 4.676-9.353L124.61 54.4c2.004.668 3.341 2.004 4.677 3.34.668 1.336 1.336 2.672.668 4.009-2.004 3.34-6.013 4.008-10.022 2.004zm-15.366 3.34l14.03 6.681c2.673 1.337 4.677 3.34 6.013 5.345 1.336 2.005 2.004 4.677.668 6.681-1.336 4.009-7.349 5.345-13.362 2.672l-14.698-6.68 7.349-14.699z" fill="#300551"/><path d="M137.972 74.442c2.672-.668 5.345-2.672 6.013-5.344l.668-1.337c2.004-6.012-3.341-14.698-12.694-18.706l-1.336-.668 3.34-8.686-9.353-4.676-4.009 8.017-4.676-2.004 4.008-8.017-9.353-4.677-4.009 8.017-17.37-8.017-4.009 6.68L96.55 40.37 79.847 70.434l-12.025-4.677-7.35 7.35 20.044 9.353-6.013 11.357 12.694 5.345 5.344-11.358 6.013 2.673-5.344 11.358 12.025 5.344 4.677-12.025 6.013 2.672c12.026 5.345 24.051 2.672 26.724-6.013l.668-1.336c1.336-4.677-.668-10.69-5.345-16.035zm-18.707-12.025l-12.025-5.345 4.676-9.353 11.358 5.344c2.004.668 3.34 2.005 4.677 3.34.668 1.337 1.336 2.673.668 4.01-1.337 2.672-5.345 3.34-9.354 2.004zm-16.034 2.672l14.03 6.681c2.672 1.336 4.677 3.34 6.013 5.345 1.336 2.004 2.004 4.677.668 6.68-1.336 4.01-7.349 5.346-13.362 2.673l-14.698-6.68 7.349-14.699z" fill="#CC8CFF"/><path d="M131.286 17.654c18.707 8.686 34.741 21.38 46.099 36.078 12.026 16.034 17.371 33.404 14.698 48.771-2.672 17.37-15.366 31.4-36.077 38.081-22.715 7.349-50.107 4.677-77.5-8.017-26.723-12.026-46.766-32.069-56.12-53.448-8.685-20.043-6.012-38.75 5.345-52.111C37.753 14.314 54.455 7.633 74.498 6.297c18.039-1.337 38.082 2.672 56.788 11.357zm.668-2.672C91.869-3.725 44.434-1.052 22.386 24.335c-26.723 31.4-6.012 85.517 53.448 112.909 59.461 27.392 114.245 8.017 120.258-32.737 5.345-32.737-24.052-70.818-64.138-89.525z" fill="#4B0551"/><path d="M131.29 16.318c19.375 8.685 35.41 21.38 47.435 36.745 12.026 16.035 18.039 34.073 15.367 50.776-2.673 18.039-16.035 32.737-37.414 39.418-23.383 7.349-52.111 4.676-80.171-8.018-28.06-12.693-48.772-33.404-58.125-55.452-8.685-20.71-6.013-40.086 6.013-54.116 10.69-12.693 28.06-20.043 48.103-21.379 19.375-1.336 40.086 3.34 58.792 12.026zm1.337-2.004C91.205-4.393 42.433-2.39 19.718 23.667c-28.06 32.737-6.68 88.189 54.784 116.917 61.465 28.06 118.253 8.017 124.266-34.073 5.345-34.74-24.719-73.49-66.141-92.197z" fill="url(#paint0_linear_118_1981)"/><path d="M185.404 103.171c.668-1.336.668-2.673.668-3.34l5.345 2.004c0 1.336-.668 2.672-.668 4.008l-5.345-2.672zm-.666 2.004v-.668l5.345 2.672-.668.669-4.677-2.673zm-.664 2.004v-1.336l5.345 2.673-.668 1.336-4.677-2.673zm-4.685 8.686l.668-.669 4.676 3.341-.668 1.336-4.676-4.008zm-1.33 2.004l.668-1.336 4.676 4.008-.668.668-4.676-3.34zm5.337-9.353v-.668l5.345 3.34h-.668l-4.677-2.672zm-11.351 15.366l.668-.668 4.009 4.008v.668l-4.677-4.008zm-2.01 1.336l1.336-.668 4.009 4.009-.668 1.336-4.677-4.677zm-1.332 1.336l.668-.668 4.009 4.677-4.677-4.009zm12.031-12.694c.668-1.336 2.005-2.672 2.673-4.676l4.676 3.34c-.668 2.004-1.336 3.341-2.672 4.677l-4.677-3.341zm-7.359 8.686l2.004-2.005 2.005-2.004 4.676 4.009-2.004 2.004-2.004 2.004-4.677-4.008z" fill="#BC2EFF"/><path d="M165.375 128.559c1.336-.669 2.672-1.337 3.34-2.005l4.009 4.677c-1.336.668-2.672 2.004-4.009 2.672l-3.34-5.344zm-2.01 1.336l.668-.668 4.009 4.676-.668.668-4.009-4.676zm-2.008 1.336c.669 0 .669-.668 1.337-.668l4.008 4.677c-.668 0-.668.668-1.336.668l-4.009-4.677zm-12.019 4.009l1.336-.669 3.341 5.345-2.005.668-2.672-5.344zm-2.676.668h1.336l2.673 5.344h-1.336l-2.673-5.344zm12.697-4.009l.668-.668 3.341 5.345-4.009-4.677zm-24.048 6.013h.668l2.004 5.345h-.668l-2.004-5.345zm-3.342 0h2.004l2.004 5.345h-2.004l-2.004-5.345zm-2.008 0h.668l1.336 6.013h-.668l-1.336-6.013zm22.053-3.341l3.34-1.336 2.673-.668 4.008 4.677-3.34 1.336-3.341 1.336-3.34-5.345zm-14.041 2.673c2.672 0 4.676-.668 7.349-1.336l2.672 5.344c-2.672.668-5.345.668-8.017 1.337l-2.004-5.345zm-13.362.668h5.345l1.336 6.013h-6.013l-.668-6.013zm-2.673 0h.668l1.336 5.345h-1.336l-.668-5.345zm-3.342-.668h2.004l.668 6.013h-2.004l-.668-6.013zm-16.035-2.672l2.004.668-.668 5.344h-2.004l.668-6.012zm-3.341-.669c.669 0 1.337.668 2.005.668l-.668 5.345c-.668 0-1.336-.668-2.004-.668l.668-5.345zm16.7 3.341h.668l.668 6.013h-.668l-.668-6.013zm-29.39-7.349h.668l-1.336 5.345-1.337-.669 2.005-4.676zm-3.342-2.004l2.004 1.336-2.004 4.676-2.004-.668 2.004-5.344zm-2.674-.669h.668l-2.004 5.345-.668-.668 2.004-4.677zm25.387 8.018c1.336 0 2.672.668 4.008.668l4.009.668.668 6.013-4.677-.668c-1.336 0-2.672-.668-4.677-.668l.669-6.013zm-16.697-4.677c1.336.668 2.672.668 4.008 1.336l2.004.668 2.005.668-.668 5.345-2.673-.668-2.004-.668c-1.336-.668-2.672-.668-4.677-1.336l2.005-5.345zm-14.038-6.013c2.005.668 4.01 2.004 5.345 2.672l-2.004 4.677c-2.004-.668-4.009-2.004-6.013-2.672l2.672-4.677zm-2.676-1.336h.669l-2.673 4.676h-.668l2.673-4.676zm-3.337-2.004l2.004.668-3.34 4.676-2.004-.668 3.34-4.676zm-13.357-9.354l1.336 1.336-4.008 3.341-2.005-1.336 4.677-3.341zm-2.674-2.672l1.336 1.336-4.676 4.008-1.337-1.336 4.677-4.008zm14.037 10.689h.668l-3.34 4.677h-.669l3.34-4.677zm-23.392-18.706l.668.668-4.677 2.672-.668-.668 4.676-2.672zm-2.007-2.673l1.337 1.336-5.345 2.673-1.336-1.337 5.345-2.672zm-1.331-2.004v.668l-5.345 2.672v-.668l5.345-2.672zm18.038 17.37c2.005 2.005 4.677 3.341 7.35 4.677l-3.34 4.009c-2.673-1.336-5.346-3.341-7.35-5.345l3.34-3.341zm-12.689-11.357l2.673 2.672 3.34 2.672-4.676 4.009-3.34-3.34-3.341-3.341 5.344-2.672z" fill="#BC2EFF"/><path d="M37.089 92.481c1.336 1.336 2.004 2.673 3.34 4.009l-5.344 2.672c-1.337-1.336-2.673-3.34-3.34-4.677l5.344-2.004zm-1.329-2.004v.668l-5.344 2.004-.668-.668 6.013-2.004zm-2.009-2.673c0 .668.668.668.668 1.337l-6.013 2.004c-.668-.668-.668-1.336-.668-1.336l6.013-2.005zm-6.016-12.025l.669 1.336-6.013.668-.668-1.336 6.012-.668zm-1.33-2.673l.669 1.337-6.013.668-.668-1.337 6.012-.668zM32.417 85.8l.668.668-6.013 1.337 5.345-2.005zm-8.021-22.047c0 .668 0 .668 0 0l-6.013.668v-.668h6.013zm-.666-2.673l.668 2.005-6.681-.668V61.08h6.013zm0-1.336v.669l-6.013-.669v-.668l6.013.668zm5.34 18.707l1.336 3.34 1.336 2.673-6.013 1.336-1.336-3.34-2.004-3.34 6.68-.669zm-4.676-12.694c.668 2.005.668 4.009 1.336 6.013l-5.345.668c-.668-2.004-1.336-4.676-1.336-6.68h5.345z" fill="#BC2EFF"/><path d="M23.73 55.736v4.009l-6.013-.668v-4.009l6.013.668zm0-2.004v.668l-6.013-.668v-.669l6.013.669zm0-2.672v1.335l-6.013-.668v-1.336l6.013.668zm2.676-10.022l-.668 1.336-6.013-1.336.668-1.336 6.013 1.336zm.668-2.005c0 .669 0 .669-.669 1.337l-6.012-1.337c0-.668 0-.668.668-1.336l6.013 1.336zm-3.344 10.69v.668l-6.013-1.336v-.668l6.013 1.336zm6.68-17.371v.669l-5.346-2.005v-.668l5.345 2.005zm1.331-2.004l-.668 1.337-5.345-2.005.669-1.336 5.344 2.004zm.676-.668l-5.345-2.004.668-.668 4.677 2.672zm-7.351 14.03c0 .668-.668 2.004-.668 2.672l-.668 2.673-6.013-1.336.668-2.673c0-.668.668-2.004.668-2.672l6.013 1.336zm4.674-10.021c-.668.668-.668 1.336-1.336 2.004l-.669 1.336-.668 1.336-5.344-2.004.668-1.336.668-1.336c.668-.668.668-1.337 1.336-2.673l5.345 2.673z" fill="#BC2EFF"/><path d="M35.091 27.008c-.668.668-1.336 2.004-2.672 2.672l-5.345-2.004c.668-.668 1.336-2.005 2.673-2.673l5.344 2.005zm1.334-1.336h-.668l-4.677-2.005.668-.668 4.677 2.673zm1.344-1.337l-.669.668-4.676-2.672.668-.668 4.677 2.672zm8.009-6.013l-.668.668-4.008-3.34.668-.668 4.008 3.34zm2.008-1.336l-.668.668-4.009-2.672.669-.668 4.008 2.672zM39.099 23h-.668l-4.01-2.673 4.678 2.672zm16.029-9.354l-.669.668-2.672-3.34 3.34 2.672zm2.682-.668l-1.337.668-3.34-3.34 1.336-.669 3.34 3.34zm1.337-.668l-.668.668-2.672-3.34 3.34 2.671zm-15.376 7.349c-1.336.668-2.672 2.004-4.008 3.34l-4.677-2.672c1.336-1.337 2.672-2.005 4.677-3.34l4.008 2.672zm10.026-5.345c-.668.668-2.005.668-2.673 1.336l-2.672 1.336-4.009-2.672 2.673-1.337c.668-.668 2.004-.668 2.672-1.336l4.009 2.673z" fill="#BC2EFF"/><path d="M63.144 11.641c-1.336 0-2.672.668-4.009 1.336l-3.34-3.34c1.336-.668 2.672-.668 4.008-1.336l3.341 3.34zm1.341-.668l-.668.668-2.672-3.34h.668l2.672 2.672zm2.666 0h-1.336l-2.672-3.34h1.336l2.672 3.34zm11.361-1.336h-1.336l-2.004-3.34h1.336l2.004 3.34zm1.998 0h-1.336l-2.004-3.34h2.004l1.336 3.34zm-12.021.668l-2.673-2.672.668-.668 2.005 3.34zm20.707-.668l-2.005-3.34h.668l1.337 3.34zm2.674 0h-1.337l-.668-2.672h1.336l.669 2.672zm2.005.668h-.668l-.668-3.34h.668l.668 3.34zm-18.034-.668h-3.34l-2.672.668-2.005-3.34h2.673l3.34-.668 2.004 3.34zm12.016 0h-6.013l-1.336-3.34h6.013l1.336 3.34z" fill="#BC2EFF"/><path d="M97.894 10.973h-4.009l-.668-3.34h2.004l2.004.668.669 2.672zm2.006 0h-.668v-3.34l.668.668v2.672zm2.669.669h-1.336l-.669-3.341h1.337l.668 3.34zm12.027 2.672h-1.336v-3.34l1.336.668v2.672zm2.01.668c-.668 0-.668 0-1.336-.668l.668-2.672c.668 0 .668 0 1.336.668l-.668 2.672zm-12.036-3.34h-.668V8.969l.668 2.673zm20.721 6.681l.668-2.673h.668l-1.336 2.673zm2.666 1.336l-1.336-.668 1.336-2.673 1.336.668-1.336 2.673zm2.008.668h-.668l1.336-2.673-.668 2.673zm-18.04-6.681c-.668 0-2.004-.668-2.672-.668l-3.341-.668V9.636l3.341.668c1.336 0 2.004.668 3.34.668l-.668 2.673zm12.031 4.008c-.668-.668-2.004-.668-2.672-1.336l-1.336-.668-1.337-.668.668-2.672 1.337.668 1.336.668c1.336.668 2.004.668 3.34 1.336l-1.336 2.672z" fill="#BC2EFF"/><path d="M133.97 22.331l-4.009-2.004 1.336-2.673 4.009 2.005-1.336 2.672zm1.331.669h-.668l2.004-2.673v.668l-1.336 2.004zm2.676 1.335l-1.336-.668 1.336-2.004 1.336.668-1.336 2.004zm10.021 6.681l-1.336-1.336 2.673-1.336 1.336.668-2.673 2.004zm2.008 1.336l-.668-.668 2.004-2.004 1.336.668-2.672 2.004zm-10.69-7.349L140.653 23h.668l-2.005 2.004zm18.036 12.694h-.668l3.34-2.004v.668l-2.672 1.336zm2.011 2.005l-.668-.669 2.673-2.004.668 1.336-2.673 1.337zm1.326 1.336v-.668l2.673-1.336.668.668-3.341 1.336zm-14.698-12.026c-2.004-1.336-3.34-2.004-5.345-3.34l2.005-2.005c2.004 1.336 4.008 2.005 5.345 3.34l-2.005 2.005zm10.022 8.018c-.668-.669-1.336-1.337-2.673-2.005l-2.672-2.004 2.672-2.005 2.673 2.005c.668.668 2.004 1.336 2.672 2.004l-2.672 2.004z" fill="#BC2EFF"/><path d="M164.032 43.71c-1.336-.668-2.004-2.004-3.341-2.672l2.673-1.336 3.34 3.34-2.672.668zm1.333 1.336h-.668l3.341-1.336.668.668-3.341.668zm1.344 2.004c0-.667-.668-.667-.668-1.335l3.341-1.337 1.336 1.337-4.009 1.336zm7.348 8.686l-.668-.668 3.34-.668 1.336 1.336h-4.008zm1.33 2.004l-.668-.668 4.008-.668.668 1.336h-4.008zm-7.348-9.353l3.341-1.336v.668l-3.341.668zm12.023 16.703c-.668 0-.668 0 0 0l4.008-.669v.668h-4.008zm.674 2.672l-.668-1.337h4.677l.668 1.337h-4.677zm.662 1.336v-.668h4.009l.668.668h-4.677zm-8.686-15.367l-2.005-2.004-2.004-2.672 4.009-.668 2.004 2.672 1.336 2.004-3.34.668zm6.023 10.022c-.668-1.336-2.004-3.34-2.673-4.677l4.009-.668c1.336 2.005 2.004 3.34 3.341 5.345h-4.677z" fill="#BC2EFF"/><path d="M182.739 72.438l-.669-2.004c0-.668-.668-1.336-.668-2.004h4.677c0 .668.668 1.336.668 2.004l.668 2.004h-4.676zm.673 2.004v-.668l4.677.668h-4.677zm.668 2.005c0-.668 0-.668-.668-1.336l4.677.668c0 .668 0 .668.668 1.336l-4.677-.668zm2.662 10.021l-.668-1.336 5.345 1.336v1.336l-4.677-1.336zm.01 2.004v-1.336l4.677 1.337v1.336l-4.677-1.337zm-2.008-10.689l4.677.668-4.677-.668zm2.008 18.707v-.668l4.677 2.004v.668l-4.677-2.004zm-.678 2.004v-1.336l5.345 2.004v1.336l-5.345-2.004zm0 1.336l4.677 2.005v.668l-4.677-2.673zm.006-15.366c0-.668 0-2.004-.668-2.672l-.668-2.673 4.677.668.668 2.673c0 .668.668 2.004.668 2.672l-4.677-.668zm.672 10.022V89.14l4.677 1.336v5.346l-4.677-1.337zM83.192 124.55l-1.336-.668c-2.672-1.336-5.344-2.672-8.017-4.677h-1.336l1.336-2.004 1.336.668 8.017 4.009 1.337.668-1.337 2.004zm6.682 2.672l.668-2.004 1.336.668c2.672 1.336 6.013 2.005 8.685 2.673l1.336.668v2.004l-1.336-.668c-2.672-.668-6.013-2.004-8.685-2.672l-2.004-.669zM66.49 115.197l-1.336-.668c-2.673-2.005-5.345-3.341-7.35-5.345l-.667-.668 1.336-1.337.668.669c2.004 2.004 4.677 3.34 7.35 5.344l1.335.668-1.336 1.337zm40.754 17.37v-2.004h1.336c2.673.668 6.013.668 8.685 1.336h1.337v2.004h-1.337c-2.672 0-6.012-.668-8.685-1.336h-1.336zm-54.784-28.06l-.668-.668-6.013-6.013-.668-.668 2.004-1.336.668.668 6.013 6.013.668.668-2.004 1.336zm72.823 30.064l-.668-2.004h10.689l.668 2.004h-10.689zM40.434 91.813l-.668-.668c-1.336-2.004-3.34-4.677-4.677-6.68l-.668-.669 2.005-.668.668.668c1.336 2.004 2.672 4.009 4.008 6.681l.668.668-1.336.668zm100.883 41.422l-.668-2.004h1.336c2.672-.668 4.677-1.336 7.349-2.004h.668l1.336 2.004h-.668c-2.672.668-4.676 1.336-7.349 2.004h-2.004zm-108.9-54.784l-.668-.668c-.668-2.004-2.004-4.677-2.672-6.68v-.669h2.672v.668c.668 2.004 1.336 4.677 2.672 6.681l.668.668h-2.672zm123.598 50.776l-1.336-2.005.668-.668c2.004-.668 4.009-2.004 6.013-2.672l.668-.668 1.336 2.004-.668.668c-2.004 1.336-4.008 2.005-6.013 3.341h-.668zM27.74 65.089v-.668c-.668-2.004-.668-4.008-.668-6.68v-.669h2.673v.668c0 2.005 0 4.009.668 6.013v.668l-2.673.668zm139.633 58.125l-2.005-1.336.669-.668c1.336-1.337 3.34-2.673 4.676-4.009l.668-.668 2.005 1.336-.668.668c-1.337 1.336-2.673 2.673-4.677 4.009l-.668.668zm-140.3-70.819v-.668c0-2.004.667-4.008 1.335-6.012v-.669l2.005.669v.668c-.668 2.004-.668 4.008-1.336 5.344v.669h-2.005zm148.985 62.134l-2.004-1.337.668-.668c1.336-1.336 2.004-3.34 2.672-4.676l.668-.669 2.005 1.337-.668.668c-.669 1.336-2.005 3.34-3.341 5.345zM29.745 41.038v-.668c.668-2.005 1.336-3.34 2.672-4.677l.668-.668 2.004.668-.668.668c-.668 1.336-2.004 3.34-2.672 4.677v.668l-2.004-.668zm151.658 63.469l-2.004-1.336v-.668c.668-2.004 1.336-3.34 1.336-5.345v-.668l2.004.668v.668c-.668 2.004-.668 3.341-1.336 5.345v1.336zM35.758 31.684c1.336-2.004 2.672-3.34 4.008-4.676l.668-.668 2.005.668-.669.668c-1.336 1.336-2.672 2.672-3.34 4.008l-.668.668-2.004-.668zM181.403 93.15v-6.68l2.004.668v6.679l-2.004-.668zM45.111 25.003l-2.004-1.336.668-.668c1.336-1.336 3.34-2.004 4.676-3.34l.669-.668 1.336 1.336-.668.668c-1.337 1.336-2.673 2.004-4.677 4.008zm136.292 56.789v-.668c0-2.005-.668-3.34-1.336-5.345v-.668h2.004v.668c.668 2.004 1.336 4.008 1.336 5.345v.668h-2.004zM54.464 18.99l-1.336-1.337.668-.668c2.005-.668 3.34-1.336 5.345-2.004h.668l1.336 1.336h-.668c-2.004.668-3.34 1.336-5.345 2.005l-.668.668zm123.598 52.111v-.668c-.668-2.004-1.336-3.34-2.672-5.345l-.668-.668h1.336l.668.668c.668 2.005 2.004 3.34 2.673 5.345v.668h-1.337zM65.154 14.982l-1.336-1.336h.668c2.004-.668 4.008-.668 6.013-1.336h.668l.668 1.336h-.668c-2.005 0-4.009.668-6.013 1.336zm107.564 45.43l-.669-.667c-1.336-2.005-2.004-3.341-3.34-5.345l-.668-.668h1.336l.668.668c1.336 2.004 2.673 3.34 3.341 5.345l.668.668h-1.336zM76.512 12.979l-.669-1.336h8.018l.668 1.336H76.51zm89.525 37.413l-.669-.668c-1.336-1.336-2.672-3.34-4.008-4.677l-.668-.668 1.336-.668.668.668 4.677 4.677.668.668-2.004.668zM89.205 12.31l-.668-1.337h.668c2.005 0 4.677.668 6.681.668h.669v1.337h-.669c-2.004 0-4.008-.668-6.68-.668zm67.478 28.728l-.668-.668c-1.336-1.337-3.34-2.673-4.677-4.009l-.668-.668.668-.668.669.668c2.004 1.336 3.34 2.672 5.344 4.009l.668.668-1.336.668zm-54.116-26.724v-1.336h.668c2.005.668 4.677.668 6.681 1.336h.669v1.336h-.669c-2.004-.668-4.008-1.336-6.681-1.336h-.668zm44.095 18.707l-.668-.669c-2.005-1.336-4.009-2.672-5.345-3.34l-.668-.668.668-.668.668.668 6.013 4.008-.668.669zm-31.401-15.367v-1.336h.668c2.005.668 4.009 1.336 6.681 2.005h.668v1.336h-.668l-6.013-2.005h-1.336zm20.043 8.686l-.668-.668c-2.004-1.337-4.009-2.005-6.013-2.673l-.668-.668.668-1.336.668.668c2.005.668 4.009 2.004 6.013 2.672l.668.668-.668 1.337z" fill="#BC2EFF"/><path d="M197.439 105.175c-6.681 42.09-62.133 61.465-122.261 33.405C15.047 110.52-7 55.736 21.061 23.667 43.109-2.389 91.88-4.393 132.634 14.314c40.754 19.375 70.15 57.456 64.805 90.861z" fill="url(#paint1_radial_118_1981)"/><path d="M197.439 105.175c-6.681 42.09-62.133 61.465-122.261 33.405C15.047 110.52-7 55.736 21.061 23.667 43.109-2.389 91.88-4.393 132.634 14.314c40.754 19.375 70.15 57.456 64.805 90.861z" fill="url(#paint2_radial_118_1981)"/><defs><radialGradient id="paint1_radial_118_1981" cx="0" cy="0" r="1" gradientUnits="userSpaceOnUse" gradientTransform="matrix(82.36034 37.8763 -31.9443 69.46148 103.757 76.795)"><stop offset=".224" stop-color="#B5B5B5"/><stop offset=".377" stop-color="#B2B2B2"/><stop offset=".478" stop-color="#A9A9A9"/><stop offset=".565" stop-color="#9A9A9A"/><stop offset=".643" stop-color="#858585"/><stop offset=".715" stop-color="#696969"/><stop offset=".784" stop-color="#484848"/><stop offset=".847" stop-color="#202020"/><stop offset=".892"/></radialGradient><radialGradient id="paint2_radial_118_1981" cx="0" cy="0" r="1" gradientUnits="userSpaceOnUse" gradientTransform="matrix(82.36034 37.8763 -31.9443 69.46148 103.757 76.795)"><stop offset=".224" stop-color="#B5B5B5"/><stop offset=".377" stop-color="#B2B2B2"/><stop offset=".478" stop-color="#A9A9A9"/><stop offset=".565" stop-color="#9A9A9A"/><stop offset=".643" stop-color="#858585"/><stop offset=".715" stop-color="#696969"/><stop offset=".784" stop-color="#484848"/><stop offset=".847" stop-color="#202020"/><stop offset=".892"/></radialGradient><linearGradient id="paint0_linear_118_1981" x1="90.68" y1="21.131" x2="121.412" y2="156.969" gradientUnits="userSpaceOnUse"><stop offset=".006" stop-color="#D146E8"/><stop offset=".726" stop-color="#890994"/></linearGradient></defs></svg>