<svg width="153" height="153" fill="none" xmlns="http://www.w3.org/2000/svg"><path d="M129.727 137.705c-25.388 14.698-64.138 2.672-90.862-23.384C12.141 88.265.784 49.516 15.482 23.46 33.52-8.61 82.96-8.61 122.378 30.809c39.417 38.75 39.417 88.857 7.349 106.896z" fill="#300551"/><path d="M121.037 146.39c-25.388 14.698-64.137 2.672-90.861-23.384C3.452 96.282-7.906 58.201 6.792 32.145 24.832.076 74.27.076 113.688 39.495c39.418 38.749 39.418 88.856 7.349 106.895z" fill="#300551"/><path d="M100.332 52.856c14.03 14.03 22.047 30.733 22.715 46.767.668 15.366-4.676 26.724-15.366 33.405-9.353 6.013-22.047 7.349-35.41 4.009-12.693-3.341-24.719-10.69-35.408-20.712-10.022-10.021-17.37-22.715-20.711-35.409-3.34-13.362-2.673-26.055 4.008-35.409 6.681-10.69 18.707-16.034 33.405-15.366 16.034.668 32.737 8.685 46.767 22.715zm13.362-13.362C74.276.076 24.837.744 6.798 32.145-7.9 57.533 4.126 96.283 30.182 123.006c26.724 26.724 64.805 38.082 90.861 23.384 32.069-18.039 32.069-68.146-7.349-106.896z" fill="#700994"/><mask id="mask0_118_549" style="mask-type:luminance" maskUnits="userSpaceOnUse" x="16" y="32" width="105" height="106"><path d="M106.338 131.692c-18.039 12.025-48.103 4.008-68.146-16.035C17.48 94.947 9.464 65.55 22.157 47.511c14.03-21.379 49.44-20.043 76.832 7.35 26.724 26.723 28.728 62.133 7.349 76.831z" fill="#fff"/></mask><g mask="url(#mask0_118_549)"><path d="M53.57 90.27v1.336l.667.668.669 3.34-4.01 4.677v.668l-2.003 2.673v1.336" stroke="#972EFF" stroke-width=".163" stroke-miterlimit="10"/><path d="M52.898 90.938c0-.669 0-.669 0 0 .668-.669.669-.669.669 0h-.669zm-4.005 14.698c.668-.668.668-.668 0 0z" fill="#2EA8FF"/><path d="M54.233 89.602v.668l1.337 1.336v1.336l.668 3.34-4.677 4.009.668 1.336-2.672 2.005.668.668" stroke="#972EFF" stroke-width=".163" stroke-miterlimit="10"/><path d="M53.566 89.602c.668-.669.668-.669.668 0 0 0 0 .668-.668 0zM49.557 104.3h.668s0-.668-.668 0z" fill="#2EA8FF"/><path d="M54.901 91.606l.668 4.677-4.008 4.008v.668l-2.004 2.673v1.336l.668.668" stroke="#972EFF" stroke-width=".163" stroke-miterlimit="10"/><path d="M54.228 91.606c.669-.668.669-.668.669 0 0 0 0 .668-.669 0zm-4.002 14.03c.668-.668.668 0 0 0 0-.668 0-.668 0 0-.668 0-.668-.668 0 0z" fill="#2EA8FF"/><path d="M53.575 92.942l.668 2.004-4.008 4.009v2.004l-2.005 2.005.669 2.672.668 1.336" stroke="#972EFF" stroke-width=".163" stroke-miterlimit="10"/><path d="M53.58 92.942c.668-.668.668-.668.668 0s0 .668-.668 0c0 .668 0 .668 0 0zm-4.017 14.03c.668 0 .668 0 0 0 0-.668.668-.668 0 0z" fill="#2EA8FF"/><path d="M52.896 93.61v2.004l-3.34 3.34.667 1.337-2.672 2.672.668 3.341 2.004 1.336.668.668v-.668" stroke="#972EFF" stroke-width=".163" stroke-miterlimit="10"/><path d="M52.223 94.278c0-.668 0-.668 0 0l.668-.668c0 .668 0 .668-.668.668zm-.661 14.03c-.668-.668-.668-.668 0 0-.668-.668-.668 0 0 0-.668 0-.668 0 0 0z" fill="#2EA8FF"/><path d="M52.232 91.606l-.668.668v2.672l-2.673 3.34v.669l-3.34 3.34.668.669" stroke="#972EFF" stroke-width=".163" stroke-miterlimit="10"/><path d="M51.566 90.938c.668.668.668.668 0 0 0 .668.668.668 0 0 0 .668 0 .668 0 0z" fill="#2EA8FF"/><path d="M48.225 96.95v1.337l-3.34 3.34.668 2.673.668 1.336.668.668-.668.668" stroke="#972EFF" stroke-width=".163" stroke-miterlimit="10"/><path d="M47.563 97.618c0-.668 0-.668 0 0 .668-.668.668-.668.668 0h-.669zm-1.346 8.686c0 .668 0 .668 0 0 0 .668.668.668 0 0 .668.668.668.668 0 0z" fill="#2EA8FF"/><path d="M40.861 120.334l12.026-12.026-.668-.668-.668-1.336-.668-2.672 1.336-2.005v-.668l4.009-4.676v-3.341" stroke="#972EFF" stroke-width=".163" stroke-miterlimit="10"/><path d="M56.224 92.942c.668 0 .668 0 0 0 0-.668 0-.668 0 0-.668 0-.668 0 0 0 0 .668 0 .668 0 0z" fill="#2EA8FF"/><path d="M40.861 120.334l12.694-11.358-.668-1.336-.668-.668-.668-3.341 1.336-1.336v-1.336l4.009-4.009v-2.672l.668-.668-.668-1.336" stroke="#972EFF" stroke-width=".163" stroke-miterlimit="10"/><path d="M57.566 92.274h-.668c0 .668 0 .668.668 0z" fill="#2EA8FF"/><path d="M41.545 121.002l12.026-12.026v-1.336l-.668-.668-.669-2.004" stroke="#972EFF" stroke-width=".163" stroke-miterlimit="10"/><path d="M52.903 104.968c-.668-.668 0-.668 0 0-.668 0-.668 0 0 0z" fill="#2EA8FF"/><path d="M42.21 121.67l12.027-12.026v-2.004l-1.337-1.336v-.668l1.337-.668v-1.336" stroke="#972EFF" stroke-width=".163" stroke-miterlimit="10"/><path d="M54.91 103.632c-.668-.669-.668 0 0 0h-.668s0 .668.668 0z" fill="#2EA8FF"/><path d="M42.21 121.67l12.695-12.026v-3.34" stroke="#972EFF" stroke-width=".163" stroke-miterlimit="10"/><path d="M55.574 106.304h-.668s0 .668.668 0z" fill="#2EA8FF"/><path d="M42.875 122.338l12.694-12.025v-2.673l.668-.668v-1.336" stroke="#972EFF" stroke-width=".163" stroke-miterlimit="10"/><path d="M56.24 105.636c0-.668 0-.668 0 0h-.668.668z" fill="#2EA8FF"/><path d="M43.54 123.006l12.693-12.693v-2.005" stroke="#972EFF" stroke-width=".163" stroke-miterlimit="10"/><path d="M56.907 108.308c-.668-.668 0-.668 0 0-.668 0-.668 0 0 0z" fill="#2EA8FF"/><path d="M43.54 123.006l13.36-12.025v-1.337l.668-1.336v-1.336" stroke="#972EFF" stroke-width=".163" stroke-miterlimit="10"/><path d="M58.234 106.972h-.668c0 .668 0 .668.668 0 0 .668 0 .668 0 0z" fill="#2EA8FF"/><path d="M44.21 123.674l13.363-12.693v-1.337l1.336-1.336-2.004-8.017 2.004-1.336-.668-3.34.668-.669V93.61" stroke="#972EFF" stroke-width=".163" stroke-miterlimit="10"/><path d="M58.906 93.61h-.668c0 .668 0 .668.668 0 0 .668 0 .668 0 0z" fill="#2EA8FF"/><path d="M44.885 123.675l13.362-12.026v-1.336l1.336-1.337-1.336-8.685 1.336-1.336" stroke="#972EFF" stroke-width=".163" stroke-miterlimit="10"/><path d="M59.585 98.955c0-.668 0-.668 0 0-.668 0-.668 0 0 0 0 .668 0 .668 0 0z" fill="#2EA8FF"/><path d="M44.885 124.343l14.03-12.694v-1.336l1.336-1.337-2.004-8.017 2.004-2.004v-.668l-.668-.668-.668-1.336.668-.668" stroke="#972EFF" stroke-width=".163" stroke-miterlimit="10"/><path d="M60.25 95.614c-.669-.668 0-.668 0 0-.669-.668-.669 0 0 0z" fill="#2EA8FF"/><path d="M45.55 125.011l14.03-12.694-.667-1.336 2.004-2.005-1.336-5.344 2.004-1.337-.668-2.004.668-.668" stroke="#972EFF" stroke-width=".163" stroke-miterlimit="10"/><path d="M62.257 99.623c-.668-.668-.668-.668 0 0-.668-.668-.668 0 0 0-.668 0-.668 0 0 0z" fill="#2EA8FF"/><path d="M64.256 105.636l-.668 1.336v.668l3.34 3.341.668 4.008h-.668l1.337 6.013-2.673 2.004-3.34-.668-8.018 6.681.669 2.004" stroke="#972EFF" stroke-width=".163" stroke-miterlimit="10"/><path d="M64.258 105.636c.668 0 .668.668 0 0 0 .668 0 .668 0 0z" fill="#2EA8FF"/><path d="M66.266 107.64l-1.336.668v.668l2.672 2.005.668 4.008-.668.668 1.336 6.013-2.672 2.005-4.009-.669-7.349 6.013.668 2.005" stroke="#972EFF" stroke-width=".163" stroke-miterlimit="10"/><path d="M65.594 106.972c.668 0 .668.668 0 0 0 .668.668.668 0 0z" fill="#2EA8FF"/><path d="M68.266 116.325l1.336 5.345-3.34 2.673-3.34-.669-6.682 5.345v2.004" stroke="#972EFF" stroke-width=".163" stroke-miterlimit="10"/><path d="M68.272 116.325c.668-.668.667 0 .667 0h-.667z" fill="#2EA8FF"/><path d="M63.592 114.989v1.337l-11.358 10.021v2.672" stroke="#972EFF" stroke-width=".163" stroke-miterlimit="10"/><path d="M62.92 114.989c0-.668 0-.668 0 0 .668-.668.668 0 .668 0h-.668z" fill="#2EA8FF"/><path d="M63.579 110.313v1.336l-1.337 1.336.669 3.34-11.358 9.354.668 2.004-1.336.668" stroke="#972EFF" stroke-width=".163" stroke-miterlimit="10"/><path d="M62.916 110.313c.668-.668.668 0 .668 0s0 .668-.668 0c0 .668 0 .668 0 0z" fill="#2EA8FF"/><path d="M61.582 110.312l.669 2.005h-.669l.669 3.34-11.358 10.022.668 1.336-2.004 2.004" stroke="#972EFF" stroke-width=".163" stroke-miterlimit="10"/><path d="M61.588 110.312c.668-.668.668-.668.668 0s0 .668-.668 0c0 .668 0 .668 0 0z" fill="#2EA8FF"/><path d="M63.586 98.287h.668l1.336 1.336.668 4.009 2.673 3.34 3.34 16.703-6.013 4.676v.668" stroke="#972EFF" stroke-width=".163" stroke-miterlimit="10"/><path d="M62.92 98.287v-.668c.668 0 .668 0 0 .668.668 0 .668 0 0 0zm2.676 31.4h.668c0-.668 0-.668-.668 0 0-.668 0-.668 0 0z" fill="#2EA8FF"/><path d="M77.618 102.295v-1.336l-2.004-2.004v-.668l-2.005-2.005h-1.336l-.668.669-2.004-.669-3.34 3.34.668 4.678 2.672 2.672 3.34 17.371-5.344 4.008v1.336l-4.009 2.673.668 4.008-1.336 1.337" stroke="#972EFF" stroke-width=".163" stroke-miterlimit="10"/><path d="M78.28 102.295c-.669.669-.669 0-.669 0s0-.668.668 0c0-.668-.668-.668 0 0z" fill="#2EA8FF"/><path d="M72.273 98.287h-2.004l-3.34 2.672.667 3.34 2.673 2.673 3.34 17.37-5.344 4.677v.668l-4.01 3.341.669 3.34 2.672 2.673.668 3.34" stroke="#972EFF" stroke-width=".163" stroke-miterlimit="10"/><path d="M72.277 98.287v.668s-.668-.668 0-.668c0-.668-.668 0 0 0z" fill="#2EA8FF"/><path d="M72.949 99.623l-2.004-.668-2.673 2.672v2.673l2.672 2.004 3.341 18.707-5.345 4.008v1.336l-4.008 2.673.668 3.34 2.672 2.673.668 4.008" stroke="#972EFF" stroke-width=".163" stroke-miterlimit="10"/><path d="M73.616 98.955v.668c-.668 0-.668 0 0-.668-.668 0-.668 0 0 0z" fill="#2EA8FF"/><path d="M76.955 127.683l1.337.668v1.337l-2.673 2.004v2.004l4.009 3.341.668 2.672-2.004 2.004v2.005l11.357 11.357.668 5.345 2.673 2.672v2.005l-1.336.668" stroke="#972EFF" stroke-width=".163" stroke-miterlimit="10"/><path d="M76.95 127.683c0-.668.667-.668 0 0 .667-.668.667 0 0 0z" fill="#2EA8FF"/><path d="M76.284 128.351v.668l-2.005 2.005.668 6.68-.668.669v1.336l2.005 1.336v2.672l-.669.668v1.337l4.01 4.008 2.671.668 6.681 6.681.669 4.009-2.005 1.336" stroke="#972EFF" stroke-width=".163" stroke-miterlimit="10"/><path d="M75.611 128.351c.668-.668.668 0 .668 0h-.668z" fill="#2EA8FF"/><path d="M71.61 104.968v2.004l1.337.668 2.004 13.362 2.004 2.004.668 2.004-12.025 8.686.668 2.672 2.672 2.673.668 5.344" stroke="#972EFF" stroke-width=".163" stroke-miterlimit="10"/><path d="M70.95 104.968c.667-.668.667 0 .667 0h-.668z" fill="#2EA8FF"/><path d="M72.945 101.627h1.337l3.34 4.009.668.668-.668.668v1.336l1.336.668 2.673.668 13.362 13.362v1.337" stroke="#972EFF" stroke-width=".163" stroke-miterlimit="10"/><path d="M72.952 101.627c-.668 0-.668 0 0 0v-.668.668zm21.378 22.716c0 .668.668.668 0 0 .668 0 .668.668 0 0z" fill="#2EA8FF"/><path d="M73.607 102.964l1.337 1.336.668 2.672 2.672 3.341 3.34.668 10.022 9.353v4.009l2.672 2.672 6.681 1.336 1.337 1.337" stroke="#972EFF" stroke-width=".163" stroke-miterlimit="10"/><path d="M73.607 102.964c0-.669.668-.669 0 0 .668 0 .668 0 0 0zm28.722 27.392c.668-.669.668-.669 0 0 0-.669 0-.669 0 0-.668-.669-.668-.669 0 0z" fill="#2EA8FF"/><path d="M72.941 103.632l1.337.668.668 2.672 3.34 3.341 3.34.668 9.354 10.021.668 3.341 2.672 3.34 5.345 1.336 2.005 1.336" stroke="#972EFF" stroke-width=".163" stroke-miterlimit="10"/><path d="M72.941 103.631c0-.668.668-.668 0 0 .668-.668.668 0 0 0zm28.055 26.724c.668.669.668.669 0 0 .668 0 .668 0 0 0 .668-.668.668-.668 0 0z" fill="#2EA8FF"/><path d="M72.277 104.299l.668 2.005 2.673 3.34.668 2.673 6.68 6.681 1.337.668" stroke="#972EFF" stroke-width=".163" stroke-miterlimit="10"/><path d="M71.613 104.3c.668-.669.668 0 .668 0h-.668c.668 0 .668 0 0 0zm12.694 15.366c.668-.668.668-.668 0-.668v.668z" fill="#2EA8FF"/><path d="M76.947 111.649l.668 1.336 5.345 5.345 3.34.668" stroke="#972EFF" stroke-width=".163" stroke-miterlimit="10"/><path d="M76.947 111.649c0-.668 0-.668 0 0 .668-.668.668 0 .668 0h-.668zm9.349 8.017c.668-.668.668-.668 0-.668 0-.668-.668 0 0 .668-.668 0-.668-.668 0 0z" fill="#2EA8FF"/><path d="M99.67 129.687l-4.008-.668-4.008 2.673H88.98l-2.004 1.336.668 8.685-2.004 1.336.668 2.005 14.698 15.366" stroke="#972EFF" stroke-width=".163" stroke-miterlimit="10"/><path d="M99.664 129.687v.668s-.668 0 0-.668z" fill="#2EA8FF"/><path d="M100.331 131.023l-4.677-1.336-4.009 2.673-2.004-.668-2.004 1.336 1.336 9.353-2.004 1.336v1.337l14.698 14.698" stroke="#972EFF" stroke-width=".163" stroke-miterlimit="10"/><path d="M102.333 131.692l-6.013-1.337-4.009 2.673-2.672-.668-1.336 1.336 1.336 8.685-2.004 1.336v2.005l14.698 14.03" stroke="#972EFF" stroke-width=".163" stroke-miterlimit="10"/><path d="M102.328 131.692c.668 0 .668 0 0 0v.668-.668z" fill="#2EA8FF"/><path d="M103.009 132.36l-6.681-1.336-4.009 2.672-2.004-.668-.668.668.668 8.685-2.004 1.337.668 2.004 13.362 14.03" stroke="#972EFF" stroke-width=".163" stroke-miterlimit="10"/><path d="M103.002 132.36c.668 0 .668 0 0 0v.668-.668z" fill="#2EA8FF"/><path d="M90.983 137.036l.668 6.013-2.004 1.337v2.004l13.361 12.694" stroke="#972EFF" stroke-width=".163" stroke-miterlimit="10"/><path d="M90.314 137.037c.669-.669.669 0 .669 0s0 .668-.669 0c0 .668 0 .668 0 0z" fill="#2EA8FF"/><path d="M49.56 86.261l-2.005-2.004-2.672-.668-7.35 8.017.669 1.336-2.673 2.672 2.005 7.349" stroke="#972EFF" stroke-width=".163" stroke-miterlimit="10"/><path d="M50.226 85.593c-.668.668 0 .668 0 0-.668 0-.668.668 0 0zm-13.366 17.37h.667c0-.668 0-.668-.668 0z" fill="#2EA8FF"/><path d="M76.95 95.614v3.34l3.34 2.673 8.017 2.004 11.358 10.69v6.013l-1.337 1.336" stroke="#972EFF" stroke-width=".163" stroke-miterlimit="10"/><path d="M76.285 96.282c0-.668 0-.668 0 0 .668-.668.668 0 .668 0h-.668zm21.373 25.388c0 .668.668.668 0 0 .668 0 .668.668 0 0 .668 0 .668 0 0 0z" fill="#2EA8FF"/><path d="M82.28 103.632l6.012 1.336 10.022 10.021.668 4.677-2.004 1.336" stroke="#972EFF" stroke-width=".163" stroke-miterlimit="10"/><path d="M82.282 103.631c-.668 0-.668 0 0 0v-.668.668zm14.7 17.371c0 .668 0 .668 0 0 .668 0 .668 0 0 0 .668-.668 0-.668 0 0z" fill="#2EA8FF"/><path d="M55.565 71.563l-8.686-1.336-3.34 4.008-2.004-.668-2.005-1.336-3.34-.668-2.005 2.004-10.689-1.336-6.681 8.685-12.694-2.004" stroke="#972EFF" stroke-width=".163" stroke-miterlimit="10"/><path d="M55.566 70.895v.668s-.668 0 0-.668z" fill="#2EA8FF"/><path d="M57.57 70.895L46.214 68.89l-3.34 4.009h-2.005l-1.336-2.004-4.008-.668-2.005 2.672-10.69-1.336-6.012 8.685-13.362-2.672" stroke="#972EFF" stroke-width=".163" stroke-miterlimit="10"/><path d="M57.565 70.227v.668s-.669 0 0-.668z" fill="#2EA8FF"/><path d="M34.858 98.287l-2.672-2.005-1.336-8.017 1.336-2.004-1.336-4.677 2.672-2.672 10.022 1.336.668-1.336 3.34.668" stroke="#972EFF" stroke-width=".163" stroke-miterlimit="10"/><path d="M34.862 98.287c0 .668 0 .668 0 0-.668 0-.668 0 0 0zM47.55 79.58c.669-.668 0-.668 0-.668v.668z" fill="#2EA8FF"/><path d="M41.535 78.244l-8.686-1.336-2.004 2.672-6.681-.668-5.345 7.349-2.672-.668-2.004 2.672" stroke="#972EFF" stroke-width=".163" stroke-miterlimit="10"/><path d="M41.53 78.244v.668s-.669-.668 0-.668z" fill="#2EA8FF"/><path d="M29.509 80.916l-5.345-1.336-5.345 7.35-2.672-.669-2.004 2.672" stroke="#972EFF" stroke-width=".163" stroke-miterlimit="10"/><path d="M29.507 80.248v.668c-.668 0-.668 0 0-.668-.668 0-.668 0 0 0z" fill="#2EA8FF"/><path d="M26.844 81.584l-3.34-.668-4.677 6.013h-2.004l-2.005 2.004" stroke="#972EFF" stroke-width=".163" stroke-miterlimit="10"/><path d="M26.85 80.916c.668.668.668.668 0 0z" fill="#2EA8FF"/><path d="M29.512 82.92v.668L23.5 82.252l-4.677 5.345h-2.004l-1.337 2.004" stroke="#972EFF" stroke-width=".163" stroke-miterlimit="10"/><path d="M29.51 82.92c.668 0 .668 0 0 0 0 .669 0 .669 0 0z" fill="#2EA8FF"/><path d="M26.172 84.257l-1.336 2.004-3.34-.668-2.005 2.672-2.672-.668-1.337 2.004" stroke="#972EFF" stroke-width=".163" stroke-miterlimit="10"/><path d="M26.168 84.257c0-.669 0-.669 0 0 .668 0 .668 0 0 0 .668 0 0 .668 0 0z" fill="#2EA8FF"/><path d="M17.482 91.606l4.009-5.345H25.5l1.336-2.004 3.34.668" stroke="#972EFF" stroke-width=".163" stroke-miterlimit="10"/><path d="M30.176 84.925c.668-.668 0-.668 0-.668v.668z" fill="#2EA8FF"/><path d="M47.55 86.93l-2.672-.669-5.345 6.013.668 1.336-3.34 3.34 1.336 4.677 3.34 3.341v1.336l-1.336 1.336-8.685-1.336-2.004 2.004" stroke="#972EFF" stroke-width=".163" stroke-miterlimit="10"/><path d="M47.553 86.26v.669s-.668 0 0-.668z" fill="#2EA8FF"/><path d="M46.228 85.593l-1.336-.668-6.013 7.349v1.336l-2.672 2.673 2.004 6.012 2.004 2.673v.668l-.668.668-9.353-2.004-2.005 2.004" stroke="#972EFF" stroke-width=".163" stroke-miterlimit="10"/><path d="M46.228 84.925v.668c-.669 0-.669 0 0-.668-.669 0-.669 0 0 0z" fill="#2EA8FF"/><path d="M24.17 91.606l2.004.668 2.673-3.34" stroke="#972EFF" stroke-width=".163" stroke-miterlimit="10"/><path d="M24.177 91.606c-.668 0-.668 0 0 0v-.668.668zm4.668-2.673c.668 0 .668 0 0 0s-.668 0 0 0c0 .668 0 .668 0 0z" fill="#2EA8FF"/><path d="M29.516 90.938l-2.672 3.34" stroke="#972EFF" stroke-width=".163" stroke-miterlimit="10"/><path d="M28.854 90.27c.668 0 .668 0 0 0 .668 0 .668.668 0 0 .668.668.668.668 0 0zm-2.676 3.34c.668.668.668.668 0 0 .668 0 .668.668 0 0z" fill="#2EA8FF"/><path d="M30.18 91.606l-2.672 3.34" stroke="#972EFF" stroke-width=".163" stroke-miterlimit="10"/><path d="M29.52 91.606c0-.668.668-.668 0 0 .668 0 .668 0 0 0 .668.668.668.668 0 0zm-2.678 2.672c.668.668.668.668 0 0 .668 0 .668.668 0 0 .668 0 .668 0 0 0z" fill="#2EA8FF"/><path d="M65.6 84.925l-24.72-4.009-8.685 10.69.669 3.34 1.336 1.337" stroke="#972EFF" stroke-width=".163" stroke-miterlimit="10"/><path d="M65.598 84.925v.668s-.668-.668 0-.668zM34.205 96.95c.668-.667.668 0 0 0 0-.667 0-.667 0 0z" fill="#2EA8FF"/><path d="M42.869 82.252h-1.336L35.52 90.27v1.337l-2.004 2.004v.668" stroke="#972EFF" stroke-width=".163" stroke-miterlimit="10"/><path d="M33.516 94.946h.668c0-.668 0-.668-.668 0 0-.668 0-.668 0 0z" fill="#2EA8FF"/><path d="M30.846 94.946l-1.336-.668-1.336 1.336" stroke="#972EFF" stroke-width=".163" stroke-miterlimit="10"/><path d="M30.857 94.278v.668c-.669 0-.669 0 0-.668-.669 0-.669 0 0 0zm-2.677.668c-.667.668-.667.668 0 0 0 .668 0 .668 0 0 .669.668.669.668 0 0z" fill="#2EA8FF"/><path d="M35.525 100.291l-4.009-4.009H30.18l-.668.669" stroke="#972EFF" stroke-width=".163" stroke-miterlimit="10"/><path d="M35.532 100.291c0 .668 0 .668 0 0-.668 0-.668 0 0 0zm-6.686-4.009c0 .669 0 .669 0 0 .668.669.668.669 0 0 .668.669.668 0 0 0 .668 0 .668 0 0 0z" fill="#2EA8FF"/><path d="M35.52 99.623l-4.676-4.009-1.336-.668-.668 1.337" stroke="#972EFF" stroke-width=".163" stroke-miterlimit="10"/><path d="M35.526 98.955c0 .668 0 .668 0 0-.668.668 0 .668 0 0-.668.668-.668.668 0 0zm-6.681-3.34c-.668.668-.668.668 0 0 0 .668 0 .668 0 0 .668.668.668.668 0 0z" fill="#2EA8FF"/><path d="M35.52 100.959l-4.008-4.008h-.668l-.668.668" stroke="#972EFF" stroke-width=".163" stroke-miterlimit="10"/><path d="M36.194 100.959c-.668.668-.668.668 0 0-.668 0-.668.668 0 0-.668 0-.668 0 0 0zM29.51 96.95c.668.669.668.669 0 0 .668 0 .668.669 0 0 .668 0 .668 0 0 0z" fill="#2EA8FF"/><path d="M76.945 102.964l4.677 4.676 3.34.668" stroke="#972EFF" stroke-width=".163" stroke-miterlimit="10"/><path d="M76.948 102.964c-.668 0-.668 0 0 0 0-.669 0-.669 0 0 .668 0 .668 0 0 0zm8.014 5.344c.668-.668.668-.668 0-.668s-.668 0 0 .668c-.668 0-.668 0 0 0z" fill="#2EA8FF"/><path d="M79.62 108.308l4.008.668" stroke="#972EFF" stroke-width=".163" stroke-miterlimit="10"/><path d="M79.615 108.308v-.668s.668.668 0 .668zm4.006 1.336c.668-.668.668-.668 0-.668v.668z" fill="#2EA8FF"/><path d="M86.306 106.304l-5.345-.668-1.336-1.336" stroke="#972EFF" stroke-width=".163" stroke-miterlimit="10"/><path d="M86.307 106.304c.668 0 .668 0 0 0v.668-.668zm-6.011-2.672c-.668 0-.668 0 0 0 0 .668 0 .668 0 0z" fill="#2EA8FF"/><path d="M94.316 114.321l1.337 1.336.668 2.673-2.005 1.336v1.336l7.35 6.681 7.349 2.004 2.004-1.336v-1.336l18.707-12.694v-2.004l13.362-9.354" stroke="#972EFF" stroke-width=".163" stroke-miterlimit="10"/><path d="M93.652 114.321c.668-.668.668-.668 0 0 .668-.668.668 0 0 0 .668 0 .668 0 0 0z" fill="#2EA8FF"/><path d="M94.316 114.321l1.337 1.336.668 2.673-2.005 1.336v1.336l7.35 6.681 7.349 2.004 2.004-1.336v-1.336l18.707-12.694v-2.004l13.362-9.354" stroke="#972EFF" stroke-width=".163" stroke-miterlimit="10"/><path d="M93.652 114.321c.668-.668.668-.668 0 0 .668-.668.668 0 0 0 .668 0 .668 0 0 0z" fill="#2EA8FF"/><path d="M93.652 114.321l1.337 1.336.668 2.673-2.005.668.668 2.004 6.681 7.349 8.686 2.004 2.004-1.336v-2.004l18.039-12.026v-2.672l13.362-8.685" stroke="#972EFF" stroke-width=".163" stroke-miterlimit="10"/><path d="M93.652 114.321c0-.668.668-.668 0 0 .668 0 .668 0 0 0z" fill="#2EA8FF"/><path d="M143.76 104.3l-13.362 8.685v2.672l-18.707 12.026v1.336l-2.004 1.337-2.673-.669-1.336.669h-2.004" stroke="#972EFF" stroke-width=".163" stroke-miterlimit="10"/><path d="M104.343 129.688c-.668 0-.668 0 0 0-.668.668-.668.668 0 .668v-.668z" fill="#2EA8FF"/><path d="M144.426 104.3l-13.362 9.353v2.004l-18.707 12.694v1.336l-2.004 1.337-2.673-.668-2.672 2.004v1.336h-.668l.668 1.336.668.668v.668" stroke="#972EFF" stroke-width=".163" stroke-miterlimit="10"/><path d="M105.004 137.037h.668c0-.669 0-.669-.668 0 0-.669 0-.669 0 0z" fill="#2EA8FF"/><path d="M145.098 104.968l-14.031 9.353v2.004l-18.038 12.026v2.004l-2.673 1.337-2.004-.668-2.672 2.004v1.336" stroke="#972EFF" stroke-width=".163" stroke-miterlimit="10"/><path d="M105.68 134.364h.668c0-.668 0-.668-.668 0z" fill="#2EA8FF"/><path d="M123.047 112.985l-4.008 2.672-6.681-1.336-5.345-5.345-8.685-1.336-8.017-8.017-10.022-2.004" stroke="#972EFF" stroke-width=".163" stroke-miterlimit="10"/><path d="M80.96 97.619c-.668 0-.668 0 0 0-.668.668-.668.668 0 .668v-.668z" fill="#2EA8FF"/><path d="M91.64 99.623l7.35 7.349 8.017 1.336 5.345 5.345 6.013 1.336 4.008-2.672" stroke="#972EFF" stroke-width=".163" stroke-miterlimit="10"/><path d="M90.975 99.623c0-.668.668-.668 0 0 .668 0 .668 0 0 0 .668.668 0 .668 0 0z" fill="#2EA8FF"/><path d="M120.376 110.981l-4.008 3.34-3.341-.668-6.013-6.013-8.017-1.336-6.013-6.013" stroke="#972EFF" stroke-width=".163" stroke-miterlimit="10"/><path d="M119.709 110.981c.668 0 .668 0 0 0 .668 0 .668.668 0 0 .668.668 0 .668 0 0zM92.991 99.623c-.668.668-.668.668 0 0 0 .668 0 .668 0 0 .668.668.668.668 0 0z" fill="#2EA8FF"/><path d="M111.687 103.631l-3.341-3.34-8.685-1.336-3.34 2.672" stroke="#972EFF" stroke-width=".163" stroke-miterlimit="10"/><path d="M112.351 103.632c-.668.668-.668.668 0 0zm-16.031-2.673c0 .668 0 .668 0 0 0 1.336 0 1.336 0 0 .668.668.668.668 0 0z" fill="#2EA8FF"/><path d="M110.346 104.968l-2.672-3.341-6.681-.668-2.673 2.004" stroke="#972EFF" stroke-width=".163" stroke-miterlimit="10"/><path d="M110.345 104.3c.668.668.668.668 0 0 0 .668 0 .668 0 0-.668.668-.668.668 0 0zm-12.689-1.336c0 .668.668.668 0 0 .668 0 .668.668 0 0 .668 0 .668 0 0 0z" fill="#2EA8FF"/><path d="M90.313 103.632l9.353 9.353 6.681 1.336 8.685 8.685" stroke="#972EFF" stroke-width=".163" stroke-miterlimit="10"/><path d="M90.313 104.3c0-.669.668-.669 0 0 .668-.669.668 0 0 0zm24.05 18.707c.668-.669.668 0 0 0 0-.669.668-.669 0 0z" fill="#2EA8FF"/><path d="M125.734 86.261l-8.685 6.681-21.379-3.34-3.34-3.34-7.35-1.337" stroke="#972EFF" stroke-width=".163" stroke-miterlimit="10"/><path d="M84.98 84.257c-.668.668 0 .668 0 .668 0 .668.669 0 0-.668z" fill="#2EA8FF"/><path d="M127.071 86.93l-9.354 7.348L95.67 90.27l-3.34-3.34-7.35-.668" stroke="#972EFF" stroke-width=".163" stroke-miterlimit="10"/><path d="M84.98 85.593c-.668.668 0 .668 0 .668s.669 0 0-.668c.669.668.669 0 0 0z" fill="#2EA8FF"/><path d="M91.633 93.61l-5.344-5.345-6.013-1.336L68.25 74.903" stroke="#972EFF" stroke-width=".163" stroke-miterlimit="10"/><path d="M91.64 92.942c-.668.668 0 .668 0 0-.668 0-.668.668 0 0zM68.253 74.903c-.668-.668 0-.668 0 0-.668 0-.668 0 0 0 0 .668-.668.668 0 0z" fill="#2EA8FF"/><path d="M90.297 94.278l-4.676-4.676-7.35-1.337L68.25 78.244" stroke="#972EFF" stroke-width=".163" stroke-miterlimit="10"/><path d="M90.306 94.278c0 .668 0 .668 0 0-.668 0-.668 0 0 0 0-.668 0-.668 0 0zM68.253 77.576c-.668.668-.668.668 0 0-.668.668 0 .668 0 0 0 .668 0 .668 0 0z" fill="#2EA8FF"/><path d="M87.625 94.278l-10.022-2.004-9.353-9.354" stroke="#972EFF" stroke-width=".163" stroke-miterlimit="10"/><path d="M87.634 93.61v.668c-.668 0-.668 0 0-.668zM68.253 82.92c-.668 0-.668 0 0 0 0 .668 0 .668 0 0z" fill="#2EA8FF"/><path d="M124.398 84.925l-8.685 6.68-20.043-3.34-3.34-3.34-7.35-1.337" stroke="#972EFF" stroke-width=".163" stroke-miterlimit="10"/><path d="M84.98 83.588c-.668.669 0 .669 0 .669s.669 0 0-.669z" fill="#2EA8FF"/><path d="M62.926 23.46l2.004 11.358-1.336 2.004 2.004 15.366-3.34 4.677 1.336 5.344 2.672 3.341.669 4.677" stroke="#972EFF" stroke-width=".163" stroke-miterlimit="10"/><path d="M66.262 70.227c.668 0 .668 0 0 0h.668c0-.669 0-.669-.668 0z" fill="#2EA8FF"/><path d="M64.252 24.128l1.336 10.69-1.336 2.004 2.672 16.034-3.34 4.009.668 4.676 4.009 4.677 1.336 6.681" stroke="#972EFF" stroke-width=".163" stroke-miterlimit="10"/><path d="M68.934 72.9c.668 0 .668 0 0 0h.668c.668-.669 0-.669-.668 0z" fill="#2EA8FF"/><path d="M65.592 25.464l1.336 9.353-1.336 2.005 2.004 16.034-3.34 4.009.668 4.676 4.677 4.677 2.004.668L84.299 79.58" stroke="#972EFF" stroke-width=".163" stroke-miterlimit="10"/><path d="M84.3 80.248a.668.668 0 100-1.336.668.668 0 000 1.336z" fill="#2EA8FF"/><path d="M66.268 26.8l1.336 8.017-1.336 2.005 2.672 16.034-4.008 4.009.668 4.008 3.34 3.34" stroke="#972EFF" stroke-width=".163" stroke-miterlimit="10"/><path d="M68.942 64.214c.669 0 .669 0 0 0 0-.668 0-.668 0 0-.668 0-.668 0 0 0z" fill="#2EA8FF"/><path d="M67.598 28.137l1.336 6.68-1.336 2.005 2.004 16.034-3.34 4.009.668 4.008 16.034 16.035" stroke="#972EFF" stroke-width=".163" stroke-miterlimit="10"/><path d="M82.963 77.576c.668-.668.668-.668 0 0z" fill="#2EA8FF"/><path d="M68.928 29.473l.668 6.013-1.336 1.336 2.672 16.034-4.008 4.009.668 2.672 7.349 8.017 4.677.668 10.69 10.022v2.004" stroke="#972EFF" stroke-width=".163" stroke-miterlimit="10"/><path d="M89.643 80.248c.668.668.668.668 0 0z" fill="#2EA8FF"/><path d="M70.268 30.14l.668 5.346-1.336 1.336 2.004 16.034 9.353 9.353 3.34.668 4.01 4.01" stroke="#972EFF" stroke-width=".163" stroke-miterlimit="10"/><path d="M88.301 67.554a.668.668 0 100-1.336.668.668 0 000 1.336z" fill="#2EA8FF"/><path d="M71.604 31.477v4.009l-1.336 2.004 2.672 16.034 8.017 8.017h3.34l4.677 4.677" stroke="#972EFF" stroke-width=".163" stroke-miterlimit="10"/><path d="M88.3 66.218c.669-.668.669-.668 0 0z" fill="#2EA8FF"/><path d="M72.281 32.813l.668 2.673-1.336 2.004 2.005 16.034 7.349 6.681 3.34.668 5.345 4.677" stroke="#972EFF" stroke-width=".163" stroke-miterlimit="10"/><path d="M88.982 65.55c0 .668.668.668 0 0 .668 0 .668 0 0 0 .668-.668 0-.668 0 0z" fill="#2EA8FF"/><path d="M73.616 34.15l.668 1.336-2.005 2.004 2.673 16.034 4.008 4.009h4.677l8.685 9.353 2.004 14.698" stroke="#972EFF" stroke-width=".163" stroke-miterlimit="10"/><path d="M93.654 81.584h.668c0-.668 0-.668-.668 0 0-.668 0-.668 0 0z" fill="#2EA8FF"/><path d="M74.281 93.61l-.668.668h-2.672l-1.337.668-4.676-.668" stroke="#972EFF" stroke-width=".163" stroke-miterlimit="10"/><path d="M74.283 93.61c0-.668 0-.668 0 0 .668 0 .668 0 0 0 0 .668 0 .668 0 0zm-9.357 0c-.668.668 0 .668 0 .668v-.668z" fill="#2EA8FF"/><path d="M72.942 92.274v.668l-2.672-.668-.668.668-2.672-.668" stroke="#972EFF" stroke-width=".163" stroke-miterlimit="10"/><path d="M72.945 92.274c.668 0 .668 0 0 0 0 .668.668.668 0 0zm-6.01 0c-.668 0-.668 0 0 0-.668.668 0 .668 0 .668v-.668z" fill="#2EA8FF"/><path d="M111.688 71.563l-3.341 2.672h-4.008l-3.341 2.673.668 3.34" stroke="#972EFF" stroke-width=".163" stroke-miterlimit="10"/><path d="M100.998 80.248h.668c0-.668 0-.668-.668 0z" fill="#2EA8FF"/><path d="M112.357 72.899l-3.34 2.672h-4.009l-2.672 2.005.668 4.008" stroke="#972EFF" stroke-width=".163" stroke-miterlimit="10"/><path d="M102.336 81.584c0 .668.668.668 0 0z" fill="#2EA8FF"/><path d="M44.885 48.847h-.669l-.668.669h-3.34l-7.35-7.35h-.667l-4.009-4.008h-2.004" stroke="#972EFF" stroke-width=".163" stroke-miterlimit="10"/><path d="M44.889 48.848c.668 0 .668 0 0 0v.668-.668zm-18.711-10.69c0 .668.668.668 0 0 .668 0 .668 0 0 0z" fill="#2EA8FF"/><path d="M46.885 50.184h-.669L44.88 51.52h-.668l-.668-.668h-3.34l-7.35-7.35h-.668l-3.34-3.34h-.668" stroke="#972EFF" stroke-width=".163" stroke-miterlimit="10"/><path d="M46.884 50.184v.668c-.668 0-.668 0 0-.668-.668 0-.668 0 0 0zm-18.71-10.69c-.668.668 0 .668 0 .668s.668 0 0-.668c.668 0 .668 0 0 0z" fill="#2EA8FF"/><path d="M44.882 50.184h-4.676l-6.681-7.35h-1.337l-4.008-3.34-1.336-.668v.668" stroke="#972EFF" stroke-width=".163" stroke-miterlimit="10"/><path d="M44.88 50.184v.668c-.668 0-.668 0 0-.668-.668 0-.668 0 0 0zm-18.702-10.69c.668.668.668.668 0 0 .668 0 .668 0 0 0z" fill="#2EA8FF"/><path d="M42.869 48.848h-2.673l-6.68-6.681h-1.337l-4.008-4.677h-2.673l-.668 1.336" stroke="#972EFF" stroke-width=".163" stroke-miterlimit="10"/><path d="M42.87 48.18c0 .668 0 .668 0 0v.668c-.668.668-.668 0 0-.669-.668.669-.668 0 0 0zm-18.704-9.354c.668 0 .668 0 0 0 1.336 0 1.336 0 0 0 .668-.668.668-.668 0 0z" fill="#2EA8FF"/><path d="M40.87 47.511l-1.336-.668-5.344-5.345h-2.005l-4.677-4.676h-2.672L23.5 38.826v.668l.668.668" stroke="#972EFF" stroke-width=".163" stroke-miterlimit="10"/><path d="M24.173 40.162c.668 0 .668 0 0 0 0-.668 0-.668 0 0-.668 0-.668 0 0 0z" fill="#2EA8FF"/><path d="M43.54 47.511l-1.336-1.336-2.672-.668-4.677-4.677-1.336-.668-5.345-5.344h-1.336" stroke="#972EFF" stroke-width=".163" stroke-miterlimit="10"/><path d="M44.21 46.843c-.668.668-.668.668 0 0-.668 0-.668.668 0 0-.668 0-.668 0 0 0zM26.834 34.15c-.668.668 0 .668 0 .668s.668 0 0-.669z" fill="#2EA8FF"/><path d="M34.848 39.494h-1.336L27.5 33.481h-2.004l-1.336 1.337h-.668l-2.005-2.005" stroke="#972EFF" stroke-width=".163" stroke-miterlimit="10"/><path d="M21.49 32.813c0-.668 0-.668 0 0-.669 0-.669 0 0 0 0 .668 0 .668 0 0 .668 0 .668 0 0 0z" fill="#2EA8FF"/><path d="M8.145 25.464l16.034 16.702h1.336l.668-1.336 3.34.668 2.673 2.673h.668l7.35 6.68 3.34.669.668.668" stroke="#972EFF" stroke-width=".163" stroke-miterlimit="10"/><path d="M43.56 52.856c.669 0 .669 0 0 0 0-.668 0-.668 0 0z" fill="#2EA8FF"/><path d="M7.46 26.132l16.703 16.703H25.5l.668-1.337 3.34.669 2.673 2.672h.668l6.68 6.68 2.673.669 1.336 1.336h1.337" stroke="#972EFF" stroke-width=".163" stroke-miterlimit="10"/><path d="M44.867 53.524c.668-.668 0-.668 0-.668s-.668 0 0 .668z" fill="#2EA8FF"/><path d="M7.46 26.132l16.703 17.37h2.005v-.667h2.004l.668.668" stroke="#972EFF" stroke-width=".163" stroke-miterlimit="10"/><path d="M28.17 43.503c.668-.669.668 0 0 0 0-.669.668-.669 0 0z" fill="#2EA8FF"/><path d="M6.805 26.8l17.37 17.37h2.005l.668-.667h.668l2.004 2.004h1.336" stroke="#972EFF" stroke-width=".163" stroke-miterlimit="10"/><path d="M30.854 46.175c.668-.668 0-.668 0-.668s-.668 0 0 .668z" fill="#2EA8FF"/><path d="M6.13 28.805l17.371 18.038h2.005l2.004 2.004h.668" stroke="#972EFF" stroke-width=".163" stroke-miterlimit="10"/><path d="M28.184 48.847c.668 0 .668 0 0 0 .668-.668 0-.668 0-.668v.668z" fill="#2EA8FF"/><path d="M5.467 29.473L24.174 47.51h1.336l2.004 2.005 8.685 1.336 2.005 2.004 3.34.668 1.336.668.668.668" stroke="#972EFF" stroke-width=".163" stroke-miterlimit="10"/><path d="M43.541 54.86c.668 0 .668 0 0 0 .668-.668 0-.668 0-.668v.668z" fill="#2EA8FF"/><path d="M5.467 29.473l18.707 18.706h1.336l2.004 2.673 8.685.668 2.673 2.672" stroke="#972EFF" stroke-width=".163" stroke-miterlimit="10"/><path d="M38.207 54.192c.668 0 .668 0 0 0 .668-.668.668 0 0 0 .668-.668.668-.668 0 0z" fill="#2EA8FF"/><path d="M5.467 30.14l18.039 18.707h2.004l2.004 2.005 8.017 1.336 3.34 2.672h.669l.668-.668h1.336l1.336 1.337" stroke="#972EFF" stroke-width=".163" stroke-miterlimit="10"/><path d="M42.882 56.197c.668-.668.668-.668 0 0 0-.668 0-.668 0 0-.668-.668-.668-.668 0 0z" fill="#2EA8FF"/><path d="M4.803 30.809l18.706 18.707h2.005l2.004 2.672 6.013.668 2.004 2.004h2.673l2.672 3.34" stroke="#972EFF" stroke-width=".163" stroke-miterlimit="10"/><path d="M40.217 58.2c.668-.667.668-.667 0 0z" fill="#2EA8FF"/><path d="M33.53 57.533l-2.005-1.336-.668-.669-2.004 3.341-4.009-.668-.668-.668-6.013-.668-3.34-3.34-.668-4.01L1.46 36.823" stroke="#972EFF" stroke-width=".163" stroke-miterlimit="10"/><path d="M33.526 57.533c0 .668 0 .668 0 0-.668 0-.668 0 0 0z" fill="#2EA8FF"/><path d="M32.193 58.869l-1.336-1.336-2.004 2.004-4.009-.668-.668-.668-6.013-.668-4.008-4.009-.668-4.008L1.46 37.49" stroke="#972EFF" stroke-width=".163" stroke-miterlimit="10"/><path d="M32.862 58.869c-.668.668 0 .668 0 0-.668 0-.668 0 0 0 0-.668-.668-.668 0 0z" fill="#2EA8FF"/><path d="M24.167 58.869l-6.013-.668-4.009-4.677-1.336-4.008-10.69-10.69H.115" stroke="#972EFF" stroke-width=".163" stroke-miterlimit="10"/><path d="M24.169 58.2v.669c-.668.668-.668 0 0-.668-.668.668-.668 0 0 0z" fill="#2EA8FF"/><path d="M22.836 52.856H21.5L2.793 34.15" stroke="#972EFF" stroke-width=".163" stroke-miterlimit="10"/><path d="M27.513 54.86l-1.337-.668-2.004-2.004h-3.34L2.793 34.149" stroke="#972EFF" stroke-width=".163" stroke-miterlimit="10"/><path d="M26.838 52.856l-2.004-.668-.668-.668h-3.34L3.456 33.48" stroke="#972EFF" stroke-width=".163" stroke-miterlimit="10"/><path d="M26.845 52.188v.668c-.668 0-.668 0 0-.668z" fill="#2EA8FF"/><path d="M48.888 59.537v1.336l-.668.668-12.026-1.336-1.336 2.004-17.37-2.004-7.35-6.681.669-2.004" stroke="#972EFF" stroke-width=".163" stroke-miterlimit="10"/><path d="M48.893 59.537c.668-.668.668-.668.668 0 0 0-.668.668-.668 0z" fill="#2EA8FF"/><path d="M49.563 63.546L36.87 61.54l-2.004 2.673-17.37-2.673-8.018-7.349-.668-.668-6.013-5.345-3.34-.668-1.336 2.005h-3.34" stroke="#972EFF" stroke-width=".163" stroke-miterlimit="10"/><path d="M49.566 62.877v.668c-.669 0-.669 0 0-.668z" fill="#2EA8FF"/><path d="M49.55 64.214l-12.694-1.337-1.336 2.005-18.039-2.673-8.017-7.349h-.668l-6.013-6.013h-3.34l-.669 2.005-4.676-.668" stroke="#972EFF" stroke-width=".163" stroke-miterlimit="10"/><path d="M49.55 64.214v.668s-.667-.668 0-.668z" fill="#2EA8FF"/><path d="M16.158 64.882v.668h-1.336l-4.008-4.009H8.809l-2.004 2.673H4.133L1.46 61.54l-2.004-.668-4.677 8.018" stroke="#972EFF" stroke-width=".163" stroke-miterlimit="10"/><path d="M16.162 64.882c.668 0 .668 0 0 0 0 .668 0 .668 0 0 0 .668-.668 0 0 0z" fill="#2EA8FF"/><path d="M40.868 66.218l-5.344-.668-.668 1.336-12.694-2.004-1.336 1.336h-1.337L2.787 49.515H.115l-1.337 2.005-5.344-.668" stroke="#972EFF" stroke-width=".163" stroke-miterlimit="10"/><path d="M40.872 66.218v.668c-.668 0-.668-.668 0-.668-.668 0-.668 0 0 0z" fill="#2EA8FF"/><path d="M49.56 45.507l.668-1.336-.668-3.34-13.362-13.363h-1.336l-4.677-4.676h-8.017" stroke="#972EFF" stroke-width=".163" stroke-miterlimit="10"/><path d="M50.228 45.507c-.669-.668-.669-.668 0 0z" fill="#2EA8FF"/><path d="M54.232 41.499l-1.336-2.005-2.673-13.362-4.008-4.008-6.013-.668-3.34-3.34h-8.686l-1.336 2.003" stroke="#972EFF" stroke-width=".163" stroke-miterlimit="10"/><path d="M54.901 41.499c-.668.668 0 .668 0 0-.668 0-.668 0 0 0z" fill="#2EA8FF"/><path d="M54.23 38.158l-2.005-12.026-4.676-4.008-1.336-9.354L32.85-.592l-.669-4.676-4.676-4.677" stroke="#972EFF" stroke-width=".163" stroke-miterlimit="10"/><path d="M54.9 38.158c-.667.668-.668 0-.668 0h.669z" fill="#2EA8FF"/><path d="M46.887 42.835l-.668-2.673-10.022-10.021h-1.336l-5.344-5.345-5.345-.668-2.005 4.009-1.336-.669-2.672-2.672-3.34-12.026" stroke="#972EFF" stroke-width=".163" stroke-miterlimit="10"/><path d="M47.559 42.835c0 .668 0 .668 0 0-.668.668-.668.668-.668 0h.668z" fill="#2EA8FF"/><path d="M48.225 41.498l-.668-1.336-10.69-11.357h-2.004l-4.677-4.677-6.68-.668-2.005 2.672h-.668l-1.336-2.004-3.34-13.362" stroke="#972EFF" stroke-width=".163" stroke-miterlimit="10"/><path d="M48.22 41.498c-.667.669-.667.669-.667 0h.668z" fill="#2EA8FF"/><path d="M52.231 42.834l-1.336-6.68L34.192 19.45l-4.676-.668-.668 2.004" stroke="#972EFF" stroke-width=".163" stroke-miterlimit="10"/><path d="M52.233 42.834c-.669.668-.668 0-.668 0s0-.668.668 0c0-.668 0-.668 0 0z" fill="#2EA8FF"/><path d="M50.238 38.826l-.668-2.004-12.026-12.026H35.54l-4.009-4.009h-.668" stroke="#972EFF" stroke-width=".163" stroke-miterlimit="10"/><path d="M50.23 38.158c0 .668 0 .668 0 0-.667.668-.667 0-.667 0h.668z" fill="#2EA8FF"/><path d="M48.893 52.188l3.34 3.34.668 3.341 3.34 3.34" stroke="#972EFF" stroke-width=".163" stroke-miterlimit="10"/><path d="M48.897 52.856a.668.668 0 100-1.336.668.668 0 000 1.336zm6.675 9.354c.668-.669.668 0 0 0 0-.669.668-.669 0 0z" fill="#2EA8FF"/><path d="M47.543 53.524l3.34 3.34.669 4.01 2.672 2.672" stroke="#972EFF" stroke-width=".163" stroke-miterlimit="10"/><path d="M47.543 53.524c0-.668 0-.668 0 0 .668 0 .668 0 0 0zm6.68 10.022c0 .668.668.668 0 0 .668 0 .668 0 0 0 .668-.669 0-.669 0 0z" fill="#2EA8FF"/><path d="M46.889 54.86l3.34 3.34.668 4.01 2.673 2.672" stroke="#972EFF" stroke-width=".163" stroke-miterlimit="10"/><path d="M46.225 54.86c0-.668.668-.668 0 0 .668 0 .668 0 0 0zm6.679 10.022c.668-.668.668-.668 0 0z" fill="#2EA8FF"/><path d="M54.234 23.46l1.337 4.677 1.336 1.336h2.672l1.336 2.004 3.34 19.375-4.008 4.677 2.005 9.353" stroke="#972EFF" stroke-width=".163" stroke-miterlimit="10"/><path d="M59.582 32.145l2.673 18.038-3.34 4.677 1.335 8.017" stroke="#972EFF" stroke-width=".163" stroke-miterlimit="10"/><path d="M57.568 32.145l3.34 16.702-3.34 4.677" stroke="#972EFF" stroke-width=".163" stroke-miterlimit="10"/><path d="M56.902 52.856c.668.668.668.668 0 0 .668 0 .668.668 0 0z" fill="#2EA8FF"/><path d="M68.25 80.916l9.353 9.354 6.681 1.336" stroke="#972EFF" stroke-width=".163" stroke-miterlimit="10"/><path d="M68.253 80.916c-.668-.668-.668 0 0 0 0-.668 0-.668 0 0 .668 0 .668-.668 0 0zm16.037 10.69c.667 0 .667 0 0 0 .667-.668 0-.668 0-.668v.668z" fill="#2EA8FF"/><path d="M70.268 67.554l.668 6.681" stroke="#972EFF" stroke-width=".163" stroke-miterlimit="10"/><path d="M69.602 67.554c.668-.668.668 0 .668 0s0 .668-.668 0c0 .668 0 .668 0 0zm.668 6.681c.668 0 .668 0 0 0h.668c0-.668 0-.668-.669 0z" fill="#2EA8FF"/><path d="M70.93 68.89l1.336 6.681" stroke="#972EFF" stroke-width=".163" stroke-miterlimit="10"/><path d="M70.93 68.89c.668-.668.668 0 .668 0s0 .668-.668 0zm.668 6.681h.668c0-.668 0-.668-.668 0 .668-.668 0-.668 0 0z" fill="#2EA8FF"/><path d="M72.28 70.227l1.336 6.68" stroke="#972EFF" stroke-width=".163" stroke-miterlimit="10"/><path d="M72.28 70.227c.667-.668.667 0 .667 0s0 .668-.668 0zm.663 6.681h.669c0-.668 0-.668-.669 0 0-.668 0-.668 0 0z" fill="#2EA8FF"/><path d="M73.607 71.563l1.337 6.013" stroke="#972EFF" stroke-width=".163" stroke-miterlimit="10"/><path d="M73.607 71.563c.668-.668.668 0 .668 0h-.668zm.666 6.681h.669c0-.668 0-.668-.669 0 0-.668 0-.668 0 0z" fill="#2EA8FF"/><path d="M74.945 72.899l1.337 6.013" stroke="#972EFF" stroke-width=".163" stroke-miterlimit="10"/><path d="M74.945 72.899c.668-.668.668 0 .668 0h-.668z" fill="#2EA8FF"/><path d="M76.285 74.235l1.336 6.013" stroke="#972EFF" stroke-width=".163" stroke-miterlimit="10"/><path d="M76.285 74.235c.668-.668.668 0 .668 0h-.668z" fill="#2EA8FF"/><path d="M103.008 135.032l-2.005-1.336-3.34-1.336-4.677 3.34 2.005 12.694 10.021 10.022" stroke="#972EFF" stroke-width=".489" stroke-miterlimit="10"/><path d="M153.108 113.653v2.004l-44.094 26.724-4.009-.668-2.672-2.672h-.668l-1.336.668-1.337-.668-.668-.668-.668-1.337 1.336-.668" stroke="#972EFF" stroke-width=".163" stroke-miterlimit="10"/><path d="M98.991 136.368c0-.668 0-.668 0 0-.668 0-.668 0 0 0 0 .668-.668.668 0 0z" fill="#2EA8FF"/><path d="M153.782 114.321v2.004l-44.095 26.724-4.676-1.336-2.673-2.004-.668-.668-1.336 1.336" stroke="#972EFF" stroke-width=".163" stroke-miterlimit="10"/><path d="M154.454 114.321v2.673l-44.763 26.723-4.676-1.336-2.005-2.004-.668-.668-2.672 1.336m10.68 14.03l-2.004-2.004-.668-4.009 8.017-4.677 3.34.669 38.75-22.048 6.013 1.337" stroke="#972EFF" stroke-width=".163" stroke-miterlimit="10"/><path d="M64.926 96.282l-2.004-.668-6.013-6.013-.668-1.336-1.336-2.004H52.9l-7.349 7.349-1.336-.668-3.34 4.009 2.004 9.353 2.004 2.004.668 1.336-1.336 2.005-9.353-2.673-2.672 2.673" stroke="#972EFF" stroke-width=".489" stroke-miterlimit="10"/><path d="M55.568 90.27v-1.337l-1.336-.668-.668-.668-6.681 7.35v1.335l-4.009 4.009 1.336 6.013 2.005 2.004.668 2.673-5.345 5.344-2.672-.668-2.005 2.005m38.756-1.337l2.004 2.005 2.005 9.353 3.34 3.34 1.337 8.018-2.005 1.336.668 5.345 16.035 16.034m-22.056-46.767l4.677 4.677 1.336 7.349m-64.13-34.073l2.673-3.34 4.008.667 3.34-4.008M6.13 80.916l12.027 2.005 5.344-7.35 6.013.669.668-1.337 7.35 1.337.668-.669h2.672l.668.669 4.009.668 3.34-3.34 5.345 1.335m26.053 24.72l10.022 2.004 7.349 7.349 8.017 1.337 5.345 5.344 8.685 1.337 4.677-2.673m14.024-16.034l-12.694 9.353-6.013-1.336-11.357-11.358-11.358-2.004-5.345 4.677-13.362-2.673L63.58 80.248l-15.366-2.004" stroke="#972EFF" stroke-width=".489" stroke-miterlimit="10"/><path d="M94.98 100.291l4.009-3.34 9.353 2.004 10.69 10.021 7.349 2.005 14.03-10.022m-22.044-22.047l-11.358 9.353-10.69-1.336-3.34-4.008-12.026-2.005m-70.15-60.129l9.353 9.354h3.34l1.337-2.004 3.34.668 27.392 27.392m-3.338 10.689l-8.685-1.336-3.34 4.009-6.681-.668-1.337 2.004L20.16 68.89l-3.34 4.676-5.345-.668-2.005 2.673-2.672-.669-5.345-5.344h-3.34l-1.337 1.336M8.807 23.46l14.03 13.362" stroke="#972EFF" stroke-width=".489" stroke-miterlimit="10"/><path d="M76.274 36.154l-1.337 2.004 1.337 13.362 4.008 3.34 4.677.669 11.358 12.025L98.32 83.59m63.473 42.757h-.668l-40.086 22.047-4.008-.668-6.013 3.34v2.005l1.336 1.336" stroke="#972EFF" stroke-width=".489" stroke-miterlimit="10"/><path d="M151.108 111.649l-26.056 16.034-2.672-.668-2.004 1.336v2.673l-14.03 8.685-2.005-.668-4.676-4.009-1.337-.668-2.004 1.336.668 3.341 1.337 1.336.668 4.009-2.005 1.336v2.004l9.354 9.353" stroke="#972EFF" stroke-width=".489" stroke-miterlimit="10"/><path d="M37.526 34.15h-.669v-.669h.669v.668zm2.674 3.34h-.669v-.668h.668s.669 0 0 .668zm3.341 2.672h-.668v-.668h.668v.668zm29.388 16.035c-.668 0-.668 0 0 0-.668-.668 0-.668 0 0zm1.346 1.336c0 .668 0 .668 0 0-.669 0-.669 0 0 0 0-.668 0-.668 0 0zm1.33 2.004c-.669-.668-.669-.668 0 0 0-.668 0-.668 0 0 .668-.668.668-.668 0 0zm3.341 2.673c-.668-.669-.668 0 0 0-.668-.669-.668-.669 0 0zm-6.681-4.677c-.668-.668-.668-.668 0 0-.668-.668 0-.668 0 0 0-.668 0-.668 0 0zm1.33 1.336c-.668-.668-.668-.668 0 0-.668-.668 0-.668 0 0zm1.345 1.336c-.668-.668-.668 0 0 0 0-.668 0-.668 0 0zm1.33 1.336c-.667-.668-.667 0 0 0 0-.668 0-.668 0 0zm1.338 1.337c0-.668 0-.668 0 0 .668 0 .668 0 0 0zM71.599 58.2c-.668 0-.668 0 0 0-.668-.667-.668 0 0 0-.668-.667-.668-.667 0 0zm1.33 1.337c-.668 0-.668 0 0 0-.668-.668-.668-.668 0 0zm1.346 1.336c-.669 0-.669 0 0 0-.669-.668 0-.668 0 0zm1.33 1.337c0 .668 0 .668 0 0-.669 0-.669 0 0 0 0-.669-.669-.669 0 0zm1.332 2.004c-.668-.668-.668-.668 0 0zm-17.369 2.004c-.669 0-.669 0 0 0 0-.668 0-.668 0 0zm5.351 5.345c-.668-.668-.668-.668 0 0-.668-.668 0-.668 0 0zm-6.018-4.677c-.668 0-.668 0 0 0-.668-.668-.668 0 0 0-.668-.668-.668-.668 0 0zm1.33 1.336c-.668 0-.668 0 0 0-.668-.668-.668 0 0 0-.668-.668-.668-.668 0 0zm1.346 1.337c-.668 0-.668 0 0 0-.668-.668-.668 0 0 0-.668-.668-.668-.668 0 0zm1.333 1.336c-.669-.668-.669 0 0 0-.669-.668-.669-.668 0 0zm1.343 1.336c-.668-.668-.668 0 0 0-.668-.668-.668-.668 0 0zm-6.687-4.677c0-.668 0-.668 0 0 .668 0 .668 0 0 0zm1.331 1.336c0-.668 0-.668 0 0 .668 0 .668 0 0 0zm2.016 1.337c-.668-.668-.668-.668 0 0zm1.33 1.336c-.668-.668-.668-.668 0 0zm1.33 1.337c-.668-.669-.668-.669 0 0zm6.68-14.031c0 .668 0 .668 0 0-.668 0-.668 0 0 0 0-.668 0-.668 0 0 .668 0 .668 0 0 0zm2.012 1.336c-.668.668-.668.668 0 0-.668 0-.668 0 0 0-.668 0-.668-.668 0 0zm4.005 4.677c-.667-.668-.667 0 0 0-.667-.668 0-.668 0 0zm-6.681-4.677c-.668-.668-.668-.668 0 0 0-.668 0-.668 0 0zm1.346 1.336c-.668-.668-.668 0 0 0 0-.668 0-.668 0 0 .668 0 0-.668 0 0zm1.333 1.337c0-.668 0-.668 0 0 .668-.668.668 0 0 0zm2.007 1.336c-.669 0-.669 0 0 0-.669-.668-.669 0 0 0-.669-.668-.669-.668 0 0zm1.33 1.336c-.669 0-.669 0 0 0-.669-.668-.669-.668 0 0z" fill="#B02EFF"/><path d="M91.644 54.86h-1.336c-.668-.668-.668-.668 0-1.336h1.336v1.336zm1.998 2.005h-1.336c-.668-.669-.668-.669 0-1.337h1.336c0 .669.668 1.337 0 1.337zm2.674 2.672H94.98c-.669-.668-.669-.668 0-1.336h1.336v1.336z" stroke="#972EFF" stroke-width=".163" stroke-miterlimit="10"/><path d="M98.326 61.541h-1.337c-.668-.668-.668-.668 0-1.336h1.337v1.336z" fill="#B02EFF"/><path d="M89.636 56.865H88.3c-.668-.669-.668-.669 0-1.337h1.336v1.337z" stroke="#972EFF" stroke-width=".163" stroke-miterlimit="10"/><path d="M91.644 58.87h-1.336c-.668-.669-.668-.669 0-1.337h1.336c.668.668.668 1.336 0 1.336z" fill="#B02EFF"/><path d="M94.308 61.541h-1.336c-.668-.668-.668-.668 0-1.336h1.336v1.336zm2.008 2.005H94.98c-.669 0-.669-.669 0-1.337h1.336v1.337z" stroke="#972EFF" stroke-width=".163" stroke-miterlimit="10"/><path d="M16.157 69.559c-.668-.668-.668-.668 0 0-.668-.668 0-.668 0 0 0-.668 0-.668 0 0zm107.555 32.068l-3.341-3.34 3.341-2.004 2.672 3.34-2.672 2.004zm-37.421 10.022l-1.336-.668 2.004-1.336 1.337.668-2.005 1.336zm1.342 2.004l-.668-.668 2.004-2.004.668.668-2.004 2.004zm1.997 2.004l-.67-1.336 2.005-1.336.668.668-2.004 2.004zm2.01 1.337l-1.335-.669 2.004-1.336 1.336.668-2.004 1.337zm-62.791-15.367l-6.681-7.349.668-1.336 7.35 7.349-1.337 1.336zm62.129 26.056c-.668.668-2.004 0-2.672-.668-.668-.668-.668-2.004 0-2.004.668-.668 2.004 0 2.672.668.668.668.668 2.004 0 2.004zm-3.342 2.673c-.668.668-1.336 0-2.672-.669-.668-.668-.668-2.004 0-2.004.668-.668 1.336 0 2.672.668v2.005zM54.908 45.507c-.668 0-.668-.668-.668-.668h.668v.668zm3.342 3.341c-.668 0-.668-.669-.668-.669h.668v.669zm-5.35-.668c-.667.668 0 .668 0 0-.667 0-.668-.669-.668-.669h.669v.668zm3.342 3.34c-.668 0-.668 0 0 0-.668 0-.668-.668-.668-.668h.668v.668z" fill="#B02EFF"/><path d="M55.572 74.903l10.69 1.337" stroke="#972EFF" stroke-width=".163" stroke-miterlimit="10"/><path d="M55.572 75.572v-.669c.668 0 .668 0 0 .669.668 0 .668 0 0 0zm10.693 1.336c.668-.668 0-.668 0-.668s-.668 0 0 .668c-.668 0-.668 0 0 0z" fill="#B02EFF"/><path d="M59.578 86.93L69.6 88.932" stroke="#972EFF" stroke-width=".163" stroke-miterlimit="10"/><path d="M59.578 87.597v-.668c.668 0 .668 0 0 .668zm10.02 2.005c.668-.669 0-.669 0-.669v.668z" fill="#B02EFF"/></g><path d="M83.622 106.304c2.672.668 5.344 0 7.349-2.004l.668-.668c5.345-4.01 5.345-14.03-1.336-20.712l-1.337-1.336 7.35-6.68v-2.005l-15.367 2.004-3.34-3.34 8.017-8.017V61.54l-14.698 2.673-18.039-8.017V58.2l8.017 8.017L42.2 87.598l-11.357-4.01v1.337l10.69 10.69-5.345 4.008v1.336l6.012 6.013 5.345-5.345 3.34 3.341-5.344 4.008v1.336l6.013 6.013 5.345-5.344 3.34 3.34c6.681 6.681 16.034 8.685 20.711 4.677l.668-.668c2.673-2.005 4.009-6.681 2.005-12.026zm-10.69-14.698l-7.35-7.35 6.682-7.348 8.017 8.017c1.336 1.336 2.004 2.672 2.672 4.677 0 1.336 0 2.672-1.336 4.008-2.672 1.336-6.013.668-8.685-2.004zM59.57 89.602l8.685 8.685c1.337 1.336 2.673 3.34 3.34 5.345 0 2.004 0 3.34-1.335 4.676-2.673 2.004-6.681 1.336-10.022-2.004l-8.685-8.685 8.017-8.017z" fill="#300551"/><path d="M83.628 104.968c2.672 0 5.344 0 7.349-2.005l.668-.668c5.345-4.008 4.008-13.362-2.673-20.043l-1.336-1.336 8.017-7.349-7.349-7.349-8.017 8.017-4.008-4.008 8.017-8.018-7.35-7.349-7.348 8.017-12.694-12.693-5.345 6.68 8.017 8.018L40.87 86.929l-6.013-6.013-5.344 4.009 10.69 10.69-5.346 5.344 6.013 6.013 5.345-5.345 3.34 3.341-5.344 5.344 6.013 6.013 5.345-5.344 4.008 2.672c6.681 6.681 16.035 8.685 20.711 4.677l.668-.668c3.34-2.673 4.677-7.35 2.673-12.694zm-10.69-15.367l-8.017-8.017 6.68-7.349 8.018 8.017c1.336 1.337 2.004 2.673 2.672 4.677 0 1.336 0 2.672-1.336 4.009-2.004 2.004-5.344 1.336-8.017-1.337zm-13.362-1.336l8.685 8.686c1.337 1.336 2.673 3.34 3.34 5.344 0 2.005 0 3.341-1.335 4.677-2.673 2.004-6.681 1.336-10.022-2.004l-8.685-8.686 8.017-8.017z" fill="#CC8CFF"/><path d="M109.016 44.171c17.37 17.37 26.724 38.082 27.392 57.456.668 18.039-6.681 32.069-20.043 40.086-12.026 6.681-26.724 8.017-42.758 3.341-14.699-4.009-29.397-12.694-40.754-24.72-12.026-12.026-20.711-26.056-24.72-40.754-4.677-16.034-3.34-30.732 3.34-42.758 8.018-12.694 21.38-20.711 40.087-20.043 19.374.668 40.085 10.69 57.456 27.392zm2.672-2.672C73.607 4.085 25.504 3.417 8.133 34.149c-14.03 24.72-3.34 62.134 22.715 88.189 26.056 25.388 63.47 36.746 88.189 22.716 30.733-18.039 30.733-66.142-7.349-103.555z" fill="#4B0551"/><path d="M110.353 42.835c18.039 18.038 28.061 39.417 28.061 59.46.668 18.707-7.35 33.405-20.712 40.754-12.025 7.349-28.06 8.018-44.094 3.341-15.366-4.009-30.064-13.362-42.09-25.388-12.026-12.026-21.38-26.724-25.388-42.09-4.677-16.034-3.34-32.069 3.34-44.095 8.018-13.361 22.048-21.379 40.755-20.71 20.71.668 42.758 10.69 60.128 28.728zm3.341-3.34C74.276.075 24.837.744 6.798 32.144-7.9 57.533 4.126 96.283 30.182 123.006c26.724 26.724 64.805 38.082 90.861 23.384 32.069-18.039 32.069-68.146-7.349-106.896z" fill="url(#paint0_linear_118_549)"/><path d="M110.354 139.709c.668-.668 2.004-.668 2.672-1.336l3.34 3.34c-.668.668-2.004 1.336-2.672 1.336l-3.34-3.34zm-1.331.668v-.668l3.341 3.34-.668.668-2.673-3.34zm-2.009.668l1.336-.668 2.672 3.34-1.336.668-2.672-3.34zm-8.012 2.004h1.336l2.004 3.341h-1.336l-2.004-3.341zm-2.01.668h1.336l2.005 3.341h-.668l-2.673-3.341zm8.692-2.672h.668l2.672 3.34-3.34-3.34zm-15.371 3.34h.668l1.336 3.341-2.004-3.341zm-2.01 0h1.336l1.336 3.341h-.668l-2.004-3.341zm-1.333-.668l.669.668 1.336 2.673h-.668l-1.336-3.341zm14.028-.668c1.336-.668 2.672-.668 4.009-1.336l2.672 3.341c-1.336.668-2.672.668-4.677 1.336l-2.004-3.341z" fill="#BC2EFF"/><path d="M91.643 144.385h4.008l2.004 3.341h-5.344l-.668-3.341zm-8.016-.668h3.34l1.337 3.341h-3.34l-1.337-3.341zm-1.33 0h.668l1.336 3.341h-.668l-1.336-3.341zm-2.007-.668h1.335l1.336 3.341h-1.336l-1.336-3.341zm-8.68-2.004l.667.668.669 2.672h-1.337v-3.34zm-2.01-.668l1.336.668v2.672H69.6v-3.34zm9.357 2.672h.668l.668 3.341-1.336-3.341zm-16.037-5.345c0 .668 0 .668 0 0l.668 3.341h-.668v-3.341zm-2.006-.668l.668.669v2.672l-1.336-.668.668-2.673zm-1.332-.668v2.673h-.668l.668-2.673zm14.025 5.345l2.005.668 2.672.668.668 3.341-2.672-.668-2.005-.669-.668-3.34zm-9.343-3.341c1.336.669 3.34 1.337 4.676 2.005v2.672c-1.336-.668-3.34-1.336-4.676-2.004v-2.673zm-8.028-3.34l1.337.668c.668 0 1.336.668 1.336.668v2.673c-.668 0-1.337-.668-1.337-.668l-1.336-.668v-2.673zm-1.339-.668h.668l-.668 2.672-.669-.668.669-2.004zm-1.998-1.336c.668 0 .668.668 1.336.668l-.668 2.673c-.668 0-.668-.669-1.337-.669l.669-2.672zm-8.024-5.345l.668.668-.668 2.005-1.336-.669 1.336-2.004zm-1.995-1.336l.667.668-1.336 2.004c-.668 0-.668-.668-.668-.668l1.336-2.004zm8.675 6.013h.668l-.668 2.672-.668-.668.668-2.004zm-14.023-11.358v.668l-1.336 1.336h-.669l2.005-2.004zm-2.01-1.336l1.336.668-2.004 2.004-.669-1.336 1.337-1.336zm-.664-1.336v.668l-1.336 1.336h-.669l2.005-2.004zm12.025 10.689c.668.668 1.336.668 2.004 1.337l2.005 1.336-.669 2.672-2.004-1.336c-.668-.668-1.336-1.336-2.004-1.336l.668-2.673zm-8.683-6.681l2.004 2.005.668.668.668.668-1.336 2.004-1.336-.668-1.336-.668-2.005-2.004 2.673-2.005z" fill="#BC2EFF"/><path d="M32.198 115.657l2.672 2.673-2.004 2.004-2.673-2.672 2.005-2.005zm-1.342-.668h.668l-2.004 1.337h-.668l2.004-1.337zm-1.332-2.004l.668 1.336-2.004 1.336-.668-1.336 2.004-1.336zm-6.014-8.017l.668 1.336-2.004.668-.668-.668 2.004-1.336zm-1.332-1.336l.668.668-2.004 1.336-.668-1.336 2.004-.668zm6.68 8.017v.668l-2.005 1.336v-.668l2.005-1.336zM18.163 96.95l.668.669-2.673.668-.668-.668 2.673-.668zm-.666-2.004l.668 1.337h-2.673l-.668-.668 2.673-.669zm-.667-1.336v.668h-2.672l2.673-.668zm8.022 13.362c1.336 1.336 2.004 2.672 3.34 4.009l-2.004 1.336c-1.336-1.336-2.004-2.673-3.34-4.009l2.004-1.336zm-6.014-8.685c.668.668.668 1.336 1.337 2.004l1.336 2.004-2.673.669-1.336-2.005c-.668-.668-.668-1.336-1.336-2.004l2.672-.668z" fill="#BC2EFF"/><path d="M15.485 90.938c.668 1.336.668 2.004 1.336 3.34H14.15c-.668-1.336-1.336-2.004-1.336-3.34h2.672zm-.662-2.005v.668H12.15l-.668-.668h3.34zm-1.346-2.004c0 .668 0 .668.668 1.336h-2.672c0-.668 0-.668-.668-1.336h2.672zm-2.664-8.685l.668 1.336-3.34-.668v-1.336l2.672.668zm-.008-2.004v1.336l-3.34-.668V75.57l3.34.669zm2.675 9.353v.668h-2.673l-.668-.668h3.34zM9.473 69.559l-3.34-.668v-.669l3.34 1.337zm0-2.005v.668l-3.34-1.336v-.668l3.34 1.336zm0-1.336l-3.34-1.336 3.34 1.336zm2.008 14.03l.668 2.004.668 2.673h-2.672l-.668-2.672L8.14 79.58l3.34.668zm-2.008-9.353c0 1.336.668 3.34.668 4.676l-3.34-.668c-.668-1.336-.668-3.34-.668-4.676l3.34.668zm-.666-8.017v2.672l-3.34-1.336v-4.009l3.34 2.673zm0-1.337l-3.34-1.336v-.668l3.34 2.004zm.666-2.004v1.336l-3.34-2.004v-1.336l3.34 2.004zm1.332-8.685l-.668 1.336-3.34-2.672.668-1.337 3.34 2.673zm.676-2.004v.668l-3.34-2.673v-1.336l3.34 3.34zM9.473 58.2l-3.34-2.004 3.34 2.005zm4.007-15.365v.668l-3.341-2.673v-.668l3.34 2.673zm1.345-1.337l-.668.669-3.34-2.673.668-1.336 3.34 3.34zm.665-1.336l-.667.668-3.34-3.34h.667l3.34 2.672zm-5.349 12.694c0 .668 0 1.336-.668 2.004v2.005l-3.34-2.005v-2.672c0-.668 0-1.336.668-2.004l3.34 2.672z" fill="#BC2EFF"/><path d="M12.82 44.17c0 .669-.669 1.337-.669 2.005l-.668.668-.668 1.336-3.34-2.672.668-1.336.668-1.336c0-.669.668-1.337.668-2.005l3.34 3.34zm4.005-6.012c-.668.668-1.336 2.004-2.004 2.672l-3.34-3.34c.668-.668 1.336-2.005 2.004-2.673l3.34 3.34zm.67-1.336l-3.34-3.34h.667l2.673 3.34zm1.332-1.337l-.668.669-2.673-3.341.668-1.336 2.673 4.008zm6.683-6.012l-1.336.668-2.672-4.009 1.336-.668 2.672 4.009zm1.342-.668l-.668.668-2.672-4.677.668-.668 2.672 4.677zm-7.35 5.345v.668l-2.672-4.01 2.672 3.341zm13.362-8.686l-2.673-4.677h.668l2.005 4.677zm1.996-.668l-.668.668-2.005-4.677.669-.668 2.004 4.677zm2.01-.668l-.668.668-2.005-4.677.668-.668 2.005 4.677zm-13.361 6.681c-1.336.668-2.004 2.004-3.34 2.672l-2.673-4.008 3.34-3.34 2.673 4.676zm8.68-4.677c-.668 0-1.336.668-2.004.668l-2.005 1.336-2.672-4.008 2.004-1.336c.668-.669 1.336-.669 2.004-1.337l2.673 4.677z" fill="#BC2EFF"/><path d="M40.208 23.46c-1.336 0-2.004.668-3.34.668l-2.005-4.677c1.337-.668 2.673-.668 3.34-.668l2.005 4.677zm1.332 0h-.669l-1.336-4.677.668-.668 1.336 5.345zm2.011-.668h-1.336l-1.336-4.677h1.336l1.336 4.677zm10.686 0H52.9l-.669-5.345h1.337l.668 5.345zm2.673 0h-1.336l-.668-5.345 1.336.668.669 4.677zm-11.353 0h-.668l-1.336-4.677h.668l1.336 4.677zm20.039 2.004l-.668-5.345h.668v5.345zm2.678.668l-1.337-.668v-4.677h2.005l-.668 5.345zm1.992.668l-.668-.668.668-4.677h.668l-.668 5.345zm-18.036-3.34h-6.013l-.668-5.345h5.345l1.336 5.345zm12.031 1.336c-2.004-.668-4.008-.668-6.013-1.336l-.668-5.345c2.004 0 4.009.668 6.681 1.336v5.345zm10.015 3.34l-2.004-.668c-.668 0-1.336-.668-2.004-.668l.668-4.677c.668 0 1.336.669 2.004.669l2.004.668-.668 4.676zm2.009.668h-.668l1.337-4.676h.668l-1.337 4.676zm2.666 1.337c-.668 0-.668-.668-1.336-.668l1.336-4.677c.669 0 1.337.668 1.337.668l-1.337 4.677zm12.034 6.681l-2.004-.669 2.004-4.676 2.004 1.336-2.004 4.009zm1.994 1.336c-.668-.668-.668-.668-1.336-.668l2.004-4.009c.668 0 .668.668 1.336 1.337l-2.004 3.34zm-12.022-7.35h-.668l1.336-4.676h.668l-1.336 4.677zm20.707 14.03h-.668l2.673-4.008.668.668-2.673 3.34zm2.014 2.673l-1.336-1.336 3.34-3.34 1.337.668-3.341 4.008zm1.324 1.337v-.669l2.672-3.34.668.668-3.34 3.34zM88.308 34.15c-.668-.669-2.005-1.337-2.673-2.005l-2.672-1.336 1.336-4.677 3.34 2.005c1.337.668 2.005 1.336 3.341 2.004l-2.672 4.009zm11.353 8.685c-.668-.669-2.004-1.337-2.672-2.005l-1.336-1.336-1.337-1.336 2.673-4.009 1.336 1.337 1.336 1.336c.668.668 2.004 1.336 2.673 2.672l-2.673 3.34z" fill="#BC2EFF"/><path d="M108.356 51.52c-1.336-1.336-2.004-2.673-3.34-4.009l3.34-3.34 4.009 4.008-4.009 3.34zm2 2.004l-.668-.668 3.34-2.672.668.668-3.34 2.672zm2.011 2.005l-1.336-1.337 4.009-2.672.668 1.336-3.341 2.672zm7.344 11.357l-.668-1.336 4.677-2.004.668 2.004-4.677 1.336zm1.344 2.672l-.668-1.336 4.676-2.004.668 2.004-4.676 1.337zm-7.358-12.025l-.668-.668 4.009-2.673.668.668-4.009 2.673zm12.026 20.711l4.676-1.336v.668l-4.676.668zm.668 2.672V79.58l4.676-.668.668 2.004h-5.344zm.677 2.004v-.668h5.345l-5.345.669zm-8.688-18.706l-4.009-6.013 4.009-2.672 4.008 6.012-4.008 2.673zm6.677 12.694c-.668-1.337-.668-2.005-1.336-3.34l-1.336-3.341 4.677-1.336 1.336 3.34c.668 1.336.668 2.004 1.336 3.34l-4.677 1.337zm3.334 10.689c-.668-1.336-.668-2.672-1.336-4.008l4.676-.669c.668 1.337.668 3.34 1.337 4.677h-4.677zm.671 1.336v-.668h4.677v.668h-4.677zm.667 2.673v-1.337h5.344v1.337h-5.344zm.667 11.357v-1.336l5.345.668v2.004l-5.345-1.336zm0 2.005v-1.336l5.345 1.336v1.336l-5.345-1.336zm-.667-11.358v-.668l5.344.668h-5.344zm0 19.375l4.676 1.336v.668l-4.676-2.004zm-.667 2.004l.669-.668 4.676 1.336-.668 1.337-4.677-2.005zm0 1.336l4.677 2.005-4.677-2.005zm1.334-16.034v-5.345h4.677l.668 3.34v3.341l-5.345-1.336zm-.667 11.358c0-2.005.668-3.341.668-5.345l4.676 1.336c0 2.004-.668 4.009-.668 5.345l-4.676-1.336zm-2.008 8.017l.668-1.336c0-.668 0-1.337.668-1.337l4.677 2.005c0 .668-.668 1.336-.668 2.004l-.669 2.004-4.676-3.34zm-.666 1.336l4.676 2.004v.669l-4.676-2.673z" fill="#BC2EFF"/><path d="M126.389 123.006s0-.668.668-1.336l4.676 2.005c0 .668 0 .668-.668 1.336l-4.676-2.005zm-4.672 7.349l.668-.668 4.008 2.673-.668 1.336-4.008-3.341zm-1.342 1.337l.668-.668 4.009 2.672-.668.668-4.009-2.672zm5.348-7.349l4.676 2.004-.668.668-4.008-2.672zm-10.022 12.025v-.668l3.341 3.341-3.341-2.673zm-2.008.668h1.337l3.34 2.673-1.336.668-3.341-3.341zm-.666.669l3.341 3.34-3.341-3.34zm9.356-8.686c.668-.668.668-1.336 1.336-2.004l1.336-2.004 4.009 2.672-1.336 2.004c-.668.668-.668 1.337-1.337 2.005l-4.008-2.673zm-6.014 6.681c.668-.668 1.336-.668 1.336-1.336l.668-.668.668-.668 4.009 2.672-.668.668-.668.668c-.668.668-1.336 1.337-2.004 1.337l-3.341-2.673zM36.2 118.33c-2.004-2.005-3.34-3.341-4.009-4.677l-.668-.668.668-.668.669.668 4.008 4.009-.668 1.336zm2.672 2.672l.669-.668.668.668c1.336 1.336 2.672 2.673 4.008 3.341l.668.668-.668.668-.668-.668c-1.336-1.336-2.672-2.005-4.677-4.009zm-10.021-11.358c-1.336-2.004-2.672-3.34-4.009-5.344l-.668-.668.668-.668.669.668c1.336 1.336 2.004 2.672 3.34 4.676l.668.668-.668.668zm18.707 18.039l.668-.668.668.668c1.336 1.336 3.34 2.004 4.677 2.673l.668.668v.668l-.668-.668c-2.005-.669-3.34-1.337-6.013-3.341zM22.17 100.959c-1.336-2.004-2.004-4.008-3.34-5.345l-.669-.668h1.337l.668.668c.668 1.337 2.004 3.34 2.672 4.677l.668.668H22.17zm35.41 32.737v-1.336l.667.668c1.337.668 3.34 1.336 4.677 2.004h.668v1.336h-.668c-2.004-.668-3.34-1.336-5.345-2.672zM16.824 90.938v-.668c-.668-1.337-1.336-3.34-2.004-4.677v-.668h1.336v.668c.668 1.336 1.336 3.34 2.004 4.677v.668h-1.336zm50.108 47.435v-1.337h.668c1.336.669 3.34 1.337 4.676 1.337h.668v1.336h-.668c-2.004-.668-3.34-.668-5.344-1.336zM13.485 80.916v-.668c-.668-2.004-.668-3.34-1.336-5.345v-.668l1.336.668v.668c0 1.337.668 3.341 1.336 4.677v.668h-1.336zm63.47 60.129l-.67-1.336h.67c1.335 0 3.34.668 4.676.668h.668l.668 1.336h-.668c-1.336 0-3.34-.668-5.345-.668zM11.48 70.895v-6.013l1.337.668v6.013l-1.337-.668zm76.164 71.486l-.669-1.336h6.014l.668 1.336h-6.013zM11.48 60.873c0-2.004.668-4.008.668-5.344v-.669l1.337.669v.668c0 1.336-.668 3.34-.668 4.676v.668l-1.337-.668zm85.517 80.84l-.668-1.336h.668c1.336 0 3.34-.668 4.677-1.336h.668l.668 1.336h-.668c-1.336 0-2.673.668-5.345 1.336zM12.817 51.52c.668-2.004 1.336-3.34 2.004-4.677v-.668l1.336 1.336v.668l-2.004 4.01v.667l-1.336-1.336zm93.533 86.853l-1.336-1.337h.668l4.009-2.004.668-.668 1.336 1.336-.668.668c-1.336.668-2.672 1.337-4.677 2.005zM16.825 42.835c1.337-2.005 2.005-3.34 3.34-4.677l.669-.668 1.336 1.336-.668.668c-.668 1.336-2.004 2.673-2.672 3.34l-.669.669-1.336-.668zm96.206 89.525c1.337-1.336 2.673-2.673 4.009-3.341l.668-.668 1.336 1.336-.668.669-3.34 3.34-.668.668-1.337-2.004zM24.174 37.49l-1.336-1.336.668-.668c1.336-1.337 2.673-2.005 4.009-3.34l.668-.669 1.336 1.336-.668.668c-2.004 1.337-3.34 2.005-4.677 4.009zm94.87 88.189c1.336-2.004 2.005-3.341 2.673-4.677v-.668l2.004.668v.668c-.668 1.336-1.336 2.673-2.673 4.009l-.668.668-1.336-.668zm-87.52-94.202l-.669-2.004h.668c1.337-.668 3.34-1.336 4.677-2.005h.668l.668 2.005h-.668c-2.004.668-3.34 1.336-5.345 2.004zm92.197 85.517v-.669c.668-1.336.668-3.34 1.336-5.344v-.668l2.004.668v.668c-.668 2.004-.668 3.34-1.336 5.345v.668l-2.004-.668zM40.877 28.136l-.668-2.004h.668c2.004-.668 4.008-.668 5.344-.668h.669l.668 2.004h-.668c-2.005 0-4.009.669-5.345.669h-.668zm84.848 78.168v-7.349h2.004v7.349h-2.004zM52.235 26.8l-.669-2.004h.668c2.005 0 4.009 0 6.013.668h.668v2.004h-.668c-2.004-.668-4.008-.668-6.013-.668zm72.822 68.146v-.668c-.668-2.004-.668-4.008-1.336-6.013v-.668h2.004v.668c.668 2.005 1.336 4.009 1.336 6.681v.668l-2.004-.668zM64.26 28.805V26.8h.668c2.005.668 4.677 1.337 6.681 2.005l.668.668v2.004l-.668-.668-6.013-2.004H64.26zm58.125 53.447v-.668c-.668-2.004-2.005-4.008-2.673-6.68l-.668-.669 2.004-.668.669.668c1.336 2.005 2.004 4.677 2.672 6.681v.668l-2.004.668zm-45.43-48.77l.667-2.005.668.668c2.004 1.336 4.009 2.004 6.681 3.34l.668.669-.668 1.336-.668-.668c-2.004-1.336-4.008-2.673-6.013-3.34h-1.336zm39.417 36.077l-.668-.668-4.009-6.013-.668-.669 1.336-.668.668.669 4.009 6.012.668.669-1.336.668zM89.648 40.83l.668-1.336.668.668c2.004 1.337 4.009 3.34 6.013 4.677l.668.668-1.336 1.336-.668-.668c-2.005-1.336-4.009-3.34-6.013-4.676v-.669zm18.039 16.703l-.669-.668c-1.336-2.005-3.34-3.34-4.676-5.345l-.668-.668 1.336-1.336.668.668c2.004 2.004 3.34 4.008 5.345 5.345l.668.668-2.004 1.336z" fill="#BC2EFF"/><path d="M120.364 145.722c-25.388 14.03-63.47 2.672-89.525-23.384C4.783 96.283-6.575 58.201 7.456 32.813c18.038-31.4 66.81-31.4 105.559 7.35 38.75 38.749 38.75 87.52 7.349 105.559z" fill="url(#paint1_radial_118_549)"/><path d="M120.364 145.722c-25.388 14.03-63.47 2.672-89.525-23.384C4.783 96.283-6.575 58.201 7.456 32.813c18.038-31.4 66.81-31.4 105.559 7.35 38.75 38.749 38.75 87.52 7.349 105.559z" fill="url(#paint2_radial_118_549)"/><defs><radialGradient id="paint1_radial_118_549" cx="0" cy="0" r="1" gradientUnits="userSpaceOnUse" gradientTransform="matrix(52.50506 52.4904 -45.82423 45.83703 71.894 81.278)"><stop offset=".224" stop-color="#B5B5B5"/><stop offset=".377" stop-color="#B2B2B2"/><stop offset=".478" stop-color="#A9A9A9"/><stop offset=".565" stop-color="#9A9A9A"/><stop offset=".643" stop-color="#858585"/><stop offset=".715" stop-color="#696969"/><stop offset=".784" stop-color="#484848"/><stop offset=".847" stop-color="#202020"/><stop offset=".892"/></radialGradient><radialGradient id="paint2_radial_118_549" cx="0" cy="0" r="1" gradientUnits="userSpaceOnUse" gradientTransform="matrix(52.50506 52.4904 -45.82423 45.83703 71.894 81.278)"><stop offset=".224" stop-color="#B5B5B5"/><stop offset=".377" stop-color="#B2B2B2"/><stop offset=".478" stop-color="#A9A9A9"/><stop offset=".565" stop-color="#9A9A9A"/><stop offset=".643" stop-color="#858585"/><stop offset=".715" stop-color="#696969"/><stop offset=".784" stop-color="#484848"/><stop offset=".847" stop-color="#202020"/><stop offset=".892"/></radialGradient><linearGradient id="paint0_linear_118_549" x1="78.686" y1="33.076" x2="63.465" y2="147.957" gradientUnits="userSpaceOnUse"><stop offset=".006" stop-color="#B446E8"/><stop offset=".726" stop-color="#680994"/></linearGradient></defs></svg>