<svg width="190" height="201" fill="none" xmlns="http://www.w3.org/2000/svg"><path d="M173.761 77.552c14.03 46.766-5.345 97.542-46.767 116.249C80.227 214.512 22.77 186.451 5.4 128.327-11.97 70.202 20.098 15.418 70.874 6.733c44.762-8.017 88.857 24.052 102.887 70.819z" fill="#300551"/><path d="M185.114 72.875c14.03 46.767-5.345 97.542-46.767 116.249-46.767 20.711-104.223-7.349-121.594-65.474C-.616 65.526 31.453 10.742 82.228 2.056c44.763-8.017 88.857 24.052 102.887 70.819z" fill="#300551"/><path d="M88.908 23.436c17.371-3.341 34.741.668 50.107 11.357 14.699 10.022 25.388 25.388 30.733 43.426 5.345 18.04 4.677 36.746-2.004 52.78-6.681 17.371-19.375 30.065-35.41 36.746-16.702 6.681-36.077 6.013-53.447-3.341-18.039-9.353-32.07-26.724-38.082-47.435-6.013-20.71-4.009-42.758 5.345-60.797 9.353-18.038 24.72-29.396 42.758-32.736zm-6.68-21.38C31.451 10.742-.618 65.526 16.753 123.65c17.37 58.125 74.826 86.185 121.593 65.474 41.422-18.707 60.797-69.482 46.767-116.25C171.084 26.109 126.99-5.96 82.227 2.057z" fill="#700994"/><mask id="mask0_118_4845" style="mask-type:luminance" maskUnits="userSpaceOnUse" x="40" y="24" width="132" height="145"><path d="M167.747 78.22c10.689 35.409-4.677 73.49-36.077 86.184-34.742 14.03-75.495-7.349-87.521-48.771-12.694-41.422 9.353-81.508 46.099-89.525 32.736-6.68 66.809 16.702 77.499 52.112z" fill="#fff"/></mask><g mask="url(#mask0_118_4845)"><path d="M107.605 112.293l1.337.668 1.336-.668 4.008 2.672 3.341 10.689 1.336.669 2.004 6.681 2.005.668" stroke="#972EFF" stroke-width=".227" stroke-miterlimit="10"/><path d="M107.605 112.961v-.668h.669v.668h-.669zm15.362 21.379c.668 0 .668 0 0 0 0-.668 0-1.336-.668-.668l.668.668z" fill="#2EA8FF"/><path d="M106.941 109.62l.669.668 2.004-.668 1.336.668v.668l4.677 2.673 2.672 10.689 1.336.668 2.005 6.013.668.668" stroke="#972EFF" stroke-width=".227" stroke-miterlimit="10"/><path d="M106.941 110.288v-.668h.669v.668h-.669zm15.365 22.047h.668v-.668h-.668c-.668 0-.668 0 0 .668z" fill="#2EA8FF"/><path d="M109.619 110.957l5.345 3.34 3.34 10.69.669.668 2.004 6.013 1.336 1.336 1.336-.668" stroke="#972EFF" stroke-width=".227" stroke-miterlimit="10"/><path d="M109.619 111.625v-.668h.668v.668h-.668zm14.03 21.379c.668-.668.668 0 0 0 0-.668 0-1.336-.669-.668 0-.668.001 0 .669.668z" fill="#2EA8FF"/><path d="M110.955 113.629l2.672 2.004 2.673 10.022 2.004 1.336 2.004 6.681 3.341 1.336 1.336-.668" stroke="#972EFF" stroke-width=".227" stroke-miterlimit="10"/><path d="M110.955 114.297v-.668h.668v.668h-.668zm14.693 20.711c0-.668 0-1.336-.668-.668 0 0-.669 0 .668.668-.668 0-.668 0 0 0z" fill="#2EA8FF"/><path d="M111.623 116.301l1.336 1.336 2.673 8.686 2.004 1.336 2.672 6.681 3.341 2.004 3.34-.668v-2.004" stroke="#972EFF" stroke-width=".227" stroke-miterlimit="10"/><path d="M110.957 116.969v-.668h.668v.668h-.668zm16.705 16.703c-.668-.668 0-.668 0 0h-.668c-.669.668 0 .668.668 0z" fill="#2EA8FF"/><path d="M108.271 114.965l.669 2.004 3.34 2.005 2.004 8.017 1.337.668 2.672 8.685 1.336.668" stroke="#972EFF" stroke-width=".227" stroke-miterlimit="10"/><path d="M107.605 114.965c.669-.668.669-.668.669 0 .668 0 .668.668-.669 0 .669.668 0 .668 0 0zm11.354 22.715h.668v-.668h-.668v.668z" fill="#2EA8FF"/><path d="M113.627 126.991l1.336 1.336 2.673 9.353 3.34 1.337 1.336-.669 1.336 1.337.669.668" stroke="#972EFF" stroke-width=".227" stroke-miterlimit="10"/><path d="M112.961 127.659v-.668h.668v.668h-.668zm10.687 12.694h.669c0-.668 0-.668-.669 0 0-.668 0-.668 0 0z" fill="#2EA8FF"/><path d="M138.345 165.74l-10.021-34.073-1.337-.668-1.336.668-4.008-2.672-1.337-4.008-1.336-.669-3.34-11.357-3.341-2.005-.668-1.336" stroke="#972EFF" stroke-width=".227" stroke-miterlimit="10"/><path d="M112.293 109.62h-.669c-.668.668 0 .668.669 0 0 .668 0 .668 0 0z" fill="#2EA8FF"/><path d="M139.015 165.072l-10.021-34.073-1.337-.668-1.336.668-4.008-2.672-1.337-4.009-1.336-.668-3.34-10.689-2.673-2.004-.668-2.005-1.336-.668" stroke="#972EFF" stroke-width=".227" stroke-miterlimit="10"/><path d="M111.625 107.616h-.668v.668h.668c.668 0 .668-.668 0-.668z" fill="#2EA8FF"/><path d="M139.681 165.073l-10.022-34.742-2.004-.668h-1.336l-2.004-1.336-.669-.668" stroke="#972EFF" stroke-width=".227" stroke-miterlimit="10"/><path d="M124.318 127.659h-.668c0 .668 0 .668.668 0 0 .668 0 .668 0 0z" fill="#2EA8FF"/><path d="M140.355 164.404l-10.022-34.741-2.672-1.336-1.336.668-.668-.668-1.336-3.341-1.337-.668" stroke="#972EFF" stroke-width=".227" stroke-miterlimit="10"/><path d="M122.988 123.65h-.668v.668h.668c.668 0 .668-.668 0-.668z" fill="#2EA8FF"/><path d="M141.022 164.404l-10.021-35.409-3.341-1.336v-1.336l-1.336-.668" stroke="#972EFF" stroke-width=".227" stroke-miterlimit="10"/><path d="M126.992 124.986h-.668v.668h.668v-.668z" fill="#2EA8FF"/><path d="M141.693 163.736l-10.69-34.741-2.672-2.004-.668-2.673-2.005-1.336" stroke="#972EFF" stroke-width=".227" stroke-miterlimit="10"/><path d="M126.326 122.982h-.668v.668h.668v-.668z" fill="#2EA8FF"/><path d="M143.032 163.736l-11.358-36.077-2.004-1.336-.668-1.337" stroke="#972EFF" stroke-width=".227" stroke-miterlimit="10"/><path d="M129.673 124.987c-.668-.669 0-.669 0 0h-.668c-.668.668 0 .668.668 0z" fill="#2EA8FF"/><path d="M143.692 163.736l-11.357-36.077-1.336-1.336-1.337-3.341-1.336-.668" stroke="#972EFF" stroke-width=".227" stroke-miterlimit="10"/><path d="M128.33 122.314h-.668v.668h.668c.668-.668.668-.668 0-.668z" fill="#2EA8FF"/><path d="M144.365 163.068l-11.357-36.745-2.005-.668-.668-4.009-10.021-6.013-1.336-3.34-3.341-2.005-.668-2.004-1.336-.668" stroke="#972EFF" stroke-width=".227" stroke-miterlimit="10"/><path d="M114.301 106.948h-.668v.668h.668v-.668z" fill="#2EA8FF"/><path d="M145.03 163.068l-11.357-37.413-2.005-.668-.668-4.009-10.021-6.013-1.336-4.008" stroke="#972EFF" stroke-width=".227" stroke-miterlimit="10"/><path d="M120.314 110.957h-.668c-.668.668 0 .668.668 0 0 .668 0 .668 0 0z" fill="#2EA8FF"/><path d="M145.701 162.4l-11.358-36.745-2.004-1.337-1.336-3.34-9.353-6.013-1.337-4.677-1.336-.668h-1.336l-1.336-.668-.668-2.004" stroke="#972EFF" stroke-width=".227" stroke-miterlimit="10"/><path d="M116.308 106.948h-.668c-.668.668 0 .668.668 0z" fill="#2EA8FF"/><path d="M146.368 162.4l-11.358-37.414-2.004-1.336-1.336-4.008-6.681-4.009-1.336-4.009-2.004-1.336-.669-2.004" stroke="#972EFF" stroke-width=".227" stroke-miterlimit="10"/><path d="M120.988 108.284c0-.668 0-.668 0 0h-.668c0 .668.668.668.668 0 .668 0 0 .668 0 0z" fill="#2EA8FF"/><path d="M129.002 110.957l.668 2.004 1.336 1.336 4.677-2.004 4.677 2.672v1.336l7.349 4.677 1.336 5.345-2.004 4.677 6.681 20.042 2.672 2.005" stroke="#972EFF" stroke-width=".227" stroke-miterlimit="10"/><path d="M128.336 110.957c0-.669 0-.669 0 0 .668-.669.668-.669.668 0h-.668z" fill="#2EA8FF"/><path d="M131.01 110.289l.668 2.004h.668l3.34-.668 5.345 2.672v1.336l7.349 4.677 2.005 6.013L148.38 131l6.013 20.043 2.673 1.336" stroke="#972EFF" stroke-width=".227" stroke-miterlimit="10"/><path d="M131.008 110.288c-.668-.668 0-.668 0 0 .668-.668.668-.668.668 0h-.668z" fill="#2EA8FF"/><path d="M142.365 114.965l6.681 4.009 2.005 7.349-2.005 4.676 5.345 17.371 2.004 1.336" stroke="#972EFF" stroke-width=".227" stroke-miterlimit="10"/><path d="M141.701 115.633v-.668h.668v.668h-.668z" fill="#2EA8FF"/><path d="M139.023 121.646l2.005.668 8.685 30.064 3.34 2.005" stroke="#972EFF" stroke-width=".227" stroke-miterlimit="10"/><path d="M138.359 121.646v-.668h.669v.668s-.001.668-.669 0z" fill="#2EA8FF"/><path d="M133.67 116.969l2.004 1.337 1.336 3.34 3.341 2.004 8.685 29.397 2.005.668.668 2.672" stroke="#972EFF" stroke-width=".227" stroke-miterlimit="10"/><path d="M133.67 117.637v-.668h.668v.668h-.668z" fill="#2EA8FF"/><path d="M133.67 119.642l2.004 1.336v1.336l4.009 2.004 8.685 28.729 2.673 1.336 1.336 4.676" stroke="#972EFF" stroke-width=".227" stroke-miterlimit="10"/><path d="M133.67 120.31v-.668h.668v.668h-.668z" fill="#2EA8FF"/><path d="M119.639 104.944l.668-1.337 2.004-.668 5.345 3.341 4.008-1.336 20.043 12.693 4.677 14.031.668.668" stroke="#972EFF" stroke-width=".227" stroke-miterlimit="10"/><path d="M120.303 104.944s-.668.668-.668 0c0 0-.668-.669 0-.669 0 0 .668-.668.668 0v.669zm36.753 28.06h.668v-.668h-.668c-.668 0-.668 0 0 .668z" fill="#2EA8FF"/><path d="M128.992 88.91l-1.336-1.337-2.673 1.336-.668-.668-2.672.668-.668 1.337.668 2.004-1.336 2.672 2.004 7.349 5.345 3.341 4.008-1.336 20.711 12.693 4.009 12.694 1.336.668 2.673 9.354 4.676 2.672 1.336 3.341" stroke="#972EFF" stroke-width=".227" stroke-miterlimit="10"/><path d="M129.666 88.241v.668h-.668v-.668h.668z" fill="#2EA8FF"/><path d="M122.988 92.918l-.668 2.004 2.005 7.349 4.008 2.005 3.341-1.337 21.379 13.362 3.34 12.694 2.005.668 2.672 9.354 4.677 2.672 3.34-1.336 4.677 2.672" stroke="#972EFF" stroke-width=".227" stroke-miterlimit="10"/><path d="M122.984 92.25s.669-.668.669 0c0 0 .668.668 0 .668 0 0-.669.668-.669 0v-.668z" fill="#2EA8FF"/><path d="M124.985 92.25l-1.337 2.672 2.005 6.681 2.672 1.336 3.341-.668 22.047 13.362 4.008 12.026 1.337 1.336 2.672 9.353 4.009 2.005 3.34-1.337 5.345 3.341" stroke="#972EFF" stroke-width=".227" stroke-miterlimit="10"/><path d="M124.312 92.25s.669-.668.669 0c0 0 .668.668 0 .668 0 0-.669.668-.669 0v-.668z" fill="#2EA8FF"/><path d="M157.721 113.629l.668-.668 1.336.668 2.004 6.681 2.673 1.336 4.676-2.004 3.341 2.004 1.336 4.677 3.341 2.004 14.698-6.013 7.349 4.677 3.34-1.336 2.005 1.336.668 3.34" stroke="#972EFF" stroke-width=".227" stroke-miterlimit="10"/><path d="M157.723 113.629c-.668 0-.668 0 0 0l-.668-.668c.668 0 .668 0 .668.668z" fill="#2EA8FF"/><path d="M157.719 115.633l1.336.668 1.336 5.345 8.685 4.677.668 2.004 1.337 1.336 2.004-1.336 3.34 2.004.669 2.673 1.336 1.336 6.013-2.673 1.336-2.672 8.685-4.009 4.677 3.341 1.336 4.008" stroke="#972EFF" stroke-width=".227" stroke-miterlimit="10"/><path d="M157.719 116.301v-.668h.668v.668h-.668z" fill="#2EA8FF"/><path d="M130.33 99.599l2.004 1.336h2.005l15.366 9.353 2.672-.668 2.005.668 8.017 27.392 3.34 2.005 3.341-1.337 6.681 4.009" stroke="#972EFF" stroke-width=".227" stroke-miterlimit="10"/><path d="M129.664 100.267v-.668h.668v.668h-.668z" fill="#2EA8FF"/><path d="M126.99 94.922l.668-2.004 5.345-1.336.668.668.668 1.336 1.337.668 1.336-.668 1.336-3.34 18.038-5.345 1.337.668v1.336" stroke="#972EFF" stroke-width=".227" stroke-miterlimit="10"/><path d="M127.658 94.922s-.668.668-.668 0c0 0-.668-.668 0-.668 0 0 .668-.668.668 0v.668zm29.399-8.017c.668.668.668.668 0 0h.668c.668-.668 0-.668-.668 0z" fill="#2EA8FF"/><path d="M128.984 94.922l1.337-.668 4.008 2.004 4.009-.668 1.336-4.008 13.362-4.009 4.008 2.673 2.673-.669 3.34-7.349 2.005-.668" stroke="#972EFF" stroke-width=".227" stroke-miterlimit="10"/><path d="M128.989 94.922c-.668-.668-.668-.668 0-.668v.668zm36.078-12.694v-.668c-.668 0-.668 0 0 .668-.668 0-.668 0 0 0z" fill="#2EA8FF"/><path d="M128.998 95.59h2.004l2.673 2.004 4.676-1.336 2.005-4.008 12.694-4.009 4.008 2.672 4.009-.668 2.004-6.68 2.004-.669" stroke="#972EFF" stroke-width=".227" stroke-miterlimit="10"/><path d="M129.669 96.258c-.668 0-.668 0 0 0-.668-.668-.668-.668 0-.668v.668zm35.409-12.694c.668 0 .668 0 0 0v-.668s-.668 0 0 .668z" fill="#2EA8FF"/><path d="M129.664 98.263l2.673 1.336 4.676-1.337 2.673 2.005 9.353-2.673.668-2.004" stroke="#972EFF" stroke-width=".227" stroke-miterlimit="10"/><path d="M129.664 98.263v-.669h.668v.669c-.668 0-.668.668-.668 0zm20.713-2.005v-.668h-.668v.668h.668z" fill="#2EA8FF"/><path d="M139.014 98.263l2.004.668 7.349-2.005 1.336-4.008" stroke="#972EFF" stroke-width=".227" stroke-miterlimit="10"/><path d="M139.014 98.263v-.668h.668v.668s-.668.668-.668 0zm11.359-5.345v-.668h-.668v.668c0 .668.668.668.668 0z" fill="#2EA8FF"/><path d="M164.401 85.569l-1.337 4.008 2.005 8.017-.668 2.673 1.336 5.345 10.689 6.681 1.337 4.008 2.004 1.336 19.375-7.349" stroke="#972EFF" stroke-width=".227" stroke-miterlimit="10"/><path d="M164.406 84.9s.668-.668.668 0c0 0 .668.669 0 .669 0 0-.668.668-.668 0 0 0-.668 0 0-.668z" fill="#2EA8FF"/><path d="M165.743 84.9l-2.005 4.677 2.005 8.017-.669 2.673 1.337 4.008 10.021 6.681 1.336 4.009 2.673 1.336 18.706-6.681" stroke="#972EFF" stroke-width=".227" stroke-miterlimit="10"/><path d="M165.07 84.9s.668-.668.668 0c0 0 .669.669 0 .669 0 0-.668.668-.668 0V84.9z" fill="#2EA8FF"/><path d="M167.075 83.564l-2.673 6.013 2.673 8.686-1.336 2.004.668 3.34 10.689 6.681 1.336 4.009 2.005 1.336 18.038-6.681" stroke="#972EFF" stroke-width=".227" stroke-miterlimit="10"/><path d="M166.414 82.896s.668-.668.668 0c0 0 .668.668 0 .668 0 0-.668.669-.668 0v-.668z" fill="#2EA8FF"/><path d="M167.751 82.896l-2.673 7.35 2.673 8.017-1.337 2.672.668 1.336 10.69 6.681.668 4.009 2.673 1.336 17.37-6.013" stroke="#972EFF" stroke-width=".227" stroke-miterlimit="10"/><path d="M167.752 82.896s.668-.668.668 0c0 0 .668.668 0 .668 0 0-.668.669-.668 0 0 0-.668-.668 0-.668z" fill="#2EA8FF"/><path d="M171.076 103.607l6.681 4.677 1.336 4.009 2.005 1.336 17.37-6.013" stroke="#972EFF" stroke-width=".227" stroke-miterlimit="10"/><path d="M171.076 104.275v-.668h.668v.668h-.668z" fill="#2EA8FF"/><path d="M101.608 112.961l-3.34.668-2.004 4.008 6.681 20.711 1.336.668 2.672 7.35 8.686 5.344" stroke="#972EFF" stroke-width=".227" stroke-miterlimit="10"/><path d="M100.938 112.293c.668 0 .668 0 0 0 .668.668.668.668 0 .668v-.668zm14.694 39.417h.668v-.668h-.668c-.668.668-.668.668 0 .668z" fill="#2EA8FF"/><path d="M122.318 84.233l3.341 2.672 4.008-1.336 4.009-9.353 14.698-4.01 6.013 4.678 1.336 3.34" stroke="#972EFF" stroke-width=".227" stroke-miterlimit="10"/><path d="M121.654 84.9v-.667h.668v.668h-.668zm33.405-4.676h.668c.668-.668 0-.668-.668 0z" fill="#2EA8FF"/><path d="M131.674 84.233l3.34-6.681 12.694-3.34 6.013 3.34.668 2.672" stroke="#972EFF" stroke-width=".227" stroke-miterlimit="10"/><path d="M132.338 84.233s-.668.668-.668 0c0 0-.668-.669 0-.669 0 0 .668-.668.668 0v.669zm21.377-3.341c.668 0 .668 0 0 0h.668c.668-.668 0-.668-.668 0 0-.668 0-.668 0 0z" fill="#2EA8FF"/><path d="M88.248 90.246l-6.013 11.357 2.672 8.685-1.336 2.673-2.672.668-2.673 5.345 2.005 5.344-8.017 16.035 6.68 22.715-10.021 21.379" stroke="#972EFF" stroke-width=".227" stroke-miterlimit="10"/><path d="M87.586 89.577s.668-.668.668 0c0 0 .668.668 0 .668 0 0-.668.668-.668 0v-.668z" fill="#2EA8FF"/><path d="M88.236 86.905l-6.68 14.03 2.672 8.685-1.336 2.673-2.673 1.336-2.672 4.677 1.336 5.344-7.35 16.703 6.682 22.047-10.69 22.715" stroke="#972EFF" stroke-width=".227" stroke-miterlimit="10"/><path d="M87.568 86.905s.668-.668.668 0c0 0 .668.668 0 .668 0 0-.668.668-.668 0v-.668z" fill="#2EA8FF"/><path d="M108.96 151.042l-3.341 1.337-10.021-6.013-1.337-4.677-6.68-4.009-2.005-6.681 6.681-14.03-1.336-3.34 2.004-4.009" stroke="#972EFF" stroke-width=".227" stroke-miterlimit="10"/><path d="M108.955 150.374l.668.668c-.668.668-.668.668-.668-.668zM93.59 109.62v-.668h-.668v.668h.668z" fill="#2EA8FF"/><path d="M88.906 117.638l-6.013 12.025 2.004 6.681-4.008 10.022 6.013 20.043-2.005 4.008 2.004 7.349" stroke="#972EFF" stroke-width=".227" stroke-miterlimit="10"/><path d="M88.905 116.969s.668-.668.668 0c0 0 .669.669 0 .669 0 0-.668.668-.668 0-.668 0-.668 0 0-.669z" fill="#2EA8FF"/><path d="M85.573 139.685l-4.008 8.685 6.012 18.039-2.004 4.008 2.004 6.681" stroke="#972EFF" stroke-width=".227" stroke-miterlimit="10"/><path d="M84.902 139.685s.668-.668.668 0c0 0 .669.668 0 .668 0 0-.668.668-.668 0v-.668z" fill="#2EA8FF"/><path d="M85.573 145.03l-2.673 5.344 5.345 16.035-2.004 4.008 2.004 6.681" stroke="#972EFF" stroke-width=".227" stroke-miterlimit="10"/><path d="M84.912 144.361s.668-.668.668 0c0 0 .668.668 0 .668 0 0-.668.669-.668 0v-.668z" fill="#2EA8FF"/><path d="M88.905 141.689v1.336l-4.677 10.022 4.677 14.03-2.004 3.34 2.004 6.013" stroke="#972EFF" stroke-width=".227" stroke-miterlimit="10"/><path d="M88.234 142.357c0-.668 0-.668 0 0 .669-.668.669-.668.669 0h-.669z" fill="#2EA8FF"/><path d="M88.236 149.038l1.337 5.345-2.005 5.345 2.005 7.349-2.005 4.009 2.005 5.344" stroke="#972EFF" stroke-width=".227" stroke-miterlimit="10"/><path d="M87.568 149.038c.669-.668.668-.668.668 0h-.668z" fill="#2EA8FF"/><path d="M92.923 175.094l-4.677-15.367 2.004-5.344-1.336-6.681 2.004-4.677" stroke="#972EFF" stroke-width=".227" stroke-miterlimit="10"/><path d="M91.588 143.025v-.668h-.668v.668c0 .668 0 .668.668 0z" fill="#2EA8FF"/><path d="M100.94 116.969l-1.337 3.341 4.677 15.366 2.004 1.336 2.005 8.018 6.681 3.34 5.345-2.004 1.336 1.336 1.336 4.008-5.345 14.031 1.336 6.012" stroke="#972EFF" stroke-width=".227" stroke-miterlimit="10"/><path d="M100.936 116.97s.668-.669.668 0c0 .668.668.668 0 .668 0 0-.668.668-.668 0v-.668z" fill="#2EA8FF"/><path d="M98.938 117.638l-.669 1.336 5.345 17.37 1.337 1.337 2.672 8.017 8.017 4.008 4.009-1.336.668.668.668 2.673-6.681 14.698 2.004 6.681" stroke="#972EFF" stroke-width=".227" stroke-miterlimit="10"/><path d="M98.27 117.638s.668-.668.668 0c0 0 .668.668 0 .668 0 0-.669.668-.669 0v-.668z" fill="#2EA8FF"/><path d="M95.584 162.4l2.004-4.009-2.672-8.017" stroke="#972EFF" stroke-width=".227" stroke-miterlimit="10"/><path d="M96.26 162.4s-.668.668-.668 0c0 0-.668-.668 0-.668 0 0 .668-.668.668 0v.668zm-.673-12.694h-.668c0 .668 0 1.336.668 0 0 .668 0 .668 0 0z" fill="#2EA8FF"/><path d="M97.594 151.043l2.672 9.353" stroke="#972EFF" stroke-width=".227" stroke-miterlimit="10"/><path d="M96.928 151.042c.668-.668.668-.668.668 0 .668 0 0 .669-.668 0 .668.669 0 .669 0 0zm2.674 9.354c0 .668.668.668 0 0h.668c.668-.668 0-.668-.668 0z" fill="#2EA8FF"/><path d="M98.934 151.043l2.672 8.685" stroke="#972EFF" stroke-width=".227" stroke-miterlimit="10"/><path d="M98.268 151.042c.668-.668.668-.668.668 0 .668 0 0 .669-.668 0 .668.669 0 .669 0 0zm2.675 9.354h.668c0-.668 0-.668-.668 0 0-.668 0-.668 0 0z" fill="#2EA8FF"/><path d="M106.284 89.577l-14.698 31.401 8.017 26.056 5.345 3.34 2.004-.668" stroke="#972EFF" stroke-width=".227" stroke-miterlimit="10"/><path d="M106.277 88.91s.668-.669.668 0c0 0 .669.667 0 .667 0 0-.668.669-.668 0v-.668zm.668 60.796c0-.668 0-1.336-.668-.668l.668.668z" fill="#2EA8FF"/><path d="M94.246 119.642l-.668 2.004 6.013 18.707 2.004 1.336 1.336 6.013 1.337.668" stroke="#972EFF" stroke-width=".227" stroke-miterlimit="10"/><path d="M94.24 119.642s.668-.668.668 0c0 0 .668.668 0 .668 0 0-.668.668-.668 0 0 0-.668-.668 0-.668zm10.031 28.728h.668v-.668h-.668c-.668.668-.668.668 0 .668z" fill="#2EA8FF"/><path d="M102.946 153.715l-1.337 2.672 1.337 3.341" stroke="#972EFF" stroke-width=".227" stroke-miterlimit="10"/><path d="M102.275 153.715s.668-.668.668 0c0 0 .669.668 0 .668 0 0-.668.668-.668 0v-.668zm0 6.013h.668c.669-.668 0-.668-.668 0 0-.668 0-.668 0 0z" fill="#2EA8FF"/><path d="M111.622 151.71l-6.681 2.673-.668 2.004.668 2.004" stroke="#972EFF" stroke-width=".227" stroke-miterlimit="10"/><path d="M111.621 151.71c.668-.668.668 0 0 0l.668.668c-.668 0-.668 0-.668-.668zm-7.348 7.349h.668c.669-.668.001-.668-.668 0 0-.668 0-.668 0 0z" fill="#2EA8FF"/><path d="M110.953 151.042l-6.681 2.673-1.336 2.672 1.336 2.672" stroke="#972EFF" stroke-width=".227" stroke-miterlimit="10"/><path d="M110.954 151.042l.668.668c-.668 0-1.336 0-.668-.668-.668 0-.668 0 0 0zm-7.352 8.018c0 .668 0 .668 0 0h.668c0-.669 0-.669-.668 0z" fill="#2EA8FF"/><path d="M112.962 152.379l-7.349 2.672v1.336l.668 2.004" stroke="#972EFF" stroke-width=".227" stroke-miterlimit="10"/><path d="M112.966 152.379c0-.669.668 0 0 0l.668.668s-.668 0-.668-.668c-.668 0-.668 0 0 0zm-7.353 6.013h.668c0-.669 0-.669-.668 0z" fill="#2EA8FF"/><path d="M129.668 90.246l6.013-2.005 2.004-3.34" stroke="#972EFF" stroke-width=".227" stroke-miterlimit="10"/><path d="M129.675 90.914c-.668-.668-.668-.668 0-.668 0-.668.668 0 0 .668.668 0 .668-.668 0 0zm8.019-6.014v-.667h-.669v.668c.668.668.669.668.669 0z" fill="#2EA8FF"/><path d="M136.342 91.582l2.004-4.677" stroke="#972EFF" stroke-width=".227" stroke-miterlimit="10"/><path d="M137.008 91.582s-.668.668-.668 0-.668-.668 0-.668c0 0 .668-.668.668 0v.668zm1.998-4.009v-.668h-.668v.668h.668z" fill="#2EA8FF"/><path d="M136.35 81.56l-2.672 6.013h-1.336" stroke="#972EFF" stroke-width=".227" stroke-miterlimit="10"/><path d="M135.684 81.56s.668-.668.668 0c0 0 .668.668 0 .668 0 0-.668.668-.668 0v-.668zm-4.006 6.013v.668c0-.668.668 0 0-.668.668 0 .668 0 0 0z" fill="#2EA8FF"/><path d="M146.365 78.22l2.005-.668 2.672 2.004 1.336 3.34 1.336.669 8.686-2.673 3.34-8.017-.668-3.34-1.336-.669-9.354-30.064-2.004-1.336-6.013-18.707" stroke="#972EFF" stroke-width=".227" stroke-miterlimit="10"/><path d="M146.37 78.888c-.668-.668-.668-.668 0-.668 0-.668.668-.668 0 .668.668-.668.668-.668 0 0z" fill="#2EA8FF"/><path d="M146.365 78.22l2.005-.668 2.672 2.004 1.336 3.34 1.336.669 8.686-2.673 3.34-8.017-.668-3.34-1.336-.669-9.354-30.064-2.004-1.336-6.013-18.707" stroke="#972EFF" stroke-width=".227" stroke-miterlimit="10"/><path d="M146.37 78.888c-.668-.668-.668-.668 0-.668 0-.668.668-.668 0 .668.668-.668.668-.668 0 0z" fill="#2EA8FF"/><path d="M146.371 78.888l2.004-.668 2.673 2.004.668 2.672 2.672 1.337 8.686-2.673 3.34-8.685-.668-3.34-2.004-.669-8.686-30.064-2.672-1.336-5.345-19.375" stroke="#972EFF" stroke-width=".227" stroke-miterlimit="10"/><path d="M147.042 78.888c-.668 0-.668 0 0 0-.668-.668-.668-.668 0-.668v.668z" fill="#2EA8FF"/><path d="M147.697 18.09l5.345 19.376 2.672 1.336 8.686 29.396 1.336 1.336 1.336 3.34-1.336 3.341.668 2.005-.668 2.004" stroke="#972EFF" stroke-width=".227" stroke-miterlimit="10"/><path d="M165.064 79.556v.668h.669v-.668h-.669z" fill="#2EA8FF"/><path d="M147.697 18.09l6.013 18.708 2.004 2.004 9.354 29.396 1.336 1.336 1.336 3.34-1.336 2.673 1.336 4.677 1.336.668.668 1.336 1.337.668h.668l1.336.668" stroke="#972EFF" stroke-width=".227" stroke-miterlimit="10"/><path d="M148.373 18.09l6.013 18.708 2.004 2.004 9.354 29.396 1.336.668 1.336 4.009-1.336 2.672 1.336 4.677 2.004.668" stroke="#972EFF" stroke-width=".227" stroke-miterlimit="10"/><path d="M169.748 81.56h.668v-.668h-.668v.668z" fill="#2EA8FF"/><path d="M151.71 44.815l2.004 6.68-2.672 6.014-6.681 2.004-4.009 8.017-10.021 2.672-4.677 11.358" stroke="#972EFF" stroke-width=".227" stroke-miterlimit="10"/><path d="M151.045 44.815c.668-.668.668-.668.668 0 .668 0 .668.668-.668 0 .668.668 0 .668 0 0zm-26.059 36.077v.668h.668v-.668h-.668z" fill="#2EA8FF"/><path d="M130.33 69.534l9.353-2.672 4.009-8.685 6.681-1.337 2.672-5.344-2.004-6.681" stroke="#972EFF" stroke-width=".227" stroke-miterlimit="10"/><path d="M131.001 69.534c-.668 0-.668.668 0 0-.668-.668-.668-.668 0-.668v.668zm20.707-24.719c-.668 0-.668 0 0 0h-.668c-.668.668 0 .668.668 0 0 .668-.668.668 0 0z" fill="#2EA8FF"/><path d="M149.701 46.151l1.336 6.681-1.336 2.672-6.681 2.005-4.009 8.685-7.349 2.004" stroke="#972EFF" stroke-width=".227" stroke-miterlimit="10"/><path d="M149.043 46.82c0-.669 0-.669 0 0 .668-.669.668-.669.668 0 0-.669 0 0-.668 0zm-17.376 20.71c-.668 0-.668 0 0 0v.668c.668 0 .668 0 0-.668z" fill="#2EA8FF"/><path d="M139.691 49.492l-4.009.668-3.34 8.685 1.336 6.013" stroke="#972EFF" stroke-width=".227" stroke-miterlimit="10"/><path d="M139.686 48.823c.668 0 .668 0 0 0 .668.669.668.669 0 .669v-.669zm-6.014 16.703h.668c0-.668 0-1.336-.668 0 0-.668 0-.668 0 0z" fill="#2EA8FF"/><path d="M140.347 52.164l-3.341.668-2.672 6.013 2.004 5.345" stroke="#972EFF" stroke-width=".227" stroke-miterlimit="10"/><path d="M140.35 51.496c.668 0 .668 0 0 0 .668.668.668.668 0 .668v-.668zm-4.688 13.362h.668c0-.669 0-.669-.668 0 0-.669 0-.669 0 0z" fill="#2EA8FF"/><path d="M135.004 73.543l11.358-2.672 2.672-6.681 10.69-3.34" stroke="#972EFF" stroke-width=".227" stroke-miterlimit="10"/><path d="M135.009 74.21c-.668-.667-.668-.667 0-.667v.668zm24.713-12.693v-.668c-.668 0-.668 0 0 .668z" fill="#2EA8FF"/><path d="M126.989 22.768l4.009 13.361-9.354 20.044-4.677 1.336-3.34 7.349" stroke="#972EFF" stroke-width=".227" stroke-miterlimit="10"/><path d="M112.961 64.19v.668h.668v-.668h-.668z" fill="#2EA8FF"/><path d="M128.323 22.1l4.009 14.698L122.31 56.84l-4.009 1.337-3.34 7.349" stroke="#972EFF" stroke-width=".227" stroke-miterlimit="10"/><path d="M114.297 65.526v.668h.668v-.668c0-.668-.668-.668-.668 0z" fill="#2EA8FF"/><path d="M123.652 64.19l-6.681 2.004-2.673 6.013-17.37 4.677" stroke="#972EFF" stroke-width=".227" stroke-miterlimit="10"/><path d="M123.648 63.522c.669 0 .669 0 0 0 .669.668.669.668 0 .668v-.668zm-26.72 12.693c0 .668 0 .668 0 0v.668c.668.669.668 0 0-.668.668.668.668 0 0 0z" fill="#2EA8FF"/><path d="M124.317 66.194l-6.013 2.004-3.34 7.35-14.698 4.008" stroke="#972EFF" stroke-width=".227" stroke-miterlimit="10"/><path d="M124.311 66.194c.668 0 .668 0 0 0 .668.668.668.668 0 .668s0 0 0-.668zm-24.049 13.362v.668c.668 0 .668 0 0-.668z" fill="#2EA8FF"/><path d="M123.638 69.534l-5.345 10.69-12.693 4.009" stroke="#972EFF" stroke-width=".227" stroke-miterlimit="10"/><path d="M122.98 69.534s.669-.668.669 0c0 0 .668.669 0 .669 0 0-.669.668-.669 0v-.669zm-17.375 14.03c-.669 0-.669.669 0 0v.669c.668.668.668 0 0-.669z" fill="#2EA8FF"/><path d="M124.991 22.768l4.676 13.362-9.353 19.374-4.677.669-3.34 7.349" stroke="#972EFF" stroke-width=".227" stroke-miterlimit="10"/><path d="M112.297 63.522v.668h.668v-.668c-.668-.669-.668-.669-.668 0z" fill="#2EA8FF"/><path d="M44.822 39.47l12.026 7.349.668 3.34 16.035 10.022 2.672 8.017 6.013 4.009 4.676-1.336 4.677 3.34" stroke="#972EFF" stroke-width=".227" stroke-miterlimit="10"/><path d="M91.595 74.211h.668v-.668h-.668c-.668.668-.668.668 0 .668z" fill="#2EA8FF"/><path d="M46.815 39.47l10.69 6.68.667 2.673 16.035 10.69 2.672 7.349 5.345 3.34 6.013-1.336 7.349 4.009" stroke="#972EFF" stroke-width=".227" stroke-miterlimit="10"/><path d="M94.912 73.543h.668v-.668h-.668v.668z" fill="#2EA8FF"/><path d="M48.828 38.802l8.685 6.013 1.337 3.34 16.034 10.022 2.672 8.017 4.677 2.672 7.349-1.336.668-2.004 17.371-4.677" stroke="#972EFF" stroke-width=".227" stroke-miterlimit="10"/><path d="M107.623 61.517c.668 0 .668 0 0 0v-.668s-.668 0 0 .668z" fill="#2EA8FF"/><path d="M50.156 38.802l8.017 5.345 1.337 2.672 16.034 10.022 2.004 8.017 4.677 2.672 4.009-1.336" stroke="#972EFF" stroke-width=".227" stroke-miterlimit="10"/><path d="M86.907 66.862v-.668c0 .668-.668 0 0 .668-.668 0-.668 0 0 0z" fill="#2EA8FF"/><path d="M52.168 38.134l6.68 4.676 1.337 3.34L76.22 56.173l2.005 7.35 4.008 2.672 22.716-6.013" stroke="#972EFF" stroke-width=".227" stroke-miterlimit="10"/><path d="M104.947 60.849v-.668c0 .668-.668 0 0 .668z" fill="#2EA8FF"/><path d="M53.498 38.134l6.013 3.34.668 3.34 16.703 10.022 2.004 8.017 2.672 1.336 10.69-2.672 2.672-4.677 13.362-3.34 2.673 1.336" stroke="#972EFF" stroke-width=".227" stroke-miterlimit="10"/><path d="M110.287 55.504h.668v-.668h-.668v.668z" fill="#2EA8FF"/><path d="M55.508 37.466l4.676 3.34.669 2.672 16.034 10.69 13.362-3.34 1.336-3.34 5.345-1.337" stroke="#972EFF" stroke-width=".227" stroke-miterlimit="10"/><path d="M96.93 46.819v-.668c-.667 0-.667 0 0 .668z" fill="#2EA8FF"/><path d="M56.846 37.466l4.008 2.004.668 3.34 16.035 10.022 11.357-2.672 2.005-3.341 5.344-1.336" stroke="#972EFF" stroke-width=".227" stroke-miterlimit="10"/><path d="M96.262 46.15c.668-.667.668-.667 0 0v-.667c0-.668-.668 0 0 .668z" fill="#2EA8FF"/><path d="M58.85 36.797l2.672 2.005.668 2.672 16.034 10.022 10.022-2.005 1.336-4.008 6.681-1.336" stroke="#972EFF" stroke-width=".227" stroke-miterlimit="10"/><path d="M96.258 44.815v-.668c0 .668-.668 0 0 .668z" fill="#2EA8FF"/><path d="M60.178 36.798l1.336.668 1.336 3.34 16.035 10.022 5.344-1.336 2.673-5.345 11.357-2.673 14.698 10.022" stroke="#972EFF" stroke-width=".227" stroke-miterlimit="10"/><path d="M112.95 51.496h.668v-.668h-.668c-.668 0-.668.668 0 .668z" fill="#2EA8FF"/><path d="M118.975 85.569l.668 2.004-1.336 3.34.668 2.005-2.672 6.013" stroke="#972EFF" stroke-width=".227" stroke-miterlimit="10"/><path d="M118.312 85.569c0-.668 0-.668 0 0 .669-.668.669-.668.669 0h-.669zm-2.675 12.694v.668h.668v-.668h-.668z" fill="#2EA8FF"/><path d="M116.965 85.569l.668 1.336-1.336 2.672v2.005l-1.336 3.34" stroke="#972EFF" stroke-width=".227" stroke-miterlimit="10"/><path d="M116.969 86.237c-.668-.668 0-.668 0 0 .668-.668.668-.668.668 0h-.668zm-2.672 8.685v.668h.668v-.668c0-.668 0-.668-.668 0z" fill="#2EA8FF"/><path d="M109.621 26.108l1.336 5.345-1.336 3.34 2.004 5.345 2.673 2.004" stroke="#972EFF" stroke-width=".227" stroke-miterlimit="10"/><path d="M113.629 42.81h.668v-.668h-.668v.668z" fill="#2EA8FF"/><path d="M110.955 26.108l1.336 5.345-1.336 3.34 1.336 4.677 4.009 2.672" stroke="#972EFF" stroke-width=".227" stroke-miterlimit="10"/><path d="M116.298 42.81h.668v-.668h-.668c-.668 0-.668 0 0 .668z" fill="#2EA8FF"/><path d="M60.194 83.564l-.668.669v2.004l-2.005 4.677-11.357 3.34-.668 1.336-6.681 1.336-1.337 2.673" stroke="#972EFF" stroke-width=".227" stroke-miterlimit="10"/><path d="M59.518 82.896s.668-.668.668 0c0 0 .668.668 0 .668 0 0-.668.669-.668 0v-.668z" fill="#2EA8FF"/><path d="M62.184 82.896l-.668.668.668 2.005-.668 1.336h-.668l-2.005 5.345-11.357 2.672-.668 1.336-6.013 2.005" stroke="#972EFF" stroke-width=".227" stroke-miterlimit="10"/><path d="M61.51 82.896s.668-.668.668 0c0 0 .668.668 0 .668 0 0-.668.669-.668 0v-.668zM40.14 98.262v.668h.669v-.668c0-.668-.668 0-.668 0z" fill="#2EA8FF"/><path d="M60.852 85.569l-2.672 6.013-11.358 2.672-.668 1.336-6.013 2.004-1.336 2.005.668 1.336" stroke="#972EFF" stroke-width=".227" stroke-miterlimit="10"/><path d="M60.849 85.569s.668-.668.668 0c0 0 .668.668 0 .668 0 0-.668.668-.668 0-.668 0-.668-.668 0-.668z" fill="#2EA8FF"/><path d="M58.176 86.905l-1.336 2.672-10.69 2.672-1.336 2.673-6.68 2.004-2.005 3.341.668 2.004" stroke="#972EFF" stroke-width=".227" stroke-miterlimit="10"/><path d="M57.5 86.905s.668-.668.668 0 .668.668 0 .668c0 0-.668.668-.668 0v-.668z" fill="#2EA8FF"/><path d="M55.512 86.905l-.668 2.672-9.354 2.005-.668 2.672-8.017 2.004-2.004 4.009 1.336 4.009 1.336.668h.668" stroke="#972EFF" stroke-width=".227" stroke-miterlimit="10"/><path d="M55.508 86.905s.668-.668.668 0 .668.668 0 .668c0 0-.668.668-.668 0v-.668z" fill="#2EA8FF"/><path d="M56.838 83.564l-1.336.669-2.004 3.34-8.685 2.672-.669.668-8.685 2.673-1.336 2.004" stroke="#972EFF" stroke-width=".227" stroke-miterlimit="10"/><path d="M56.842 83.564c.668-.668.668 0 0 0 .668.669.668.669 0 .669v-.669z" fill="#2EA8FF"/><path d="M44.808 88.91l-1.336 1.335-9.354 2.673-2.004 3.34.668 2.673-1.336 1.336-2.673 1.336" stroke="#972EFF" stroke-width=".227" stroke-miterlimit="10"/><path d="M44.145 88.241s.668-.668.668 0c0 0 .668.668 0 .668 0 0-.669.668-.669 0v-.668z" fill="#2EA8FF"/><path d="M10.738 114.965l29.397-8.685.668-1.336-.668-2.005 2.672-4.676 4.008-1.337 1.337-1.336 10.69-3.34 2.672-4.009h.668" stroke="#972EFF" stroke-width=".227" stroke-miterlimit="10"/><path d="M62.847 88.241v-.668c-.668 0-.668 0 0 .668-.668 0-.668 0 0 0z" fill="#2EA8FF"/><path d="M11.42 115.633l29.396-8.685.668-1.336-.668-2.004 2.673-4.677 4.008-1.336 1.336-1.337 10.69-2.672 2.004-4.008h2.005l.668-1.337" stroke="#972EFF" stroke-width=".227" stroke-miterlimit="10"/><path d="M64.203 88.241v-.668h-.668v.668h.668z" fill="#2EA8FF"/><path d="M11.42 116.969l29.396-8.685 2.005-2.673-.668-2.004 1.336-2.004.668-.668" stroke="#972EFF" stroke-width=".227" stroke-miterlimit="10"/><path d="M44.151 101.603v-.668c-.668 0-.668 0 0 .668z" fill="#2EA8FF"/><path d="M12.084 117.638l30.064-8.686 1.337-3.34-.669-2.005.669-.668 4.008-.668.668-2.004" stroke="#972EFF" stroke-width=".227" stroke-miterlimit="10"/><path d="M48.832 100.935v-.668h-.668v.668h.668z" fill="#2EA8FF"/><path d="M12.75 121.646l32.069-10.022.668-2.004 3.34-.668 1.337-2.004" stroke="#972EFF" stroke-width=".227" stroke-miterlimit="10"/><path d="M50.162 107.616v-.668h-.668v.668h.668z" fill="#2EA8FF"/><path d="M13.414 122.314l32.069-9.353 1.336-2.673 3.34-.668 6.013-12.026 4.009-1.336 2.004-4.008 2.004-.668.669-1.337" stroke="#972EFF" stroke-width=".227" stroke-miterlimit="10"/><path d="M65.522 90.913v-.668h-.669v.668h.669z" fill="#2EA8FF"/><path d="M13.414 122.982l32.737-9.353 1.336-2.004 4.009-1.337 6.013-12.025 4.008-1.337" stroke="#972EFF" stroke-width=".227" stroke-miterlimit="10"/><path d="M61.515 97.595v-.668c-.668 0-.668 0 0 .668-.668 0-.668 0 0 0z" fill="#2EA8FF"/><path d="M14.076 124.318l32.737-10.021 1.336-2.004 3.34-1.337 6.014-11.357 4.676-1.337.668-1.336v-2.004l.668-1.336 2.005-.668" stroke="#972EFF" stroke-width=".227" stroke-miterlimit="10"/><path d="M65.52 93.586v-.668c-.667-.668-.667 0 0 .668-.667 0-.667 0 0 0z" fill="#2EA8FF"/><path d="M14.076 124.986l33.405-10.021 1.336-2.004 4.009-1.336 4.008-8.018 4.009-1.336 1.336-2.672 4.677-1.336" stroke="#972EFF" stroke-width=".227" stroke-miterlimit="10"/><path d="M66.85 98.93v-.667c-.667-.669-.667 0 0 .668-.667 0-.667 0 0 0z" fill="#2EA8FF"/><path d="M62.19 108.952l-2.672.668-.668 1.336 2.004 6.013-3.34 5.345-1.337.668-4.008 8.685-6.013 2.005-5.345-2.673-22.715 7.349" stroke="#972EFF" stroke-width=".227" stroke-miterlimit="10"/><path d="M62.193 108.284c.668.668.668.668 0 .668 0 0-.669 0 0-.668-.669 0-.669 0 0 0z" fill="#2EA8FF"/><path d="M62.858 111.625l-2.004.668-.668.668 1.336 4.008-2.672 6.013-2.005.668-4.008 8.686-6.681 2.672-5.345-3.34-22.715 7.349" stroke="#972EFF" stroke-width=".227" stroke-miterlimit="10"/><path d="M62.858 110.957c.669.668.669.668 0 .668 0 0-.668 0 0-.668-.668 0-.668 0 0 0z" fill="#2EA8FF"/><path d="M58.172 124.987l-4.677 8.017-8.017 2.672-4.677-2.672-20.043 6.681-1.336 2.672" stroke="#972EFF" stroke-width=".227" stroke-miterlimit="10"/><path d="M57.498 124.318s.668-.668.668 0c0 0 .668.669 0 .669 0 0-.668.668-.668 0v-.669z" fill="#2EA8FF"/><path d="M50.829 120.31l-.668 2.004-33.405 10.69" stroke="#972EFF" stroke-width=".227" stroke-miterlimit="10"/><path d="M50.826 120.31s.668-.668.668 0c0 0 .668.668 0 .668 0 0-.668.668-.668 0v-.668z" fill="#2EA8FF"/><path d="M55.508 114.297l-.669 2.004-4.008 1.336-2.004 4.677-32.737 10.022" stroke="#972EFF" stroke-width=".227" stroke-miterlimit="10"/><path d="M55.501 114.297s.668-.668.668 0c0 0 .668.668 0 .668 0 0-.668.668-.668 0-.668-.668-.668-.668 0-.668z" fill="#2EA8FF"/><path d="M52.835 113.629l-1.336 2.672h-1.336l-2.004 5.345-32.07 9.353" stroke="#972EFF" stroke-width=".227" stroke-miterlimit="10"/><path d="M52.84 113.629s.67-.668.67 0c0 0 .667.668 0 .668 0 0-.67.668-.67 0-.667 0-.667-.668 0-.668z" fill="#2EA8FF"/><path d="M72.873 88.241l1.337.668.668 2.004-8.017 16.035 1.336 4.677-12.694 26.055-12.694 4.009-2.004-2.672" stroke="#972EFF" stroke-width=".227" stroke-miterlimit="10"/><path d="M72.201 88.91v-.669h.668v.668h-.668zm-30.728 50.106h-.668v.669h.668v-.669z" fill="#2EA8FF"/><path d="M76.885 90.913l-8.686 16.703 2.005 4.677-13.362 26.724-13.362 4.676-1.336 2.005-10.69 3.34-2.672 6.013 1.336 4.677-3.34 6.681" stroke="#972EFF" stroke-width=".227" stroke-miterlimit="10"/><path d="M76.22 90.914s.669-.668.669 0c0 0 .668.668 0 .668 0 0-.668.668-.668 0v-.668z" fill="#2EA8FF"/><path d="M77.549 91.582l-8.018 16.702 1.337 4.677-13.362 26.724-13.362 4.676-1.336 2.005-10.022 3.34-3.34 6.013 2.004 4.677-4.009 8.017" stroke="#972EFF" stroke-width=".227" stroke-miterlimit="10"/><path d="M77.549 91.582s.668-.669.668 0c0 0 .668.668 0 .668s-.668.668-.668 0v-.668z" fill="#2EA8FF"/><path d="M60.18 145.029l.669 1.337-1.336 2.004-6.681 2.004-1.337 3.341 2.005 7.349-2.005 4.676-5.344 2.005-2.005 4.008 6.013 20.711" stroke="#972EFF" stroke-width=".227" stroke-miterlimit="10"/><path d="M59.518 145.029c.668-.668.668-.668.668 0h-.668z" fill="#2EA8FF"/><path d="M58.166 145.698l-1.336 1.336-5.345 2.004-6.013 11.358-2.004.668-.668 2.004.668 3.341-2.004 4.676-3.34.668-.669 2.673 2.004 8.685 4.009 1.336 2.672 9.354" stroke="#972EFF" stroke-width=".227" stroke-miterlimit="10"/><path d="M57.498 145.03s.668-.669.668 0c0 0 .668.668 0 .668 0 0-.668.668-.668 0v-.668z" fill="#2EA8FF"/><path d="M75.544 106.948l-3.34 6.681.668 2.004-9.353 18.707.668 4.009-1.337 2.672-29.396 10.021-2.672 4.677 1.336 5.345-4.677 9.353" stroke="#972EFF" stroke-width=".227" stroke-miterlimit="10"/><path d="M74.873 106.28s.668-.668.668 0c0 0 .668.668 0 .668 0 0-.668.668-.668 0v-.668z" fill="#2EA8FF"/><path d="M58.844 74.211l-.669-2.004-4.008-2.004-20.711 5.344-1.336 2.005-7.35 2.004-6.012 10.022" stroke="#972EFF" stroke-width=".227" stroke-miterlimit="10"/><path d="M58.848 74.211c0 .668.668 0 0 0-.668.668-.668.668-.668 0 0 0 0-.668.668 0 0-.668 0-.668 0 0z" fill="#2EA8FF"/><path d="M57.51 64.858l-2.673.668-14.698-8.685-6.013 1.336-4.009 7.349-5.344 1.336-6.013 10.022 1.336 4.676" stroke="#972EFF" stroke-width=".227" stroke-miterlimit="10"/><path d="M57.509 64.19c.668.668.668.668 0 .668 0 .668-.668.668 0-.668-.668.668-.668 0 0 0z" fill="#2EA8FF"/><path d="M54.17 62.185l-12.026-8.017-6.68 2.005-10.022-6.013L4.73 54.836.054 52.164-7.295 53.5" stroke="#972EFF" stroke-width=".227" stroke-miterlimit="10"/><path d="M54.166 61.517v.668h-.668v-.668h.668z" fill="#2EA8FF"/><path d="M54.836 75.547l-3.34-2.004-16.035 4.009-.668 2.004-8.685 2.004-4.009 7.35 2.005 6.68-1.337 2.005-4.676 1.336-14.698-8.685" stroke="#972EFF" stroke-width=".227" stroke-miterlimit="10"/><path d="M54.832 74.88v.667h-.668v-.668h.668z" fill="#2EA8FF"/><path d="M54.172 72.875l-1.336-.668-18.039 4.008-.668 2.005-8.685 2.004-4.677 9.353 1.336 4.677-.668.668-2.672 1.336-16.034-9.353" stroke="#972EFF" stroke-width=".227" stroke-miterlimit="10"/><path d="M54.166 72.207v.668h-.668v-.668h.668z" fill="#2EA8FF"/><path d="M57.505 68.866l-6.68-4.676L24.1 70.87l-3.34 6.014.668 2.672" stroke="#972EFF" stroke-width=".227" stroke-miterlimit="10"/><path d="M57.512 68.198v.668h-.668v-.668h.668z" fill="#2EA8FF"/><path d="M52.168 67.53l-2.005-.668-18.706 4.677-1.336 2.004-6.681 1.336-.669 1.336" stroke="#972EFF" stroke-width=".227" stroke-miterlimit="10"/><path d="M52.172 67.53v.668h-.668v-.668s.668-.668.668 0z" fill="#2EA8FF"/><path d="M64.85 81.56l6.013-1.336 3.34 2.004 4.009-1.336" stroke="#972EFF" stroke-width=".227" stroke-miterlimit="10"/><path d="M64.856 82.228c-.668-.668-.668-.668 0-.668 0-.668.669 0 0 .668.669 0 .669-.668 0 0zm13.367-.668c.668-.668.668 0 0 0v-.668s-.668 0 0 .668z" fill="#2EA8FF"/><path d="M65.518 84.233l5.344-1.337 4.677 2.673 4.009-1.337" stroke="#972EFF" stroke-width=".227" stroke-miterlimit="10"/><path d="M65.523 84.9c-.668-.668-.668-.668 0-.668 0-.668.668-.668 0 .669.668-.668.668-.668 0 0zm14.027 0v-.668c-.668 0-.668 0 0 .668-.668 0-.668 0 0 0z" fill="#2EA8FF"/><path d="M66.197 86.905l5.345-1.336 4.677 2.672 4.008-1.336" stroke="#972EFF" stroke-width=".227" stroke-miterlimit="10"/><path d="M66.868 86.905c-.668 0-.668.668 0 0-.668-.668-.668-.668 0-.668v.668zm13.363.668v-.668c-.668-.668-.668 0 0 .668z" fill="#2EA8FF"/><path d="M40.14 49.491l5.345 2.673 2.005-.668 2.004-2.673 2.004-.668L71.541 60.85l2.673 8.685 10.021 6.681" stroke="#972EFF" stroke-width=".227" stroke-miterlimit="10"/><path d="M40.14 49.491v-.668h.669v.668s-.668.669-.668 0zm44.092 26.724h.668v-.668h-.668v.668z" fill="#2EA8FF"/><path d="M50.82 50.828l19.375 11.357 2.673 9.353 8.685 5.345" stroke="#972EFF" stroke-width=".227" stroke-miterlimit="10"/><path d="M81.556 76.883h.668v-.668h-.668c-.668.668-.668.668 0 .668z" fill="#2EA8FF"/><path d="M50.156 52.832l18.039 10.69 2.004 8.017" stroke="#972EFF" stroke-width=".227" stroke-miterlimit="10"/><path d="M70.197 71.539c0 .668 0 .668 0 0h.668c0-.668 0-.668-.668 0z" fill="#2EA8FF"/><path d="M102.936 81.56l13.362-3.34 3.34-7.35" stroke="#972EFF" stroke-width=".227" stroke-miterlimit="10"/><path d="M103.605 82.228c-.669 0-.669 0 0 0-.669-.668-.669-.668 0-.668v.668zm16.698-11.358v-.667h-.668v.668c0 .668.668.668.668 0z" fill="#2EA8FF"/><path d="M90.246 68.198l7.35 4.677" stroke="#972EFF" stroke-width=".227" stroke-miterlimit="10"/><path d="M90.246 68.866v-.668h.668v.668h-.668zm6.682 4.009h.668v-.668h-.668v.668z" fill="#2EA8FF"/><path d="M92.25 67.53l6.681 4.677" stroke="#972EFF" stroke-width=".227" stroke-miterlimit="10"/><path d="M92.25 68.198v-.668h.668v.668h-.668zm6.68 4.009h.668v-.668h-.668c-.668.668 0 .668 0 .668z" fill="#2EA8FF"/><path d="M94.252 67.53l6.681 4.009" stroke="#972EFF" stroke-width=".227" stroke-miterlimit="10"/><path d="M94.252 67.53v-.668h.668v.668c-.668.668-.668.668-.668 0zm6.685 4.677h.668v-.668h-.668c-.668 0-.668 0 0 .668z" fill="#2EA8FF"/><path d="M96.256 66.862l6.681 4.009" stroke="#972EFF" stroke-width=".227" stroke-miterlimit="10"/><path d="M95.592 67.53v-.668h.668v.668h-.668zm6.681 4.009h.668v-.668h-.668v.668z" fill="#2EA8FF"/><path d="M97.584 66.194l6.681 4.677" stroke="#972EFF" stroke-width=".227" stroke-miterlimit="10"/><path d="M97.584 66.862v-.668h.668v.668h-.668zm6.68 4.008h.668v-.668h-.668c-.668.669 0 .669 0 .669z" fill="#2EA8FF"/><path d="M99.603 66.194l6.681 4.008" stroke="#972EFF" stroke-width=".227" stroke-miterlimit="10"/><path d="M99.603 66.194v-.668h.669v.668c-.668 0-.669.668-.669 0zm6.685 4.676h.668v-.667h-.668c-.668 0-.668 0 0 .668z" fill="#2EA8FF"/><path d="M171.083 86.237l-2.673.668-1.336 3.34 2.673 8.017 15.366 10.022 12.026-4.009" stroke="#972EFF" stroke-width=".681" stroke-miterlimit="10"/><path d="M157.721 16.087l2.004 1.336 20.043 66.81-2.004 4.008-2.673 1.336-.668.669.668 2.004-.668 2.004-.668.668-2.004-1.336v-2.004" stroke="#972EFF" stroke-width=".227" stroke-miterlimit="10"/><path d="M171.755 91.582h-.668c0 .668.668.668.668 0 .668.668 0 .668 0 0z" fill="#2EA8FF"/><path d="M158.395 16.087l2.004 1.336 20.043 66.81-2.005 4.676-2.672.668-.668 1.337 1.336 2.672" stroke="#972EFF" stroke-width=".227" stroke-miterlimit="10"/><path d="M159.061 16.087l2.004 1.336 20.043 66.81-2.005 5.344-2.672.669-.668.668 1.336 4.008m16.699-1.336l-2.672 1.336-4.009-3.34-4.677-14.698 1.337-2.673-16.703-56.12 2.005-4.677" stroke="#972EFF" stroke-width=".227" stroke-miterlimit="10"/><path d="M118.306 100.267l-1.336 3.34-8.686 2.673-2.004-1.336-2.672 1.336-.669 2.004 5.345 18.707-1.336 2.004 2.672 9.353 12.694 6.681 2.673-1.336 2.672 1.336 1.336 4.009-6.013 14.698 2.005 8.017" stroke="#972EFF" stroke-width=".681" stroke-miterlimit="10"/><path d="M108.29 108.284l-1.336-.668h-1.337l-.668 2.004 4.677 16.703 2.004.668 3.341 12.026 7.349 4.008 3.34-1.336 4.009 2.004 4.008 15.366-2.004 4.009 2.004 6.681m10.024-65.474l3.341-.668 10.689 6.681 5.345-1.336 9.353 6.013 1.337 4.009 6.012 4.008 20.711-8.017m-57.464-13.362l6.681-2.004 8.018 5.345m-62.129 69.482l-3.34-10.022 2.671-6.013-3.34-11.357m-18.711 36.077l9.353-20.043-6.012-18.707 4.676-8.685-1.336-3.34 5.345-10.022-.668-2.672 1.336-4.009h1.336l2.672-5.345-2.004-8.017 3.34-6.68M127 82.896l5.345-10.69 9.353-2.672 3.341-8.017 6.681-2.004 3.34-8.017-2.004-7.35m-12.031-24.719l6.013 18.039-2.672 5.344-13.362 3.34-5.345 11.359 2.672 10.021-6.681 14.03-20.711 6.013-9.353 19.375" stroke="#972EFF" stroke-width=".681" stroke-miterlimit="10"/><path d="M132.346 66.194l-2.004-8.017 4.008-8.686 12.694-3.34 2.673-6.681-6.013-20.711m-25.393 5.345l5.344 18.707-4.676 10.021-4.677 1.336-6.013 12.026M8.074 104.943l17.37-4.676 2.005-4.009-.668-4.008 2.672-5.345 42.759-11.358m9.346 14.699l-5.345 11.357 2.673 8.685-4.677 10.022 1.337 4.008-8.686 18.039 4.009 12.026-4.677 8.685 2.004 6.013-2.672 6.013-9.353 3.34-3.34 7.349 1.335 5.345" stroke="#972EFF" stroke-width=".681" stroke-miterlimit="10"/><path d="M63.531 36.13l1.336 2.672 12.694 8.685 5.345-1.336 2.004-4.677 15.367-3.34 16.034 10.021m54.785-31.4l-.668.668 17.37 57.456-1.336 4.009 2.672 10.021 2.673 2.004 1.336-.668" stroke="#972EFF" stroke-width=".681" stroke-miterlimit="10"/><path d="M155.721 16.755L167.078 53.5l-1.336 2.672.668 3.34 2.673 2.005 7.349 23.384-.668 2.672-6.013 1.336-.668 2.004 1.336 4.01 4.008 2.003 2.005-.668 4.008 3.34 1.336 4.009 2.673 1.337 12.026-4.009" stroke="#972EFF" stroke-width=".681" stroke-miterlimit="10"/><path d="M45.492 78.888c0 .668 0 .668-.668.668s-.668 0-.668-.668 0-.668.668-.668c0 0 .668 0 .668.668zm4.672-1.336c0 .668 0 .668-.668.668s-.668 0-.668-.668c0-.669 0-.669.668-.669s.668.669.668.669zM80.89 54.836c0 .668 0 .668 0 0-.667.668-.667.668-.667 0h.668zm2.008 0c-.668.668-.667.668-.667 0 0 0 0-.668.668 0 0-.668 0-.668 0 0zm1.999-.668c-.669.668-.669.668-.669 0h.669zm2.009-.668c0 .668 0 .668 0 0-.668.668-.668.668-.668 0h.668zm1.997 0c-.669.668-.669.668-.669 0 0 0 0-.668.669 0 0-.668-.669-.668 0 0zm-7.345 3.34c-.668.668-.668.668-.668 0h.668zm2.012-.668c0 .669 0 .669 0 0-.668.669-.668.669-.668 0h.668zm1.994 0c-.668.668-.668.668-.668 0-.668 0 0-.668.668 0 0-.668-.668-.668 0 0zm2.012-.668c-.668.668-.668.668-.668 0-.668 0 0-.668.668 0zm1.994-.668c-.668.668-.668.668-.668 0h.668zm-8.013 4.009c-.668.668-.668.668-.668 0 0-.669 0-.669.668 0 0-.669 0-.669 0 0zm2.008-.668c0 .668.668 0 0 0-.668.668-.668.668-.668 0 0 0 0-.668.668 0zm1.998-.669c0 .669.668 0 0 0-.668.669-.669.669-.669 0h.669zm2.007-.668c0 .668.669.668 0 0-.668.668-.668.668-.668 0h.668zm2.012 0c-.668.669-.668.669-.668 0 0 0 0-.668.668 0 0-.668 0-.668 0 0zm-5.349 23.384c-.669.668-.669.668-.669 0h.669zm2.007-.668c-.668.668-.668.668-.668 0h.668zm1.998-.668c0 .668 0 .668 0 0-.668.668-.668.668-.668 0h.668zm2.008-.668c0 .668 0 .668 0 0-.668.668-.668.668-.668 0h.668zm1.998 0c-.668.668-.668.668-.668 0 0 0 0-.669.668 0 0-.669-.668-.669 0 0zM84.9 81.56c0 .668 0 .668 0 0-.668.668-.668.668-.668 0h.668zm2.008 0c-.668.668-.668.668-.668 0-.668 0 0-.668.668 0 0-.668-.668-.668 0 0zm1.998-.668c-.668.668-.668.668-.668 0-.668 0 0-.668.668 0 0-.668-.668-.668 0 0zm2.008-.668c-.668.668-.668.668-.668 0h.668zm1.998-.668c0 .668 0 .668 0 0-.669.668-.669.668-.669 0h.669zm-8.015 4.008c0 .668.668 0 0 0-.669.668-.669.668-.669 0h.669zm2.009-.668c0 .668.668.668 0 0-.668.668-.668.668-.668 0h.668zm1.997-.668c0 .668.668.668 0 0-.669.668-.669.668-.669 0h.669zm2.009 0c-.668.668-.668.668-.668 0 0 0 0-.668.668 0 0-.668 0-.668 0 0zm2.01-.668c-.668.668-.668.668-.668 0 0 0 0-.668.668 0 0-.668 0-.668 0 0zM82.223 60.18c0 .669 0 .669 0 0-.668.669-.668.669-.668 0h.668zm2.01-.667c0 .668 0 .668 0 0-.669.668-.669.668-.669 0h.669zm2.007 0c-.668.668-.668.668-.668 0s0-.668.668 0c0-.668 0-.668 0 0zm1.998-.668c-.668.668-.668.668-.668 0h.668zm2.008-.668c0 .668 0 .668 0 0-.668.668-.668.668-.668 0h.668zm-7.348 4.008c-.668.668-.667.668-.667 0 0 0 0-.668.668 0 0-.668 0-.668 0 0zm1.999-.668c-.669.668-.669.668-.669 0h.669zm2.009-.668c0 .668 0 .668 0 0-.668.668-.668.668-.668 0h.668zm1.997-.669c0 .669 0 .669 0 0-.669.669-.669.669-.669 0h.669zm2.009.001c-.668.668-.668.668-.668 0 0 0 0-.668.668 0 0-.668 0-.668 0 0z" fill="#B02EFF"/><path d="M86.909 34.125c0 .668 0 .668-.669 1.336-.668 0-.668 0-1.336-.668 0-.668 0-.668.668-1.336s1.337 0 1.337.668zm3.341-.668c0 .668 0 .668-.668 1.336-.668 0-.668 0-1.336-.668 0-.668 0-.668.668-1.336s1.336 0 1.336.668zm2.674-.668c0 .668 0 .668-.668 1.336-.668 0-.668 0-1.336-.668 0-.668 0-.668.668-1.336s1.336 0 1.336.668z" stroke="#972EFF" stroke-width=".227" stroke-miterlimit="10"/><path d="M96.267 32.12c0 .669 0 .669-.668 1.337-.668.668-.668 0-1.336-.668s0-.668.668-1.336c.668 0 .668 0 1.336.668z" fill="#B02EFF"/><path d="M88.24 37.465c0 .668 0 .668-.667 1.337-.668 0-.669 0-1.337-.669 0-.668 0-.668.668-1.336.669 0 1.337 0 1.337.669z" stroke="#972EFF" stroke-width=".227" stroke-miterlimit="10"/><path d="M90.915 36.797c0 .669 0 .669-.669 1.337-.668 0-.668 0-1.336-.668 0-.669 0-.669.668-1.337.668 0 1.337 0 1.337.669z" fill="#B02EFF"/><path d="M94.258 36.13c0 .668 0 .668-.668 1.336-.669 0-.669 0-1.337-.668-.668-.669 0-.669.668-1.337.668 0 1.337 0 1.337.669zm2.672-.669c0 .668 0 .668-.668 1.337-.668 0-.668 0-1.336-.669 0-.668 0-.668.668-1.336.668 0 1.336 0 1.336.668z" stroke="#972EFF" stroke-width=".227" stroke-miterlimit="10"/><path d="M56.178 153.047s0 .668-.668.668c0 0-.668 0-.668-.668 0 0 0-.668.668-.668l.668.668zm4.672-1.336s0 .668-.668.668c0 0-.668 0-.668-.668 0 0 0-.669.668-.669s.668 0 .668.669zm4.017-1.337s0 .668-.668.668c0 0-.668 0-.668-.668 0 0 0-.668.668-.668.669 0 .668 0 .668.668zm-8.023 5.345s0 .668-.668.668c0 0-.668 0-.668-.668 0 0 0-.668.668-.668l.668.668zm4.684-1.336s0 .668-.669.668c0 0-.668 0-.668-.668 0 0 0-.668.668-.668l.669.668zm4.005-1.336s0 .668-.668.668c0 0-.668 0-.668-.668 0 0 0-.668.668-.668s.668 0 .668.668zm-7.347 5.345s0 .668-.668.668c0 0-.668 0-.668-.668 0 0 0-.669.668-.669 0 .669.668.669.668.669zm4.008-1.337s0 .668-.669.668c0 0-.668 0-.668-.668 0 0 0-.668.669-.668.668 0 .668.668.668.668zm4.67-1.336s0 .668-.669.668c0 0-.668 0-.668-.668 0 0 0-.668.668-.668 0 0 .669 0 .669.668zm71.485-128.275l-4.009.668-1.336-4.008 4.009-1.336 1.336 4.676zm2.674 8.017l-4.009 1.337-1.336-4.677 4.008-.668 1.337 4.008zm.667 51.444h-.668l-1.336-4.009.668-.668 1.336 4.677zm2.676-.668h-1.336l-1.337-4.009 1.337-.668 1.336 4.677zm1.996-1.337l-.668.668-1.337-4.008 1.337-.668.668 4.008zm1.337-4.751l-1.279.387 1.162 3.837 1.279-.388-1.162-3.836zm-36.745 84.924l-12.694 4.676-1.336-4.008 12.694-4.677 1.336 4.009zm50.11-70.151c.668 1.336 0 2.672-1.337 2.672-.668 0-2.004-.668-2.672-1.336-.668-1.336 0-2.672 1.336-2.672.668-.668 2.005 0 2.673 1.336zm2.007 7.349c.669 1.336 0 2.673-1.336 2.673-.668.668-2.004-.669-2.672-1.337-.668-1.336 0-2.672 1.336-2.672 1.336-.668 2.004 0 2.672 1.336zM61.514 67.53c0 .668 0 .668-.668.668 0 0-.668 0-.668-.668s0-.668.668-.668.668.668.668.668zm4.672-1.336c0 .668 0 .668-.668.668 0 0-.668 0-.668-.668s0-.668.668-.668.668.668.668.668zm-2.664 6.681c0 .668 0 .668-.668.668 0 0-.669 0-.669-.668s0-.668.669-.668c0 0 .668 0 .668.668zm4.672-1.336c0 .668 0 .668-.668.668 0 0-.669 0-.669-.668s0-.668.669-.668l.668.668z" fill="#B02EFF"/><path d="M92.248 93.586l5.345-12.694" stroke="#972EFF" stroke-width=".227" stroke-miterlimit="10"/><path d="M92.246 93.586s-.668.668-.668 0c0 0-.668-.668 0-.668 0 0 .668-.668.668 0 0 0 .668.668 0 .668zm6.022-12.026v-.668H97.6v.668h.668z" fill="#B02EFF"/><path d="M106.939 99.599l5.345-12.026" stroke="#972EFF" stroke-width=".227" stroke-miterlimit="10"/><path d="M106.938 99.599s-.668.668-.668 0c0 0-.669-.668 0-.668 0 0 .668-.668.668 0 0 0 .668.668 0 .668zm6.021-12.026v-.668h-.668v.668c0 .668.668.668.668 0z" fill="#B02EFF"/></g><path d="M135.677 84.9c1.336-3.34 1.336-7.349 0-10.69l-.668-2.003c-2.673-10.022-12.694-17.37-21.38-15.367l-1.336.668-4.008-13.361-2.005-1.337-3.34 18.707-5.345 1.336-4.677-15.366-2.004-1.336-4.008 19.375-16.703 15.366 2.004 1.336 12.026-3.34 14.698 48.771-10.021 14.698 2.004 1.336 18.039-6.681 2.672 13.362 2.004 1.336 10.022-4.008-4.677-14.698 4.677-2.005 2.672 13.362 2.005 1.336 9.353-3.34-4.677-14.698 4.677-1.336c9.353-3.341 14.698-15.367 11.358-26.056l-.668-2.005c-1.337-5.344-6.681-10.69-12.694-13.362zm-19.375.668l-10.69 3.341-4.676-15.366 10.689-2.673c2.004-.668 4.009 0 5.345.668 1.336 1.337 2.672 2.673 3.34 4.677 1.337 4.677 0 8.685-4.008 9.353zm-6.681 16.703l12.694-4.009c2.672-.668 4.676-.668 7.349.668 2.004 1.337 4.008 3.341 4.677 6.013 1.336 5.345-.669 11.358-5.345 12.694l-12.694 4.009-6.681-19.375z" fill="#300551"/><path d="M133.677 83.564c1.336-3.34 1.336-7.349 0-10.69l-.668-2.004c-2.672-10.021-12.694-16.034-21.379-14.03l-1.336.668-4.677-14.698-10.021 2.005 4.676 15.366-5.345 1.336-4.676-15.366-10.69 2.672 4.677 15.366-18.707 4.677L69.54 81.56l12.026-3.34 14.698 48.771-10.022 3.34 2.004 13.362 18.039-6.681 4.677 14.698 10.021-4.008-4.676-14.698 4.676-2.005 4.677 14.698 9.353-3.34-4.676-14.698 4.676-1.336c9.354-3.341 14.699-15.367 11.358-26.056l-.668-2.005c-.668-6.68-6.013-12.693-12.026-14.698zm-19.375.668l-10.689 3.34-4.677-15.365 11.358-2.673c2.004-.668 4.008 0 5.345.668 2.004 1.337 2.672 2.673 3.34 4.677 1.336 4.009-.668 8.685-4.677 9.353zm-6.681 16.703l12.694-4.009c2.673-.668 4.677-.668 7.349 1.336 2.005 1.337 4.009 3.341 4.677 6.013 1.336 5.345-.668 11.358-5.345 12.694l-12.694 4.009-6.681-20.043z" fill="#CC8CFF"/><path d="M84.894 9.405c20.71-4.008 41.422 1.337 59.46 14.03 17.371 12.026 30.065 30.065 36.077 50.776 6.013 20.71 6.013 42.758-2.004 62.133-8.017 20.043-22.715 36.077-41.422 44.094-20.043 8.686-43.426 8.018-64.137-2.672-22.047-11.358-38.75-31.401-46.767-57.456-8.017-25.388-5.345-51.444 7.349-73.491C44.14 26.776 62.846 13.414 84.894 9.405zM82.889 4.73C34.118 13.414 3.386 66.862 20.088 122.314c16.702 56.12 72.155 83.512 117.585 63.469 40.754-18.038 59.461-67.478 45.431-112.24-13.362-45.43-56.12-76.163-100.215-68.814z" fill="#4B0551"/><path d="M83.561 6.733c21.379-4.008 42.759 1.336 60.797 14.698 17.371 12.694 30.733 30.733 36.746 52.112 6.681 21.379 6.013 44.094-2.005 64.137-8.017 20.711-22.715 37.414-42.758 46.099-20.711 9.353-44.763 8.017-66.142-2.672-22.715-11.358-40.085-32.737-48.103-58.793-8.017-26.056-5.345-53.448 7.35-76.163C42.138 24.77 61.513 10.74 83.56 6.733zm-1.336-4.677C31.45 10.742-.619 65.526 16.751 123.65c17.371 58.125 74.828 86.185 121.594 65.474 41.422-18.707 60.797-69.482 46.767-116.25C171.082 26.109 126.988-5.96 82.225 2.057z" fill="url(#paint0_linear_118_4845)"/><path d="M176.422 80.224c-.668-1.336-.668-2.672-1.336-4.677l4.009-1.336c.668 1.336.668 3.34 1.336 4.677l-4.009 1.336zm.672 2.004v-.668l4.008-.668v.668l-4.008.668zm.666 2.672v-1.336l4.008-.668v1.336l-4.008.668zm1.332 12.694v-1.336h4.008l.668 2.004-4.676-.668zm0 2.673v-1.336h4.676v2.004l-4.676-.668zm-.664-13.362l-.668-.668h4.676l-4.008.668zm.664 23.383v-.668l4.008.668v1.336l-4.008-1.336zm0 2.673v-1.336l4.008 1.336v1.336l-4.008-1.336zm-.664 2.004v-.668l4.008 1.336v.668l-4.008-1.336zm.668-20.043c0-2.004-.668-4.677-.668-6.68l4.008-.669c.668 2.004.668 4.677.668 6.681l-4.008.668zm-.004 13.362v-6.681l4.008.668v6.681l-4.008-.668z" fill="#BC2EFF"/><path d="M177.762 119.642c0-1.337.668-3.341.668-4.677l4.008 1.336c0 1.336-.668 3.341-.668 4.677l-4.008-1.336zm-.666 2.004l.668-.668 4.008 1.336-.668 1.336-4.008-2.004zm-.664 2.672c0-.668 0-.668.668-1.336l4.008 2.004c0 .669 0 1.337-.668 1.337l-4.008-2.005zm-4.02 12.026l.668-1.336 4.009 2.672-.668 1.336-4.009-2.672zm-.664 2.672l.668-1.336 3.341 2.005-.668 2.004-3.341-2.673zm4.684-12.693v-.669l4.008 2.005v.668l-4.008-2.004zm-9.358 20.711l4.009 2.672s0 .668-.668.668l-3.341-3.34zm-1.342 2.672l.668-1.336 3.341 3.34-.668 1.337-3.341-3.341zm-1.332 1.336l3.341 3.341-3.341-3.341zm9.356-17.37l1.336-2.673.668-3.34 4.009 2.004-.668 3.34-1.337 3.341-4.008-2.672zm-6.014 12.025c1.336-2.004 2.004-4.008 3.341-5.344l4.008 2.672c-1.336 2.004-2.004 4.009-3.34 6.013l-4.009-3.341zm-6.017 9.354l1.336-2.004c.668-.668.668-1.337 1.336-2.005l3.341 3.341c-.669.668-.669 1.336-1.337 2.004l-1.336 2.004-3.34-3.34zm-1.33 1.336l.668-.668 2.672 4.009v.668l-3.34-4.009zm-2.01 2.004l1.336-1.336 3.34 4.009-1.336 1.336-3.34-4.009zm-9.356 8.686l1.336-1.336 2.673 4.676-1.336.668-2.673-4.008zm-1.998 1.336c.668 0 .668-.668 1.336-.668l2.673 4.676c-.668 0-.668.669-1.336.669l-2.673-4.677zm10.022-8.686h.668l2.672 4.009-3.34-4.009zm-18.045 13.362h.668l1.336 4.677v.668l-2.004-5.345zm-2.664 1.337l1.336-.668 2.004 5.344-2.004.669-1.336-5.345zm-2.008.668h.668l1.336 5.345-2.004-5.345zm17.369-10.022c.668-.668 1.336-1.336 2.673-2.004l2.004-2.004 2.672 4.008-2.672 2.005c-.668.668-2.005 1.336-2.673 2.004l-2.004-4.009zm-11.353 7.349c.668-.668 2.004-1.336 2.672-1.336l1.336-.668 1.336-.668 2.005 4.677-1.337.668-1.336.668c-.668.668-2.004 1.336-2.672 2.004l-2.004-5.345zm-10.022 4.677c1.336-.668 2.673-1.336 4.009-1.336l1.336 5.345c-1.336.668-3.341 1.336-4.677 2.004l-.668-6.013zm-2.01.668l.668-.668 1.337 5.345-.669.668-1.336-5.345zm-2.674.668l1.337-.668 1.336 5.345-2.004.668-.669-5.345zm-12.683 2.005h1.336l.668 5.344h-2.004v-5.344zm-2.678 0h1.336v6.012h-1.336v-6.012zm13.365-2.005h.669l.668 6.013h-.668l-.669-6.013zm-23.382 1.337h.668l-.668 6.012H99.6l.668-6.012zm-3.342 0h2.004l-1.336 6.012-1.336-.668.668-5.344zm-2.008-.669h.668l-.668 6.013h-.668l.668-6.013zm20.707.668c2.004 0 4.677-.668 6.681-1.336l.668 5.345c-2.004.668-4.677.668-6.681 1.336l-.668-5.345zm-13.363.669h6.681v6.012h-6.681v-6.012zm-12.025-2.673c1.336.668 3.34.668 4.676 1.336l-1.336 6.013c-2.004 0-3.34-.668-5.345-1.336l2.005-6.013zm-2.012-.668l.668.668-1.336 5.345h-.668l1.336-6.013zm-3.338-.668c.668 0 1.336.668 1.336.668l-1.336 6.013c-.668 0-1.336-.668-2.004-.668l2.004-6.013zm-12.695-6.013l2.004 1.336-2.672 5.345-2.005-1.336 2.673-5.345zm-2.006-1.336l1.336 1.336-2.672 5.345-2.004-1.336 3.34-5.345zm13.371 6.681l-1.336 6.013-.668-.668 2.004-5.345zM60.83 162.4c0 .668 0 .668 0 0l-2.672 5.345-.668-.669 3.34-4.676zm-2.663-2.004l1.336 1.336-3.34 4.676-1.337-1.336 3.34-4.676zm-1.34-1.337v.668l-3.34 4.009h-.669l4.009-4.677zm18.707 13.362l2.672 1.336 3.34 1.337-2.004 6.013-3.34-2.005-3.34-1.336 2.672-5.345zm-13.359-8.685a20923.3 20923.3 0 016.012 4.009l-2.672 5.344c-2.004-1.336-4.677-2.672-6.681-4.676l3.34-4.677z" fill="#BC2EFF"/><path d="M52.82 155.051l2.003 2.004 2.005 2.004-4.009 4.677-2.004-2.004-2.005-2.005 4.01-4.676zm-2.01-1.336h.667l-4.008 4.676-.668-.668 4.008-4.008zm-2.006-2.673l1.336 1.337-4.677 4.008-1.336-1.336 4.677-4.009zm-8.678-12.694l1.336 1.337-5.345 3.34-.668-1.336 4.677-3.341zm-1.34-2.672c0 .668.668 1.336.668 1.336l-5.345 3.341c-.668-.668-.668-1.337-.668-2.005l5.345-2.672zm8.686 13.362l.668.668-4.677 4.009-.668-.668 4.677-4.009zm-13.358-24.72v1.337l-5.344 2.004-.668-.668 6.012-2.673zm-1.344-3.34l.669 2.004-5.345 2.004-.668-2.004 5.345-2.004zm-.663-2.004v.668l-5.345 2.004-.668-.668 6.013-2.004zm10.017 22.047c.668 1.336 1.336 2.004 2.004 3.34l2.005 3.341-4.677 4.008-2.672-3.34c-.669-1.336-1.337-2.672-2.005-3.341l5.345-4.008zm-7.344-14.03c.668 1.336 1.337 2.672 1.337 3.34l.668 2.005.668 2.004-5.345 2.672-.668-2.004-.668-2.004c-.668-1.337-1.336-2.673-1.336-4.009l5.344-2.004z" fill="#BC2EFF"/><path d="M30.775 113.629c.668 2.004.668 3.34 1.336 5.345l-6.013 2.004c-.668-2.004-1.336-4.009-1.336-6.013l6.013-1.336zm-.667-2.673v.669l-6.012 1.336v-.668l6.012-1.337zm-.675-3.34v2.004l-5.345.668-.668-1.336 6.013-1.336zM28.1 92.25v2.004h-6.012V92.25H28.1zm0-2.673v1.337h-6.012v-2.005l6.013.668zm.665 16.035l.668.668-6.013.668v-.668l5.345-.668zm.668-28.061v.668l-6.013-.668v-1.336l6.013 1.336zm.675-3.341l-.668 2.005-5.344-1.336v-2.004l6.012 1.336zm-.001-2.003v.668l-5.345-2.004 5.345 1.336zM28.1 95.59c0 2.673 0 5.345.669 8.017l-6.013.669c-.668-2.673-.668-5.345-.668-8.686H28.1zm.669-15.366c0 1.336-.668 2.672-.668 4.008v4.009l-6.013-.668v-4.009c0-1.336.668-2.672.668-4.008l6.013.668zm3.344-13.362c-.668 2.004-1.336 3.34-1.336 5.345l-6.013-2.004c.668-2.005.668-4.01 1.336-5.345l6.013 2.004zm.673-2.004l-.668.668-5.345-2.005v-.668l6.013 2.005zm.664-3.341c0 .668-.668 1.336-.668 1.336l-5.344-2.004c0-.668.668-1.336.668-2.004l5.344 2.672zm6.682-12.694l-1.336 1.337-4.677-3.341.668-1.336 5.345 3.34zm1.33-2.673l-.668 1.337-5.345-3.34 1.336-1.337 4.677 3.34zm-7.348 13.363v.668l-5.344-2.672v-.669l5.344 2.673zm14.041-21.379c-.668 0-.668 0 0 0l-4.677-3.34.669-.669 4.008 4.009zm1.996-2.673l-1.336 1.337-4.008-4.009.668-1.336 4.676 4.008zm-2.768-5.468l-.477.468 4.211 4.292.477-.468-4.21-4.292zM38.12 51.496l-1.335 3.34-2.005 3.34-5.345-2.672 2.005-3.34 2.004-4.009 4.677 3.34zm8.69-12.026c-1.336 2.004-2.672 4.008-4.008 5.345l-4.677-3.34c1.336-2.005 2.672-4.01 4.677-6.014l4.008 4.009z" fill="#BC2EFF"/><path d="M54.822 30.785l-2.005 1.336-2.004 2.004-4.008-4.009 2.004-2.004 2.004-2.004 4.009 4.677zm2.009-1.337l-.668.668-4.009-4.676.668-.668 4.009 4.676zm1.998-2.004c-.668 0-.668.668-1.336.668l-3.34-4.676c.667-.669.667-.669 1.336-1.337l3.34 5.345zm11.361-6.681l-1.336.668-2.672-4.677 1.336-.668 2.672 4.677zm1.998-.668c-.668 0-.668.668-1.336.668l-2.672-5.345c.668 0 .668-.668 1.336-.668l2.672 5.345zm-11.353 6.681h-.668l-3.34-4.677 4.008 4.677zM81.55 16.755h-.669l-1.336-5.345h.668l1.336 5.345zm3.33-.668h-2.005L81.54 11.41l1.336-.668 2.005 5.345zm1.34-.669l-2.005-4.676.668-.668 1.336 5.344zM67.521 22.1c-.668.667-2.004 1.335-2.672 1.335l-2.673 2.005-3.34-4.677 3.34-2.004c1.337-.668 2.005-1.336 3.34-2.005l2.005 5.345zm12.682-4.677c-1.336 0-2.004.668-3.34.668l-1.337.668-1.336.668-2.672-5.345 1.336-.668 1.336-.668c1.336-.668 2.004-.668 3.34-1.336l2.673 6.013zm10.704-2.673c-1.336 0-2.672.668-4.676.668l-1.337-5.344c1.337 0 3.341-.668 4.677-.668l1.337 5.344zm2.007 0h-.668L90.91 9.406h.668l1.336 5.344zm2.665 0h-1.336l-1.337-5.344h2.005l.668 5.344zm12.695 0h-1.336l-.668-5.344 2.004.668v4.676zm2.674.668h-2.005v-5.344h2.005v5.344zm-13.364-.668h-.668l-.668-5.344h.668l.668 5.344zm22.713 2.673h-.668l.668-4.677h.668l-.668 4.677zm2.678 1.336l-1.336-.668.668-4.677h1.336l-.668 5.345zm1.341.668v-.668l.668-4.677h.669l-1.337 5.345zm-18.711-4.677h-6.681l-.668-5.344h6.681l.668 5.344zm12.693 2.673c-1.336 0-2.004-.668-3.34-.668l-3.341-.668v-5.345l3.341.668c1.336 0 2.004.668 3.34.668v5.345z" fill="#BC2EFF"/><path d="M128.991 20.763l-4.009-2.004.669-4.677c1.336.668 2.672 1.336 4.676 2.005l-1.336 4.676zm1.331.668h-.668l1.337-4.676.668.668-1.337 4.008zm2.676 1.336c-.668 0-.668-.668-1.336-.668l1.336-4.676c.668 0 .668.668 1.337.668l-1.337 4.676zm10.69 6.681l-1.336-.668 2.004-4.008 1.336.668-2.004 4.008zm2.008 2.005l-1.337-1.337 2.005-4.008 1.336 1.336-2.004 4.009zm-10.69-7.349l-.668-.668 1.336-4.01h.668l-1.336 4.678zm18.031 14.03c0-.668 0-.668 0 0l2.004-4.009.669.668-2.673 3.34zm2.016 2.004l-1.336-1.336 2.672-3.34 1.336 1.336-2.672 3.34zm1.326 1.336l-.668-.668 2.672-3.34.668.668-2.672 3.34zm-14.698-13.362l-2.673-2.004-3.34-1.336 2.004-4.677 2.673 2.004 2.672 2.005-1.336 4.008zm10.031 8.686c-1.336-1.337-3.341-2.673-4.677-4.009l2.004-4.009c2.005 1.337 3.341 2.673 5.345 4.677l-2.672 3.34z" fill="#BC2EFF"/><path d="M159.045 44.815l-1.336-2.005c-.668-.668-1.336-1.336-1.336-2.004l2.672-3.34c.669.668 1.337 1.336 1.337 2.004l1.336 2.004-2.673 3.34zm1.334 2.004v-.668l2.672-3.34.668.667-3.34 3.34zm2.012 2.004c0-.668-.668-.668-.668-1.336l3.34-2.672c0 .668.668.668.668 1.336l-3.34 2.672zm6.681 10.69l-.668-1.336 3.341-2.005.668 1.337-3.341 2.004zm1.331 2.672c0-.668-.669-.668-.669-1.336l3.341-2.004c0 .668.668.668.668 1.336l-3.34 2.004zm-7.35-12.025l3.34-2.673-3.34 2.672zm10.689 21.379v-.668l4.009-2.005v.668l-4.009 2.005zm1.332 2.672l-.668-2.004 4.009-1.336v2.004l-3.341 1.336zm.68 1.336h-.668l4.009-1.336v.668l-3.341.668zm-8.029-18.707c-.668-.668-1.336-2.004-1.336-2.672l-2.004-2.672 3.34-2.673 2.004 2.673c.669.668 1.337 2.004 2.005 3.34l-4.009 2.005zm5.348 12.694c-.668-1.336-.668-2.004-1.336-3.34l-.668-1.336-.669-1.337 3.341-2.004.668 1.336.668 1.337c.668 1.336.668 2.004 1.336 3.34l-3.34 2.004zM134.33 171.753l-.668.668c-2.004.669-4.676 1.337-6.681 2.005h-.668l-.668-2.005h.668c2.004-.668 4.677-1.336 6.681-2.004h.668l.668 1.336zm4.677-2.004l-.668-2.004.668-.668c2.004-1.337 4.009-2.005 6.013-3.341l.668-.668.668 2.004-.668.668-6.013 4.009h-.668zm-18.039 6.013h-.668c-2.672.668-4.676.668-7.349.668h-.668v-2.004h.668c2.004 0 4.677-.668 6.681-.668h.668l.668 2.004zm30.065-14.03l-1.336-2.004.668-.669c2.004-1.336 3.34-3.34 4.676-4.676l.668-.668 1.337 1.336-.669.668c-1.336 2.004-3.34 3.34-5.344 4.677v1.336zm-44.763 15.366h-.668c-2.672 0-4.677 0-7.349-.668h-1.336v-2.004h1.336c2.672 0 4.677.668 7.349.668h.668v2.004zm54.116-25.388l-1.336-1.336.668-.668c1.336-2.004 2.672-3.34 4.009-5.345l.668-.668 1.336 1.336-.668.668-4.009 6.013h-.668zm-68.814 23.384h-.668c-2.672-.668-4.677-1.336-7.35-2.004l-.667-.669.668-2.004.668.668c2.004.668 4.677 1.336 7.349 2.005h.668l-.668 2.004zm76.163-35.409l-1.336-1.337.668-.668c1.336-2.004 2.004-4.008 2.672-6.013l.669-.668 1.336.668-.668.669c-.668 2.004-2.005 4.676-2.673 6.681l-.668.668zm-90.193 30.064l-.668-.668c-2.004-1.336-4.677-2.672-6.681-4.009l-.668-.668 1.336-2.004.668.668c2.004 1.336 4.677 2.672 6.681 4.009l.668.668-1.336 2.004zm95.538-42.758l-1.336-.668v-.668c.668-2.005 1.336-4.677 2.004-6.681v-.669l1.336.669v.668c-.668 2.004-1.336 4.676-2.004 6.681v.668zM63.512 161.064l-.668-.668c-2.005-2.005-4.009-3.341-6.013-5.345l-.668-.668 1.336-2.005.668.669c2.004 2.004 4.009 4.008 6.013 5.344l.668.668-1.336 2.005zm112.908-48.103l-1.336-.668v-.668c0-2.005.668-4.677.668-6.681v-.669h1.337v.669c0 2.672 0 4.676-.669 7.349v.668zM52.154 149.038l-.668-.668c-2.004-2.004-3.34-4.677-4.676-6.681l-.669-.668 2.005-1.336.668.668c1.336 2.004 3.34 4.676 4.676 6.681l.669.668-2.005 1.336zM177.09 98.931h-1.337v-.668c0-2.005-.668-4.677-.668-6.681v-.668h1.336v.668c0 2.672.669 4.676.669 7.349zM42.801 135.008l-.668-1.336c-1.336-2.673-2.673-5.345-3.34-8.017l-.669-1.337 2.005-.668.668 1.336c1.336 2.673 2.004 5.345 3.34 7.35l.668 1.336-2.004 1.336zm132.283-50.776h-1.336v-.668c-.668-2.004-1.336-4.676-2.004-6.68l-.668-1.337 1.336-.668.668 1.336c.668 2.005 1.336 4.677 2.004 6.681v1.337zM36.12 118.975l-.668-1.337-2.005-8.017v-1.336l2.005-.668v1.336l2.004 8.017.668 1.336-2.004.669zm133.619-48.103l-.668-.668c-.668-2.005-2.004-4.677-2.672-6.681l-.668-.669 1.336-.668.668.668c1.336 2.005 2.004 4.677 2.673 6.681l.668.668-1.337.669zm-134.955 31.4h-2.005v-1.336c0-2.672-.668-6.013-.668-8.685v-1.337h2.005v1.337c0 2.672 0 5.344.668 8.017v2.004zm128.943-44.094l-.669-.668-4.008-6.013-.668-.668 1.336-1.337.668.669 4.009 6.012.668.669-1.336 1.336zM34.116 85.569H32.11v-1.337c0-2.672.668-5.344 1.337-8.017V74.88l2.004.668v1.336c-.668 2.673-.668 5.345-1.336 8.018v.668zm121.593-38.75l-.668-.668c-1.336-2.004-3.34-3.34-4.676-5.345l-.668-.668 1.336-1.336.668.668c2.004 1.336 3.34 3.34 4.676 5.345l.669.668-1.337 1.336zM36.788 69.534l-2.004-.668V67.53c.668-2.672 1.336-5.345 2.672-8.017l.668-1.336 2.005.668-.669 1.336c-.668 2.672-2.004 4.677-2.672 7.35v2.003zm108.9-32.736l-.668-.669c-2.004-1.336-3.341-2.672-5.345-4.008l-.668-.668.668-1.336.668.668c2.004 1.336 4.009 2.672 5.345 4.008l.668.668-.668 1.337zM42.801 54.836L40.797 53.5l.668-.668c1.336-2.004 2.672-4.677 4.008-6.681l.668-.668 2.005 1.336-.668.668c-1.337 2.004-2.673 4.009-4.009 6.681l-.668.668zM134.33 28.78l-.668-.668c-2.004-1.336-4.008-2.004-6.013-3.34l-.668-.668.668-2.005.668.668c2.005.669 4.009 2.005 6.013 3.341l.668.668-.668 2.004zM50.818 42.81l-1.336-1.336.668-.668 5.345-5.345.668-.668 1.336 2.005-.668.668c-2.004 1.336-3.34 3.34-5.345 5.344h-.668zm71.487-19.374h-.669c-2.004-.669-4.676-1.337-6.681-2.005h-.668v-2.004h.668c2.005.668 4.677 1.336 6.681 2.004h.669v2.005zm-60.797 9.353l-1.337-2.004.669-.668 6.012-4.009.668-.668 1.337 2.004-.668.668-6.013 4.009-.668.668zm47.435-12.694h-.669c-2.004 0-4.676-.668-6.681-.668h-.668v-2.004h.668c2.005 0 4.677 0 6.681.668h.669v2.004zM74.201 25.44l-.668-2.004.668-.669c2.005-.668 4.677-2.004 6.681-2.672h.668l.669 2.004h-.668c-2.005.668-4.677 1.337-6.681 2.673l-.669.668zm21.38-6.013h-.669c-2.004 0-4.676.668-6.68.668h-1.337l-.668-2.004h1.337c2.004-.668 4.676-.668 6.68-.668h.668l.669 2.004z" fill="#BC2EFF"/><path d="M184.449 72.875c14.031 46.098-5.344 96.206-46.098 114.244-46.1 20.043-102.22-7.349-119.59-64.137C1.391 66.194 32.791 12.078 82.9 3.392c44.094-8.017 87.52 24.052 101.55 69.483z" fill="url(#paint1_radial_118_4845)"/><path d="M184.449 72.875c14.031 46.098-5.344 96.206-46.098 114.244-46.1 20.043-102.22-7.349-119.59-64.137C1.391 66.194 32.791 12.078 82.9 3.392c44.094-8.017 87.52 24.052 101.55 69.483z" fill="url(#paint2_radial_118_4845)"/><defs><radialGradient id="paint1_radial_118_4845" cx="0" cy="0" r="1" gradientUnits="userSpaceOnUse" gradientTransform="rotate(-16.799 383.008 -294.838) scale(91.8135)"><stop offset=".224" stop-color="#B5B5B5"/><stop offset=".377" stop-color="#B2B2B2"/><stop offset=".478" stop-color="#A9A9A9"/><stop offset=".565" stop-color="#9A9A9A"/><stop offset=".643" stop-color="#858585"/><stop offset=".715" stop-color="#696969"/><stop offset=".784" stop-color="#484848"/><stop offset=".847" stop-color="#202020"/><stop offset=".892"/></radialGradient><radialGradient id="paint2_radial_118_4845" cx="0" cy="0" r="1" gradientUnits="userSpaceOnUse" gradientTransform="rotate(-16.799 383.008 -294.838) scale(91.8135)"><stop offset=".224" stop-color="#B5B5B5"/><stop offset=".377" stop-color="#B2B2B2"/><stop offset=".478" stop-color="#A9A9A9"/><stop offset=".565" stop-color="#9A9A9A"/><stop offset=".643" stop-color="#858585"/><stop offset=".715" stop-color="#696969"/><stop offset=".784" stop-color="#484848"/><stop offset=".847" stop-color="#202020"/><stop offset=".892"/></radialGradient><linearGradient id="paint0_linear_118_4845" x1="47.307" y1="59.595" x2="176.681" y2="152.755" gradientUnits="userSpaceOnUse"><stop offset=".006" stop-color="#BE46E8"/><stop offset=".726" stop-color="#680994"/></linearGradient></defs></svg>