<svg width="145" height="152" fill="none" xmlns="http://www.w3.org/2000/svg"><path d="M131.825 39.41c25.388 41.422 10.69 88.189-24.72 101.551-30.064 11.358-66.141-5.345-84.18-35.409-18.039-30.065-16.034-69.483 8.017-91.53 28.06-24.72 76.163-16.034 100.883 25.388z" fill="#300551"/><path d="M121.807 45.423c25.388 41.422 10.69 88.189-24.72 101.551-30.064 11.357-66.141-5.345-84.18-35.409C-5.799 81.5-3.795 42.082 20.257 20.703c28.728-25.387 76.83-16.702 101.55 24.72z" fill="#300551"/><path d="M28.938 34.733c10.69-8.685 24.052-11.357 38.75-8.017 15.366 3.34 28.728 14.03 38.081 28.728 8.686 14.698 12.026 31.4 8.018 46.767-3.341 14.698-12.694 25.388-25.388 30.065-11.358 4.676-24.72 4.676-37.414-.668-12.025-5.345-22.047-14.031-29.396-26.056-7.349-11.358-10.69-24.72-9.353-38.082 1.336-12.694 7.349-24.72 16.702-32.737zm-8.685-14.03C-3.8 42.083-5.803 81.5 12.236 112.233c18.038 30.064 54.116 46.767 84.18 35.409 36.077-13.362 50.107-60.129 24.72-101.551C97.084 4.001 48.981-4.684 20.253 20.703z" fill="#700994"/><mask id="mask0_118_3413" style="mask-type:luminance" maskUnits="userSpaceOnUse" x="15" y="27" width="98" height="108"><path d="M103.772 56.78c17.37 29.397 8.685 62.802-16.035 74.159-22.047 9.354-49.439-2.004-63.469-25.387-14.03-23.384-12.026-52.78 7.35-68.146C51.66 19.367 85.732 27.384 103.771 56.78z" fill="#fff"/></mask><g mask="url(#mask0_118_3413)"><path d="M60.342 96.198h1.336l4.008.669 4.01 8.017h1.335l2.673 4.008 1.336.668" stroke="#972EFF" stroke-width=".165" stroke-miterlimit="10"/><path d="M60.347 96.867c-.668-.669-.668-.669 0 0v-.669s.668 0 0 .669zm14.7 13.361c.668-.668.668 0 0 0 0-.668.668-.668 0 0 0-.668 0-.668 0 0z" fill="#2EA8FF"/><path d="M59.018 94.862h.668l1.336-.668h.668l.668.668 3.34 1.336 4.677 7.349.668.668 2.673 3.341.668.668" stroke="#972EFF" stroke-width=".165" stroke-miterlimit="10"/><path d="M59.018 94.862v-.668c.668 0 .668.668 0 .668.668 0 .668 0 0 0zm15.369 13.362c.668-.668.668-.668 0-.668v.668z" fill="#2EA8FF"/><path d="M61.01 94.862l4.676 2.004 4.01 7.349h1.335l2.673 4.009 1.336.668.668-.668" stroke="#972EFF" stroke-width=".165" stroke-miterlimit="10"/><path d="M61.01 95.53v-.668c.668 0 .668 0 0 .668.668 0 .668 0 0 0zm14.698 13.362c0-.668 0-.668 0 0-.668-.668-.668-.668 0 0z" fill="#2EA8FF"/><path d="M63.018 96.867l2.004.668 4.008 7.349 1.337.668 2.672 4.008 2.672 1.337 1.337-.669" stroke="#972EFF" stroke-width=".165" stroke-miterlimit="10"/><path d="M62.35 97.535v-.668c.668 0 .668 0 0 .668.668 0 .668 0 0 0zm14.698 12.693c0-.668 0-.668 0 0-.668-.668-.668 0 0 0z" fill="#2EA8FF"/><path d="M63.685 98.87h1.337l3.34 6.014 2.005.668 2.672 4.676 3.34 1.337 2.005-1.337v-1.336" stroke="#972EFF" stroke-width=".165" stroke-miterlimit="10"/><path d="M63.69 98.87c-.668 0-.668 0 0 0v-.667.668zm14.694 10.022c-.668 0-.668 0 0 0-.668.668 0 .668 0 0z" fill="#2EA8FF"/><path d="M61.018 98.203l.668 1.336 2.672.668 3.34 5.345.669.668 4.008 5.345.668.668" stroke="#972EFF" stroke-width=".165" stroke-miterlimit="10"/><path d="M61.014 98.203c-.668 0 0-.668 0 0 0-.668 0-.668 0 0 .668 0 .668 0 0 0zm12.023 14.698c.668-.668.668-.668 0-.668v.668c0-.668 0-.668 0 0z" fill="#2EA8FF"/><path d="M67.023 106.22h1.337l3.34 6.681 2.672.668 1.337-.668 1.336.668v.668" stroke="#972EFF" stroke-width=".165" stroke-miterlimit="10"/><path d="M67.03 106.22c-.668 0-.668 0 0 0v-.668s.668.668 0 .668zm10.017 8.017c.668 0 .668 0 0 0 0-.668.668-.668 0 0z" fill="#2EA8FF"/><path d="M93.082 130.94l-14.03-23.384h-2.004l-4.009-.668-1.336-3.34h-1.336l-4.009-8.018-3.34-.668-.668-.668" stroke="#972EFF" stroke-width=".165" stroke-miterlimit="10"/><path d="M63.02 93.526c-.668 0-.668 0 0 0-.668 0-.668.668 0 0-.668.668-.668.668 0 0 0 .668 0 .668 0 0z" fill="#2EA8FF"/><path d="M93.756 130.94l-14.698-23.384-1.336-.668-.668.668-3.34-1.336-2.005-3.341h-.668l-4.677-7.349-2.672-.668-.668-2.004h-1.337" stroke="#972EFF" stroke-width=".165" stroke-miterlimit="10"/><path d="M62.358 92.19c-.668 0-.668 0 0 0-.668.668-.668.668 0 .668v-.668c0 .668 0 .668 0 0z" fill="#2EA8FF"/><path d="M94.412 130.271l-14.698-23.383-2.004-.668h-.669l-2.004-.668" stroke="#972EFF" stroke-width=".165" stroke-miterlimit="10"/><path d="M75.042 104.884c-.668 0-.668.668 0 0-.668.668 0 .668 0 0 0 .668 0 .668 0 0z" fill="#2EA8FF"/><path d="M94.416 130.271L79.718 106.22l-2.004-.668h-1.337l-2.004-2.673h-.668" stroke="#972EFF" stroke-width=".165" stroke-miterlimit="10"/><path d="M73.71 102.211c-.668 0-.668 0 0 0-.668.668-.668.668 0 .668v-.668z" fill="#2EA8FF"/><path d="M95.09 130.272l-14.699-24.72-2.672-.668-.668-1.336h-.668" stroke="#972EFF" stroke-width=".165" stroke-miterlimit="10"/><path d="M76.388 102.879c-.668.668-.668.668 0 .668 0 .669.668 0 0-.668.668.668.668.668 0 0z" fill="#2EA8FF"/><path d="M95.75 129.603l-14.698-24.719-2.673-.669-1.336-2.004-1.336-.668" stroke="#972EFF" stroke-width=".165" stroke-miterlimit="10"/><path d="M75.714 101.543c-.668.668-.668.668 0 .668v-.668z" fill="#2EA8FF"/><path d="M96.414 129.603l-15.367-24.719-2.004-1.337-.668-.668" stroke="#972EFF" stroke-width=".165" stroke-miterlimit="10"/><path d="M78.38 102.211c-.668 0-.668.668 0 0-.668.668 0 .668 0 0 0 .668 0 .668 0 0z" fill="#2EA8FF"/><path d="M97.09 129.603l-15.367-25.387-2.004-.668-1.336-2.005-1.336-.668" stroke="#972EFF" stroke-width=".165" stroke-miterlimit="10"/><path d="M77.054 100.207c-.668.668-.668.668 0 .668 0 .668.668 0 0-.668.668.668.668.668 0 0z" fill="#2EA8FF"/><path d="M97.09 128.935l-15.366-25.388-1.336-.668-2.004-2.672-8.686-3.34-1.336-2.005-3.34-1.336-.668-1.336h-.669" stroke="#972EFF" stroke-width=".165" stroke-miterlimit="10"/><path d="M63.69 91.522c-.668.668-.668.668 0 .668v-.668z" fill="#2EA8FF"/><path d="M97.766 128.935L81.73 102.879l-1.336-.668-1.336-2.672-8.685-2.672-2.005-3.341" stroke="#972EFF" stroke-width=".165" stroke-miterlimit="10"/><path d="M69.04 93.526c-.668 0-.668 0 0 0-.668 0-.668.668 0 0-.668.668-.668.668 0 0z" fill="#2EA8FF"/><path d="M98.419 128.935l-16.035-26.724-1.336-.668-2.004-2.004-8.017-3.34-2.005-3.34h-3.34l-.668-1.337" stroke="#972EFF" stroke-width=".165" stroke-miterlimit="10"/><path d="M65.017 91.522c0-.668 0-.668 0 0-.668 0-.668 0 0 0z" fill="#2EA8FF"/><path d="M99.084 128.267L83.05 101.543h-2.005l-1.336-3.34-6.013-2.004-2.004-2.673-2.004-.668-.669-1.336" stroke="#972EFF" stroke-width=".165" stroke-miterlimit="10"/><path d="M69.023 91.522c0-.668 0-.668 0 0-.668 0-.668 0 0 0 0 .668-.668 0 0 0z" fill="#2EA8FF"/><path d="M75.715 92.19l.668 2.004h1.336l3.34-2.004 4.01 1.336.667 1.336 7.35 2.005 2.004 4.008-.668 4.009 8.685 14.698 3.34 1.336" stroke="#972EFF" stroke-width=".165" stroke-miterlimit="10"/><path d="M75.049 92.19c.668-.668.668-.668 0 0 .668 0 .668 0 0 0z" fill="#2EA8FF"/><path d="M77.047 91.522l.668 1.336h.668l2.672-1.336 4.677 1.336.668 1.336 6.681 2.004 2.673 4.677-.669 4.009 8.686 14.698 3.34 1.336" stroke="#972EFF" stroke-width=".165" stroke-miterlimit="10"/><path d="M77.054 91.522c-.668-.669-.668 0 0 0 0-.669 0-.669 0 0 .668 0 .668 0 0 0z" fill="#2EA8FF"/><path d="M87.07 93.526l6.681 2.004 3.34 5.345-1.335 4.009 8.017 12.694 2.004 1.336" stroke="#972EFF" stroke-width=".165" stroke-miterlimit="10"/><path d="M87.068 93.526v-.668s.669.668 0 .668z" fill="#2EA8FF"/><path d="M85.736 98.87l1.337.669 13.362 21.379 3.34 1.336" stroke="#972EFF" stroke-width=".165" stroke-miterlimit="10"/><path d="M85.072 98.87v-.667c.668 0 .668.668 0 .668.668.668.668 0 0 0z" fill="#2EA8FF"/><path d="M80.383 96.198l2.004.669 1.336 2.004 3.34 1.336 12.695 21.379 2.004.668 1.336 1.336" stroke="#972EFF" stroke-width=".165" stroke-miterlimit="10"/><path d="M80.383 96.198v-.668c.668.668.668.668 0 .668.668 0 0 .669 0 0z" fill="#2EA8FF"/><path d="M81.05 98.203l1.337.668.668.668 4.009 1.336 12.025 20.711 2.673.668 2.004 4.009" stroke="#972EFF" stroke-width=".165" stroke-miterlimit="10"/><path d="M80.383 98.203v-.669c.668 0 .668.668 0 .668.668 0 .668 0 0 0z" fill="#2EA8FF"/><path d="M67.686 88.85v-.669l1.336-.668 4.676 1.336 2.673-1.336 19.375 6.681 6.681 10.69h1.336" stroke="#972EFF" stroke-width=".165" stroke-miterlimit="10"/><path d="M103.098 105.552c.668 0 .668 0 0 0 .668-.668.668-.668 0-.668v.668z" fill="#2EA8FF"/><path d="M71.708 75.487l-1.336-.668-2.004 1.336-1.336-.668-1.337 1.336-.668 1.337 1.337 1.336-.669 2.004 3.34 5.345 4.678 1.336 2.672-1.336 20.043 6.68 6.013 9.354 1.336.668 4.009 6.681 5.344 2.005 1.337 2.672" stroke="#972EFF" stroke-width=".165" stroke-miterlimit="10"/><path d="M71.712 74.819v.668c-.668 0-.668 0 0-.668-.668 0-.668 0 0 0z" fill="#2EA8FF"/><path d="M67.688 79.496l-.669 2.004 3.341 4.677 3.34 1.336 2.673-1.336 20.043 6.68 6.013 9.354 2.004.668 4.009 6.681 4.676 2.005 3.341-1.337 4.676 2.005" stroke="#972EFF" stroke-width=".165" stroke-miterlimit="10"/><path d="M67.02 79.496h.668s0 .668-.669 0z" fill="#2EA8FF"/><path d="M68.367 78.828v2.004l2.673 4.677 2.672 1.336 2.672-2.004 20.711 7.349 6.013 9.353 1.336.668 4.677 6.681 4.009 2.004 3.34-2.004 6.013 2.673" stroke="#972EFF" stroke-width=".165" stroke-miterlimit="10"/><path d="M68.367 78.828h.668s0 .668-.668 0z" fill="#2EA8FF"/><path d="M100.434 89.517l.668-.668 1.336.668 3.34 4.677 2.673 1.336 4.676-2.672 4.009 1.336 2.004 3.34 3.341 1.337 16.034-7.35 9.354 2.673 4.008-2.004 2.673.668 2.004 3.34" stroke="#972EFF" stroke-width=".165" stroke-miterlimit="10"/><path d="M100.439 90.186c-.668-.669-.668-.669 0 0 0-.669 0-.669 0 0z" fill="#2EA8FF"/><path d="M101.109 91.522h1.337l2.004 4.008 9.353 3.34 1.336 1.337 1.337.668 2.004-1.336 4.008 1.336.669 2.004 2.004.668 6.013-2.672.668-2.672 10.021-4.677 6.681 2.004 2.005 3.34" stroke="#972EFF" stroke-width=".165" stroke-miterlimit="10"/><path d="M101.106 91.522v-.669c.668 0 .668.669 0 .669z" fill="#2EA8FF"/><path d="M74.37 83.505l2.004.668 1.336-.668 14.698 4.676 2.672-.668 2.005.668 12.025 20.711 4.009 1.336 3.34-2.004 7.349 2.673" stroke="#972EFF" stroke-width=".165" stroke-miterlimit="10"/><path d="M74.374 84.173c-.668-.668-.668 0 0 0v-.668s.668 0 0 .668z" fill="#2EA8FF"/><path d="M71.035 80.164v-1.336l4.009-2.005h.668l.668 1.337h1.336l1.336-.668v-2.673l14.698-8.685h1.337l.668 1.336" stroke="#972EFF" stroke-width=".165" stroke-miterlimit="10"/><path d="M95.756 67.47c.668 0 .668 0 0 0 0-.668 0-.668 0 0 0-.668-.668 0 0 0z" fill="#2EA8FF"/><path d="M72.357 80.164l.669-.668 4.008.668 2.672-1.336.669-3.34 10.69-6.682 4.676 1.336 2.672-1.336 1.337-7.349 2.004-.668" stroke="#972EFF" stroke-width=".165" stroke-miterlimit="10"/><path d="M72.362 80.164c-.668-.668-.668 0 0 0 0-.668 0-.668 0 0zm29.401-19.374c0-.669 0-.669 0 0-.668-.669-.668 0 0 0z" fill="#2EA8FF"/><path d="M73.041 80.832l.668-.668 3.34.668 3.341-2.004.668-3.34 10.022-6.014 4.676 1.337 3.34-1.337 1.337-6.68 2.004-1.337" stroke="#972EFF" stroke-width=".165" stroke-miterlimit="10"/><path d="M73.048 80.832c-.668 0 0 .668 0 0-.668 0-.668 0 0 0 0-.668 0-.668 0 0zm29.398-18.707c0-.668 0-.668 0 0-.668-.668-.668 0 0 0z" fill="#2EA8FF"/><path d="M73.705 82.168l2.672 1.337 3.341-2.005 2.672.668 7.35-4.008.668-1.336" stroke="#972EFF" stroke-width=".165" stroke-miterlimit="10"/><path d="M73.71 82.837c-.668-.669-.668 0 0 0zm16.702-6.013c0-.668 0-.668 0 0-.668-.668-.668-.668-.668 0h.668z" fill="#2EA8FF"/><path d="M81.047 80.832h2.004l6.013-2.672.668-4.009" stroke="#972EFF" stroke-width=".165" stroke-miterlimit="10"/><path d="M81.047 80.832v-.668c.668 0 .668 0 0 .668zm8.68-6.681c-.668-.668-.668-.668-.668 0h.668z" fill="#2EA8FF"/><path d="M101.77 64.13l-.668 4.008 4.008 6.681-.668 2.673 2.672 4.008 12.026 3.34 2.004 3.341 2.673 1.336 21.379-11.357" stroke="#972EFF" stroke-width=".165" stroke-miterlimit="10"/><path d="M101.768 63.462h.668c0 .668 0 .668-.668 0 0 .668 0 .668 0 0z" fill="#2EA8FF"/><path d="M103.114 63.462l-1.337 4.676 4.009 6.681-.668 2.673 2.004 2.672 12.026 4.009 2.004 3.34 2.673.668 21.379-10.69" stroke="#972EFF" stroke-width=".165" stroke-miterlimit="10"/><path d="M102.441 63.462c0-.669.669-.669 0 0z" fill="#2EA8FF"/><path d="M104.444 61.457l-2.005 6.681 4.009 6.681-.668 2.005 1.336 2.672 12.694 3.34 2.004 3.341 2.673 1.336 20.043-10.69" stroke="#972EFF" stroke-width=".165" stroke-miterlimit="10"/><path d="M105.11 60.79l-2.005 7.348 4.009 6.681v2.004l.668 1.337 12.026 4.008 2.004 3.34 2.673.669 19.374-10.022" stroke="#972EFF" stroke-width=".165" stroke-miterlimit="10"/><path d="M104.436 60.79h.668s0 .667-.668 0z" fill="#2EA8FF"/><path d="M111.799 78.828l8.017 2.004 2.004 3.34 2.673 1.337 19.375-10.022" stroke="#972EFF" stroke-width=".165" stroke-miterlimit="10"/><path d="M111.799 78.828v-.668c.668 0 .668.668 0 .668z" fill="#2EA8FF"/><path d="M55.67 97.535l-1.336.668-.668 2.672 8.017 13.362 1.336.668 2.673 4.677 7.349 2.672" stroke="#972EFF" stroke-width=".165" stroke-miterlimit="10"/><path d="M55.676 96.867c.668.668.668.668 0 0 0 .668 0 .668 0 0zm17.369 26.055c.668-.668.668-.668 0-.668v.668z" fill="#2EA8FF"/><path d="M65.027 73.483l3.34.668 2.673-1.336 1.336-8.017 11.358-7.35 6.681 1.337 2.004 3.34" stroke="#972EFF" stroke-width=".165" stroke-miterlimit="10"/><path d="M65.027 73.483v-.668c.668 0 .668.668 0 .668zm27.394-11.358c.668 0 .668 0 0 0 0-.668 0-.668 0 0-.668 0-.668-.668 0 0z" fill="#2EA8FF"/><path d="M72.373 70.81l1.336-5.344 10.69-6.681 5.345 1.336 1.336 2.672" stroke="#972EFF" stroke-width=".165" stroke-miterlimit="10"/><path d="M91.088 62.793c.668 0 .668 0 0 0 0-.668.668-.668 0 0z" fill="#2EA8FF"/><path d="M42.985 83.505l-1.337 8.685 3.34 5.345v2.004l-1.335.668-.668 4.009 2.004 3.34-1.336 10.69 7.349 12.694-2.005 12.693" stroke="#972EFF" stroke-width=".165" stroke-miterlimit="10"/><path d="M42.316 83.505h.668c0 .668 0 .668-.668 0 .668.668 0 .668 0 0z" fill="#2EA8FF"/><path d="M42.303 81.5l-1.336 10.69 3.34 5.344v2.005l-2.004.668v3.34l2.004 3.341-1.336 10.689 7.35 13.362-2.005 13.362m20.053-22.047l-2.004 1.336-8.017-3.34-2.005-3.341-4.677-2.004-2.672-3.34L51 101.543l-1.337-2.672v-2.673" stroke="#972EFF" stroke-width=".165" stroke-miterlimit="10"/><path d="M68.366 122.254c.668.668.668.668 0 .668v-.668c-.668 0-.668 0 0 0zM50.328 96.198c-.668-.668-.668 0-.668 0h.668z" fill="#2EA8FF"/><path d="M48.983 102.211l-1.336 8.017 2.672 4.677-1.336 6.013 7.349 12.026-.668 2.672 2.672 4.009" stroke="#972EFF" stroke-width=".165" stroke-miterlimit="10"/><path d="M48.313 102.211c0-.668.668-.668 0 0z" fill="#2EA8FF"/><path d="M50.994 116.909l-.668 5.345 6.681 10.69-.668 2.672 2.672 4.009" stroke="#972EFF" stroke-width=".165" stroke-miterlimit="10"/><path d="M50.988 116.909c0-.668 0-.668 0 0h.668-.668z" fill="#2EA8FF"/><path d="M51.664 119.582v3.34l5.345 10.022v2.672l2.004 4.009" stroke="#972EFF" stroke-width=".165" stroke-miterlimit="10"/><path d="M51.664 119.582h.668s0 .668-.668 0c0 .668 0 .668 0 0z" fill="#2EA8FF"/><path d="M52.992 117.577l.668.669-.668 6.681 4.677 8.017v2.672l2.004 3.341" stroke="#972EFF" stroke-width=".165" stroke-miterlimit="10"/><path d="M52.992 118.246c0-.669 0-.669 0 0 0-.669.668-.669 0 0 .668 0 .668-.669 0 0z" fill="#2EA8FF"/><path d="M54.33 122.254l2.004 3.341-.668 3.34 2.673 4.009-.668 2.672 2.004 3.341" stroke="#972EFF" stroke-width=".165" stroke-miterlimit="10"/><path d="M53.666 122.254c.668-.668.668-.668 0 0 .668 0 1.336 0 0 0 .668.668.668 0 0 0z" fill="#2EA8FF"/><path d="M61.68 138.289l-5.346-9.354v-3.34l-2.004-4.009.668-3.34" stroke="#972EFF" stroke-width=".165" stroke-miterlimit="10"/><path d="M54.998 118.246c-.668-.668-.668 0-.668 0s0 .668.668 0c0 .668 0 .668 0 0z" fill="#2EA8FF"/><path d="M57.01 100.207l-.668 2.672 6.013 10.022h1.336l3.34 5.345 5.345 2.004 3.34-1.336 1.337.668 1.336 2.672-1.336 9.354 2.004 4.008" stroke="#972EFF" stroke-width=".165" stroke-miterlimit="10"/><path d="M56.344 100.207h.668c0 .668 0 .668-.668 0z" fill="#2EA8FF"/><path d="M55.006 100.875v1.336l6.68 11.358h1.337l3.34 5.345 6.013 2.672 2.673-1.336h.668l1.336 2.004-2.004 10.022 2.672 4.008" stroke="#972EFF" stroke-width=".165" stroke-miterlimit="10"/><path d="M55.006 100.875h.668c0 .668 0 .668-.668 0 0 .668 0 .668 0 0z" fill="#2EA8FF"/><path d="M61.676 130.271v-2.672l-2.672-4.677" stroke="#972EFF" stroke-width=".165" stroke-miterlimit="10"/><path d="M61.68 130.271h-.668c0-.668.668-.668.668 0zm-2.671-8.017c-.668 0-.668.668 0 0z" fill="#2EA8FF"/><path d="M60.348 122.922l4.008 6.013" stroke="#972EFF" stroke-width=".165" stroke-miterlimit="10"/><path d="M60.348 123.59c0-.668 0-.668 0 0 0-.668.668-.668 0 0 .668 0 .668-.668 0 0zm3.34 5.345c0 .668.668.668 0 0 .668 0 .668 0 0 0 .668-.668.668-.668 0 0z" fill="#2EA8FF"/><path d="M61.676 122.922l3.34 6.013" stroke="#972EFF" stroke-width=".165" stroke-miterlimit="10"/><path d="M61.01 122.922c0 .668.668.668 0 0zm3.342 6.013c.668-.668.668 0 0 0 .668-.668.668-.668 0 0z" fill="#2EA8FF"/><path d="M54.997 80.164l-4.009 24.052L61.01 120.25l4.008 2.004 1.337-.668" stroke="#972EFF" stroke-width=".165" stroke-miterlimit="10"/><path d="M54.33 80.164c0-.668.668-.668 0 0zm12.026 41.422c.668 0 .668 0 0 0v-.668c0 .668-.669.668 0 .668z" fill="#2EA8FF"/><path d="M52.996 102.879l-.668 1.336 7.35 12.026h1.335l2.673 4.009.668.668" stroke="#972EFF" stroke-width=".165" stroke-miterlimit="10"/><path d="M52.328 102.879h.668s0 .668-.668 0zm12.032 18.039c.668-.668.668-.668 0-.668v.668z" fill="#2EA8FF"/><path d="M64.353 124.258v2.005l1.337 2.004" stroke="#972EFF" stroke-width=".165" stroke-miterlimit="10"/><path d="M64.353 124.258h.669c0 .668 0 .668-.669 0 0 .668 0 .668 0 0zm.665 4.009c.668 0 .668.668 0 0 .668 0 1.336 0 0 0 .668-.668.668-.668 0 0z" fill="#2EA8FF"/><path d="M70.37 122.922l-4.008 2.004-.669 1.337 1.337 1.336" stroke="#972EFF" stroke-width=".165" stroke-miterlimit="10"/><path d="M70.375 122.254c.668.668.668.668 0 .668v-.668c0 .668-.668.668 0 0zm-4.015 5.345c0 .668.668.668 0 0 .668 0 .668 0 0 0 .668-.668.668-.668 0 0z" fill="#2EA8FF"/><path d="M69.704 122.254l-4.009 2.005-.668 2.004 1.337 1.336" stroke="#972EFF" stroke-width=".165" stroke-miterlimit="10"/><path d="M69.704 122.254c.668.668.668.668 0 .668 0 0-.668 0 0-.668-.668 0-.668 0 0 0zm-4.013 6.013c.668 0 .668 0 0 0 .668-.668.668 0 0 0 .668-.668.668-.668 0 0 0-.668 0-.668 0 0z" fill="#2EA8FF"/><path d="M71.696 123.59l-4.677 2.005v.668l.669 1.336" stroke="#972EFF" stroke-width=".165" stroke-miterlimit="10"/><path d="M71.025 122.922c.668 0 .668 0 0 0 .668.668.668.668 0 .668v-.668zm-4.005 4.677c.668 0 .668 0 0 0 .668-.668.668-.668 0 0z" fill="#2EA8FF"/><path d="M72.357 76.155l4.677-2.672v-3.34" stroke="#972EFF" stroke-width=".165" stroke-miterlimit="10"/><path d="M72.362 76.823c-.668-.668-.668-.668 0 0 0-.668 0-.668 0 0zm5.348-6.681c-.669-.668-.669-.668-.669 0 0 0 0 .669.668 0 0 .669 0 .669 0 0z" fill="#2EA8FF"/><path d="M77.715 76.155l.668-4.008" stroke="#972EFF" stroke-width=".165" stroke-miterlimit="10"/><path d="M77.719 76.155h-.668s.668-.668.668 0zm1.329-4.008c-.668-.668-.668-.668-.668 0h.668z" fill="#2EA8FF"/><path d="M75.715 68.138l-1.336 5.345-.668.668" stroke="#972EFF" stroke-width=".165" stroke-miterlimit="10"/><path d="M75.055 67.47h.668c0 .668 0 .668-.668 0 0 .668 0 .668 0 0zm-2.008 6.013c0 .668.668.668 0 0 .668.668.668.668 0 0 .668 0 .668 0 0 0z" fill="#2EA8FF"/><path d="M83.72 62.793l1.335-1.336 3.34.668 1.337 2.673 1.336.668 8.017-4.677 2.005-8.685-2.005-2.673H97.75l-14.698-24.72-2.672-.667-9.354-15.367" stroke="#972EFF" stroke-width=".165" stroke-miterlimit="10"/><path d="M83.716 62.793c-.668-.668-.668 0 0 0 0-.668 0-.668 0 0z" fill="#2EA8FF"/><path d="M83.72 62.793l1.335-1.336 3.34.668 1.337 2.673 1.336.668 8.017-4.677 2.005-8.685-2.005-2.673H97.75l-14.698-24.72-2.672-.667-9.354-15.367" stroke="#972EFF" stroke-width=".165" stroke-miterlimit="10"/><path d="M83.716 62.793c-.668-.668-.668 0 0 0 0-.668 0-.668 0 0z" fill="#2EA8FF"/><path d="M83.72 62.793l1.335-.668 2.673.668 1.336 2.673 2.672.668 8.018-4.677 2.004-9.353-2.004-2.673-2.005-.668-14.698-24.051-2.672-.668-9.354-16.035" stroke="#972EFF" stroke-width=".165" stroke-miterlimit="10"/><path d="M83.716 63.462c-.668-.669-.668-.669 0 0 0-.669 0-.669 0 0 .668 0 .668-.669 0 0z" fill="#2EA8FF"/><path d="M71.71 8.01l9.354 15.366 2.673.668 14.698 24.72h2.004l1.336 3.34-.668 3.34 1.336 2.005v1.336" stroke="#972EFF" stroke-width=".165" stroke-miterlimit="10"/><path d="M101.777 58.785c.668.668.668.668.668 0h-.668z" fill="#2EA8FF"/><path d="M72.373 7.341l9.353 16.034 2.673.669 14.698 24.051 2.004.668 1.336 3.34-.668 2.673 2.673 3.34 1.336.669.668.668 1.336.668 1.336-.668 1.337.668" stroke="#972EFF" stroke-width=".165" stroke-miterlimit="10"/><path d="M110.454 60.12c.668-.667.668-.667 0-.667 0 0-.668 0 0 .668-.668 0-.668 0 0 0z" fill="#2EA8FF"/><path d="M72.373 7.341l10.021 15.366 2.005.668 15.366 24.72 1.336.668 2.005 2.673v2.672l2.004 4.009 2.004.668" stroke="#972EFF" stroke-width=".165" stroke-miterlimit="10"/><path d="M107.119 58.785c.668-.668.668-.668 0-.668v.668z" fill="#2EA8FF"/><path d="M81.722 31.393l2.672 5.345-1.336 6.68-5.345 3.341-1.336 8.686-8.017 4.676-1.337 10.022" stroke="#972EFF" stroke-width=".165" stroke-miterlimit="10"/><path d="M81.049 31.393c.668-.668.668-.668 0 0 .668 0 .668 0 0 0zm-14.693 38.75c.668.668.668 0 .668 0h-.668z" fill="#2EA8FF"/><path d="M68.37 59.453l7.348-4.677 1.336-8.685 5.345-3.34 1.336-6.013-2.672-4.677" stroke="#972EFF" stroke-width=".165" stroke-miterlimit="10"/><path d="M69.04 59.453c-.668 0-.668.668 0 0-.668 0-.668 0 0 0 0-.668-.668-.668 0 0zm12.02-28.06c-.668 0-.668.668 0 0-.668.668 0 .668 0 0 0 .668 0 .668 0 0z" fill="#2EA8FF"/><path d="M79.71 33.397l2.672 5.345v3.34l-6.013 4.009-1.337 8.017-6.013 4.009" stroke="#972EFF" stroke-width=".165" stroke-miterlimit="10"/><path d="M79.04 33.397c.667-.668.667 0 0 0 .667 0 .667 0 0 0 .667.668.667.668 0 0zM69.023 57.449c-.668 0-.668.668 0 0 0 .668 0 .668 0 0 .668.668.668.668 0 0z" fill="#2EA8FF"/><path d="M72.37 39.41l-3.34 2.672-1.337 8.018 2.673 4.676" stroke="#972EFF" stroke-width=".165" stroke-miterlimit="10"/><path d="M71.7 39.41c.667 0 .667 0 0 0 .667 0 .667.668 0 0 .667.668 0 .668 0 0zm-1.341 16.034c.668-.668.668 0 0 0 0-.668 0-.668 0 0-.669-.668-.669-.668 0 0z" fill="#2EA8FF"/><path d="M73.046 41.414l-2.673 2.004-.668 6.013 2.004 4.677" stroke="#972EFF" stroke-width=".165" stroke-miterlimit="10"/><path d="M73.045 41.414c.668 0 .668.668 0 0 0 .668 0 .668 0 0zm-1.33 12.694c.668 0 .668 0 0 0 0-.668.668-.668 0 0z" fill="#2EA8FF"/><path d="M73.041 62.125l8.685-6.013 1.337-6.68 9.353-6.013" stroke="#972EFF" stroke-width=".165" stroke-miterlimit="10"/><path d="M73.048 62.125c-.668 0-.668 0 0 0 0-.668 0-.668 0 0zm19.377-18.706c.668 0 .668 0 0 0 0-.668 0-.668 0 0-.668 0-.668 0 0 0 0 .668 0 .668 0 0z" fill="#2EA8FF"/><path d="M55.67 20.703l6.013 10.69-2.672 20.043-3.341 2.004-.668 6.681" stroke="#972EFF" stroke-width=".165" stroke-miterlimit="10"/><path d="M54.338 60.121c.668.668.668 0 .668 0s0-.668-.668 0c0-.668 0-.668 0 0z" fill="#2EA8FF"/><path d="M56.346 20.035l6.68 11.358-3.34 20.043-2.672 2.004-1.336 6.68" stroke="#972EFF" stroke-width=".165" stroke-miterlimit="10"/><path d="M55.678 60.12c0 .669 0 .669 0 0 .668.669.668 0 .668 0h-.668z" fill="#2EA8FF"/><path d="M62.353 56.78l-4.677 3.341-.668 6.013-10.69 6.68" stroke="#972EFF" stroke-width=".165" stroke-miterlimit="10"/><path d="M62.362 56.78c.669 0 .669.669 0 0 0 .669 0 .669 0 0-.668 0-.668 0 0 0zM45.654 72.815c0 .668.668.668 0 0 .668 0 .668 0 0 0 .668-.668.668-.668 0 0z" fill="#2EA8FF"/><path d="M63.018 58.785l-4.008 2.672-.668 6.681-9.354 6.013" stroke="#972EFF" stroke-width=".165" stroke-miterlimit="10"/><path d="M63.016 58.117c.668.668.668.668 0 0 0 .668 0 .668 0 0zM48.32 74.151c0 .668.668.668 0 0 .668 0 .668 0 0 0 .668 0 .668-.668 0 0z" fill="#2EA8FF"/><path d="M63.014 61.458l-1.337 9.353-8.685 5.345" stroke="#972EFF" stroke-width=".165" stroke-miterlimit="10"/><path d="M52.992 76.156c0 .668 0 .668 0 0 .668 0 .668.668 0 0z" fill="#2EA8FF"/><path d="M54.33 22.04l6.013 10.021-2.672 18.707-2.673 2.004-1.336 6.681" stroke="#972EFF" stroke-width=".165" stroke-miterlimit="10"/><path d="M53.658 59.453c-.668 0 0 .668 0 0 .668.668.668 0 .668 0h-.668z" fill="#2EA8FF"/><path d="M8.904 58.117l7.35 2.004 1.336 2.004 10.69 3.34 3.34 5.346 4.008 1.336 2.673-1.336 3.34 1.336" stroke="#972EFF" stroke-width=".165" stroke-miterlimit="10"/><path d="M41.645 72.147c.668 0 .668 0 0 0 .668-.668.668-.668 0-.668v.668z" fill="#2EA8FF"/><path d="M9.57 57.449l6.681 2.004 1.336 2.004 10.69 3.34 3.34 5.345 3.341.669 4.009-2.005 5.344 1.336" stroke="#972EFF" stroke-width=".165" stroke-miterlimit="10"/><path d="M44.312 70.81c.668-.668.668-.668 0-.668 0 0-.668 0 0 .669-.668 0-.668-.669 0 0z" fill="#2EA8FF"/><path d="M10.24 56.78l6.013 2.005 1.336 2.004 11.358 3.34 2.672 4.677 3.34 1.337 4.01-2.673v-1.336l10.689-7.349" stroke="#972EFF" stroke-width=".165" stroke-miterlimit="10"/><path d="M50.33 58.785c-.669-.668 0-.668 0 0-.669-.668-.669 0 0 0-.669 0-.669 0 0 0z" fill="#2EA8FF"/><path d="M11.582 56.112l4.677 1.337 1.336 2.004 11.358 4.008 2.672 4.677 3.34.668 2.005-1.336" stroke="#972EFF" stroke-width=".165" stroke-miterlimit="10"/><path d="M37.634 67.47c-.668-.668 0-.668 0 0-.668 0-.668 0 0 0-.668.668-.668.668 0 0z" fill="#2EA8FF"/><path d="M12.246 55.444l4.677 1.337.668 2.004 11.357 3.34 2.673 5.345 2.672.668 13.362-9.353" stroke="#972EFF" stroke-width=".165" stroke-miterlimit="10"/><path d="M47.658 59.453c.668-.668.668-.668 0 0 0-1.336 0-1.336 0 0 0-.668 0-.668 0 0z" fill="#2EA8FF"/><path d="M12.91 54.776l4.009 1.336.668 2.005 11.358 3.34 2.672 4.677 2.004.668 6.013-4.009.668-4.008 8.685-6.681 2.005.668" stroke="#972EFF" stroke-width=".165" stroke-miterlimit="10"/><path d="M50.32 53.44c.668 0 .668 0 0 0 .668-.668.668-.668 0-.668v.668z" fill="#2EA8FF"/><path d="M13.582 54.108l3.34 1.336.669 1.337 11.357 4.008 7.35-5.345v-2.672l3.34-2.672" stroke="#972EFF" stroke-width=".165" stroke-miterlimit="10"/><path d="M39.632 50.768c0-.668 0-.668 0 0-.668-.668-.668-.668 0 0z" fill="#2EA8FF"/><path d="M14.246 53.44l2.673.668 1.336 2.004 10.69 3.34 6.012-4.008.668-3.34 3.34-2.673" stroke="#972EFF" stroke-width=".165" stroke-miterlimit="10"/><path d="M38.966 50.1c.668-.669.668-.669 0 0 0-.669 0-.669 0 0-.668-.669-.668-.669 0 0z" fill="#2EA8FF"/><path d="M14.922 52.772l2.004.668 1.336 2.004 10.69 3.34 5.345-4.008.668-3.34 3.34-2.673" stroke="#972EFF" stroke-width=".165" stroke-miterlimit="10"/><path d="M38.978 49.431c0-.668 0-.668 0 0-.669-1.336 0-.668 0 0-.669-.668-.669-.668 0 0-.669 0-.669 0 0 0z" fill="#2EA8FF"/><path d="M16.26 52.104l.668.668 1.336 2.004 10.69 3.34 3.34-2.672.668-4.008 6.681-5.345 12.026 3.34" stroke="#972EFF" stroke-width=".165" stroke-miterlimit="10"/><path d="M50.994 50.1c.668 0 .668 0 0 0 .668-.669.668-.669 0-.669.668 0 0 0 0 .669z" fill="#2EA8FF"/><path d="M63.018 74.82l.668 1.336v2.672l.668 1.336-.668 5.345" stroke="#972EFF" stroke-width=".165" stroke-miterlimit="10"/><path d="M62.35 74.82c.668-.669.668-.669 0 0 .668 0 .668 0 0 0zm.668 10.689c.668.668.668 0 .668 0 0-.668 0-.668-.668 0 0-.668 0-.668 0 0z" fill="#2EA8FF"/><path d="M61.68 75.487l.668.668-.668 2.673.668.668-.668 3.34" stroke="#972EFF" stroke-width=".165" stroke-miterlimit="10"/><path d="M61.687 75.487c-.668-.668-.668 0 0 0 0-.668 0-.668 0 0 .668 0 .668 0 0 0zm-.009 6.681c0 .668 0 .668 0 0 .668.668.668 0 .668 0h-.668z" fill="#2EA8FF"/><path d="M43.64 30.725l2.005 3.34v3.34l2.004 4.01 2.673.667" stroke="#972EFF" stroke-width=".165" stroke-miterlimit="10"/><path d="M50.322 42.75c.668-.668.668-.668 0-.668v.669z" fill="#2EA8FF"/><path d="M44.315 29.389l2.672 4.676-.668 2.673 2.004 3.34 3.34 1.336" stroke="#972EFF" stroke-width=".165" stroke-miterlimit="10"/><path d="M51.662 41.415c.668-.669.668-.669 0-.669v.669z" fill="#2EA8FF"/><path d="M25.597 83.505v.668l.668 1.336-.668 3.34-5.345 3.34v.669l-2.672 2.004v1.336" stroke="#972EFF" stroke-width=".165" stroke-miterlimit="10"/><path d="M24.926 83.505h.668c0 .668 0 .668-.668 0zm-8.012 13.361c.668-.668.668 0 0 0 .668-.668.668-.668 0 0 0-.668 0-.668 0 0z" fill="#2EA8FF"/><path d="M26.279 82.837v.668l1.336 1.336-.668.668v.668l-.668 3.34-4.677 3.341v.668l-2.672 1.336v.668" stroke="#972EFF" stroke-width=".165" stroke-miterlimit="10"/><path d="M26.275 82.837h.669s0 .668-.669 0zM18.264 95.53c.668.669.668 0 .668 0 0-.668 0-.668-.668 0 0-.668 0-.668 0 0z" fill="#2EA8FF"/><path d="M26.28 84.84v4.01l-5.344 3.34v.668l-2.672 2.004v2.004" stroke="#972EFF" stroke-width=".165" stroke-miterlimit="10"/><path d="M26.275 84.84h.669s0 .669-.669 0zm-8.009 12.027c.668 0 .668 0 0 0 0-.669.668-.669 0 0z" fill="#2EA8FF"/><path d="M25.601 86.177l-.668 2.004-4.677 2.673v2.004l-3.34 2.004v2.004l.668 1.337" stroke="#972EFF" stroke-width=".165" stroke-miterlimit="10"/><path d="M17.58 98.203c.668 0 .668 0 0 0 0-.669 0-.669 0 0z" fill="#2EA8FF"/><path d="M24.277 86.845l-.668 1.336-4.009 2.672v1.337l-3.34 2.004v2.672l1.336 2.673h.668" stroke="#972EFF" stroke-width=".165" stroke-miterlimit="10"/><path d="M18.925 99.538c-.668-.667 0-.667 0 0-.668-.667-.668 0 0 0-.668 0-.668 0 0 0z" fill="#2EA8FF"/><path d="M24.273 84.172l-1.336.668v2.673l-4.009 2.004v1.336l-4.008 2.004v1.337" stroke="#972EFF" stroke-width=".165" stroke-miterlimit="10"/><path d="M23.61 84.172c0 .668.668.668 0 0zm-8.69 10.022c.668.668.668 0 .668 0s0-.668-.668 0z" fill="#2EA8FF"/><path d="M18.927 88.85l-.668 1.336-4.009 2.672v2.672l.668.668v1.337l-1.336.668" stroke="#972EFF" stroke-width=".165" stroke-miterlimit="10"/><path d="M18.254 88.85h.668c0 .668 0 .668-.668 0 0 .668 0 .668 0 0z" fill="#2EA8FF"/><path d="M8.242 107.556l11.358-7.349.668-1.336-.668-.669v-3.34l2.004-1.336v-.668l5.345-3.34v-2.673l.668-.668" stroke="#972EFF" stroke-width=".165" stroke-miterlimit="10"/><path d="M27.62 86.177c.667 0 .667 0 0 0 0-.668 0-.668 0 0s0 .668 0 0z" fill="#2EA8FF"/><path d="M8.904 107.556l11.358-6.681v-1.336l-.668-1.337.668-2.672 2.004-1.336v-.668l4.677-3.34.668-2.673.668-.668.668-.668" stroke="#972EFF" stroke-width=".165" stroke-miterlimit="10"/><path d="M28.951 86.177c0-.668 0-.668 0 0-.668-.668-.668 0-.668 0h.668z" fill="#2EA8FF"/><path d="M8.904 108.224l12.026-7.349v-1.336l-.668-1.336v-1.337h.668" stroke="#972EFF" stroke-width=".165" stroke-miterlimit="10"/><path d="M20.927 96.866c0-.668 0-.668 0 0-.668-.668-.668 0 0 0z" fill="#2EA8FF"/><path d="M8.904 108.892l12.026-7.349.668-2.004-.668-1.337v-.668l2.004-.668V95.53" stroke="#972EFF" stroke-width=".165" stroke-miterlimit="10"/><path d="M22.934 95.53c-.668-.668-.668 0-.668 0 0 .668 0 .668.668 0 0 .668 0 .668 0 0z" fill="#2EA8FF"/><path d="M10.24 110.896l12.694-8.017.668-1.336 1.336-.668v-1.336" stroke="#972EFF" stroke-width=".165" stroke-miterlimit="10"/><path d="M25.603 99.539c-.668-.668-.668 0-.668 0-.668 0 0 .668.668 0-.668.668-.668 0 0 0z" fill="#2EA8FF"/><path d="M10.898 111.565l12.694-8.018v-1.336l2.005-1.336.668-8.017 2.004-.668v-3.34l1.336-.669v-.668" stroke="#972EFF" stroke-width=".165" stroke-miterlimit="10"/><path d="M29.6 87.513c-.668-.668-.668 0-.668 0h.668z" fill="#2EA8FF"/><path d="M10.898 111.564l13.362-8.017v-1.336l2.005-.668.668-8.017 2.004-1.336" stroke="#972EFF" stroke-width=".165" stroke-miterlimit="10"/><path d="M28.937 92.858c0-.669 0-.669 0 0 0-1.337 0-.669 0 0-.669-.669-.669-.669 0 0z" fill="#2EA8FF"/><path d="M11.582 112.233l13.362-8.017v-1.337l1.336-1.336 1.336-7.349 2.005-1.336v-1.336l-.668-.668.668-1.337.668-.668" stroke="#972EFF" stroke-width=".165" stroke-miterlimit="10"/><path d="M30.286 89.517c0-.668 0-.668 0 0 0-1.336 0-.668 0 0-.668-.668-.668-.668 0 0z" fill="#2EA8FF"/><path d="M11.582 112.901l13.362-8.685.668-1.337 1.336-.668.668-5.345 2.005-1.336v-2.004l2.672-1.336" stroke="#972EFF" stroke-width=".165" stroke-miterlimit="10"/><path d="M32.294 92.19c-.668-.668 0-.668 0 0-.668 0-.668 0 0 0 0 .668-.668 0 0 0z" fill="#2EA8FF"/><path d="M31.62 99.539l-1.336.668v.668l2.004 3.341-.668 4.008-.668 5.345-2.672 2.004-3.34-1.336-9.354 5.345" stroke="#972EFF" stroke-width=".165" stroke-miterlimit="10"/><path d="M31.614 98.87c0 .669.668.669 0 0 0 .669 0 .669 0 0-.668.669-.668 0 0 0z" fill="#2EA8FF"/><path d="M32.294 100.875l-.668.668v.668l1.336 2.005-.668 4.008-.668.668-.668 5.345-2.672 2.004-3.341-1.336-8.685 5.345" stroke="#972EFF" stroke-width=".165" stroke-miterlimit="10"/><path d="M32.299 100.207c.668.668.668.668 0 0 0 .668 0 1.336 0 0 0 .668 0 .668 0 0z" fill="#2EA8FF"/><path d="M32.282 109.56l-.668 5.345-3.34 2.004-3.34-1.336-8.018 4.677v1.336" stroke="#972EFF" stroke-width=".165" stroke-miterlimit="10"/><path d="M32.29 109.56h.667s0 .668-.668 0z" fill="#2EA8FF"/><path d="M28.276 107.556l-.668 1.336-13.362 8.017" stroke="#972EFF" stroke-width=".165" stroke-miterlimit="10"/><path d="M28.948 103.547v1.337l-1.336.668-.668 3.34-13.362 7.349" stroke="#972EFF" stroke-width=".165" stroke-miterlimit="10"/><path d="M27.612 103.548v1.336h-.668v3.34l-13.362 8.017" stroke="#972EFF" stroke-width=".165" stroke-miterlimit="10"/><path d="M27.611 103.547c0-.668 0-.668 0 0h.668-.668z" fill="#2EA8FF"/><path d="M33.624 84.84h.668l.669 1.337-1.337 11.358 2.005 3.34-2.005 16.034-6.012 3.341-1.337-1.336" stroke="#972EFF" stroke-width=".165" stroke-miterlimit="10"/><path d="M33.628 85.509c-.668-.668-.668-.668 0 0zm-6.682 33.405c-.668 0-.668 0 0 0-.668.668 0 .668 0 0z" fill="#2EA8FF"/><path d="M36.291 86.177l-1.336 12.025 2.005 2.673-2.673 16.702-6.013 3.341v1.336l-4.676 2.672v3.341l1.336 2.672-.668 3.341" stroke="#972EFF" stroke-width=".165" stroke-miterlimit="10"/><path d="M36.956 86.177l-1.337 12.026 2.005 2.672-2.673 17.371-6.013 3.34v1.336l-4.676 2.005v3.34l1.336 2.673-.668 4.008" stroke="#972EFF" stroke-width=".165" stroke-miterlimit="10"/><path d="M36.957 86.177h.668c0 .668 0 .668-.668 0 0 .668 0 .668 0 0z" fill="#2EA8FF"/><path d="M37.628 120.918v2.004l-3.34 2.004v2.005l2.672 4.008-.669 2.673-2.004.668-.668 2.672 6.681 10.69" stroke="#972EFF" stroke-width=".165" stroke-miterlimit="10"/><path d="M36.959 121.586c0-.668 0-.668 0 0 .668-.668.668-.668 0 0 .668 0 .668-.668 0 0z" fill="#2EA8FF"/><path d="M36.288 121.586v.668l-2.672 1.336-.668 6.681-1.337.668v1.336l.668 1.336v2.673l-1.336.668v1.336l2.673 4.677 2.004.668 3.34 4.677" stroke="#972EFF" stroke-width=".165" stroke-miterlimit="10"/><path d="M35.615 121.586h.668c0 .668 0 .668-.668 0z" fill="#2EA8FF"/><path d="M38.96 96.198l-.668 4.677.668 1.336-2.004 12.694 1.336 2.004v2.005l-13.362 6.681-.668 2.672 2.004 2.672-.668 5.345" stroke="#972EFF" stroke-width=".165" stroke-miterlimit="10"/><path d="M38.29 96.198h.667s0 .669-.668 0c0 .669 0 .669 0 0z" fill="#2EA8FF"/><path d="M22.925 78.16l-.668-1.337-2.673-.667-8.685 6.012v1.336l-3.34 2.673-.668 6.68" stroke="#972EFF" stroke-width=".165" stroke-miterlimit="10"/><path d="M23.594 77.492c-.668.668-.668.668 0 0-1.336 0-1.336.668 0 0-.668 0-.668 0 0 0z" fill="#2EA8FF"/><path d="M20.259 72.147l-1.336.668-8.685-3.34-2.673 2.672-.668 4.677-2.004 1.336-.668 7.349 1.336 2.004" stroke="#972EFF" stroke-width=".165" stroke-miterlimit="10"/><path d="M20.262 71.479c.668.668.668.668 0 0 0 .668 0 .668 0 0z" fill="#2EA8FF"/><path d="M18.26 70.81l-8.018-2.672-2.672 2.004-5.345-2.004-8.017 6.013-2.672-.668-2.005 2.004" stroke="#972EFF" stroke-width=".165" stroke-miterlimit="10"/><path d="M18.255 70.142v.669c-.668 0-.668 0 0-.669z" fill="#2EA8FF"/><path d="M20.926 79.496l-2.005-.668-6.68 4.676v1.337L8.9 86.845l-.668 5.345 2.004 3.34v1.336l-2.004.668-7.35-2.672" stroke="#972EFF" stroke-width=".165" stroke-miterlimit="10"/><path d="M21.597 78.828v.668c-.668 0-.668 0 0-.668-.668 0-.668 0 0 0z" fill="#2EA8FF"/><path d="M20.266 77.492h-.668l-8.018 5.344v1.336l-3.34 2.005-.668 6.013 2.004 2.672v.668l-1.336.668-8.685-3.34" stroke="#972EFF" stroke-width=".165" stroke-miterlimit="10"/><path d="M20.269 77.492v.667c-.668 0-.668-.668 0-.668z" fill="#2EA8FF"/><path d="M20.93 74.151l-4.008-1.336L5.564 81.5v3.34l.669 1.337" stroke="#972EFF" stroke-width=".165" stroke-miterlimit="10"/><path d="M18.256 74.82l-1.336-.669-8.017 6.013V81.5L6.23 83.504v.668" stroke="#972EFF" stroke-width=".165" stroke-miterlimit="10"/><path d="M18.251 74.151v.668c-.668 0-.668 0 0-.668z" fill="#2EA8FF"/><path d="M27.61 81.5l3.34-2.004 2.004 1.336 2.004-2.004" stroke="#972EFF" stroke-width=".165" stroke-miterlimit="10"/><path d="M28.278 82.168c-.668-.668-.668-.668 0 0-.668-.668 0-.668 0 0zm7.346-2.672c-.668-.668 0-.668 0 0-.668-.668-.668 0 0 0-.668 0-.668 0 0 0z" fill="#2EA8FF"/><path d="M28.936 82.837L30.94 81.5l3.34 1.337 2.005-1.337" stroke="#972EFF" stroke-width=".165" stroke-miterlimit="10"/><path d="M28.94 83.504c-.668-.668-.668-.668 0 0 0-.668 0-.668 0 0zm8.012-2.004c-.668-.668 0-.668 0 0-.668-.668-.668 0 0 0-.668 0-.668 0 0 0z" fill="#2EA8FF"/><path d="M29.613 84.84l2.673-2.004 3.34 1.337 2.004-1.337" stroke="#972EFF" stroke-width=".165" stroke-miterlimit="10"/><path d="M30.282 84.84c-.668 0-.668 0 0 0-.668-.667-.668 0 0 0 0-.667-.668-.667 0 0zm7.352-2.004c0-.668 0-.668 0 0-.668 0-.668 0 0 0 0 .668-.668.668 0 0z" fill="#2EA8FF"/><path d="M8.89 64.798l2.673 1.336 1.336-.668v-2.673l.668-.668 14.03 4.677 3.34 5.345 6.682 2.672" stroke="#972EFF" stroke-width=".165" stroke-miterlimit="10"/><path d="M37.621 74.819c.668 0 .668 0 0 0 .668-.668.668-.668 0-.668v.668z" fill="#2EA8FF"/><path d="M14.246 64.13l12.694 4.008 3.34 5.345 6.013 2.004" stroke="#972EFF" stroke-width=".165" stroke-miterlimit="10"/><path d="M36.297 76.156c.668-.669.668-.669 0-.669v.669z" fill="#2EA8FF"/><path d="M14.246 65.466l11.358 3.34 3.34 5.345" stroke="#972EFF" stroke-width=".165" stroke-miterlimit="10"/><path d="M28.273 74.151c.669 0 .669 0 0 0 .669-.668.669-.668 0 0z" fill="#2EA8FF"/><path d="M50.986 74.82l8.686-5.346.668-6.68" stroke="#972EFF" stroke-width=".165" stroke-miterlimit="10"/><path d="M50.986 75.487c0-.668 0-.668 0 0 .668-.668.668 0 0 0zm10.028-12.025c0-.669 0-.669 0 0-.668-.669-.668 0-.668 0h.668z" fill="#2EA8FF"/><path d="M40.299 68.138l4.676 1.336" stroke="#972EFF" stroke-width=".165" stroke-miterlimit="10"/><path d="M40.302 68.138c-.668 0-.668 0 0 0v-.668.668zm4.678 2.004c.669 0 .669 0 0 0 .669-.668.669-.668 0-.668v.668z" fill="#2EA8FF"/><path d="M40.965 67.47l5.345 1.337" stroke="#972EFF" stroke-width=".165" stroke-miterlimit="10"/><path d="M40.965 67.47v-.668c.668 0 .668 0 0 .668zm5.348 2.005c.668-.668.668-.668 0-.668v.668c0-.668-.669-.668 0 0z" fill="#2EA8FF"/><path d="M42.291 66.134l5.345 2.004" stroke="#972EFF" stroke-width=".165" stroke-miterlimit="10"/><path d="M42.294 66.802c-.668 0-.668 0 0 0v-.668s.668 0 0 .668zm5.354 1.336c.668-.668.668-.668 0-.668 0 0-.669 0 0 .668-.669 0-.669 0 0 0z" fill="#2EA8FF"/><path d="M42.977 65.466l5.344 2.004" stroke="#972EFF" stroke-width=".165" stroke-miterlimit="10"/><path d="M42.977 66.134v-.668c.668 0 .668 0 0 .668.668 0 .668 0 0 0zm5.349 1.336c.668-.668.668-.668 0-.668v.668z" fill="#2EA8FF"/><path d="M44.322 64.798l5.345 2.004" stroke="#972EFF" stroke-width=".165" stroke-miterlimit="10"/><path d="M44.32 65.466v-.668c.669 0 .669 0 0 .668zm5.345 1.336c.668-.668.668-.668 0-.668v.668c-.668 0-.668 0 0 0z" fill="#2EA8FF"/><path d="M45.639 64.13l5.344 2.004" stroke="#972EFF" stroke-width=".165" stroke-miterlimit="10"/><path d="M45.644 64.798c-.668-.669-.668 0 0 0zm4.678 1.336c.668 0 .668 0 0 0 .668-.668.668-.668 0-.668v.668z" fill="#2EA8FF"/><path d="M108.452 62.794l-2.005 1.336-.668 3.34 4.009 6.681 18.039 5.345 14.03-6.681" stroke="#972EFF" stroke-width=".496" stroke-miterlimit="10"/><path d="M81.049.66l2.004.668 34.741 56.789-1.336 4.676-2.672 2.005-.668 1.336 1.336 1.336-.668 2.004-.668.668-2.005-.668-.668-1.336" stroke="#972EFF" stroke-width=".165" stroke-miterlimit="10"/><path d="M110.439 67.47c-.669 0-.669.668 0 0-.669.668 0 .668 0 0 0 .668 0 .668 0 0z" fill="#2EA8FF"/><path d="M81.049-.008l2.672.669 34.741 57.456-1.336 5.345-2.672 1.336-.668 1.336 2.004 2.672" stroke="#972EFF" stroke-width=".165" stroke-miterlimit="10"/><path d="M81.732-.008h2.673l34.741 58.125-1.336 5.345-2.673 1.336v1.336l2.005 3.34m19.367-6.012l-3.341 1.336-6.012-1.336-7.35-12.694.669-3.34L90.41-2.013l1.336-6.013" stroke="#972EFF" stroke-width=".165" stroke-miterlimit="10"/><path d="M65.693 86.177l-.668 2.004-5.345 3.34h-2.004l-1.336.669-.668 2.004 7.349 12.026v2.004l3.34 5.345 10.022 4.008 2.672-1.336 2.005 1.336 1.336 2.673-2.005 10.021 3.341 5.345" stroke="#972EFF" stroke-width=".496" stroke-miterlimit="10"/><path d="M59.684 93.526l-1.336-.668-.668.668v1.336l6.68 10.69 1.337.668 4.677 8.017 6.012 2.004 2.673-1.336 2.672 1.336 6.681 10.022-.668 3.34 2.004 4.677m-3.346-49.44l2.673-1.336 11.357 3.34 4.009-2.003 11.358 3.34 2.004 3.34 7.349 2.673 22.715-11.358m-62.797 0l5.345-3.34 8.685 2.672M63.017 137.62l-3.34-6.012.667-4.009-4.008-6.681M51 142.965l2.004-12.026-6.681-10.689.668-6.013-.668-2.004.668-6.681-.668-2.005v-2.004l1.336-.668v-4.009l-2.673-4.676.668-5.345M68.37 71.479l2.004-10.69 7.349-4.677 1.336-8.017 5.344-3.34 2.005-8.686-4.009-6.012M66.36 12.018l9.354 14.698-1.336 5.345-10.69 8.017-2.004 11.358 4.677 7.349-2.005 12.694-13.361 8.685-2.005 14.698" stroke="#972EFF" stroke-width=".496" stroke-miterlimit="10"/><path d="M69.034 56.112l-3.34-5.344 1.336-9.354 10.69-7.349 1.335-7.349-10.021-16.702M48.99 26.048l8.685 13.362-1.335 10.02L53 51.436l-1.336 11.357m-46.1 39.418l6.013-4.008.668-2.673-1.336-2.672v-2.673l20.043-13.362m8.021 8.017l-.668 8.018 3.34 6.013-.668 6.013 1.336 2.672-2.004 11.358 4.677 7.349-.668 5.344 2.004 3.341-.668 3.34-4.677 2.005v4.008l1.336 2.673M6.896 105.552l9.354-6.013" stroke="#972EFF" stroke-width=".496" stroke-miterlimit="10"/><path d="M17.594 50.768l1.336 2.004 8.685 2.672 2.673-2.004.668-4.009 9.353-6.68 12.694 3.34M94.428-6.02v1.336l30.732 51.443-1.336 4.009 6.013 9.353 3.34 1.336 1.337-1.336" stroke="#972EFF" stroke-width=".496" stroke-miterlimit="10"/><path d="M79.055 1.997l18.706 31.4-.668 3.34 2.005 2.673 2.672.668 12.694 20.043-.668 2.672-5.345 3.341-.668 1.336 2.004 3.34 4.009 1.337 2.672-1.336 5.345 2.004 2.004 3.34 2.673.668 13.362-7.348" stroke="#972EFF" stroke-width=".496" stroke-miterlimit="10"/><path d="M16.921 82.837c0 .668 0 .668 0 0-.668 0-.668 0 0 0zM19.59 81.5c-.668.668-.668.668 0 0-1.336 0-1.336 0 0 0-.668 0-.668-.668 0 0zm12.028-20.71c-.668 0-.668.667 0 0-.668 0-.668 0 0 0zm2.008-2.005c0 .668 0 .668 0 0-.668.668 0 .668 0 0-.668.668-.668 0 0 0zm1.334-.668c-.668.668-.668.668 0 0-.668 0-.668 0 0 0zm-2.676 3.34c0 .669 0 .669 0 0-.668.669-.668.669 0 0-.668.669-.668 0 0 0zm2.008-1.336c-.668.668 0 .668 0 0-.668 0-.668 0 0 0zm1.332-.668c-.668 0-.668.668 0 0-.668 0-.668 0 0 0zm-2.674 3.341c-.668.668-.668.668 0 0-.668 0-.668 0 0 0zm2.01-1.337c-.668 0-.668 0 0 0 0-.668 0-.668 0 0zm1.33-1.336c0 .668 0 .668 0 0-.668.668-.668.668 0 0-.668.668-.668 0 0 0zm.673-.668c0 .668.668 0 0 0 0 .668 0 .668 0 0zm1.33 18.039c.668 0 .668.668 0 0 0 .668 0 .668 0 0zm1.337-.668c0 .668 0 .668 0 0-.668 0-.668 0 0 0zm1.344-.668c-.668 0 0 .668 0 0-.668 0-.668 0 0 0zm.661-.669c.668 0 .668 0 0 0 0-.668 0-.668 0 0zm1.337-.667c-.668-.669-.668 0 0 0 0-.669 0-.669 0 0zm-3.999 4.008c.668 0 .668 0 0 0 0-.668 0-.668 0 0zm1.335-.668c-.668-.668-.668 0 0 0 0-.668 0-.668 0 0zm1.332-1.336c0 .668 0 .668 0 0-.668.668 0 .668 0 0-.668.668-.668 0 0 0zm.673-.669c.668.668.668.668 0 0 0 .668 0 .668 0 0zm1.335-.668c0 .669 0 .669 0 0-.669 0-.669 0 0 0zm-4.009 4.009c.668.668.668.668 0 0 0 .668 0 .668 0 0zm1.335-.668c0 .668 0 .668 0 0-.668 0-.668 0 0 0zm1.33-.668c-.668.668 0 .668 0 0-.668 0-.668 0 0 0zm.676-.668c.669 0 .669 0 0 0 0 .668 0 .668 0 0zm1.334-.668c0 .668 0 .668 0 0-.669 0-.669 0 0 0zM33.626 64.13c-.668-.668 0-.668 0 0zm1.998-2.004c-.668 0-.668.668 0 0zm1.344-.669c-.668.669-.668.669 0 0-.668 0-.668 0 0 0zm-2.676 3.341c0 .668 0 .668 0 0-.668.668-.668.668 0 0-.668.668-.668 0 0 0zm1.998-1.336c0 .668 0 .668 0 0-.668 0-.668 0 0 0zm1.344-.668c-.668 0-.668.668 0 0-.668 0-.668 0 0 0zm.659-.668c.668 0 .668 0 0 0 0-.669 0-.669 0 0z" fill="#B02EFF"/><path d="M30.283 43.419v.668h-.668v-.668c.668-.668.668 0 .668 0zm2.008-1.336v.668h-.668v-.668c0-.669.668 0 .668 0zm1.999-1.337v.668h-.669v-.668c0-.668 0-.668.668 0z" stroke="#972EFF" stroke-width=".165" stroke-miterlimit="10"/><path d="M35.633 39.41v.668h-.668v-.668c0-.668.668-.668.668 0z" fill="#B02EFF"/><path d="M31.615 45.423v.668h-.668v-.668h.668z" stroke="#972EFF" stroke-width=".165" stroke-miterlimit="10"/><path d="M33.625 44.087v.668h-.668v-.668h.668z" fill="#B02EFF"/><path d="M35.633 42.75v.669h-.668v-.668h.668zm1.33-1.336v.669h-.668v-.669h.668z" stroke="#972EFF" stroke-width=".165" stroke-miterlimit="10"/><path d="M36.968 126.263c-.668 0 0 .668 0 0-.668 0-.668 0 0 0zm2.008-1.336c-.668.668 0 .668 0 0-.668 0-.668 0 0 0zm1.998-.668c-.668-.668-.668 0 0 0 0-.668 0-.668 0 0zm-3.342 3.34c0 .668 0 .668 0 0-.668 0-.668 0 0 0zm2.01-.668c-.668-.668-.668 0 0 0 0-.668 0-.668 0 0zm2.003-1.336c.668 0 .668 0 0 0 0 .668 0 .668 0 0zm-2.669 3.34c0 .668 0 .668 0 0-.668.668-.668.668 0 0-.668.668-.668 0 0 0-.668 0-.668 0 0 0zm1.998-.668c-.668 0-.668.668 0 0-.668 0-.668 0 0 0zm2.007-1.336c0 .668 0 .668 0 0-.668.668-.668.668 0 0-.668 0-.668 0 0 0zM69.706 26.716l-2.672 2.673-2.005-3.34 2.673-2.673 2.004 3.34zM81.731 70.81l-1.336.669-2.004-3.34 1.336-.669 2.004 3.34zm1.339-1.335l-.667.668-2.005-3.34h1.337l1.336 2.672zm1.999-.669H84.4l-2.004-2.672.668-.668 2.004 3.34zm2.01-1.336l-.668.668-2.005-3.34.668-.668 2.005 3.34zm-15.374 64.138l-7.35 3.34-1.336-2.672 7.35-3.341 1.336 2.673zM19.6 122.254l-.668.668-.668-1.336.668-.668.668 1.336zm1.332 2.005h-.668l-.668-1.337h.668l.668 1.337zm-.002-2.673l-.668.668-.668-1.336.668-.668.668 1.336zm1.332 2.005h-.668l-.668-1.337h.668l.668 1.337zm.012-2.673l-.668.668-.669-1.336.669-.668.668 1.336zm.664 2.004h-.668l-.668-.668.668-.668.668 1.336z" fill="#B02EFF"/><path d="M22.94 120.25v.668l-1.337-1.336.669-.668.668 1.336zm1.332 2.004l-.668.668-.668-1.336.668-.668.668 1.336zm-.004-2.672l-.668.668-.668-1.336.668-.668.668 1.336zm1.332 2.004l-.668.668-.668-1.336.668-.668.668 1.336zm74.168-48.103c.668.668 0 2.004-.668 2.672-.669.669-2.005 0-2.673-.668-.668-.668 0-2.004.668-2.672 1.336-.668 2.673-.668 2.673.668zm4.005 5.345c.669.668 0 2.004-.668 2.672-.668.668-2.004 0-2.672-.668-.668-.668 0-2.004.668-2.672.668-.668 2.004 0 2.672.668zm-80.171-6.013c0 .668 0 .668 0 0-.669.668-.669.668 0 0-.669 0-1.337.668 0 0-.669 0-.669 0 0 0zm1.998-1.336c-.667.668 0 .668 0 0-.667 0-.667 0 0 0 0-.668-.667-.668 0 0zm-.663 4.676c.668 0 .668.668 0 0 0 .668 0 .668 0 0-.669 0-.669 0 0 0zm2.675-1.335c-.668.667 0 .667 0 0-.668-.669-.668 0 0 0 0-.669-.668-.669 0 0z" fill="#B02EFF"/><path d="M46.318 85.509l1.337-10.022" stroke="#972EFF" stroke-width=".165" stroke-miterlimit="10"/><path d="M46.322 85.509h-.668c0-.668 0-.668.668 0 0-.668 0-.668 0 0zm1.331-10.022c-.669-.668-.669 0-.669 0s0 .669.669 0c0 .669 0 .669 0 0z" fill="#B02EFF"/><path d="M57.004 87.513l1.336-10.021" stroke="#972EFF" stroke-width=".165" stroke-miterlimit="10"/><path d="M57.672 87.513c-.668 0-.668 0 0 0h-.668s0-.668.668 0zm1.334-10.021c-.668-.668-.668 0-.668 0s0 .668.668 0z" fill="#B02EFF"/></g><path d="M75.714 70.81c0-3.34-.668-6.012-2.005-8.685l-.668-1.336c-4.676-7.349-14.03-10.69-20.043-6.68l-1.336.667-5.345-9.353-1.336-.668 2.004 15.366-3.34 2.004-6.013-10.021-1.336-.668L38.3 66.134l-6.68 14.03 1.335.668 6.013-4.009 18.707 31.401-3.34 10.69 1.336.668 10.69-5.345 4.008 8.685 1.336.668 6.681-3.34-6.013-10.022 3.34-2.004 4.677 9.353 2.005.669 6.68-3.341-6.012-10.021 3.34-2.005c7.35-4.008 10.022-14.03 4.677-22.047l-.668-1.336c-3.34-4.677-9.354-8.017-14.698-8.685zm-14.698 4.677l-7.35 4.677-6.012-10.69 6.68-4.676c1.337-.668 2.673-.668 4.01-.668 1.335.668 2.671 1.336 3.34 2.672 2.672 3.34 2.004 7.35-.668 8.685zM59.678 88.85l8.686-4.677c1.336-.668 3.34-1.336 5.344-.668 2.005.668 4.009 2.005 4.677 4.009 2.672 4.009 1.336 8.685-2.004 10.69l-8.686 4.676-8.017-14.03z" fill="#300551"/><path d="M73.704 70.142c0-3.34-.668-6.012-2.004-8.685l-.668-1.336c-4.677-7.35-12.694-10.022-18.707-5.345l-1.336.668-6.013-10.69-6.013 4.677 6.013 10.022-3.34 2.672-6.013-10.021-6.013 4.008 6.013 10.022-9.353 6.68 4.676 7.35 6.013-4.009 18.707 30.733-5.345 3.34 3.34 8.018 10.69-5.345 6.013 10.021 6.681-3.34-6.013-10.022 3.34-2.004 6.013 10.021 6.681-3.34-6.013-10.022 3.341-2.004c7.35-4.008 9.353-14.03 4.677-22.047l-.668-1.336c-3.34-4.677-8.686-8.017-14.699-8.686zm-14.03 4.677l-6.68 4.677-6.681-10.69 6.68-4.676c1.337-.668 2.673-.668 4.009-.668 1.336.668 2.672 1.336 3.34 2.672 2.005 3.34 1.337 7.349-.668 8.685zM57.67 88.181l8.685-4.677c1.337-.668 3.34-1.336 5.345-.668 2.004.668 4.009 2.005 4.677 4.009 2.672 4.008 1.336 8.685-2.004 10.69l-8.686 4.676-8.017-14.03z" fill="#CC8CFF"/><path d="M23.59 25.38c12.025-10.69 28.728-14.698 46.098-10.69 18.707 4.01 35.41 16.035 46.099 34.742 10.69 18.038 14.03 38.75 8.685 56.788-4.676 17.37-16.034 30.064-31.4 35.409-14.03 5.345-29.397 4.677-44.095-2.004-14.03-6.013-26.055-16.703-34.073-30.065C6.887 96.198 2.88 80.164 3.547 65.466 5.55 49.432 12.232 35.402 23.59 25.38zm-2.005-2.672c-23.383 20.71-25.387 59.46-8.017 88.857 18.039 29.396 52.78 45.43 82.176 34.073 34.741-13.362 48.103-58.125 24.052-98.21-24.052-40.755-70.15-49.44-98.21-24.72z" fill="#4B0551"/><path d="M22.257 24.044c12.694-10.69 29.396-15.367 47.435-11.358 19.375 4.009 36.745 16.703 48.103 35.41 11.358 18.706 14.698 40.085 9.354 58.792-4.677 18.039-16.703 30.732-32.07 36.745-14.697 5.345-30.732 4.677-45.43-2.004-14.03-6.013-26.724-17.371-34.74-31.401C6.222 96.198 2.213 80.164 3.55 64.798c.669-16.035 7.35-30.733 18.707-40.754zm-2.004-3.34C-3.8 42.081-5.803 81.5 12.236 112.232c18.038 30.064 54.116 46.767 84.18 35.409 36.077-13.362 50.107-60.129 24.72-101.551C97.084 4.001 48.981-4.684 20.253 20.703z" fill="url(#paint0_linear_118_3413)"/><path d="M113.784 55.444l-2.005-4.008 4.009-2.673c.668 1.337 1.336 2.673 2.672 4.009l-4.676 2.672zm.669 2.005v-.668l4.009-2.005.668.668-4.677 2.005zm1.336 2.672l-.668-1.336 4.009-2.004.668 1.336-4.009 2.004zm4.006 11.358l-.668-1.336 4.677-1.337.668 2.005-4.677.668zm.664 2.672l-.668-1.336 4.677-1.336.668 1.336-4.677 1.336zm-4.008-12.694l4.009-2.004.668.668-4.677 1.336zm5.35 21.38v-.669h4.676v.668h-4.676zm0 2.672v-1.337h4.676v1.337h-4.676zm0 2.004v-.668h4.676v.668h-4.676zm-2.668-18.707l-2.004-6.012 4.677-1.337 2.004 6.013-4.677 1.336zm2.674 12.694c0-.668 0-2.004-.668-2.672l-.668-2.672 4.676-.669.668 3.34c0 1.337 0 2.005.669 3.341l-4.677-.668zm-.002 10.022v-4.009h4.676v4.677l-4.676-.668zm0 2.004v-.668l4.676.668v.668l-4.676-.668zm0 2.004v-1.336l4.676.668v1.336l-4.676-.668zm-2.678 10.69l.668-1.336 4.677 2.004-.668 1.336-4.677-2.004zm-.664 2.004l.668-.668 4.677 1.336-.668 1.336-4.677-2.004zm2.674-10.69v-.668l4.676 1.337-4.676-.669zm-5.35 18.039l4.009 2.005v.668l-4.009-2.673zm-1.33 2.004l.668-.668 4.009 2.005-.668 1.336-4.009-2.673zm-.571.547l-.357.565 3.953 2.498.357-.564-3.953-2.499zm5.921-13.908l.668-2.673.668-2.672 4.676.668-.668 3.34-.668 2.673-4.676-1.336zm-3.342 10.021c.668-1.336 1.336-3.341 2.004-4.677l4.009 2.005c-.668 2.004-1.336 3.34-2.005 5.344l-4.008-2.672zm-4.686 8.017l1.337-1.336c.668-.668.668-1.336.668-1.336l4.008 2.672c-.668.668-.668 1.336-1.336 1.336l-1.336 1.337-3.341-2.673zm-1.33 1.336l.668-.668 3.341 2.673v.668l-4.009-2.673zm-1.344 1.337l.669-.668 3.34 2.672-.668.668-3.341-2.672zm-6.683 6.681l.668-.668 3.341 3.34-1.337.668-2.672-3.34zm-1.33 1.336l.668-.668 2.672 3.34-.668.668-2.672-3.34zm7.347-6.681v-.668l3.341 3.34-3.341-2.672zm-14.027 10.021h.668l2.673 3.341h-.668l-2.673-3.341zm-1.344.668h.668l2.673 3.341-1.336.668-2.005-4.009zm-1.332.669l2.005 3.34v.668l-2.005-4.008zm12.032-7.35c.668-.668 1.336-1.336 2.004-1.336l2.004-2.004 3.341 2.672-2.005 2.005-2.004 2.004-3.34-3.341zm-8.026 5.345c.668-.668 1.336-.668 2.004-1.336l1.337-.668.668-.668 2.672 3.34-1.336.668-1.336.669c-.668.668-1.336.668-2.005 1.336l-2.004-3.341z" fill="#BC2EFF"/><path d="M88.394 138.957c1.337 0 2.005-.668 3.341-1.337l2.004 3.341c-1.336.668-2.004.668-3.34 1.336l-2.005-3.34zm-1.33.668l.669-.668 1.336 4.008-2.005-3.34zm-2.007 0h1.336l1.336 3.34-.668.668-2.004-4.008zm-8.678 2.004l.668-.668 1.336 4.009h-1.336l-.668-3.341zm-2.012 0h1.336l.668 3.341h-1.336l-.668-3.341zm9.358-1.336h.668l1.336 3.34h-.668l-1.336-3.34zm-16.702.668h.669l.668 4.009-.668-.669-.669-3.34zm-2.009 0h1.336l.668 3.34h-1.336l-.668-3.34zm-1.332-.668l.668.668.668 3.34h-.668l-.668-4.008zm14.693.668c1.336 0 3.34-.668 4.677-.668l1.336 3.34c-1.336 0-3.34.668-4.677.668l-1.336-3.34zm-9.353 0h4.008l.668 3.34h-5.344l.668-3.34z" fill="#BC2EFF"/><path d="M61.006 139.625c1.336 0 2.004.668 3.34.668v3.34c-1.336 0-2.004-.668-3.34-.668v-3.34zm-1.996 0h.668v3.34l-.668-3.34zm-1.346-.668H59v3.34h-1.336v-3.34zm-8.685-3.341l.668.668-.668 3.341-.669-.668.669-3.341zm-1.999-.668l1.337.668-.668 2.673h-1.337l.669-3.341zm9.358 4.009v3.34l-.668-.668.668-2.672zm-15.371-7.349l-.668 3.34h-.668l1.336-3.34zm-2.01-1.337l1.336.669-1.336 2.672-.668-.668.668-2.673zm-.664-.668l-1.336 2.673 1.336-2.673zm12.693 7.349l2.005.669 2.004.668v3.34l-2.672-.668-2.005-1.336.668-2.673zm-8.686-4.676c1.335.668 2.672 1.336 4.008 2.672l-.668 3.341c-1.337-.669-2.673-1.337-4.677-2.673l1.336-3.34zm-6.694-4.677l1.336 1.336c.668.668.668.668 1.336.668l-1.336 2.673-1.336-1.337-1.337-.668 1.337-2.672zm-1.332-1.336v.668l-1.337 2.004 1.337-2.672zm-2.008-1.336l.668.668-1.336 2.672-.668-.668 1.336-2.672zm-6.014-6.681l.668 1.336-2.004 2.004-.668-1.336 2.004-2.004zm-1.332-1.337l.668.668-2.004 2.005-.668-.668 2.004-2.005zm6.68 7.349l-1.336 2.673v-.668l1.336-2.005zm-11.352-13.362l.668.669-2.672 1.336 2.005-2.005zm-.673-1.336v.668l-2.005 1.336-.668-.668 2.673-1.336zm-1.335-1.336h.669l-2.673 1.336 2.005-1.336zm9.356 12.026c.668.668 1.336 1.336 1.336 2.004l2.005 2.004-1.337 2.005-2.004-2.005-2.004-2.004 2.004-2.004zm-6.681-8.017c.668.668.668 1.336 1.336 2.004l.668.668.668.668-2.004 2.005-.668-.669-.669-1.336c-.668-.668-1.336-1.336-1.336-2.004l2.005-1.336zm-4.005-7.349c.669 1.336 1.337 2.004 2.005 2.672l-2.004 1.336c-.669-1.336-1.337-2.004-2.005-3.34l2.005-.668zm-.675-1.337v.669l-2.672 1.336v-.668l2.672-1.337zm-1.332-1.336l.668.668-2.673 1.337v-1.337l2.005-.668zm-3.338-8.685l.668.668-2.672.668-.668-1.336h2.672zm-.668-2.004l.668.668-2.672.668-.668-1.336h2.672zm3.338 9.353h.668l-2.673 1.336v-.668l2.005-.668zM9.557 84.172v.669h-3.34v-.668h3.34zm-.667-2.004v1.336H6.216v-1.336h2.672zm.001-1.336v.668h-3.34v-.668h3.34zm3.338 14.698c.668 1.337 1.336 2.673 2.004 4.677l-2.672.668c-.668-1.336-1.336-3.34-2.004-4.677l2.672-.668zM9.555 85.509c0 .668.668 1.336.668 2.004l.668 2.004-2.672.669-.668-2.005c0-.668-.668-1.336-.668-2.672h2.672z" fill="#BC2EFF"/><path d="M8.223 77.492c0 1.336 0 2.004.668 3.34H6.22c0-1.336 0-2.672-.668-3.34h2.672zm.002-1.336v.668l-2.672-.668-.668-.669 3.34.669zm-.002-2.005v1.336l-2.672-.668v-1.336l2.672.668zm.002-9.353v1.336l-3.34-1.336.668-1.337 2.672 1.337zm-.002-2.004v1.336l-2.672-1.336v-1.337l2.672 1.337zm.002 10.021l-3.34-.668 3.34.668zm1.332-16.703l-3.34-1.336v-.668l3.34 2.005zm.676-2.004v1.337l-3.34-2.005.668-1.336 2.672 2.004zm.667-1.336v.668l-3.341-2.004.668-.668 2.672 2.004zm-2.675 14.03v4.677l-3.34-.668v-4.677l3.34.668zm1.335-9.353c-.669 1.336-.669 3.34-.669 4.676l-3.34-1.336c0-1.336.668-3.34.668-4.677l3.34 1.337zm2.671-8.017l-.668 1.336c0 .668-.668 1.336-.668 1.336L8.223 50.1c0-.668.668-1.336.668-1.336l.668-1.337 2.672 2.005zm-.004-1.336v.668l-2.672-2.005v-.668l2.672 2.005zm1.344-1.336s0 .668-.668.668l-2.673-2.005c0-.668 0-.668.669-1.336l2.672 2.672zm4.008-8.018l-.668.668-2.673-2.672.668-.668 2.673 2.672zm1.331-1.336l-.667.668-2.673-2.672.668-.668 2.673 2.672zm-4.671 8.017h-.668l-2.673-2.004v-.668l3.34 2.672zm9.353-13.362h-.668l-2.004-3.34h.668l2.004 3.34zm1.33-1.336l-.668.668-2.004-3.34.668-.669 2.004 3.341zm1.344-1.336l-.668.668-2.004-3.34v-.669l2.672 3.34zM16.91 40.078c-.669.668-.669 1.337-1.337 2.005l-1.336 2.004-2.672-2.004 1.336-2.005c.668-.668.668-1.336 1.336-2.004l2.672 2.004zm6.017-7.348c-.668.667-1.336 1.335-1.336 2.004l-1.336.668-.668.668-2.673-3.34.668-.669.668-.668c.668-.668 1.337-1.336 1.337-2.004l3.34 3.34z" fill="#BC2EFF"/><path d="M28.938 27.384c-.668.668-2.004 1.336-2.672 2.005l-2.004-3.341c.668-.668 2.004-1.336 2.672-2.004l2.004 3.34zm.67-.668l-2.005-3.34.669-.668 1.336 4.008zm1.998-1.336l-.668.668-2.004-3.34.668-.668 2.004 3.34zm8.689-4.009l-1.336.668-1.336-4.008 1.336-.668 1.336 4.008zm1.342-.668l-.668.669-1.336-4.677h1.336l.668 4.008zm-8.691 4.009l-.668.668-1.337-4.009v-.668l2.005 4.009zm16.034-5.345l-1.335-4.677h.668l.668 4.677zm2.68-.668l-1.336.668-.668-4.677 1.336-.668.669 4.677zm1.127-4.712l-.666.054.38 4.661.665-.054-.379-4.661zM38.286 22.04l-4.008 2.004-2.005-4.009c1.337-.668 3.341-1.336 4.677-2.004l1.336 4.009zm9.358-2.673c-.668 0-1.336 0-2.672.668l-2.673.668-1.336-4.676 2.672-.669c.668 0 2.005-.668 2.673-.668l1.336 4.677z" fill="#BC2EFF"/><path d="M56.325 18.699h-3.34l-.669-4.677h4.009V18.7zm2.009 0h-.668v-4.677h.668V18.7zm1.998 0h-1.336v-4.677h1.336V18.7zm10.69 2.004l-1.337-.668.669-4.676 1.336.668-.668 4.676zm2.008.668l-1.337-.668 1.337-4.677 1.336.669-1.336 4.676zm-10.69-2.672h-.668v-4.677h.668V18.7zm18.71 5.345l1.337-4.677h.668l-2.004 4.677zm2.665 1.336l-1.336-.668 1.336-4.677 1.336.668-1.336 4.677zm1.344.668h-.668l2.004-4.676.668.668-2.004 4.008zm-16.712-6.013l-2.673-.668-2.672-.668.668-4.677 2.672.668 2.673.668-.668 4.677zm11.367 3.341c-2.004-.668-3.34-1.337-5.345-2.005l1.336-4.676 6.013 2.004-2.004 4.677z" fill="#BC2EFF"/><path d="M88.4 28.052l-2.005-1.336c-.668-.668-1.336-.668-2.004-1.336l2.004-4.009c.668.669 1.336.669 2.004 1.337l2.004 1.336-2.004 4.008zm2.008 1.337l-.668-.668 2.005-4.01.668.669-2.005 4.009zm1.998 1.336c-.668 0-.668-.668-1.336-.668l2.673-4.009c.668 0 .668.668 1.336.668l-2.672 4.009zm8.688 8.017l-.668-1.336 3.34-3.34.668 1.335-3.34 3.34zm1.998 2.004c0-.668-.668-.668-.668-1.336l3.34-3.34 1.337 1.336-4.009 3.34zm-9.346-8.686v-.667l2.004-4.009.668.668-2.672 4.009zm18.793 12.646l-3.812 2.71.387.545 3.812-2.71-.387-.545zm-2.086 5.394l-.668-1.337 4.009-2.672.668 1.336-4.009 2.672zm1.328 2.004l-.668-.668 4.009-2.673.668.669-4.009 2.672zM99.753 36.738l-2.004-2.005-2.673-2.004 2.673-4.008 2.672 2.004c.668.668 1.336 1.336 2.672 2.004l-3.34 4.009zm8.023 10.021c-.668-.668-1.336-2.004-2.004-2.672l-.668-1.337-1.336-1.336 3.34-3.34 1.336 1.336 1.336 1.336c.669.668 1.337 2.004 2.005 2.672l-4.009 3.341zM91.06 135.616c-2.004.668-4.008 1.336-5.344 2.004h-.668l-.668-1.336h.668c1.336-.668 3.34-.668 4.677-1.336h.668l.668.668zm3.341-2.004l-.668-1.336.668-.669c1.336-.668 2.672-2.004 4.009-2.672l.668-.668 1.336 1.336-.668.668c-2.004 1.336-3.34 2.673-5.345 3.341zm-13.362 4.676h-.668c-1.336 0-3.34.669-4.677.669h-.668l-.668-1.337h.668c1.337 0 3.34-.668 4.677-.668h.668l.668 1.336zm22.047-10.689l-1.336-1.336.668-.668c1.336-1.337 2.673-2.673 3.341-4.009l.668-.668 1.336 1.336-.668.668c-1.336 2.004-2.672 3.341-4.009 4.677zm-32.068 11.358h-6.681v-1.337h6.013l.668 1.337zm38.749-19.375l-1.336-.668.668-.669c.668-1.336 2.005-3.34 2.673-4.676l.668-.668 1.336.668-.668.668c-.668 2.004-2.004 3.34-3.341 5.345zm-48.77 18.706h-.669c-1.336-.668-3.34-.668-4.677-1.336h-.668v-1.336h.668c1.337.668 3.341.668 4.677 1.336h.668v1.336zm54.115-28.728l-1.336-.668v-.668c.668-2.004 1.336-3.34 2.004-5.345v-.668l2.005.668v.668c-.669 2.005-1.337 4.009-2.005 5.345l-.668.668zm-63.47 25.388c-2.003-.668-4.008-2.004-5.344-2.672l-.668-.669v-1.336l.668.668c1.336.668 2.672 1.337 4.677 2.005h.668v2.004zm66.811-36.745l-2.005-.669v-.668c0-2.004.668-4.008.668-6.013v-.668h2.005v.668c0 2.005 0 4.009-.668 6.013v1.337zM42.29 130.27c-2.005-1.336-3.341-2.672-4.677-3.34l-.668-.668.668-1.337.668.669c1.336 1.336 2.672 2.004 4.008 2.672l.669.668-.669 1.336zm76.831-44.762h-2.005v-.668c0-2.005-.668-4.009-.668-6.013v-.668h2.005v.668c.668 2.004.668 4.008.668 6.68zm-84.849 38.749c-2.004-1.336-3.34-2.672-4.008-4.008l-.668-.668.668-.668.668.668 3.34 3.34.668.668-.668.668zm82.844-51.443l-2.004.668v-.668l-2.004-6.013v-.668l2.004-.668v.668c.668 2.004 1.336 4.008 2.004 6.68zM26.923 116.24c-1.336-2.004-2.672-3.34-3.34-4.676l-.668-.669.668-.668.668.668c.668 1.337 2.004 2.673 3.34 4.009v.668l-.668.668zm86.185-56.12l-1.336.668-.668-.668c-.669-2.004-2.005-4.009-3.341-6.013l-.668-.668 1.336-.668.668.668c1.336 2.004 2.005 4.009 3.341 6.013l.668.668zm-92.866 47.435l-.668-.668c-.668-1.336-2.004-3.341-2.672-4.677v-.668l.668-.668v.668c.668 1.336 1.336 2.672 2.672 4.677l.668.668-.668.668zm84.181-58.125l-.668-.668c-1.337-2.004-2.673-3.34-4.01-5.344l-.667-.669 1.336-1.336.668.668c1.336 1.337 2.673 3.34 4.009 5.345l.668.668-1.336 1.336zM16.902 98.203l-1.336.668v-.668c-.668-1.337-1.337-3.341-2.005-4.677v-.668h1.337v.668c0 .668.668 2.672 2.004 4.677zM95.737 39.41l-.668-.668c-1.336-1.336-3.34-2.672-4.676-4.009l-.668-.668.668-1.336.668.668c2.004 1.336 3.34 2.672 5.344 4.009l.668.668-1.336 1.336zM12.893 88.18h-1.336v-.668c-.668-2.004-.668-3.34-1.336-5.345V81.5h1.336v.668c0 1.336.668 3.34 1.336 4.677v1.336zm72.823-56.788l-.668-.668c-2.005-1.337-3.34-2.005-5.345-2.673l-.668-.668.668-2.004.668.668c2.004.668 4.009 2.004 5.345 2.672l.668.669-.668 2.004zM10.889 78.16H9.553v-6.681h1.336v6.681zm63.47-52.112h-.669c-2.004-.668-4.008-1.336-5.345-1.336h-.668v-2.005h.668c2.005.669 4.009.669 6.013 1.337h.668l-.668 2.004zm-63.47 42.09l-1.336-.668v-.668c0-2.004.668-3.34.668-5.345v-.668l1.336.668v.668c0 1.337-.668 3.34-.668 4.677v1.336zM63 23.376h-.669c-2.004 0-4.008 0-5.344-.669h-.668v-2.004h7.349L63 23.376zM12.225 58.785l-1.336-.668v-.668c.668-1.337.668-3.34 1.336-4.677v-.668l1.336.668v.668c0 1.336-.668 2.672-1.336 5.345zm40.086-35.41h-.668c-2.004 0-3.34.669-5.345.669h-.668l-.668-2.005h.668c2.004-.668 3.34-.668 5.345-.668h.668l.668 2.005zM15.566 49.432l-1.337-.668v-.668c.669-1.336 1.337-2.672 2.673-4.676l.668-.669 1.336 1.337-.668.668c-.668 1.336-1.336 2.672-2.672 4.676zM41.62 25.38h-.668c-1.336.668-3.34 1.336-4.676 2.004h-.669l-.668-1.336h.669c1.336-.668 3.34-1.336 4.676-2.004h.668l.668 1.336zM20.91 40.746l-.669-1.336.668-.668c1.337-1.336 2.005-2.672 3.34-4.009l.669-.668.668 1.336-.668.668c-1.336 2.005-2.672 3.34-4.009 4.677zm12.025-10.69c-2.004 1.337-3.34 2.005-4.677 3.341h-.668l-.668-1.336.668-.668c1.337-1.336 2.673-2.005 4.009-2.673l.668-.668.668 2.005z" fill="#BC2EFF"/><path d="M121.135 46.09c24.72 40.755 10.69 86.854-24.72 100.216-30.064 11.357-65.473-4.677-83.511-34.742C-5.135 81.5-3.131 42.75 20.92 21.371c28.728-24.72 75.495-16.034 100.214 24.72z" fill="url(#paint1_radial_118_3413)"/><path d="M121.135 46.09c24.72 40.755 10.69 86.854-24.72 100.216-30.064 11.357-65.473-4.677-83.511-34.742C-5.135 81.5-3.131 42.75 20.92 21.371c28.728-24.72 75.495-16.034 100.214 24.72z" fill="url(#paint2_radial_118_3413)"/><defs><radialGradient id="paint1_radial_118_3413" cx="0" cy="0" r="1" gradientUnits="userSpaceOnUse" gradientTransform="rotate(-31.19 174.593 -80.825) scale(68.6278)"><stop offset=".224" stop-color="#B5B5B5"/><stop offset=".377" stop-color="#B2B2B2"/><stop offset=".478" stop-color="#A9A9A9"/><stop offset=".565" stop-color="#9A9A9A"/><stop offset=".643" stop-color="#858585"/><stop offset=".715" stop-color="#696969"/><stop offset=".784" stop-color="#484848"/><stop offset=".847" stop-color="#202020"/><stop offset=".892"/></radialGradient><radialGradient id="paint2_radial_118_3413" cx="0" cy="0" r="1" gradientUnits="userSpaceOnUse" gradientTransform="rotate(-31.19 174.593 -80.825) scale(68.6278)"><stop offset=".224" stop-color="#B5B5B5"/><stop offset=".377" stop-color="#B2B2B2"/><stop offset=".478" stop-color="#A9A9A9"/><stop offset=".565" stop-color="#9A9A9A"/><stop offset=".643" stop-color="#858585"/><stop offset=".715" stop-color="#696969"/><stop offset=".784" stop-color="#484848"/><stop offset=".847" stop-color="#202020"/><stop offset=".892"/></radialGradient><linearGradient id="paint0_linear_118_3413" x1="21.192" y1="60.276" x2="132.901" y2="103.977" gradientUnits="userSpaceOnUse"><stop offset=".006" stop-color="#C846E8"/><stop offset=".726" stop-color="#5F0994"/></linearGradient></defs></svg>