<svg width="241" height="251" fill="none" xmlns="http://www.w3.org/2000/svg"><path d="M208.788 193.345c-51.443 66.81-132.283 74.159-173.705 26.056C1.01 179.983 7.023 113.842 43.1 66.407s98.879-70.15 145.646-47.435c57.456 27.392 71.486 108.232 20.042 174.373z" fill="#300551"/><path d="M196.757 184.66c-51.443 66.81-132.283 74.159-173.705 26.056-34.073-39.418-28.06-105.559 8.017-152.994 36.745-47.435 98.878-70.15 145.645-47.435 57.457 26.724 71.487 107.563 20.043 174.373z" fill="#300551"/><path d="M159.345 33.002c19.375 10.69 32.069 29.396 35.409 54.116 3.341 26.056-5.344 54.116-23.383 78.167-18.039 24.052-43.426 38.75-69.482 42.759-24.72 3.34-46.099-4.009-61.465-20.043-14.03-14.698-20.711-35.409-19.375-58.125 1.336-21.379 9.353-43.426 24.051-61.465 14.03-18.038 32.737-32.069 53.448-38.75 21.379-7.349 42.759-6.68 60.797 3.341zm18.039-23.383c-47.435-22.716-109.568 0-145.645 47.434-36.746 47.435-42.09 113.577-8.018 152.995 41.422 48.103 122.93 40.086 173.706-26.056 50.775-66.142 36.745-146.981-20.043-174.373z" fill="#700994"/><mask id="mask0_118_6277" style="mask-type:luminance" maskUnits="userSpaceOnUse" x="24" y="28" width="168" height="177"><path d="M168.034 162.613C131.957 209.38 73.833 217.397 43.1 184.66c-27.392-28.06-24.05-78.167 4.01-114.913 28.06-36.745 75.495-52.78 110.236-33.405 39.418 21.38 46.767 79.504 10.689 126.271z" fill="#fff"/></mask><g mask="url(#mask0_118_6277)"><path d="M81.858 120.523v1.336l1.336 1.336v6.013l-9.353 12.026v1.336l-5.345 6.681v3.341h.668" stroke="#A32EFF" stroke-width=".275" stroke-miterlimit="10"/><path d="M81.193 120.523c.669-.668 1.337-.668 1.337 0s-.668.668-1.337 0c0 .668 0 .668 0 0zM68.494 153.26h.668v-.668h-.668c-.668 0 0 0 0 .668z" fill="#2EA8FF"/><path d="M83.178 117.85v1.337l2.004 1.336v1.336l-.668 1.336v6.013l-8.685 12.026v1.336l-4.677 6.013v2.004" stroke="#A32EFF" stroke-width=".275" stroke-miterlimit="10"/><path d="M83.184 118.518c0-.668 0-.668 0 0 .668-.668 1.336-.668 1.336 0h-1.336zm-12.7 32.069c.669.668 1.337.668 1.337 0s-.668-.668-1.337 0c0-.668 0-.668 0 0z" fill="#2EA8FF"/><path d="M83.86 121.191v8.017l-8.685 11.358v2.004l-5.345 6.681v2.005l1.336.668" stroke="#A32EFF" stroke-width=".275" stroke-miterlimit="10"/><path d="M83.195 121.191c.668-.668 1.337-.668 1.337 0s-.669.668-1.337 0c0 .668 0 .668 0 0zm-12.699 31.401h.668v-.668h-.668v.668z" fill="#2EA8FF"/><path d="M81.86 125.199v3.341l-8.685 11.358v2.672l-5.345 6.681v4.677l2.004 1.336" stroke="#A32EFF" stroke-width=".275" stroke-miterlimit="10"/><path d="M81.191 125.199c0-.668 0-.668 0 0 .668-.668 1.337-.668 1.337 0 0 0-.669.668-1.337 0zM69.16 155.932h.668v-.668h-.668v.668z" fill="#2EA8FF"/><path d="M79.842 127.204v2.672l-7.349 9.354v3.34l-6.012 7.349v5.345l3.34 2.672h1.336l.668-1.336" stroke="#A32EFF" stroke-width=".275" stroke-miterlimit="10"/><path d="M79.178 127.204c0-.668 0-.668 0 0 .668-.668 1.336-.668 1.336 0s-.668.668-1.336 0c0 .668 0 .668 0 0zm-7.359 30.064v-.668h-.669v.668c0 .668.668 0 .668 0z" fill="#2EA8FF"/><path d="M79.179 123.195l-1.337 2.005v4.676l-6.68 8.017v2.005l-7.35 9.353v2.004" stroke="#A32EFF" stroke-width=".275" stroke-miterlimit="10"/><path d="M78.52 122.527h.668v.668h-.669v-.668zm-15.372 28.728c.668.668 1.337.668 1.337 0s0-.668-1.337 0c.668-.668 0-.668 0 0z" fill="#2EA8FF"/><path d="M69.826 137.225v2.005l-7.35 10.021v4.677l1.337 2.004v2.004l-.668.668" stroke="#A32EFF" stroke-width=".275" stroke-miterlimit="10"/><path d="M69.158 137.225c.668-.668 1.336 0 1.336 0 0 .668 0 .668-1.336 0 .668.668 0 .668 0 0zm-6.015 20.711v.668h.668v-.668h-.668z" fill="#2EA8FF"/><path d="M45.78 194.014l28.727-36.746v-2.004l-2.004-1.336v-6.013l4.009-4.677v-2.004l8.685-12.026v-5.345l1.336-1.336" stroke="#A32EFF" stroke-width=".275" stroke-miterlimit="10"/><path d="M86.531 123.195v-.668h-.668v.668h.668z" fill="#2EA8FF"/><path d="M46.441 194.682l28.729-37.414v-2.672l-1.337-.668v-6.013l3.34-4.677v-2.004l9.354-11.358V125.2l1.337-2.673v-1.336" stroke="#A32EFF" stroke-width=".275" stroke-miterlimit="10"/><path d="M88.53 121.191c0-.668 0-.668 0 0-.669-.668-1.337 0-1.337 0s.668.668 1.337 0z" fill="#2EA8FF"/><path d="M47.107 195.35l28.729-38.082v-3.34l-.668-.668v-3.341l.668-.668" stroke="#A32EFF" stroke-width=".275" stroke-miterlimit="10"/><path d="M75.83 149.251v-.668h-.668v.668c0 .668.668.668.668 0z" fill="#2EA8FF"/><path d="M47.781 196.018l29.397-38.082v-4.676l-1.337-1.337v-.668l3.34-4.008v-2.005" stroke="#A32EFF" stroke-width=".275" stroke-miterlimit="10"/><path d="M79.18 145.242c0-.668 0-.668 0 0-.668-.668-1.336-.668-1.336 0s.668.668 1.336 0z" fill="#2EA8FF"/><path d="M48.455 196.686l30.064-38.75v-4.676l.669-1.336v-1.337" stroke="#A32EFF" stroke-width=".275" stroke-miterlimit="10"/><path d="M79.856 150.587c0-.668 0-.668 0 0-.668-.668-1.337-.668-1.337 0s.669.668 1.337 0z" fill="#2EA8FF"/><path d="M49.12 197.354l30.063-39.417v-4.009l2.005-3.34v-2.673" stroke="#A32EFF" stroke-width=".275" stroke-miterlimit="10"/><path d="M81.852 147.915c0-.668 0-.668 0 0-.668-.668-1.336-.668-1.336 0 0 0 .668.668 1.336 0z" fill="#2EA8FF"/><path d="M49.785 198.022l30.733-39.417v-4.009l1.336-2.004" stroke="#A32EFF" stroke-width=".275" stroke-miterlimit="10"/><path d="M81.85 153.26v-.668h-.668v.668h.668z" fill="#2EA8FF"/><path d="M50.45 198.69l30.732-40.085v-2.673l2.672-3.34v-2.673" stroke="#A32EFF" stroke-width=".275" stroke-miterlimit="10"/><path d="M84.524 149.919c-.668-.668-1.337-.668-1.337 0s0 .668 1.337 0c0 .668-.668.668 0 0z" fill="#2EA8FF"/><path d="M51.125 199.358l31.4-40.754v-2.672l2.673-4.009v-16.034l3.34-4.009v-5.345l1.337-2.004v-2.004" stroke="#A32EFF" stroke-width=".275" stroke-miterlimit="10"/><path d="M90.537 122.527c-.668-.668-1.336 0-1.336 0 0 .668 0 .668 1.336 0 0 .668 0 .668 0 0z" fill="#2EA8FF"/><path d="M51.79 200.027l32.068-41.422v-2.673l2.672-4.008v-16.035l3.34-4.008" stroke="#A32EFF" stroke-width=".275" stroke-miterlimit="10"/><path d="M90.533 131.881v-.669h-.668v.669c0 .668 0 .668.668 0z" fill="#2EA8FF"/><path d="M52.453 200.695l32.069-41.423v-3.34l2.672-4.009v-14.698l4.009-5.345v-2.004l-1.336-1.336v-2.004l2.004-2.005" stroke="#A32EFF" stroke-width=".275" stroke-miterlimit="10"/><path d="M91.875 124.531v-.668h-.668v.668c0 .668.668.668.668 0z" fill="#2EA8FF"/><path d="M53.125 202.031l32.069-42.759v-3.34l3.34-4.009v-10.689l3.34-4.677v-3.34l2.005-2.673" stroke="#A32EFF" stroke-width=".275" stroke-miterlimit="10"/><path d="M94.543 131.212v-.668h-.668v.668h.668z" fill="#2EA8FF"/><path d="M96.55 141.902l-2.004 2.672v2.005l4.677 4.008v7.349l-.668 1.336v12.694l-4.677 6.013-6.681 1.336-18.039 24.052v4.677" stroke="#A32EFF" stroke-width=".275" stroke-miterlimit="10"/><path d="M95.88 141.234h.669v.668h-.668v-.668z" fill="#2EA8FF"/><path d="M99.226 143.238l-2.004 2.673v1.336l3.341 2.672v8.017l-1.337 2.005.668 12.025-6.012 7.35-6.681 1.336-17.37 23.383v4.677" stroke="#A32EFF" stroke-width=".275" stroke-miterlimit="10"/><path d="M98.56 143.238h.669v.668h-.668s-.669-.668 0-.668z" fill="#2EA8FF"/><path d="M101.228 160.609v11.357l-6.68 8.686-6.682 1.336L72.5 202.699v4.008" stroke="#A32EFF" stroke-width=".275" stroke-miterlimit="10"/><path d="M100.555 160.609c0-.668 0-.668 0 0 .668-.668 1.336-.668 1.336 0 0 0-.668.668-1.336 0z" fill="#2EA8FF"/><path d="M91.876 161.277v3.341l-26.724 34.741v6.013" stroke="#A32EFF" stroke-width=".275" stroke-miterlimit="10"/><path d="M91.213 161.277c.668-.668 1.336-.668 1.336 0s-.668.668-1.336 0c0 .668 0 .668 0 0z" fill="#2EA8FF"/><path d="M93.21 151.923v3.341l-3.341 4.008.668 6.013L64.48 198.69v3.341l-2.004 2.672" stroke="#A32EFF" stroke-width=".275" stroke-miterlimit="10"/><path d="M92.541 151.923c.668-.668 1.336-.668 1.336 0s-.668.668-1.336 0c0 .668 0 .668 0 0z" fill="#2EA8FF"/><path d="M90.541 153.928v3.34l-1.336 1.336v6.013l-25.388 33.405v4.009l-4.008 5.345" stroke="#A32EFF" stroke-width=".275" stroke-miterlimit="10"/><path d="M89.873 153.928c0-.668 0-.668 0 0 .668-.668 1.336-.668 1.336 0-.668 0-.668.668-1.336 0z" fill="#2EA8FF"/><path d="M96.548 127.204l2.004-.668 1.336 1.336.668 8.685 4.009 3.341.668 34.741-13.362 17.37.668 2.005" stroke="#A32EFF" stroke-width=".275" stroke-miterlimit="10"/><path d="M96.547 127.872s-.668 0-.668-.668c0 0 0-.668.668-.668 0 0 .668 0 .668.668s0 .668-.668.668zm-4.676 66.142c.668.668 1.336 0 1.336 0-.668-.668-.668-.668-1.336 0 0-.668 0-.668 0 0z" fill="#2EA8FF"/><path d="M120.601 124.531v-2.672l-3.34-2.004v-1.336l-2.673-2.673-2.004.668-2.004 2.005-2.673 1.336-6.681 8.017v8.017l4.009 3.341 1.336 36.077-11.358 14.698v2.672l-8.685 11.358v9.353l-3.34 4.009" stroke="#A32EFF" stroke-width=".275" stroke-miterlimit="10"/><path d="M121.268 124.531c-.668.669-1.336.669-1.336 0 0-.668 0-.668 1.336 0 0-.668-.668-.668 0 0z" fill="#2EA8FF"/><path d="M111.919 121.191l-3.341.668-6.013 8.017v5.345l4.009 3.34 1.336 36.746-12.025 15.366v2.672l-8.686 11.358v8.685l4.009 3.341v9.353" stroke="#A32EFF" stroke-width=".275" stroke-miterlimit="10"/><path d="M111.916 120.523s.668 0 .668.668c0 0 0 .668-.668.668 0 0-.668 0-.668-.668 0 0 0-.668.668-.668z" fill="#2EA8FF"/><path d="M113.257 122.527l-3.341.668-6.013 7.349v4.677l4.009 2.672 1.336 37.414-12.026 15.366v2.672l-8.685 11.358.668 8.017 4.009 4.009v10.689" stroke="#A32EFF" stroke-width=".275" stroke-miterlimit="10"/><path d="M113.252 121.859s.668 0 .668.668c0 0 0 .668-.668.668 0 0-.668 0-.668-.668s.668-.668.668-.668z" fill="#2EA8FF"/><path d="M114.589 178.647l1.336 1.337v2.672l-6.013 8.017v4.677l6.681 6.013v6.681l-4.008 5.344v6.013l21.379 20.711.668 16.035 5.345 5.344v5.345l-4.009 5.345" stroke="#A32EFF" stroke-width=".275" stroke-miterlimit="10"/><path d="M113.918 179.315v-.668h.668v.668h-.668z" fill="#2EA8FF"/><path d="M112.587 181.32v2.004l-5.345 6.681.669 16.035-2.005 2.672v2.672l2.673 2.673.668 6.681-2.673 3.34v3.341l7.349 7.349 5.345-.668 13.362 13.362v11.357l-4.008 5.345" stroke="#A32EFF" stroke-width=".275" stroke-miterlimit="10"/><path d="M111.92 181.32c0-.668 0-.668 0 0 .668-.668 1.336-.668 1.336 0 0 0-.668.668-1.336 0z" fill="#2EA8FF"/><path d="M109.24 133.885v4.008l2.004 1.337.668 26.724 3.341 2.672v3.34l-25.388 33.405v6.681l4.009 4.009.668 13.362" stroke="#A32EFF" stroke-width=".275" stroke-miterlimit="10"/><path d="M108.578 133.885c.668-.668 1.336-.668 1.336 0s0 .668-1.336 0c.668.668 0 .668 0 0z" fill="#2EA8FF"/><path d="M111.916 126.536l2.672-.668 5.345 4.676v2.005l-.668 1.336v2.004l2.004 1.336 4.677-.668 22.047 16.703.668 2.672-1.336 1.336" stroke="#A32EFF" stroke-width=".275" stroke-miterlimit="10"/><path d="M112.584 127.204s-.668 0-.668-.668c0 0 0-.668.668-.668 0 0 .668 0 .668.668l-.668.668zm34.07 29.396v.668h.668v-.668h-.668z" fill="#2EA8FF"/><path d="M113.92 128.54l1.336 1.336.668 6.013 4.009 4.009 6.013-1.336 16.034 12.025.668 8.686 3.341 2.672 12.693-2.004 2.673 2.004" stroke="#A32EFF" stroke-width=".275" stroke-miterlimit="10"/><path d="M113.254 129.208v-.668h.668v.668h-.668zm47.428 33.405h.668v-.668h-.668c-.668 0 0 0 0 .668z" fill="#2EA8FF"/><path d="M112.58 129.876l2.004 1.336v5.345l5.345 4.009 5.345-1.336 15.366 12.693.668 8.018 4.677 4.008 10.69-2.004 2.672 2.004" stroke="#A32EFF" stroke-width=".275" stroke-miterlimit="10"/><path d="M112.58 130.544v-.668h.668v.668h-.668zm46.773 34.073h.668v-.668h-.668c-.668 0-.668 0 0 .668z" fill="#2EA8FF"/><path d="M110.578 132.548v4.009l5.345 4.009v5.344l10.689 8.686h2.673" stroke="#A32EFF" stroke-width=".275" stroke-miterlimit="10"/><path d="M109.912 132.548c0-.668.668-.668 0 0 .668-.668 1.336-.668 1.336 0 0 0 0 .669-1.336 0zm19.379 22.048c.668 0 .668-.669.668-.669 0-.668-.668-.668-.668-.668-.668 0-.668.668-.668.668 0 .669.668 1.337.668.669z" fill="#2EA8FF"/><path d="M117.924 143.238v3.341l8.685 6.681 6.013-1.337" stroke="#A32EFF" stroke-width=".275" stroke-miterlimit="10"/><path d="M117.258 143.238c0-.668 0-.668 0 0 .668-.668 1.336-.668 1.336 0 0 0-.668.668-1.336 0zm15.361 9.353c.668 0 .668-.668.668-.668 0-.668-.668-.668-.668-.668-.668 0-.668.668-.668.668 0 .668.668.668.668.668z" fill="#2EA8FF"/><path d="M156.019 164.617l-7.349 1.337-8.017 10.689-4.009.668-5.345 6.681 1.337 21.379-4.677 5.345.668 4.677 29.396 27.392" stroke="#A32EFF" stroke-width=".275" stroke-miterlimit="10"/><path d="M156.014 163.949c.668 0 .668 0 .668.668s0 .668-.668.668-.668 0-.668-.668c0 0 0-.668.668-.668z" fill="#2EA8FF"/><path d="M157.341 165.953l-8.017 1.337-8.017 10.689-4.677.668-3.34 4.677.668 21.379-4.009 6.013v4.677l28.728 26.055" stroke="#A32EFF" stroke-width=".275" stroke-miterlimit="10"/><path d="M157.342 165.285c.668 0 .668 0 .668.668s0 .668-.668.668-.668 0-.668-.668.668-.668.668-.668z" fill="#2EA8FF"/><path d="M161.359 166.622l-11.357 2.004-8.018 10.69-4.676.668-2.673 3.34 1.336 21.379-4.008 5.345v4.677l28.06 26.055" stroke="#A32EFF" stroke-width=".275" stroke-miterlimit="10"/><path d="M161.365 165.953c.668 0 .668 0 .668.669 0 .668 0 .668-.668.668s-.668 0-.668-.668c0-.669 0-.669.668-.669z" fill="#2EA8FF"/><path d="M162.695 167.29l-12.026 2.004-8.685 10.69-4.008.668-1.337 2.672.668 21.379-4.008 5.345v4.677l27.392 24.719" stroke="#A32EFF" stroke-width=".275" stroke-miterlimit="10"/><path d="M162.701 166.622c.668 0 .668 0 .668.668s0 .668-.668.668-.668 0-.668-.668c0 0 0-.668.668-.668z" fill="#2EA8FF"/><path d="M138.643 190.005l.668 14.03-4.008 6.013v4.677l26.056 23.383" stroke="#A32EFF" stroke-width=".275" stroke-miterlimit="10"/><path d="M137.979 190.005c0-.668 0-.668 0 0 .668-.668 1.336-.668 1.336 0 0 0-.668.668-1.336 0 0 .668 0 .668 0 0z" fill="#2EA8FF"/><path d="M140.647 195.35l.668 8.685-4.676 5.345.668 4.677 24.719 23.383" stroke="#A32EFF" stroke-width=".275" stroke-miterlimit="10"/><path d="M139.98 195.35c.669-.668 1.337-.668 1.337 0s-.668.668-1.337 0c0 .668 0 .668 0 0z" fill="#2EA8FF"/><path d="M77.175 114.51l-2.672-2.004-4.008 1.336-16.035 20.711v2.672l-6.013 7.349v12.694" stroke="#A32EFF" stroke-width=".275" stroke-miterlimit="10"/><path d="M77.85 113.842v.668h-.668v-.668h.668zm-30.069 43.426c0 .668 0 .668 0 0 .668.668 1.336.668 1.336 0-.668 0-.668-.668-1.336 0z" fill="#2EA8FF"/><path d="M119.936 113.174l.668 5.345 4.008 3.34 13.362-2.672 18.039 12.694 1.336 12.025-4.009 4.677" stroke="#A32EFF" stroke-width=".275" stroke-miterlimit="10"/><path d="M119.271 113.174c.669-.668 1.337-.668 1.337 0s0 .668-1.337 0c.669.668 0 .668 0 0zm34.069 34.741v.668h.668v-.668h-.668z" fill="#2EA8FF"/><path d="M127.947 123.195l10.022-2.004 16.034 12.026.668 10.021-2.672 4.009" stroke="#A32EFF" stroke-width=".275" stroke-miterlimit="10"/><path d="M127.949 123.863s-.668 0-.668-.668c0 0 0-.668.668-.668s.668 0 .668.668 0 .668-.668.668zm23.383 22.715v.669H152v-.669h-.668z" fill="#2EA8FF"/><path d="M91.205 85.782l-13.362 3.34-7.35 9.353-2.672.669-2.004-2.005-6.013 1.337-4.009 5.344-17.37 4.677-15.366 20.711-20.711 4.677" stroke="#A32EFF" stroke-width=".275" stroke-miterlimit="10"/><path d="M91.2 85.114s.667 0 .667.668c0 0 0 .668-.668.668 0 0-.668 0-.668-.668 0 0 0-.668.668-.668z" fill="#2EA8FF"/><path d="M94.551 83.778l-17.37 4.676L70.5 97.14l-2.673.668-2.004-2.005-6.013 2.005-4.008 4.676-17.371 4.677-15.366 20.711-22.047 5.345" stroke="#A32EFF" stroke-width=".275" stroke-miterlimit="10"/><path d="M94.553 83.11s.668 0 .668.668c0 0 0 .668-.668.668 0 0-.668 0-.668-.668 0-.669 0-.669.668-.669z" fill="#2EA8FF"/><path d="M45.778 149.919l-3.34-2.672.668-13.362 4.008-5.345v-8.685l5.345-6.681 16.034-4.009 2.673-3.34 4.676-1.337" stroke="#A32EFF" stroke-width=".275" stroke-miterlimit="10"/><path d="M45.781 149.919v.668h-.668v-.668s.668-.668.668 0zm30.727-44.763l.668-.668-.668-.668-.668.668c0 .668 0 .668.668.668z" fill="#2EA8FF"/><path d="M66.487 107.161l-14.03 3.34-4.677 6.013-10.69 2.673-14.03 19.375-4.676.668-4.677 6.681" stroke="#A32EFF" stroke-width=".275" stroke-miterlimit="10"/><path d="M65.815 106.493s.668 0 .668.668c0 0 0 .668-.668.668 0 0-.668 0-.668-.668l.668-.668z" fill="#2EA8FF"/><path d="M44.44 119.855l-8.018 2.004L23.06 139.23l-4.676.668-4.677 6.681" stroke="#A32EFF" stroke-width=".275" stroke-miterlimit="10"/><path d="M44.44 119.187s.668 0 .668.668c0 0 0 .668-.668.668 0 0-.668 0-.668-.668s0-.668.668-.668z" fill="#2EA8FF"/><path d="M40.437 123.195l-5.345 1.336-12.026 15.367-4.008.668-4.677 6.013" stroke="#A32EFF" stroke-width=".275" stroke-miterlimit="10"/><path d="M40.444 122.527s.668 0 .668.668c0 0 0 .668-.669.668 0 0-.668 0-.668-.668s0-.668.669-.668z" fill="#2EA8FF"/><path d="M44.443 123.863l-1.336 1.337-10.021 2.004-10.022 13.362-4.009 1.336-4.008 5.345" stroke="#A32EFF" stroke-width=".275" stroke-miterlimit="10"/><path d="M43.78 123.195h.667v.668h-.668v-.668z" fill="#2EA8FF"/><path d="M37.762 127.872l-4.008 5.345-5.345 1.336-5.345 6.681-4.009 1.336-4.008 5.345" stroke="#A32EFF" stroke-width=".275" stroke-miterlimit="10"/><path d="M37.755 127.872h.668v.668h-.668c-.668 0-.668-.668 0-.668z" fill="#2EA8FF"/><path d="M17.725 149.919l10.69-14.698 6.012-1.336 4.677-6.013 5.345-1.336" stroke="#A32EFF" stroke-width=".275" stroke-miterlimit="10"/><path d="M44.45 127.204l.667-.668-.668-.668-.668.668c0 .668 0 .668.668.668z" fill="#2EA8FF"/><path d="M73.178 117.85l-4.008.668-12.026 16.035v2.672l-6.013 8.017-.668 9.354 4.676 4.008v2.673l-4.008 4.676-15.366 3.341-4.677 6.013" stroke="#A32EFF" stroke-width=".275" stroke-miterlimit="10"/><path d="M73.172 117.182s.668 0 .668.668c0 0 0 .668-.668.668 0 0-.668 0-.668-.668 0 0 0-.668.668-.668z" fill="#2EA8FF"/><path d="M71.168 115.846l-1.336.668-14.03 17.371v2.672l-6.013 8.017v11.358l2.673 3.341v1.336l-2.005 2.672-16.702 3.341-5.345 6.681" stroke="#A32EFF" stroke-width=".275" stroke-miterlimit="10"/><path d="M71.174 115.846s.668 0 .668.668c0 0 0 .668-.668.668 0 0-.668 0-.668-.668s0-.668.668-.668z" fill="#2EA8FF"/><path d="M29.738 144.574l4.009-.668 6.013-8.685" stroke="#A32EFF" stroke-width=".275" stroke-miterlimit="10"/><path d="M29.742 145.242s-.668 0-.668-.668c0 0 0-.668.668-.668 0 0 .668 0 .668.668 0 0 0 .668-.668.668zm10.69-9.353v-.668h-.668v.668c0 .668.668 0 .668 0z" fill="#2EA8FF"/><path d="M40.431 138.561l-7.349 9.354" stroke="#A32EFF" stroke-width=".275" stroke-miterlimit="10"/><path d="M39.758 137.893h.668v.668h-.668s-.668 0 0-.668zm-7.342 9.354v.668h.668v-.668c0-.668-.668 0-.668 0z" fill="#2EA8FF"/><path d="M40.427 139.898l-6.68 8.685" stroke="#A32EFF" stroke-width=".275" stroke-miterlimit="10"/><path d="M40.43 139.23h.669v.668h-.668c-.668 0-.668 0 0-.668zm-7.35 8.685v.668h.668v-.668h-.668z" fill="#2EA8FF"/><path d="M103.898 101.816l-39.417 10.021-20.043 26.056-.669 7.349 2.005 1.337" stroke="#A32EFF" stroke-width=".275" stroke-miterlimit="10"/><path d="M103.901 101.148s.668 0 .668.668c0 0 0 .668-.668.668 0 0-.669 0-.669-.668 0 0 0-.668.669-.668zm-58.799 46.099h.668v-.669h-.668v.669z" fill="#2EA8FF"/><path d="M67.159 113.174l-2.005.668-14.698 18.707v2.672l-4.677 6.013v2.004" stroke="#A32EFF" stroke-width=".275" stroke-miterlimit="10"/><path d="M67.154 112.506s.669 0 .669.668c0 0 0 .668-.668.668 0 0-.669 0-.669-.668 0 0 0-.668.668-.668zm-22.039 30.732c.668.668 1.336.668 1.336 0s0-.668-1.336 0c.668-.668 0-.668 0 0z" fill="#2EA8FF"/><path d="M39.769 145.911h-2.005l-2.672 4.008" stroke="#A32EFF" stroke-width=".275" stroke-miterlimit="10"/><path d="M39.766 145.242s.668 0 .668.669c0 0 0 .668-.668.668 0 0-.668 0-.668-.668 0-.669.668-.669.668-.669zm-5.338 4.009v.668h.668v-.668c0-.668-.668 0-.668 0z" fill="#2EA8FF"/><path d="M45.775 153.928l-5.344-5.345h-2.005l-2.004 2.672" stroke="#A32EFF" stroke-width=".275" stroke-miterlimit="10"/><path d="M46.447 153.26v.668h-.668v-.668h.668zm-10.689-2.673v.668h.668v-.668h-.668z" fill="#2EA8FF"/><path d="M45.777 151.924l-5.344-5.345-2.673.668-2.004 3.34" stroke="#A32EFF" stroke-width=".275" stroke-miterlimit="10"/><path d="M46.447 151.255v.669h-.668v-.669h.668zm-11.355-1.336v.668h.668v-.668h-.668z" fill="#2EA8FF"/><path d="M45.771 155.264l-6.013-5.345h-.668l-2.004 2.005" stroke="#A32EFF" stroke-width=".275" stroke-miterlimit="10"/><path d="M46.445 154.596v.668h-.668v-.668h.668zm-9.359-3.341v.669h.668v-.669h-.668z" fill="#2EA8FF"/><path d="M119.264 125.868l6.681 5.344 6.013-.668" stroke="#A32EFF" stroke-width=".275" stroke-miterlimit="10"/><path d="M118.6 126.536v-.668h.668v.668h-.668zm13.363 4.676c.668 0 .668-.668.668-.668l-.668-.668-.668.668s0 .668.668.668z" fill="#2EA8FF"/><path d="M122.604 134.553l7.349-1.336" stroke="#A32EFF" stroke-width=".275" stroke-miterlimit="10"/><path d="M122.606 135.221c-.669 0-.668 0-.668-.668s-.001-.668.668-.668c.668 0 .668 0 .668.668 0 0 0 .668-.668.668zm7.347-1.336c.668 0 .668-.668.668-.668l-.668-.668c-.668 0-.668.668-.668.668 0 .668 0 .668.668.668z" fill="#2EA8FF"/><path d="M134.631 125.868l-8.685 2.004-2.005-1.336" stroke="#A32EFF" stroke-width=".275" stroke-miterlimit="10"/><path d="M134.631 125.199s.668 0 .668.668c0 0 0 .669-.668.669s-.668 0-.668-.669c0-.668 0-.668.668-.668zm-10.686.669h-.668v.668h.668c.669 0 .669 0 0-.668z" fill="#2EA8FF"/><path d="M147.328 135.221l2.672 2.004v5.345l-2.672 3.341v3.34l12.026 8.685 14.698-2.672 2.672-4.009v-2.672l30.065-39.418-.668-4.677 19.375-24.72" stroke="#A32EFF" stroke-width=".275" stroke-miterlimit="10"/><path d="M147.328 135.221v-.668h.668v.668c0 .668-.668.668-.668 0z" fill="#2EA8FF"/><path d="M147.328 135.221l2.672 2.004v5.345l-2.672 3.341v3.34l12.026 8.685 14.698-2.672 2.672-4.009v-2.672l30.065-39.418-.668-4.677 19.375-24.72" stroke="#A32EFF" stroke-width=".275" stroke-miterlimit="10"/><path d="M147.328 135.221v-.668h.668v.668c0 .668-.668.668-.668 0z" fill="#2EA8FF"/><path d="M146.654 135.889l2.673 1.336v4.677l-2.673 4.008v4.009l12.026 9.353 15.366-2.672 3.341-4.677v-3.34l30.064-38.75-.668-4.676 19.375-24.72" stroke="#A32EFF" stroke-width=".275" stroke-miterlimit="10"/><path d="M146.654 135.889v-.668h.668v.668c0 .668-.668.668-.668 0z" fill="#2EA8FF"/><path d="M226.825 80.437l-19.375 25.388.668 4.008-30.065 39.418.669 3.34-4.009 4.677-5.345.668-2.672 3.341-2.673.668" stroke="#A32EFF" stroke-width=".275" stroke-miterlimit="10"/><path d="M164.026 161.277c-.669 0-.669.668-.669.668 0 .668.669.668.669.668.668 0 .668-.668.668-.668 0-.668-.668-.668-.668-.668z" fill="#2EA8FF"/><path d="M227.504 81.105l-18.707 25.388v4.008l-30.064 39.418.668 3.341-4.008 4.676-4.677.668-4.677 6.681v2.673l-.668 1.336v2.672l1.336.668v2.673" stroke="#A32EFF" stroke-width=".275" stroke-miterlimit="10"/><path d="M166.037 175.307c0 .668 0 .668.668.668s.668 0 .668-.668 0-.668-.668-.668l-.668.668z" fill="#2EA8FF"/><path d="M228.832 81.773l-19.375 24.72.668 4.676-30.732 39.418.668 3.341-4.009 4.676-4.008.668-4.677 6.681v3.341" stroke="#A32EFF" stroke-width=".275" stroke-miterlimit="10"/><path d="M166.701 169.294c0 .668 0 .668.668.668s.668 0 .668-.668 0-.668-.668-.668l-.668.668z" fill="#2EA8FF"/><path d="M195.429 111.169l-6.012 8.686-11.358 2.004-8.685-6.013-14.699 3.341-12.025-8.686-16.703 4.009" stroke="#A32EFF" stroke-width=".275" stroke-miterlimit="10"/><path d="M125.949 113.842l-.668.668.668.668.668-.668c0-.668-.668-1.336-.668-.668z" fill="#2EA8FF"/><path d="M143.984 109.833l11.358 8.017 14.03-3.34 9.353 6.013 9.354-2.005 6.013-8.017" stroke="#A32EFF" stroke-width=".275" stroke-miterlimit="10"/><path d="M143.315 109.833s-.669-.668 0-.668c0 0 .668-.668.668 0 0 0 .668.668 0 .668 0 0 0 .668-.668 0z" fill="#2EA8FF"/><path d="M190.749 109.833l-6.013 8.017-5.345 1.337-10.021-6.681-14.03 3.34-8.686-6.681" stroke="#A32EFF" stroke-width=".275" stroke-miterlimit="10"/><path d="M190.753 109.165h.668v.668h-.668c-.668 0-.668 0 0-.668zm-44.095 0h-.668v.668h.668c.668-.668.668-.668 0-.668z" fill="#2EA8FF"/><path d="M176.727 102.484l-5.344-4.008-14.03 3.34-5.345 8.017" stroke="#A32EFF" stroke-width=".275" stroke-miterlimit="10"/><path d="M177.399 101.816s.668.668 0 .668c0 0-.668.668-.668 0 0 0-.669-.668 0-.668h.668zm-26.057 7.349v.668h.668v-.668h-.668z" fill="#2EA8FF"/><path d="M174.711 105.157l-4.677-3.341-10.689 2.673-4.677 6.681" stroke="#A32EFF" stroke-width=".275" stroke-miterlimit="10"/><path d="M174.709 104.489s.668.668 0 .668c0 0-.668.668-.668 0 0 0-.668-.668 0-.668h.668zM154 111.169v.668h.668v-.668c0-.668-.668-.668-.668 0z" fill="#2EA8FF"/><path d="M141.988 117.85l14.698 10.69 11.358-2.673 14.698 10.69" stroke="#A32EFF" stroke-width=".275" stroke-miterlimit="10"/><path d="M141.986 118.518s-.668-.668 0-.668c0 0 .668-.668.668 0 0 0 .669.668 0 .668h-.668zm40.755 18.039h.668v-.668h-.668c-.668.668-.668.668 0 .668z" fill="#2EA8FF"/><path d="M196.756 63.735l-12.694 16.702-32.737 8.685-5.344-3.34-11.358 2.672" stroke="#A32EFF" stroke-width=".275" stroke-miterlimit="10"/><path d="M134.623 87.786l-.668.668.668.668.668-.668c0-.668 0-.668-.668-.668z" fill="#2EA8FF"/><path d="M198.092 65.07l-12.694 17.371-34.073 8.685-5.344-3.34-11.358 2.672" stroke="#A32EFF" stroke-width=".275" stroke-miterlimit="10"/><path d="M134.623 89.79l-.668.668.668.668.668-.668c0-.668 0-.668-.668-.668z" fill="#2EA8FF"/><path d="M143.983 98.476l-7.349-5.345-9.353 2.004-17.371-11.357" stroke="#A32EFF" stroke-width=".275" stroke-miterlimit="10"/><path d="M144.647 97.808s.668.668 0 .668c0 0-.668.668-.668 0 0 0-.669-.668 0-.668h.668zM110.578 83.11h-.668v.668h.668v-.669z" fill="#2EA8FF"/><path d="M141.985 101.148l-6.681-5.345-11.358 3.34-14.698-10.689" stroke="#A32EFF" stroke-width=".275" stroke-miterlimit="10"/><path d="M142.654 100.48s.669.668 0 .668c0 0-.668.668-.668 0 0 0-.668-.668 0-.668h.668zm-32.738-12.026h-.668v.668h.668v-.668z" fill="#2EA8FF"/><path d="M137.972 102.484l-16.034 4.009-13.362-9.353" stroke="#A32EFF" stroke-width=".275" stroke-miterlimit="10"/><path d="M137.981 101.816s.668 0 .668.668c0 0 0 .668-.668.668 0 0-.668 0-.668-.668 0 0-.001-.668.668-.668zm-29.403-5.345h-.668v.668h.668s.668-.668 0-.668z" fill="#2EA8FF"/><path d="M194.765 63.066l-12.693 16.035-30.733 8.017-5.345-3.34-10.689 2.672" stroke="#A32EFF" stroke-width=".275" stroke-miterlimit="10"/><path d="M135.307 85.782l-.668.668.668.668.668-.668c0-.668-.668-.668-.668-.668z" fill="#2EA8FF"/><path d="M111.925 16.968l.668 12.693-2.004 2.673.668 19.375-6.013 8.017v7.349l4.009 2.672v6.681" stroke="#A32EFF" stroke-width=".275" stroke-miterlimit="10"/><path d="M108.586 76.428c0 .668.668.668 0 0 .668.668 1.336 0 1.336 0 0-.668 0-.668-1.336 0z" fill="#2EA8FF"/><path d="M113.919 17.636v11.357l-2.004 3.34.668 18.708-6.013 8.017v6.68l6.013 4.01V79.1" stroke="#A32EFF" stroke-width=".275" stroke-miterlimit="10"/><path d="M112.58 79.1c.668.669 1.336 0 1.336 0-.668-.667-.668-.667-1.336 0 0-.667-.668-.667 0 0z" fill="#2EA8FF"/><path d="M115.261 18.304v10.69l-2.004 2.672.668 19.375-6.013 7.349v6.68l6.681 4.01 2.004-.669 18.039 12.026" stroke="#A32EFF" stroke-width=".275" stroke-miterlimit="10"/><path d="M133.971 80.437h.668v-.668h-.668v.668z" fill="#2EA8FF"/><path d="M116.597 18.972v9.353l-2.004 2.673.668 19.375-6.013 8.017v5.344l4.009 2.673" stroke="#A32EFF" stroke-width=".275" stroke-miterlimit="10"/><path d="M113.257 67.075h.668v-.668h-.668c-.668 0-.668 0 0 .668z" fill="#2EA8FF"/><path d="M117.927 19.64v8.017l-2.004 3.34.668 18.708-6.013 8.017.668 4.676 21.379 14.699" stroke="#A32EFF" stroke-width=".275" stroke-miterlimit="10"/><path d="M132.622 77.765h.668v-.668h-.668c-.668 0-.668 0 0 .668z" fill="#2EA8FF"/><path d="M119.267 20.976v6.681l-2.004 2.673.668 19.375-6.013 8.017v3.34l10.021 6.013 7.35-2.004 14.03 9.353.668 3.34" stroke="#A32EFF" stroke-width=".275" stroke-miterlimit="10"/><path d="M143.312 77.765c0 .668 0 .668 0 0 .669.668 1.337 0 1.337 0-.668-.668-.668-.668-1.337 0 0-.668 0-.668 0 0z" fill="#2EA8FF"/><path d="M120.604 21.644v5.345l-2.004 2.672.668 19.375 12.025 7.35 4.677-1.337 5.345 3.34" stroke="#A32EFF" stroke-width=".275" stroke-miterlimit="10"/><path d="M141.308 59.058h.668v-.668h-.668c-.668 0-.668.668 0 .668z" fill="#2EA8FF"/><path d="M121.938 22.312l.668 4.009-2.672 3.34.668 19.375 10.689 6.013 5.345-1.336 6.013 3.34" stroke="#A32EFF" stroke-width=".275" stroke-miterlimit="10"/><path d="M141.982 57.722h.669v-.668h-.669c-.668 0 0 .668 0 .668z" fill="#2EA8FF"/><path d="M123.278 22.98l.668 2.673-2.673 3.34 1.337 19.375 8.685 5.345 5.345-1.336 6.681 4.008" stroke="#A32EFF" stroke-width=".275" stroke-miterlimit="10"/><path d="M142.648 56.385h.669v-.668h-.669v.668z" fill="#2EA8FF"/><path d="M125.284 23.649v2.004l-2.673 2.672 1.337 19.375 4.676 3.34 7.349-2.004 12.026 6.681 1.336 20.711" stroke="#A32EFF" stroke-width=".275" stroke-miterlimit="10"/><path d="M148.67 76.428c0 .668.668.668 0 0 1.336.668 1.336 0 1.336 0s0-.668-1.336 0z" fill="#2EA8FF"/><path d="M116.589 110.501l-2.004 2.673-4.677 1.336-1.336 2.004-8.017 2.005" stroke="#A32EFF" stroke-width=".275" stroke-miterlimit="10"/><path d="M115.924 110.501h.668v.668h-.668v-.668zm-15.367 7.349l-.668.669.668.668.668-.668c0-.669-.668-.669-.668-.669z" fill="#2EA8FF"/><path d="M115.254 109.165l-1.336 1.336-4.009.668-1.336 2.005-4.677 1.336" stroke="#A32EFF" stroke-width=".275" stroke-miterlimit="10"/><path d="M114.594 109.165h.668v.668h-.668s-.668-.668 0-.668zm-10.695 4.677l-.669.668.669.668.668-.668c0-.668-.668-.668-.668-.668z" fill="#2EA8FF"/><path d="M174.716 51.709l-4.009 6.013-5.345 1.336-5.344 6.68.668 4.677" stroke="#A32EFF" stroke-width=".275" stroke-miterlimit="10"/><path d="M160.018 70.415c0 .668 0 .668.668.668s.668 0 .668-.668 0-.668-.668-.668-.668 0-.668.668z" fill="#2EA8FF"/><path d="M176.727 53.045l-5.344 6.013-5.345 1.336-4.009 5.345.668 6.013" stroke="#A32EFF" stroke-width=".275" stroke-miterlimit="10"/><path d="M162.029 71.752c0 .668 0 .668.668.668s.668 0 .668-.668 0-.668-.668-.668-.668.668-.668.668z" fill="#2EA8FF"/><path d="M81.844 59.058h-1.336l-1.336 2.004-5.345 1.336-8.017-5.345h-1.336l-4.677-3.34-2.004 1.336" stroke="#A32EFF" stroke-width=".275" stroke-miterlimit="10"/><path d="M81.18 58.39s.668 0 .668.668c0 0 0 .668-.668.668 0 0-.668 0-.668-.668l.668-.668zm-24.051-4.009v.668h.668v-.668h-.668z" fill="#2EA8FF"/><path d="M83.19 59.726l-.668.668-1.336 2.004-1.336.668-.668-.668-5.345 1.336-8.017-5.344-1.337.668-4.008-3.34h-.668" stroke="#A32EFF" stroke-width=".275" stroke-miterlimit="10"/><path d="M83.194 59.726s.668 0 .668.668c0 0 0 .668-.668.668 0 0-.669 0-.669-.668s.668-.668.668-.668zM59.81 55.05l-.667.667.668.668.668-.668-.668-.668z" fill="#2EA8FF"/><path d="M80.512 61.062l-6.68 2.004-8.018-5.344h-1.336l-4.009-2.673-2.004.668-1.336 1.337" stroke="#A32EFF" stroke-width=".275" stroke-miterlimit="10"/><path d="M79.85 60.394s.668 0 .668.668c0 0 0 .668-.668.668 0 0-.668 0-.668-.668.668 0 .668 0 .668-.668zm-22.721-4.009v.669h.668v-.669c0-.668-.668 0-.668 0z" fill="#2EA8FF"/><path d="M77.844 60.394l-3.34.668-7.35-5.345-2.004.668-4.676-3.34-4.009 1.336-1.336 2.004" stroke="#A32EFF" stroke-width=".275" stroke-miterlimit="10"/><path d="M77.852 59.726s.668 0 .668.668c0 0 0 .668-.668.668 0 0-.668 0-.668-.668s0-.668.668-.668zm-23.387-4.009v.668h.668v-.668h-.668z" fill="#2EA8FF"/><path d="M76.504 58.39l-2.672.668-6.013-4.009-2.672.668-4.677-3.34-4.676 1.336-2.673 3.34v1.337h.668" stroke="#A32EFF" stroke-width=".275" stroke-miterlimit="10"/><path d="M75.83 57.721s.668 0 .668.669c0 0 0 .668-.668.668 0 0-.668 0-.668-.668.668 0 .668 0 .668-.669zm-22.713 1.337h.668v-.668h-.668c-.668 0 0 0 0 .668z" fill="#2EA8FF"/><path d="M79.85 57.054l-1.337-.669-4.008.669-6.013-4.009-.668.668-6.681-4.677-1.336.669" stroke="#A32EFF" stroke-width=".275" stroke-miterlimit="10"/><path d="M80.514 56.386s.668.668 0 .668c0 0-.668.668-.668 0 0 0-.668-.669 0-.669h.668zm-20.704-7.35l-.667.669.668.668.668-.668c0-.669-.668-.669-.668-.669z" fill="#2EA8FF"/><path d="M69.824 51.709l-2.005.668-6.68-4.677-3.341 1.336-2.004 2.005-1.337.668-2.004-1.336" stroke="#A32EFF" stroke-width=".275" stroke-miterlimit="10"/><path d="M69.158 51.04s.668 0 .668.669c0 0 0 .668-.668.668 0 0-.668 0-.668-.668.668 0 .668 0 .668-.668zm-16.037-1.336h-.668v.669h.668v-.669z" fill="#2EA8FF"/><path d="M35.758 48.368l17.37 12.694 1.337-.668 1.336-1.336 4.676-2.004 3.341 2.672 1.336-.668 8.017 6.013 5.345-2.005.668.669" stroke="#A32EFF" stroke-width=".275" stroke-miterlimit="10"/><path d="M78.518 64.403h.668v-.669h-.668v.669z" fill="#2EA8FF"/><path d="M35.092 49.036l17.37 12.694 2.005-.668 1.336-1.336 4.677-1.336 3.34 2.004h1.336l8.017 5.345 4.009-1.336 1.336 1.336 1.336-.668" stroke="#A32EFF" stroke-width=".275" stroke-miterlimit="10"/><path d="M79.85 65.739l.668-.668-.668-.668-.668.668c0 .668.668.668.668.668z" fill="#2EA8FF"/><path d="M34.428 49.705l18.038 13.361 2.673-1.336.668-1.336 2.672-.668.668.668" stroke="#A32EFF" stroke-width=".275" stroke-miterlimit="10"/><path d="M58.477 60.394h.668v-.668h-.668v.668z" fill="#2EA8FF"/><path d="M33.744 50.373l18.039 13.361 3.34-.668 1.336-1.336.669-.668 2.672 2.004 1.336-.668" stroke="#A32EFF" stroke-width=".275" stroke-miterlimit="10"/><path d="M61.8 63.066l.669-.668-.668-.668-.668.668c0 .668 0 .668.668.668z" fill="#2EA8FF"/><path d="M31.752 53.713l18.707 14.03 2.004-.668 2.672 2.004 1.337-.668" stroke="#A32EFF" stroke-width=".275" stroke-miterlimit="10"/><path d="M57.135 69.08l.668-.669-.668-.668-.668.668c0 .668 0 .668.668.668z" fill="#2EA8FF"/><path d="M31.088 54.381L50.463 69.08l2.004-.668 2.672 2.004 12.694-4.008 2.673 2.004 4.676-1.336 1.337.668h1.336" stroke="#A32EFF" stroke-width=".275" stroke-miterlimit="10"/><path d="M77.86 68.411l.668-.668-.669-.668-.668.668.668.668z" fill="#2EA8FF"/><path d="M30.404 55.05l20.043 14.697 2.005-.668 2.672 2.005 12.026-3.341 3.34 2.004" stroke="#A32EFF" stroke-width=".275" stroke-miterlimit="10"/><path d="M69.824 70.415h.668v-.668h-.668v.668z" fill="#2EA8FF"/><path d="M29.74 55.717l20.043 15.367 2.005-.669 2.672 2.005 12.026-4.009 4.008 2.673h1.336l1.337-2.005 2.004-.668 1.336 1.336" stroke="#A32EFF" stroke-width=".275" stroke-miterlimit="10"/><path d="M75.84 69.747h.668v-.668h-.668c-.668 0 0 .668 0 .668z" fill="#2EA8FF"/><path d="M29.074 56.386l20.043 15.366 2.673-.668 2.672 2.004 8.685-2.004 2.673 2.004 3.34-1.336 2.672 2.672" stroke="#A32EFF" stroke-width=".275" stroke-miterlimit="10"/><path d="M71.825 75.092h.668v-.668h-.668c-.668 0-.668 0 0 .668z" fill="#2EA8FF"/><path d="M61.15 78.433l-2.004-1.337H57.81l-4.677 6.013-5.345 1.337-.668-.669-9.353 2.673-4.009-3.34.668-5.346-13.362-10.689" stroke="#A32EFF" stroke-width=".275" stroke-miterlimit="10"/><path d="M61.153 77.765v.668h-.669v-.668h.669z" fill="#2EA8FF"/><path d="M59.129 80.437l-1.337-.668h-1.336l-2.672 4.008-6.681 2.005-.668-.668-9.354 2.672-4.008-4.009v-5.344l-12.694-10.69" stroke="#A32EFF" stroke-width=".275" stroke-miterlimit="10"/><path d="M59.125 80.437v.668h-.668v-.668c0-.668.668-.668.668 0z" fill="#2EA8FF"/><path d="M45.779 86.45l-8.686 2.004-4.676-4.008V79.1l-11.358-9.353-2.672.668" stroke="#A32EFF" stroke-width=".275" stroke-miterlimit="10"/><path d="M45.113 85.782s.669 0 .669.668c0 0 0 .668-.669.668 0 0-.668 0-.668-.668.668 0 .668-.668.668-.668z" fill="#2EA8FF"/><path d="M46.444 78.433l-2.005.668-20.043-16.035" stroke="#A32EFF" stroke-width=".275" stroke-miterlimit="10"/><path d="M46.438 77.765s.668 0 .668.668c0 0 0 .668-.668.668 0 0-.669 0-.669-.668s0-.668.669-.668z" fill="#2EA8FF"/><path d="M53.125 77.765H51.12l-2.672-1.337-4.677 1.337-19.375-15.367" stroke="#A32EFF" stroke-width=".275" stroke-miterlimit="10"/><path d="M53.12 77.097s.667 0 .667.668c0 0 0 .668-.668.668 0 0-.668 0-.668-.668s0-.668.668-.668z" fill="#2EA8FF"/><path d="M52.462 75.092l-2.004.668-1.336-.668-4.677 1.336L25.07 61.73" stroke="#A32EFF" stroke-width=".275" stroke-miterlimit="10"/><path d="M52.463 74.424s.668 0 .668.668c0 0 0 .668-.668.668 0 0-.668 0-.668-.668 0 0 0-.668.668-.668z" fill="#2EA8FF"/><path d="M84.523 71.752v2.004l-2.004 2.004-18.039 4.677-3.34 4.677-26.724 8.017-8.018-6.681 1.337-2.672" stroke="#A32EFF" stroke-width=".275" stroke-miterlimit="10"/><path d="M83.853 71.752c.669-.668 1.337-.668 1.337 0s-.668.668-1.337 0c0 .668 0 .668 0 0zM28.399 83.777s0-.668-.668-.668c0 0-.669 0-.669.668 0 0 0 .668.669.668l.668-.668z" fill="#2EA8FF"/><path d="M83.86 77.097L65.152 82.44l-4.009 4.677-27.392 8.017-8.685-7.349-1.336.668-6.681-5.345-5.345 1.337-2.673 4.008L3.02 90.46" stroke="#A32EFF" stroke-width=".275" stroke-miterlimit="10"/><path d="M83.858 76.428s.668 0 .668.669c0 0 0 .668-.668.668 0 0-.669 0-.669-.668 0 0 0-.669.669-.669z" fill="#2EA8FF"/><path d="M83.856 78.433l-18.707 5.344-3.34 4.677-28.06 8.017-8.686-7.349h-2.004l-6.013-4.676-4.677 1.336-3.34 4.008-6.681 2.005" stroke="#A32EFF" stroke-width=".275" stroke-miterlimit="10"/><path d="M83.854 77.765s.668 0 .668.668c0 0 0 .668-.668.668 0 0-.668 0-.668-.668l.668-.668z" fill="#2EA8FF"/><path d="M30.414 101.148l-1.336 1.336-1.337.668-4.676-4.008-2.673 1.336-5.344 6.013-4.009 1.336-3.34-2.672-3.34.668-13.363 17.37" stroke="#A32EFF" stroke-width=".275" stroke-miterlimit="10"/><path d="M29.75 101.148h.668v.668h-.668v-.668z" fill="#2EA8FF"/><path d="M29.078 99.812l-1.336.668-4.009-3.34-10.69 3.34-.667-1.337-2.005.669-2.004 2.672-4.009.668-2.004-1.336-2.004.668-5.345 7.349v3.341l-6.013 8.017" stroke="#A32EFF" stroke-width=".275" stroke-miterlimit="10"/><path d="M28.416 99.144s.668 0 .668.668c0 0 0 .668-.668.668 0 0-.668 0-.668-.668.668 0 .668 0 .668-.668z" fill="#2EA8FF"/><path d="M69.164 87.118l-7.35 2.672-2.004 2.005-20.043 5.344-2.672 3.341-2.672.668-18.04-16.034-4.008 1.336-3.34 4.008-8.017 2.673" stroke="#A32EFF" stroke-width=".275" stroke-miterlimit="10"/><path d="M69.162 87.118s.668 0 .668.668c0 0 0 .668-.668.668 0 0-.668 0-.668-.668s0-.668.668-.668z" fill="#2EA8FF"/><path d="M89.19 51.04l1.336-1.335v-4.677L75.16 35.675l-2.005.668-5.344-3.34-10.022 3.34" stroke="#A32EFF" stroke-width=".275" stroke-miterlimit="10"/><path d="M89.867 51.709H89.2v-.668h.668v.668zM57.125 35.674l-.668.669.668.668.668-.669c0-.668 0-.668-.668-.668z" fill="#2EA8FF"/><path d="M97.215 43.692l-2.004-1.337-.668-16.034-4.677-2.672-8.017 2.672-3.34-2.004-11.358 3.34-2.672 4.009" stroke="#A32EFF" stroke-width=".275" stroke-miterlimit="10"/><path d="M97.217 43.023s.668.669 0 .669c0 0-.668.668-.668 0 0 0-.668-.669 0-.669h.668zM63.815 30.998v.668h.668v-.668h-.669z" fill="#2EA8FF"/><path d="M97.888 39.015l-.669-13.362-4.676-2.672V12.958l-14.03-8.017V.933l-4.677-2.672" stroke="#A32EFF" stroke-width=".275" stroke-miterlimit="10"/><path d="M98.559 39.015c-.668.668 0 .668 0 0-.668.668-1.336.668-1.336 0 0 0 0-.668 1.336 0z" fill="#2EA8FF"/><path d="M85.858 49.704v-4.008l-11.357-7.35-2.005.669-5.344-3.34-8.017 2.004-4.01 6.012-2.003.669-2.673-2.673V28.325" stroke="#A32EFF" stroke-width=".275" stroke-miterlimit="10"/><path d="M86.522 49.704c-.668.669-1.337.669-1.337 0 0-.668.669-.668 1.337 0 0-.668 0-.668 0 0z" fill="#2EA8FF"/><path d="M87.862 47.032v-1.336L75.168 37.01l-2.004.668-5.345-3.34-9.353 3.34-3.34 4.008h-.669l-2.004-1.336.668-14.698" stroke="#A32EFF" stroke-width=".275" stroke-miterlimit="10"/><path d="M88.526 47.032c-.668.668-1.337.668-1.337 0s.669-.668 1.337 0c0-.668 0-.668 0 0z" fill="#2EA8FF"/><path d="M93.204 46.364v-8.017L74.498 26.989l-6.013 2.004-2.004 2.005" stroke="#A32EFF" stroke-width=".275" stroke-miterlimit="10"/><path d="M93.873 46.364c-.668.668-1.336.668-1.336 0 .668-.668.668-.668 1.336 0 0-.668 0-.668 0 0zM66.48 30.33v.668h.669v-.668h-.668z" fill="#2EA8FF"/><path d="M91.203 41.688V40.35l-14.03-8.685-2.004.668-4.009-2.672h-1.336" stroke="#A32EFF" stroke-width=".275" stroke-miterlimit="10"/><path d="M91.865 41.688c0 .668 0 .668 0 0-.668.668-1.336.668-1.336 0 0 0 .668-.669 1.337 0zM69.826 28.994l-.668.668.668.668.668-.668-.668-.668z" fill="#2EA8FF"/><path d="M60.47 33.67l6.014-7.349v-2.004l-1.337-.668" stroke="#A32EFF" stroke-width=".275" stroke-miterlimit="10"/><path d="M61.139 33.67h-.668v-.668h.668v.668z" fill="#2EA8FF"/><path d="M61.809 33.002l6.013-7.35V23.65l-2.005-1.337" stroke="#A32EFF" stroke-width=".275" stroke-miterlimit="10"/><path d="M62.477 33.67h-.668v-.668h.668v.668z" fill="#2EA8FF"/><path d="M59.143 34.338l6.013-8.017v-1.336l-.669-.668" stroke="#A32EFF" stroke-width=".275" stroke-miterlimit="10"/><path d="M59.81 34.338h-.667v-.668h.668v.668z" fill="#2EA8FF"/><path d="M85.863 61.062l4.677 3.34v4.01l3.34 2.671" stroke="#A32EFF" stroke-width=".275" stroke-miterlimit="10"/><path d="M85.863 61.73s-.668-.668 0-.668c0 0 .668-.668.668 0 0 0 .668.668 0 .668h-.668zm8.021 9.354h.668v-.668h-.668c-.668.668-.668.668 0 .668z" fill="#2EA8FF"/><path d="M84.531 63.734l4.009 2.673v5.344l3.34 2.673" stroke="#A32EFF" stroke-width=".275" stroke-miterlimit="10"/><path d="M83.863 64.403s-.668-.669 0-.669c0 0 .668-.668.668 0 0 0 .668.669 0 .669h-.668zm7.352 10.021h.668v-.668h-.668v.668z" fill="#2EA8FF"/><path d="M82.523 65.739l4.009 3.34v5.345l3.34 2.004" stroke="#A32EFF" stroke-width=".275" stroke-miterlimit="10"/><path d="M81.852 66.407s-.669-.668 0-.668c0 0 .668-.669.668 0 0 0 .668.668 0 .668 0 0 0 .668-.668 0zm7.349 10.689h.668v-.668h-.668v.668z" fill="#2EA8FF"/><path d="M101.219 20.976v5.345l2.004.668 3.341-.668 2.004.668.668 23.384-6.681 8.685v12.694" stroke="#A32EFF" stroke-width=".275" stroke-miterlimit="10"/><path d="M101.887 71.752c0 .668.668.668 0 0 .668.668 1.336 0 1.336 0s0-.668-1.336 0z" fill="#2EA8FF"/><path d="M105.902 28.325l.668 22.048-6.681 9.353.668 10.69" stroke="#A32EFF" stroke-width=".275" stroke-miterlimit="10"/><path d="M99.889 70.415c.668.669 1.336 0 1.336 0-.668-.668-.668-.668-1.336 0 0-.668 0-.668 0 0z" fill="#2EA8FF"/><path d="M103.901 29.662l.669 20.043-6.013 8.017" stroke="#A32EFF" stroke-width=".275" stroke-miterlimit="10"/><path d="M97.889 57.054v.668h.668v-.668h-.668z" fill="#2EA8FF"/><path d="M109.244 92.463l13.362 10.021 10.69-2.672" stroke="#A32EFF" stroke-width=".275" stroke-miterlimit="10"/><path d="M109.242 93.13s-.668-.667 0-.667c0 0 .668-.668.668 0 0 0 .668.668 0 .668h-.668zm24.055 7.35l.668-.668-.668-.668-.668.668.668.668z" fill="#2EA8FF"/><path d="M114.584 71.084v9.353" stroke="#A32EFF" stroke-width=".275" stroke-miterlimit="10"/><path d="M113.918 71.084c.668-.669 1.336-.669 1.336 0 0 .668-.668.668-1.336 0 0 .668 0 .668 0 0zm0 9.353c.668.668 1.336 0 1.336 0 0-.668 0-.668-1.336 0 .668-.668 0-.668 0 0z" fill="#2EA8FF"/><path d="M115.932 72.42l.668 8.685" stroke="#A32EFF" stroke-width=".275" stroke-miterlimit="10"/><path d="M115.266 72.42c0-.668.668-.668 0 0 .668-.668 1.336-.668 1.336 0 0 0 0 .668-1.336 0zm.664 8.685c0 .668 0 .668 0 0 .668.668 1.336 0 1.336 0s-.668-.668-1.336 0z" fill="#2EA8FF"/><path d="M117.924 73.088v9.353" stroke="#A32EFF" stroke-width=".275" stroke-miterlimit="10"/><path d="M117.258 73.756c0-.668 0-.668 0 0 .668-.668 1.336-.668 1.336 0h-1.336zm0 8.685c0 .668.668.668 0 0 .668.668 1.336 0 1.336 0s0-.668-1.336 0z" fill="#2EA8FF"/><path d="M119.264 74.424l.668 9.353" stroke="#A32EFF" stroke-width=".275" stroke-miterlimit="10"/><path d="M118.6 74.424c.668-.668 1.336-.668 1.336 0s0 .668-1.336 0c.668.668.668.668 0 0zm.668 9.353c.668.668 1.336 0 1.336 0 0-.668-.668-.668-1.336 0 0-.668 0-.668 0 0z" fill="#2EA8FF"/><path d="M121.266 75.76l.668 9.354" stroke="#A32EFF" stroke-width=".275" stroke-miterlimit="10"/><path d="M120.6 75.76c0-.668 0-.668 0 0 .668-.668 1.336-.668 1.336 0 0 0 0 .668-1.336 0 .668.668 0 .668 0 0zm.664 9.354c.668.668 1.336 0 1.336 0 0-.669-.668-.669-1.336 0 0-.669 0-.669 0 0z" fill="#2EA8FF"/><path d="M123.277 77.097v9.353" stroke="#A32EFF" stroke-width=".275" stroke-miterlimit="10"/><path d="M122.613 77.097c0-.669 0-.669 0 0 .668-.669 1.337-.669 1.337 0 0 0-.669.668-1.337 0zm0 9.353c.668.668 1.337 0 1.337 0 0-.668-.001-.668-1.337 0 .668-.668 0-.668 0 0z" fill="#2EA8FF"/><path d="M161.351 174.639l-3.34-2.673-6.013.668-8.018 10.69 2.005 32.737 19.375 17.37" stroke="#A32EFF" stroke-width=".824" stroke-miterlimit="10"/><path d="M243.533 90.458l.668 4.009-70.15 91.529-8.017 1.336-4.677-4.008-2.004.668-2.004 2.672-3.341.668-1.336-1.336v-3.34l2.004-2.005" stroke="#A32EFF" stroke-width=".275" stroke-miterlimit="10"/><path d="M154.668 180.651v-.668H154v.668s.668.668.668 0z" fill="#2EA8FF"/><path d="M244.871 90.458l.668 4.009-70.819 92.866-8.685 1.336-4.677-4.009-1.336.668-4.008 4.009" stroke="#A32EFF" stroke-width=".275" stroke-miterlimit="10"/><path d="M156.014 189.337v.668h.668v-.668c0-.668-.668-.668-.668 0z" fill="#2EA8FF"/><path d="M245.539 91.126l.668 4.01L175.389 188l-9.354 1.336-4.008-2.672h-2.005l-4.008 5.344" stroke="#A32EFF" stroke-width=".275" stroke-miterlimit="10"/><path d="M155.348 192.009v.668h.668v-.668c0-.668-.668-.668-.668 0z" fill="#2EA8FF"/><path d="M176.73 218.733l-4.677-4.008-.668-10.022 15.366-20.711 6.681-.668 60.797-79.504 10.021-2.004" stroke="#A32EFF" stroke-width=".275" stroke-miterlimit="10"/><path d="M100.554 122.527l-4.009.668-8.685-6.681v-2.672l-2.672-2.004-2.673.668-14.698 19.374-2.672.669-7.35 9.353-.667 18.039 3.34 2.672v3.34l-4.009 4.677-16.702 3.341-6.013 8.017" stroke="#A32EFF" stroke-width=".824" stroke-miterlimit="10"/><path d="M85.862 117.85v-2.004l-1.336-.668-2.004.668-13.362 17.371v2.004l-9.353 12.694-.669 11.357 3.341 2.673v5.345l-12.694 16.034-5.345 1.336-4.676 6.681m74.154-37.413l4.009 3.34.668 20.043 6.013 5.345.668 19.375-4.009 5.345.668 12.694 30.733 29.396m-36.076-98.879l8.017 6.013.668 16.035M19.053 151.924l7.349-9.354 6.68-1.336 8.018-11.358m-36.752 6.681l19.374-4.677 13.362-17.37 9.354-2.672 2.004-2.673 11.358-2.672 2.004-2.673 4.009-1.336 1.336 1.336 6.68-2.004 5.346-7.349 8.685-2.672m37.423 25.387l16.703-4.008 12.025 8.685 13.362-3.34 8.686 6.012 14.698-2.672 7.349-9.353m19.366-36.746l-18.038 22.716-9.354 2.672-18.706-12.026-18.707 4.677-8.685 12.026-21.379 5.344-20.712-15.366-24.72 6.013" stroke="#A32EFF" stroke-width=".824" stroke-miterlimit="10"/><path d="M149.332 108.497l6.681-8.685 15.366-4.009 17.371 11.358 12.026-2.673 20.711-26.724m-36.078-20.042l-16.702 22.047-16.035 4.008-5.344-3.34-18.039 4.677M41.772 40.351l10.021 7.35 4.677-1.337 2.672-4.008 4.677-1.337L95.887 62.4m-8.691 18.037l-12.694 4.009-6.68 8.685-10.69 2.672-3.34 4.009-18.708 5.345-8.017 10.689-9.353 2.673-4.009 5.344L8.36 125.2l-5.344-5.345-6.013 1.336-4.009 4.677m45.436-80.84l14.03 10.021" stroke="#A32EFF" stroke-width=".824" stroke-miterlimit="10"/><path d="M127.956 25.653l-2.673 3.34 1.336 15.367 4.677 2.672 6.681-2.004 15.366 9.353 2.005 22.716m106.889 30.064l-2.004.668-63.47 82.176-7.349 1.336-12.025 14.698.668 6.013 2.004 2.005" stroke="#A32EFF" stroke-width=".824" stroke-miterlimit="10"/><path d="M240.193 88.454l-38.749 50.107-5.345 1.337-2.673 4.008v5.345l-24.719 32.737-4.009.668-8.017-6.681h-2.672l-4.677 6.013.668 7.349 3.341 2.672.668 9.354-4.677 5.344.668 5.345 18.707 16.703" stroke="#A32EFF" stroke-width=".824" stroke-miterlimit="10"/><path d="M74.5 43.023c0 .668-.668.668-.668 0v-.668c0-.668.668-.668.668 0 .668 0 .668.668 0 .668zm4.006 2.673c0 .668-.668.668-.668 0v-.668c0-.668.668-.668.668 0v.668zm3.342 2.004c0 .668-.668.668-.668 0v-.668c0-.668.668-.668.668 0v.668zm38.752 5.345h-.668v-.668s.668 0 .668.668c.668-.668 0-.668 0 0zm2.009 1.336h-.668v-.668s.668-.668.668.668c0-.668 0-.668 0 0zm2.012.669h-.668v-.669s.668 0 .668.668zm1.994 1.336h-.668v-.669l.668.669zm2.012 1.336h-.668v-.668l.668.668zm-9.357-3.341h-.668v-.668s.668 0 .668.668zm2.011 1.336h-.668v-.668s.668 0 .668.668zm1.995 1.337h-.669v-.669s.669 0 .669.669zm2.011 1.336h-.668v-.668l.668.668c0-.668 0-.668 0 0zm1.996 1.336h-.668v-.668h.668v.668zm-9.343-3.34h-.669v-.669s.669 0 .669.669c.668 0 0-.669 0 0zm1.996 1.336h-.668v-.668s.668 0 .668.668c0-.668 0-.668 0 0zm2.009 1.336h-.668v-.668s0-.668.668.668c0-.668 0-.668 0 0zm1.997.668h-.669v-.668l.669.668zm2.009 1.336h-.668v-.668h.668v.668zM98.56 75.092h-.667v-.668s.668 0 .668.668c0-.668 0-.668 0 0zm1.999 1.336h-.668v-.668h.668v.668zm1.343 1.337h-.668v-.668h.668c.669 0 .669 0 0 .668zm1.997.668h-.669v-.669h.669v.669zm2.009 1.336h-.668V79.1h.668v.668zm-8.689-3.341c-.668.669 0 .669 0 0-.668 0-.668 0-.668-.668 0 0 .668 0 .668.668zm2.01 1.337h-.668v-.668h.668v.668zm1.33 1.335h-.668v-.667h.668c.668 0 .668.668 0 .668zm2.008 1.337h-.669v-.668h.669v.668zm2.009 1.336h-.668v-.668h.668v.668zm-8.689-3.34c-.668 0-.668 0-.668-.668s.668 0 .668.668zm2.008 1.336h-.668V79.1h.668v.668zm1.334 1.336h-.668v-.668h.668c.668 0 .668 0 0 .668zm2.007 1.336h-.668v-.668h.668v.668zm1.998 1.337h-.668v-.669h.668v.669zm13.36-25.388h-.668v-.668s.668 0 .668.668c.668-.668 0-.668 0 0zm2.01.668h-.668v-.668s.668 0 .668.668zm1.996 1.336h-.668v-.668l.668.668zm2.009 1.336h-.668v-.668h.668v.668zm1.333 1.336h-.669v-.668h.669c.668 0 .668 0 0 .668zm-8.678-3.34h-.668v-.668s.668 0 .668.668c.668 0 0-.668 0 0zm1.998 1.336h-.668v-.668s.668 0 .668.668zm2.008 1.336h-.668v-.668l.668.668zm2.011 1.337h-.668v-.669h.668v.669zm1.328 1.335h-.668v-.667h.668c.669 0 .669 0 0 .668z" fill="#B02EFF"/><path d="M147.331 40.351c-.668.668-1.336.668-1.336.668-.668 0-.668-.668 0-1.336s1.336-.668 1.336-.668v1.336zm2.674 2.004c-.668.668-1.336.668-1.336.668-.668 0-.668-.668 0-1.336s1.336-.668 1.336-.668c.668 0 .668.668 0 1.336zm3.34 1.337c-.668.668-1.336.668-1.336.668-.668 0-.668-.668 0-1.337.668-.668 1.336-.668 1.336-.668 0 .669.668 1.337 0 1.337z" stroke="#A32EFF" stroke-width=".275" stroke-miterlimit="10"/><path d="M156.685 45.696c-.668.668-1.336.668-1.336.668-.668 0-.668-.668 0-1.336s1.336-.668 1.336-.668v1.336z" fill="#B02EFF"/><path d="M143.99 44.36c-.668.668-1.337.668-1.337.668-.668 0-.668-.668 0-1.336.669-.669 1.337-.669 1.337-.669.668 0 .668.669 0 1.337z" stroke="#A32EFF" stroke-width=".275" stroke-miterlimit="10"/><path d="M147.331 45.696c-.668.668-1.336.668-1.336.668-.668 0-.668-.668 0-1.336s1.336-.668 1.336-.668c.669 0 .669.668 0 1.336z" fill="#B02EFF"/><path d="M150.669 47.7c-.668.668-1.336.668-1.336.668-.668 0-.668-.668 0-1.336s1.336-.668 1.336-.668V47.7zm2.676 2.004c-.668.669-1.336.669-1.336.669-.668 0-.668-.669 0-1.337.668-.668 1.336-.668 1.336-.668.668 0 .668.668 0 1.336z" stroke="#A32EFF" stroke-width=".275" stroke-miterlimit="10"/><path d="M25.069 106.493s-.669.668-.669 0c0 0 0-.668.669 0-.669-.668 0-.668 0-.668v.668zm2.675 2.004s-.668.668-.668 0h.668c-.668-.668 0-.668 0-.668.668 0 .668.668 0 .668zm-2.008 2.673s-.668.668-.668 0h.668c-.668-.669 0-.669 0-.669.668 0 .668.669 0 .669zm-1.336 2.672s-.668.668-.668 0c-.668 0-.668-.668.668 0-.668-.668 0-.668 0-.668v.668zm171.029-23.384l-5.345-3.34 4.677-5.345 4.676 3.34-4.008 5.345zm-62.13 46.767l-1.336-1.336 4.008-4.677 1.337.669-4.009 5.344zm2.674 2.005l-1.336-1.337 4.008-4.676 1.336.668-4.008 5.345zm3.342 2.004l-1.336-.668 3.34-5.345 1.336 1.336-3.34 4.677zm2.674 2.672l-1.337-1.336 4.009-4.677 1.336.669-4.008 5.344zM33.756 161.277l-9.354-9.354 2.673-4.008 9.353 9.353-2.672 4.009zM23.723 79.1l-.668-.667 1.336-2.005.668.669-1.336 2.004zm1.346 1.337l-.669-.668 1.337-2.004 1.336.668-2.005 2.004zm-2.009 3.34l-.667-.668 1.336-2.672.668 1.336-1.336 2.004zm116.916 84.181c-1.337 1.336-3.341 2.004-4.677.668-1.336-1.336-1.336-3.341 0-4.677 1.336-1.336 3.34-2.004 4.677-.668 1.336.668 1.336 3.341 0 4.677zm-6.68 8.685c-1.336 1.336-3.34 2.004-4.677.668-1.336-1.336-1.336-3.34 0-4.677 1.337-1.336 3.341-2.004 4.677-.668.668 1.336.668 3.341 0 4.677zM97.217 48.368s-.668.668-.668 0V47.7s.668-.668.668 0v.668zm3.342 2.672s-.668.669-.668 0v-.667s.668-.669.668 0c.668 0 .668 0 0 .668zm-7.348 2.673s-.668.668-.668 0v-.668s.668-.668.668 0v.668zm4.006 2.673c0 .668-.668.668-.668 0v-.669s.668-.668.668 0v.669z" fill="#B02EFF"/><path d="M90.531 91.795l16.035-4.677" stroke="#A32EFF" stroke-width=".275" stroke-miterlimit="10"/><path d="M91.2 92.463s-.669 0-.669-.668c0 0 0-.668.668-.668 0 0 .668 0 .668.668-.668 0-.668 0-.668.668zm15.372-4.677l.669-.668-.669-.668-.668.668c0 .668.668.668.668.668z" fill="#B02EFF"/><path d="M93.875 109.833l16.034-4.008" stroke="#A32EFF" stroke-width=".275" stroke-miterlimit="10"/><path d="M93.877 110.501s-.668 0-.668-.668c0 0 0-.668.668-.668 0 0 .668 0 .668.668l-.668.668zm16.037-4.008l.668-.668-.668-.668-.668.668c0 .668 0 .668.668.668z" fill="#B02EFF"/></g><path d="M129.951 128.54c4.676-1.336 9.353-4.677 12.693-9.353l1.337-2.005c8.685-11.357 9.353-28.728-.669-35.409l-2.004-1.336 11.358-14.698v-2.673L129.282 75.76l-5.344-3.34 12.693-16.035v-2.672l-22.715 12.694-24.72-1.336v2.672l10.022 6.681-38.082 49.439-18.038 1.337-.668 2.672 14.03 13.362-11.358 12.026-.668 3.34 8.685 8.017 12.026-16.034 4.677 4.009-11.358 13.362-.668 3.34 8.685 8.685 12.694-16.034 4.677 4.009c10.021 9.353 27.392 6.012 37.413-7.35l2.005-2.672c6.681-8.017 9.353-18.707 6.681-27.392zm-16.035-20.043l-10.689-8.017 12.693-16.034 11.358 8.017c2.004 1.336 2.673 3.34 3.341 6.013 0 2.672-.668 5.344-2.673 7.349-4.008 4.008-10.021 5.344-14.03 2.672zm-21.379 6.013l12.694 10.021c2.672 2.005 4.008 4.677 4.008 8.686 0 3.34-1.336 7.349-3.34 10.021-4.677 6.013-12.694 8.017-17.37 4.009l-12.026-10.69 16.034-22.047z" fill="#300551"/><path d="M129.948 125.2c4.677-1.337 9.354-4.677 12.694-9.354l1.337-2.004c8.685-11.358 8.017-26.724-2.005-32.737l-2.004-1.336 12.694-16.703-10.69-6.68L129.28 72.42l-5.344-3.34 12.693-16.035-10.021-6.013-12.026 16.034-16.034-10.69-9.353 12.027 10.02 6.68-37.413 49.44-8.017-6.681-10.69 10.689 14.03 12.694L45.1 152.592l8.685 8.017 12.026-15.366 4.677 4.008-12.026 16.703 8.685 8.685 12.694-16.035 4.677 4.009c10.021 9.353 26.724 6.013 37.413-7.349l2.005-2.672c6.681-8.018 8.685-18.707 6.012-27.392zm-15.366-20.043l-10.689-8.017 12.693-16.035 11.358 7.35c2.004 1.335 2.673 3.34 3.341 6.012 0 2.672-.668 5.345-2.673 7.349-4.676 4.677-10.689 6.681-14.03 3.341zm-22.047 6.681l12.694 10.021c2.672 2.004 4.008 4.677 4.008 8.685 0 3.341-1.336 7.349-3.34 10.022-4.677 6.013-12.694 8.017-17.37 4.008L76.5 134.553l16.034-22.715z" fill="#CC8CFF"/><path d="M170.704 18.304c23.383 12.026 39.417 34.073 44.094 64.137 4.677 31.401-5.345 66.142-27.392 94.87-22.047 28.728-52.78 47.435-84.848 51.444-30.065 3.34-55.453-6.013-73.491-26.056-16.035-18.039-23.384-42.758-21.38-69.482 2.005-25.388 12.026-50.108 28.06-71.487C51.783 40.351 73.83 24.317 97.882 15.631c25.388-9.353 51.444-8.685 72.823 2.673zm4.008-5.345c-45.43-22.047-106.227-.668-141.637 46.099-35.409 46.099-40.754 110.236-7.349 148.986 40.086 46.098 118.922 38.081 167.693-26.056 49.439-64.138 36.077-142.305-18.707-169.029z" fill="#4B0551"/><path d="M173.375 14.963c24.72 12.026 41.422 35.41 46.099 66.142 4.677 32.737-5.345 68.146-28.06 98.879-23.384 30.064-54.784 48.771-88.189 52.779-30.733 3.341-57.456-6.681-75.495-27.392-16.703-18.706-24.052-44.094-22.047-71.486 2.004-26.056 12.025-52.112 28.728-73.491 16.702-22.047 38.75-38.75 63.47-47.435 26.055-9.353 52.779-8.685 75.494 2.004zm4.009-5.344c-47.435-22.716-109.568 0-145.645 47.434-36.746 47.435-42.09 113.577-8.018 152.995 41.422 48.103 122.93 40.086 173.706-26.056 50.775-66.142 36.745-146.981-20.043-174.373z" fill="url(#paint0_linear_118_6277)"/><path d="M175.375 177.979c2.004-2.004 3.34-4.008 4.677-6.013l6.013 4.677c-2.005 2.004-3.341 4.677-5.345 6.681l-5.345-5.345zm-1.994 2.673l.668-1.337 6.013 6.013-1.336.668-5.345-5.344zm-3.34 3.34l2.004-2.004 5.345 6.013-2.004 1.336-5.345-5.345zm-16.039 14.03l2.004-2.004 4.677 6.681-2.004 2.004-4.677-6.681zm-3.34 2.004l2.004-1.336 4.009 6.681-2.004 2.005-4.009-7.35zm17.367-14.03l.668-.668 4.677 6.013-.668.668-4.677-6.013zm-30.73 22.048h.668l3.34 7.349-1.336.668-2.672-8.017zm-4.006 2.004l2.004-.668 2.673 7.349-2.005 1.336-2.672-8.017zm-2.674 1.336h.668l2.673 7.349-1.337.668-2.004-8.017zm27.391-16.702c2.672-2.005 5.345-4.677 8.017-7.349l5.345 6.012c-2.673 2.673-6.013 5.345-8.686 7.349l-4.676-6.012zm-18.035 12.025c1.336-.668 3.34-1.336 4.676-2.672l4.677-2.672 4.009 6.681-4.677 2.672c-1.336.668-3.341 2.004-4.677 2.672l-4.008-6.681z" fill="#BC2EFF"/><path d="M123.939 214.057c2.005-.668 4.677-1.337 6.681-2.673l2.005 7.349c-2.005 1.337-4.677 2.005-7.349 2.673l-1.337-7.349zm-2.673.668h.668l2.004 8.017h-1.336l-1.336-8.017zm-4.006 1.336c.668 0 1.336-.668 2.004-.668l1.336 8.017c-.668 0-1.336.668-2.672.668l-.668-8.017zm-18.033 3.34h2.004v8.018h-2.004v-8.018zm-4.02.668h2.004v8.018h-2.004v-8.018zm19.375-3.34h.668l.668 8.017h-.668l-.668-8.017zm-32.734 2.672h.668l-1.336 8.018h-.668l1.336-8.018zm-3.338 0h2.004l-1.336 8.018-2.672-.668 2.004-7.35zm-2.674-.668h.668l-2.004 8.018h-.668l2.004-8.018zm27.396.668l4.677-.668 4.677-1.336.668 8.017-5.345 1.336-4.677.669v-8.018zm-18.708.668h8.685l-.668 8.018h-9.353l1.336-8.018zm-14.711-2.672l2.672.668c.669 0 2.005.668 2.673.668l-2.004 8.018c-1.337 0-2.005-.669-3.34-.669l-3.341-.668 3.34-8.017zm-2.67-.668h1.336l-2.672 8.017-.668-.668 2.004-7.349zm-3.349-1.336c.668 0 1.336.668 2.004.668l-2.673 7.349c-.668 0-1.336-.668-2.004-.668l2.672-7.349zm-14.028-6.681l2.005 1.336-3.34 6.681-2.005-.668 3.34-7.349zm-2.674-1.336c.669.668 1.337.668 1.337 1.336l-3.34 6.681c-.669-.668-1.337-.668-1.337-1.336l3.34-6.681zm14.705 7.349h.669l-2.673 7.349h-.668l2.672-7.349zm-23.392-14.698l.668.668-4.008 6.013-.668-.669 4.008-6.012zm-2.662-2.673l1.336 1.336-4.008 6.013-1.337-1.336 4.009-6.013zm-1.342-1.336l.668.668-4.676 5.345h-.668l4.676-6.013zm18.711 14.698c1.336.668 2.004 1.336 3.34 2.004l3.341 1.337-2.672 7.349-4.009-2.005-4.009-2.004 4.01-6.681zm-13.362-9.353c.669.668 2.005 1.336 2.673 2.672l1.337 1.336 1.336 1.336-3.34 6.681-2.005-1.336-1.336-1.336c-1.337-.668-2.005-2.004-3.34-2.672l4.676-6.681z" fill="#BC2EFF"/><path d="M31.06 192.009c1.336 1.336 2.004 2.673 3.34 4.009l-4.009 5.345c-1.336-1.337-2.672-2.673-3.34-4.677l4.008-4.677zm-1.33-2.004v.668l-4.677 5.345v-.668l4.676-5.345zm-2.01-2.672l.668 1.336-4.677 5.344-.668-2.004 4.677-4.676zm-7.346-12.694l.668 1.336-4.677 4.009-.668-1.337 4.677-4.008zm-.676-3.341v2.005l-4.676 4.008-.668-2.004 5.344-4.009zm6.692 14.03v.668l-4.677 4.677v-.668l4.677-4.677zm-10.7-24.719l.668.668-5.344 3.34v-1.336l4.676-2.672zm-.666-3.341l.668 2.004-5.344 2.673v-2.004l4.676-2.673zm.002-2.004v.668l-5.344 2.672v-.668l5.344-2.672zm6.68 22.047c1.336 2.004 2.004 4.677 3.34 6.681l-4.676 4.677c-1.336-2.005-2.672-4.677-4.009-7.349l5.345-4.009zm-5.348-14.698c.668 1.336.669 2.672 1.337 4.009l1.336 3.34-5.345 4.009-1.336-4.009c-.668-1.336-.668-2.672-1.336-4.008l5.344-3.341zm-1.994-13.362c0 2.004.668 3.341.668 5.345l-5.344 2.672c-.668-2.004-.668-4.008-.668-6.013l5.344-2.004zm-.668-2.004v.668l-4.676 2.004v-.668l4.676-2.004zm.002-3.341v2.005l-5.344 2.004v-2.004l5.344-2.005zm.666-15.366l-.668 2.004-4.676.669v-2.005l5.344-.668zm0-3.34v2.004l-5.344.668v-2.004l5.344-.668zm-.666 16.034v.668l-5.344 2.004v-.668l5.344-2.004zm2.674-28.06v.668h-4.677v-.668h4.677zm.668-3.341v2.005h-5.345l.668-2.005h4.677zm.662-2.004v.668h-4.677v-.668h4.677zm-4.004 24.052v8.017l-5.344 1.336v-8.017l5.344-1.336zm2.002-16.035c-.668 2.673-.668 5.345-1.336 8.017l-5.344.669c.668-2.673.668-5.345 1.336-8.018l5.345-.668zm4.018-13.362l-.668 2.673c0 .668-.668 2.004-.668 2.672h-4.677c0-.668.668-2.004.668-2.672l.668-2.673h4.677zm.672-2.672v.668l-4.677-.668v-.668l4.677.668zm1.334-3.341c0 .668-.668 1.337-.668 2.005l-4.677-.668c0-.669.668-1.337.668-2.005l4.677.668zm6.681-14.03l-.668 1.336-4.676-1.336 1.336-2.004 4.008 2.004zm1.33-3.341c0 .669-.668 1.337-.668 2.005L25.06 79.1c0-.668.668-1.337.668-2.005l4.008 2.005zm-7.347 15.367v.668l-4.677-1.336h.668l4.009.668zM36.426 69.08l-.668.667-3.34-2.672.668-.668 3.34 2.672zm1.999-3.341l-.668 2.004-4.009-2.672 1.336-1.337 3.34 2.005zm1.337-1.336l-3.34-2.673 3.34 2.673zm-13.368 20.71c-.668 1.337-1.336 2.673-2.004 3.34l-1.336 4.01-4.677-1.337 2.004-4.008 2.005-4.009 4.008 2.004zm8.692-14.029c-.668 1.336-1.337 2.004-2.005 3.34l-1.336 2.004-1.336 2.005-4.009-2.005 1.337-2.004 1.336-2.004c.668-1.337 1.336-2.673 2.672-3.34l3.34 2.004zm8.681-11.358c-1.336 1.336-2.673 3.34-3.34 4.677l-3.341-2.673c1.336-1.336 2.672-3.34 4.008-4.676l2.673 2.672zm1.331-2.004v.668l-3.34-3.34.668-.669 2.672 3.34zm2.68-2.672l-1.336 1.336-3.34-3.341 2.004-1.336 2.672 3.34zm11.35-11.358l-1.337 1.336-2.672-3.34 2.005-1.337 2.004 3.34zm2.673-2.005l-1.336 1.337-2.672-4.009 2.004-1.336 2.005 4.008zM49.116 53.045v.668l-3.34-3.34.667-.668 2.673 3.34zm22.717-18.707l-.668.668-2.005-4.008.668-.668 2.005 4.008zm2.664-1.336l-1.337.668-2.004-4.676 2.004-.668 1.337 4.676zm2.003-1.336h-.668l-1.336-4.677h.668l1.336 4.677zM56.457 46.364c-2.005 2.004-4.009 4.009-6.013 5.345l-2.672-3.34 6.012-6.014 2.673 4.009zM69.82 35.675c-1.336.668-2.004 1.336-3.34 2.672l-3.341 2.672-2.004-4.008 3.34-2.673c1.337-.668 2.005-1.336 3.34-2.672l2.005 4.009z" fill="#BC2EFF"/><path d="M81.175 28.994c-1.336.668-3.34 2.004-4.677 2.672l-1.336-4.677c2.004-1.336 3.34-2.004 5.345-2.672l.668 4.677zm2.671-1.337h-.668l-1.336-4.677h.668l1.336 4.677zm2.678-2.004c-.668 0-1.336.668-2.004.668l-.668-4.677c.668 0 1.336-.668 2.004-.668l.668 4.677zm14.691-5.345l-2.004.668v-5.344l2.004-.668v5.344zm3.342-.668l-2.004.668v-6.013h2.004v5.345zm-15.363 5.345h-.669l-.668-4.677h.668l.669 4.677zm26.722-8.017h-.668l.668-5.345h.668l-.668 5.345zm3.346-.668l-2.004.668 1.336-6.013h1.336l-.668 5.345zm2.004 0h-.668l1.336-5.345.668-.668-1.336 6.013zm-23.393 5.344l-4.009 1.337-3.34 1.336-.668-5.345 4.008-1.336 4.009-1.337v5.345zm15.367-4.008c-2.673.668-5.345 1.336-7.349 1.336l.668-5.345 8.017-2.004-1.336 6.013z" fill="#BC2EFF"/><path d="M126.608 16.3h-5.344l1.336-6.013h5.345l-1.337 6.013zm2.671-.668h-.668l1.337-5.345h1.336l-2.005 5.345zm3.344 0h-2.004l2.004-6.013h2.005l-2.005 6.013zm14.694 2.004h-2.005l3.341-6.013h1.336l-2.672 6.013zm2.674.668c-.669 0-1.337 0-2.005-.668l3.341-6.013c.668 0 1.336 0 2.004.668l-3.34 6.013zM134.627 16.3h-.668l2.004-6.013h.668l-2.004 6.013zm26.061 6.013l-.668-.669 4.008-5.344h.668l-4.008 6.012zm3.33 1.336l-1.336-.668 4.008-6.013 1.336.668-4.008 6.013zm2.006.668h-.669l4.677-6.013v.668l-4.008 5.345zm-22.05-7.349c-1.336 0-2.672-.668-4.008-.668l-4.009-.668 2.004-6.013 4.009.668c1.336 0 2.672.668 4.008.668l-2.004 6.013zm14.699 4.008c-1.336-.668-2.672-.668-3.34-1.336l-2.005-.668h-1.336l3.341-6.013 2.004.668 2.004.668c1.336.668 2.673.668 4.009 1.337l-4.677 5.344z" fill="#BC2EFF"/><path d="M170.696 26.99c-1.336-.669-3.34-2.005-4.676-2.673l4.008-5.345c1.336.668 3.341 2.004 5.345 2.672l-4.677 5.345zm2.007 1.335h-.668l4.677-6.013.668.668-4.677 5.345zm2.664 2.005l-1.336-.668 4.677-6.013 2.004 1.336-5.345 5.345zm11.366 10.021l-1.337-1.336 6.013-4.677 1.337 1.336-6.013 4.677zm1.998 2.672l-1.336-1.336 6.012-4.676 1.337 1.336-6.013 4.676zm-11.358-11.357h-.668l5.345-5.345h.668l-5.345 5.345zm18.715 21.379l-.668-.668 6.681-4.009.668.668-6.681 4.009zm1.328 3.34l-.668-2.004 6.681-3.34 1.336 1.336-7.349 4.008zm1.346 2.005l-.668-.669 7.349-3.34v.668l-6.681 3.34zm-14.034-20.043c-2.005-2.005-4.009-3.34-6.013-5.345l5.345-5.345c2.004 2.004 4.008 3.34 6.012 5.345l-5.344 5.345zm10.017 12.693c-.668-1.335-1.336-2.672-2.004-3.34l-2.673-3.34 6.013-4.677 2.673 3.34c.668 1.337 1.336 2.673 2.672 3.341l-6.681 4.677zm6.021 13.363c-.668-2.005-1.336-4.009-2.672-5.345l6.681-3.34c.668 2.004 2.004 4.008 2.672 6.012l-6.681 2.673zm1.338 2.672l-.668-1.336 7.349-2.673.668.668-7.349 3.341zm1.33 3.34c0-.668-.668-1.336-.668-2.004l7.349-3.34c0 .668.668 1.336.668 2.004l-7.349 3.34zm3.34 17.371l-.669-2.004 8.018-2.005v2.673l-7.349 1.336zm.009 4.008v-2.672l8.017-1.336v2.672l-8.017 1.337zm-2.672-18.706l-.668-.668 8.018-2.673v.668l-7.35 2.673zm2.672 33.405v-.668l8.017-.669v1.337h-8.017zm-.678 4.008v-2.004l8.018-.668v2.672h-8.018zm-.664 2.673l.669-.668 8.017.668-.668.668-8.018-.668zm.673-29.397l-.668-4.676-1.337-4.009 8.018-2.672.668 4.676 1.336 4.677-8.017 2.004zm.669 19.375v-9.353l8.017-1.336v10.689h-8.017z" fill="#BC2EFF"/><path d="M204.777 120.523l.668-3.341c0-1.336.669-2.672.669-3.34h8.017c0 1.336-.668 2.672-.668 4.008l-.668 4.009-8.018-1.336zm-1.332 3.34l.668-1.336 8.018 1.336-.669.668-8.017-.668zm-.664 4.009c0-.668.668-1.336.668-2.672l8.017 1.336c0 .668-.668 2.004-.668 2.672l-8.017-1.336zm-7.359 19.375l1.336-2.004 7.349 2.672-1.336 2.672-7.349-3.34zm-1.998 4.008c.668-.668.668-1.336 1.336-2.004l7.349 2.672c-.668.669-.668 1.337-1.336 2.673l-7.349-3.341zm8.012-20.043l.668-.668 8.017 1.337-.668.668-8.017-1.337zM185.4 165.286l.669-.669 6.012 4.009-.668 1.336-6.013-4.676zm-3.339 4.008l2.004-2.004 6.013 4.676-1.336 2.005-6.681-4.677zm-1.332 2.673v-.669l6.68 4.677-.668.668-6.012-4.676zm16.701-28.729c.668-1.336 1.336-3.34 2.004-4.676l2.004-4.677 8.017 2.004-2.004 5.345c-.668 2.004-1.336 3.34-2.004 5.345l-8.017-3.341zm-10.686 19.375c1.336-1.336 2.004-3.34 2.673-4.677l1.336-2.004 1.336-2.672 7.349 3.34-1.336 2.673-1.336 2.672c-1.337 2.004-2.005 3.34-3.341 4.677l-6.681-4.009zM37.742 193.346l-.668-.669c-2.004-2.004-3.34-4.676-5.344-6.681l-.669-.668 2.005-2.004.668.668c1.336 2.004 3.34 4.009 4.676 6.681l.669.668-1.337 2.005zm4.009 4.676l1.336-2.672.668.668c2.005 2.004 4.009 3.34 6.681 4.677l.668.668-1.336 2.672-.668-.668c-2.672-1.336-4.677-3.341-6.68-5.345h-.669zm-14.03-18.038l-.668-.669c-1.336-2.672-2.672-4.676-4.009-7.349l-.668-1.336 2.005-1.336.668 1.336c1.336 2.673 2.004 4.677 4.008 7.349l.668.668-2.004 1.337zm28.06 27.392l1.336-2.673 1.337.668c2.672 1.336 5.344 2.005 8.017 3.341l1.336.668-.668 2.672-1.337-.668c-2.672-.668-5.344-2.004-8.017-3.34l-2.004-.668zM21.04 165.285l-.668-1.336-2.004-8.017v-1.336l2.004-1.336v1.336l2.004 8.017.668 1.336-2.004 1.336zm51.444 48.103l.668-2.672h1.336c2.672.668 6.013 1.336 8.685 1.336h1.336l-.668 3.341h-1.336c-3.34 0-6.013-.668-9.353-1.336l-.668-.669zM17.03 149.251v-1.336c-.668-2.673-.668-5.345-.668-8.685v-1.337l2.005-.668v1.337c0 2.672 0 5.344.668 8.017v1.336l-2.005 1.336zm74.16 66.142v-3.341h1.335c3.34 0 6.681-.668 9.354-.668h1.336v3.341h-1.336c-3.34.668-6.681.668-10.022.668h-.668zm-74.828-83.512v-1.337c0-2.672.668-6.013.668-8.685v-1.336h2.005v1.336c-.668 2.672-.668 5.345-.668 8.685v1.337h-2.005zm94.87 81.507l-.668-3.34 1.336-.668c3.341-.668 6.681-2.004 10.022-2.673l1.336-.668.668 2.673-1.336.668c-3.341 1.336-6.681 2.004-10.022 3.34l-1.336.668zm-92.197-98.21v-1.336c.668-2.673 1.336-5.345 2.672-8.685l.668-1.337h2.005l-.669 1.337-2.004 8.017v1.336l-2.672.668zm112.24 90.861l-.668-2.672 1.336-.668c3.341-1.336 6.681-3.341 9.354-5.345l1.336-.668 1.336 2.672-1.336.668c-3.341 2.005-6.681 4.009-10.022 5.345l-1.336.668zM23.712 97.808l.669-1.337c1.336-2.672 2.004-5.344 3.34-8.017l.668-1.336 2.004.668-.668 1.336c-1.336 2.673-2.672 5.345-3.34 8.017l-.668 1.337-2.005-.668zm126.939 96.874l-1.336-2.673 1.336-.668c2.672-2.004 6.013-4.676 8.685-7.349l1.336-1.336 2.005 2.004-1.336 1.336c-2.673 2.673-6.013 5.345-8.686 7.35l-2.004 1.336zM31.73 81.773l.668-1.336c1.336-2.672 3.34-5.345 4.676-7.35l.668-1.335 1.337.668-.669 1.336c-1.336 2.672-3.34 4.677-4.676 7.35l-.668 1.335-1.336-.668zm136.292 97.542l-2.005-2.004 1.336-1.336c2.673-2.672 5.345-6.013 7.35-8.685l1.336-1.336 2.672 2.004-1.336 1.336c-2.672 3.34-4.677 6.013-7.349 9.353l-2.004.668zM41.751 67.075l.668-1.336c2.004-2.005 4.009-4.677 5.345-6.681l.668-.668 1.336 1.336-.668.668c-2.004 2.004-4.008 4.677-5.345 6.681l-.668.668-1.336-.668zm138.296 92.198l.668-1.337c2.005-3.34 4.009-6.681 5.345-10.021l.668-1.336 2.673 1.336-.668 1.336-6.013 10.022-.668 1.336-2.005-1.336zM54.445 54.381l-1.336-1.336.668-.668c2.004-2.004 4.008-4.009 6.68-6.013l.669-.668.668 1.336-.668.668c-2.004 2.005-4.009 4.009-6.681 6.013v.668zm136.292 84.849l.668-1.337c1.336-3.34 2.672-6.681 3.34-10.689l.669-1.336h3.34l-.668 1.336c-1.336 3.34-2.004 7.349-4.009 10.689l-.668 1.337h-2.672zM67.139 43.024l-.668-1.337.668-.668c2.672-2.004 4.676-3.34 7.349-5.345l1.336-.668.668 2.005-1.336.668c-2.672 1.336-4.677 3.34-7.35 4.676l-.667.669zm130.279 74.826v-1.336c.668-3.34 1.336-6.681 1.336-10.689v-1.336h3.341v1.336c0 3.34-.669 7.349-1.337 10.689v1.336h-3.34zM81.837 33.67l-.668-2.004 1.336-.668 8.017-4.009 1.336-.668v2.004l-1.336.669c-2.672 1.336-5.345 2.672-7.349 4.008l-1.336.668zm117.585 63.47v-1.337c0-3.34 0-6.68-.668-10.021v-1.336l2.672-.668v1.336c.668 3.34.669 6.68.669 10.021v1.336l-2.673.668zM97.203 26.32v-2.004l1.336-.668c2.673-.668 5.345-2.005 8.017-2.673h1.337v2.005h-1.337l-8.017 2.004-1.336 1.336zm100.215 51.444v-1.337c-.668-3.34-1.336-6.013-2.673-8.685l-.668-1.336 2.673-1.336.668 1.336c1.336 2.672 2.004 6.013 2.672 9.353v1.337l-2.672.668zm-84.181-55.453l.669-2.004h1.336c2.672-.668 5.345-.668 8.685-.668h1.336l-.668 2.004h-1.336c-2.672 0-5.345.669-8.017.669h-2.005zm77.5 38.082l-.668-1.336c-1.336-2.672-2.673-5.345-4.677-7.35l-.668-.667 2.672-2.005.668.669c1.337 2.672 3.341 5.344 4.677 8.017l.668 1.336-2.672 1.336zm-61.465-38.75l.668-2.004h1.336c2.673 0 5.345.668 8.017.668h1.337l-1.337 2.005h-1.336c-2.672-.669-5.345-.669-8.017-.669h-.668zm52.111 24.052l-.668-.668-6.012-6.013-.669-.668 2.005-2.005.668.669 6.013 6.012.668.669-2.005 2.004zm-36.077-21.38l1.336-2.003h1.337c2.672.668 5.344 1.336 8.017 2.672l1.336.668-1.336 2.004-1.336-.668c-2.673-.668-5.345-2.004-8.018-2.672h-1.336zm24.052 10.69l-.668-.668c-2.005-1.336-4.677-2.672-6.681-4.008l-1.337-.668 1.337-2.005 1.336.668c2.672 1.337 4.676 2.673 6.681 4.009l.668.668-1.336 2.004z" fill="#BC2EFF"/><path d="M195.417 183.324c-50.107 65.474-130.28 72.823-171.033 26.056C-9.69 170.63-3.676 105.157 32.4 58.39c36.077-46.767 97.542-69.483 144.309-46.767 55.452 26.724 68.814 106.227 18.707 171.701z" fill="url(#paint1_radial_118_6277)"/><path d="M195.417 183.324c-50.107 65.474-130.28 72.823-171.033 26.056C-9.69 170.63-3.676 105.157 32.4 58.39c36.077-46.767 97.542-69.483 144.309-46.767 55.452 26.724 68.814 106.227 18.707 171.701z" fill="url(#paint2_radial_118_6277)"/><defs><radialGradient id="paint1_radial_118_6277" cx="0" cy="0" r="1" gradientUnits="userSpaceOnUse" gradientTransform="matrix(89.44867 68.61406 -71.24033 92.8724 113.68 120.626)"><stop offset=".224" stop-color="#B5B5B5"/><stop offset=".377" stop-color="#B2B2B2"/><stop offset=".478" stop-color="#A9A9A9"/><stop offset=".565" stop-color="#9A9A9A"/><stop offset=".643" stop-color="#858585"/><stop offset=".715" stop-color="#696969"/><stop offset=".784" stop-color="#484848"/><stop offset=".847" stop-color="#202020"/><stop offset=".892"/></radialGradient><radialGradient id="paint2_radial_118_6277" cx="0" cy="0" r="1" gradientUnits="userSpaceOnUse" gradientTransform="matrix(89.44867 68.61406 -71.24033 92.8724 113.68 120.626)"><stop offset=".224" stop-color="#B5B5B5"/><stop offset=".377" stop-color="#B2B2B2"/><stop offset=".478" stop-color="#A9A9A9"/><stop offset=".565" stop-color="#9A9A9A"/><stop offset=".643" stop-color="#858585"/><stop offset=".715" stop-color="#696969"/><stop offset=".784" stop-color="#484848"/><stop offset=".847" stop-color="#202020"/><stop offset=".892"/></radialGradient><linearGradient id="paint0_linear_118_6277" x1="114.587" y1="37.033" x2="114.406" y2="239.772" gradientUnits="userSpaceOnUse"><stop offset=".006" stop-color="#BE46E8"/><stop offset=".726" stop-color="#570994"/></linearGradient></defs></svg>